<svg width="36" height="32" viewBox="0 0 36 32" fill="none" xmlns="http://www.w3.org/2000/svg">
<path d="M17.88 1H24.44C24.6846 1.01429 24.9155 1.11791 25.0888 1.29119C25.2621 1.46448 25.3657 1.69536 25.38 1.94V4.75C25.3657 4.99464 25.2621 5.22552 25.0888 5.39881C24.9155 5.57209 24.6846 5.67571 24.44 5.69H19.75V6.6L25.04 10.38H31.04C32.0328 10.38 32.9851 10.7737 33.6881 11.4748C34.3911 12.1759 34.7874 13.1272 34.79 14.12V27.25C34.79 27.7458 34.6917 28.2368 34.5008 28.6944C34.3098 29.152 34.03 29.5671 33.6775 29.9159C33.3251 30.2646 32.9069 30.54 32.4473 30.7261C31.9878 30.9122 31.4958 31.0053 31 31H20.69V24.44C20.7129 24.0562 20.6571 23.6718 20.5259 23.3104C20.3948 22.949 20.1912 22.6182 19.9275 22.3384C19.6639 22.0585 19.3458 21.8356 18.9928 21.6832C18.6399 21.5308 18.2595 21.4521 17.875 21.4521C17.4905 21.4521 17.1101 21.5308 16.7572 21.6832C16.4042 21.8356 16.0861 22.0585 15.8225 22.3384C15.5588 22.6182 15.3552 22.949 15.2241 23.3104C15.0929 23.6718 15.0371 24.0562 15.06 24.44V31H4.75C3.75544 31 2.80161 30.6049 2.09835 29.9017C1.39509 29.1984 1 28.2446 1 27.25V14.12C1.00265 13.1272 1.3989 12.1759 2.10188 11.4748C2.80485 10.7737 3.75717 10.38 4.75 10.38H10.75L16 6.6V2.88C16 2.38139 16.1981 1.90321 16.5506 1.55064C16.9032 1.19807 17.3814 1 17.88 1V1Z" stroke="#040000" stroke-miterlimit="10"/>
<path d="M17.8803 17.87C19.4322 17.87 20.6903 16.6119 20.6903 15.06C20.6903 13.5081 19.4322 12.25 17.8803 12.25C16.3284 12.25 15.0703 13.5081 15.0703 15.06C15.0703 16.6119 16.3284 17.87 17.8803 17.87Z" stroke="#040000" stroke-miterlimit="10"/>
<path d="M7.56 14.1299H5.69C5.17085 14.1299 4.75 14.5507 4.75 15.0699V18.8199C4.75 19.339 5.17085 19.7599 5.69 19.7599H7.56C8.07915 19.7599 8.5 19.339 8.5 18.8199V15.0699C8.5 14.5507 8.07915 14.1299 7.56 14.1299Z" stroke="#040000" stroke-miterlimit="10"/>
<path d="M30.06 14.1299H28.19C27.6709 14.1299 27.25 14.5507 27.25 15.0699V18.8199C27.25 19.339 27.6709 19.7599 28.19 19.7599H30.06C30.5791 19.7599 31 19.339 31 18.8199V15.0699C31 14.5507 30.5791 14.1299 30.06 14.1299Z" stroke="#040000" stroke-miterlimit="10"/>
<path d="M7.56 21.6299H5.69C5.17085 21.6299 4.75 22.0507 4.75 22.5699V26.3199C4.75 26.839 5.17085 27.2599 5.69 27.2599H7.56C8.07915 27.2599 8.5 26.839 8.5 26.3199V22.5699C8.5 22.0507 8.07915 21.6299 7.56 21.6299Z" stroke="#040000" stroke-miterlimit="10"/>
<path d="M30.06 21.6299H28.19C27.6709 21.6299 27.25 22.0507 27.25 22.5699V26.3199C27.25 26.839 27.6709 27.2599 28.19 27.2599H30.06C30.5791 27.2599 31 26.839 31 26.3199V22.5699C31 22.0507 30.5791 21.6299 30.06 21.6299Z" stroke="#040000" stroke-miterlimit="10"/>
</svg>
