<svg width="27" height="27" viewBox="0 0 27 27" fill="none" xmlns="http://www.w3.org/2000/svg">
<path d="M15.9512 21.082C16.1161 21.0847 16.2798 21.0543 16.4327 20.9924C16.5856 20.9305 16.7245 20.8386 16.8411 20.7219C16.9577 20.6053 17.0497 20.4664 17.1115 20.3136C17.1734 20.1607 17.2039 19.9969 17.2012 19.832V17.332C17.2012 17.0005 17.0695 16.6826 16.8351 16.4481C16.6006 16.2137 16.2827 16.082 15.9512 16.082C15.6205 16.0846 15.304 16.2172 15.0702 16.451C14.8363 16.6849 14.7038 17.0013 14.7012 17.332V19.832C14.7012 20.1636 14.8329 20.4815 15.0673 20.7159C15.3017 20.9503 15.6197 21.082 15.9512 21.082Z" fill="#040000"/>
<path d="M10.9512 21.082C11.1161 21.0847 11.2798 21.0543 11.4327 20.9924C11.5856 20.9305 11.7245 20.8386 11.8411 20.7219C11.9577 20.6053 12.0497 20.4664 12.1115 20.3136C12.1734 20.1607 12.2039 19.9969 12.2012 19.832V17.332C12.2012 17.0005 12.0695 16.6826 11.8351 16.4481C11.6006 16.2137 11.2827 16.082 10.9512 16.082C10.6205 16.0846 10.304 16.2172 10.0702 16.451C9.83632 16.6849 9.70379 17.0013 9.70117 17.332V19.832C9.70117 20.1636 9.83287 20.4815 10.0673 20.7159C10.3017 20.9503 10.6197 21.082 10.9512 21.082Z" fill="#040000"/>
<path d="M22.2016 6.08155H20.5116L18.3216 1.77155C18.2521 1.61462 18.1537 1.47215 18.0316 1.35155C17.9053 1.23191 17.7555 1.13995 17.5916 1.08155C17.4324 1.02021 17.262 0.992954 17.0916 1.00155C16.9216 1.01402 16.7554 1.05811 16.6016 1.13155C16.4478 1.2097 16.3116 1.31862 16.2016 1.45155C16.0947 1.58559 16.0134 1.73812 15.9616 1.90155C15.9268 2.06977 15.9268 2.24333 15.9616 2.41155C15.9817 2.58224 16.0398 2.74626 16.1316 2.89155L17.7216 6.08155H9.2316L10.8216 2.89155C10.9369 2.59918 10.9369 2.27392 10.8216 1.98155C10.7188 1.68795 10.5078 1.44471 10.2316 1.30155C9.94892 1.16322 9.62589 1.13127 9.3216 1.21155C9.01592 1.29862 8.75488 1.49886 8.59159 1.77155L6.43159 6.08155H4.70159C3.81885 6.0993 2.97001 6.42469 2.30159 7.00155C1.80319 7.43117 1.42661 7.98438 1.20967 8.6056C0.992725 9.22683 0.943066 9.8942 1.06568 10.5407C1.18829 11.1872 1.47885 11.79 1.90818 12.2887C2.33751 12.7873 2.8905 13.1642 3.51159 13.3815L4.51159 22.7115C4.60385 23.6397 5.03961 24.4999 5.73338 25.1234C6.42715 25.7469 7.32886 26.0886 8.26159 26.0815H18.7016C19.6343 26.0886 20.536 25.7469 21.2298 25.1234C21.9236 24.4999 22.3593 23.6397 22.4516 22.7115L23.3816 13.3815C24.2204 13.0961 24.931 12.5229 25.3875 11.7636C25.844 11.0042 26.0169 10.1077 25.8755 9.23305C25.7342 8.35838 25.2876 7.56202 24.6151 6.98515C23.9426 6.40828 23.0876 6.08816 22.2016 6.08155V6.08155Z" stroke="#040000" stroke-miterlimit="10"/>
<path d="M19.942 22.5011C19.9098 22.8096 19.764 23.0951 19.533 23.3021C19.3019 23.5091 19.0022 23.6228 18.692 23.6211H8.22203C7.9086 23.6248 7.60522 23.5106 7.37203 23.3011C7.14303 23.0941 7.00025 22.8085 6.97203 22.5011L6.08203 13.6211H20.832L19.942 22.5011Z" stroke="#040000" stroke-miterlimit="10"/>
<path d="M22.2012 11.082H4.70117C4.36965 11.082 4.05171 10.9503 3.81729 10.7159C3.58287 10.4815 3.45117 10.1636 3.45117 9.83203C3.45379 9.50132 3.58632 9.18489 3.82018 8.95104C4.05403 8.71718 4.37046 8.58465 4.70117 8.58203H22.2012C22.5327 8.58203 22.8506 8.71373 23.0851 8.94815C23.3195 9.18257 23.4512 9.50051 23.4512 9.83203C23.4539 9.99693 23.4234 10.1607 23.3615 10.3136C23.2997 10.4664 23.2077 10.6053 23.0911 10.7219C22.9745 10.8386 22.8356 10.9305 22.6827 10.9924C22.5298 11.0542 22.3661 11.0847 22.2012 11.082V11.082Z" stroke="#040000" stroke-miterlimit="10"/>
</svg>
