<svg width="25" height="27" viewBox="0 0 25 27" fill="none" xmlns="http://www.w3.org/2000/svg">
<path d="M16.2402 19.75H17.4902C17.8218 19.75 18.1397 19.6183 18.3741 19.3839C18.6085 19.1495 18.7402 18.8315 18.7402 18.5C18.7402 18.1685 18.6085 17.8505 18.3741 17.6161C18.1397 17.3817 17.8218 17.25 17.4902 17.25H16.2402C15.9087 17.25 15.5908 17.3817 15.3564 17.6161C15.1219 17.8505 14.9902 18.1685 14.9902 18.5C14.9902 18.8315 15.1219 19.1495 15.3564 19.3839C15.5908 19.6183 15.9087 19.75 16.2402 19.75Z" fill="#040000"/>
<path d="M23.7298 19.75V9.75001C23.7272 8.75798 23.3326 7.80719 22.6321 7.10479C21.9316 6.40238 20.9818 6.00528 19.9898 6.00001H13.7298V3.50001H18.7298C18.8939 3.50066 19.0563 3.46823 19.2075 3.40465C19.3587 3.34108 19.4956 3.24767 19.6098 3.13001C19.7272 3.01544 19.8204 2.87857 19.884 2.72744C19.9477 2.57632 19.9805 2.41399 19.9805 2.25001C19.9805 2.08603 19.9477 1.9237 19.884 1.77258C19.8204 1.62145 19.7272 1.48458 19.6098 1.37001C19.4956 1.25235 19.3587 1.15894 19.2075 1.09536C19.0563 1.03179 18.8939 0.99936 18.7298 1.00001H6.23983C5.90831 1.00001 5.59037 1.13171 5.35595 1.36613C5.12153 1.60055 4.98983 1.91849 4.98983 2.25001C4.98983 2.58153 5.12153 2.89947 5.35595 3.13389C5.59037 3.36831 5.90831 3.50001 6.23983 3.50001H11.2398V6.00001H4.98983C3.99608 6.00265 3.04379 6.39858 2.3411 7.10127C1.63841 7.80397 1.24247 8.75626 1.23983 9.75001V19.75C1.24147 20.3302 1.37843 20.902 1.63983 21.42C1.89467 21.9394 2.26805 22.3915 2.72983 22.74L1.59983 23.86C1.48298 23.977 1.39112 24.1165 1.32983 24.27C1.25793 24.4269 1.2207 24.5974 1.2207 24.77C1.2207 24.9426 1.25793 25.1131 1.32983 25.27C1.39112 25.4236 1.48298 25.563 1.59983 25.68C1.71764 25.7958 1.85691 25.8875 2.00983 25.95C2.16197 26.0137 2.32491 26.0477 2.48983 26.05C2.65465 26.0467 2.81741 26.0128 2.96983 25.95C3.11969 25.8873 3.25564 25.7955 3.36983 25.68L5.49983 23.5H19.4998L21.6298 25.64C21.7476 25.7558 21.8869 25.8475 22.0398 25.91C22.192 25.9737 22.3549 26.0077 22.5198 26.01C22.6846 26.0067 22.8474 25.9728 22.9998 25.91C23.1497 25.8473 23.2856 25.7555 23.3998 25.64C23.5165 25.5208 23.6113 25.3821 23.6798 25.23C23.8099 24.9094 23.8099 24.5507 23.6798 24.23C23.6113 24.078 23.5165 23.9392 23.3998 23.82L22.2698 22.7C22.7325 22.3498 23.1088 21.8982 23.3698 21.38C23.6114 20.8708 23.7345 20.3136 23.7298 19.75V19.75Z" stroke="#040000" stroke-miterlimit="10"/>
<path d="M7.49023 19.75H8.73023C9.06175 19.75 9.3797 19.6183 9.61412 19.3839C9.84854 19.1495 9.98023 18.8315 9.98023 18.5C9.98023 18.1685 9.84854 17.8505 9.61412 17.6161C9.3797 17.3817 9.06175 17.25 8.73023 17.25H7.49023C7.15871 17.25 6.84077 17.3817 6.60635 17.6161C6.37193 17.8505 6.24023 18.1685 6.24023 18.5C6.24023 18.8315 6.37193 19.1495 6.60635 19.3839C6.84077 19.6183 7.15871 19.75 7.49023 19.75Z" fill="#040000"/>
<path d="M1 14.75H23.39" stroke="#040000" stroke-miterlimit="10"/>
<path d="M12.4902 6.0498V14.7498" stroke="#040000" stroke-miterlimit="10"/>
<path d="M13.7402 6H11.2402" stroke="#040000" stroke-miterlimit="10"/>
</svg>
