<svg width="27" height="30" viewBox="0 0 27 30" fill="none" xmlns="http://www.w3.org/2000/svg">
<path d="M18.93 23.3901C19.3058 23.3879 19.6654 23.2369 19.93 22.9701C20.064 22.8404 20.1702 22.6849 20.2424 22.5131C20.3146 22.3412 20.3512 22.1565 20.35 21.9701V21.6901C20.3306 21.6001 20.3004 21.5128 20.26 21.4301C20.2309 21.3401 20.187 21.2556 20.13 21.1801L20 20.9601C19.8612 20.8371 19.7022 20.7389 19.53 20.6701C19.187 20.5306 18.8031 20.5306 18.46 20.6701C18.289 20.7412 18.1304 20.8391 17.99 20.9601L17.82 21.1801C17.767 21.258 17.7233 21.3419 17.69 21.4301C17.6485 21.5115 17.6215 21.5994 17.61 21.6901C17.6 21.7831 17.6 21.877 17.61 21.9701C17.61 22.3415 17.7554 22.6982 18.0153 22.9637C18.2751 23.2292 18.6287 23.3822 19 23.3901H18.93Z" fill="#040000"/>
<path d="M21.7601 1H4.76009C3.63292 1 2.55191 1.44777 1.75488 2.2448C0.957852 3.04183 0.510085 4.12283 0.510085 5.25V22.25C0.5093 22.9085 0.662636 23.5581 0.957827 24.1467C1.25302 24.7354 1.68187 25.2468 2.21009 25.64L0.920085 26.92C0.785569 27.0498 0.679939 27.2066 0.610085 27.38C0.538257 27.551 0.500876 27.7345 0.500085 27.92C0.49797 28.1187 0.535361 28.3159 0.610085 28.5C0.756966 28.847 1.03313 29.1231 1.38008 29.27C1.55459 29.3419 1.74137 29.3792 1.93008 29.38C2.30586 29.3778 2.66546 29.2268 2.93008 28.96L5.34009 26.5H21.1801L23.5901 28.93C23.7219 29.0622 23.8781 29.1675 24.0501 29.24C24.2227 29.3123 24.4079 29.3496 24.5951 29.3496C24.7822 29.3496 24.9675 29.3123 25.1401 29.24C25.487 29.0931 25.7632 28.817 25.9101 28.47C25.981 28.2952 26.0183 28.1086 26.0201 27.92C26.0193 27.7345 25.9819 27.551 25.9101 27.38C25.8402 27.2066 25.7346 27.0498 25.6001 26.92L24.3101 25.64C24.8365 25.2457 25.2634 24.7339 25.5568 24.1453C25.8502 23.5567 26.002 22.9077 26.0001 22.25V5.25C26.0001 4.12456 25.5537 3.04507 24.7588 2.24833C23.964 1.45158 22.8855 1.00265 21.7601 1V1Z" stroke="#040000" stroke-miterlimit="10"/>
<path d="M7.58961 23.3895C7.96367 23.3843 8.32079 23.2327 8.58438 22.9673C8.84796 22.7018 8.99703 22.3436 8.99961 21.9695C9.00961 21.8765 9.00961 21.7826 8.99961 21.6895C8.98485 21.5983 8.9544 21.5104 8.90961 21.4295C8.87984 21.3417 8.83955 21.2577 8.78961 21.1795L8.61961 20.9595C8.47928 20.8386 8.32064 20.7407 8.14961 20.6695C7.80324 20.5294 7.41598 20.5294 7.06961 20.6695C6.90048 20.7385 6.74478 20.8367 6.60961 20.9595L6.43961 21.1795C6.38267 21.2551 6.33873 21.3396 6.30961 21.4295C6.2476 21.507 6.20016 21.5951 6.16961 21.6895C6.15961 21.7826 6.15961 21.8765 6.16961 21.9695C6.16883 22.155 6.20464 22.3388 6.27499 22.5104C6.34535 22.682 6.44886 22.838 6.57961 22.9695C6.70907 23.107 6.86573 23.216 7.03961 23.2895C7.21092 23.3604 7.39423 23.3977 7.57961 23.3995L7.58961 23.3895Z" fill="#040000"/>
<path d="M1.12012 6.66992H26.0201" stroke="black" stroke-miterlimit="10"/>
<path d="M0.810547 18H25.7105" stroke="black" stroke-miterlimit="10"/>
<path d="M13.2598 6.95996V18" stroke="black" stroke-miterlimit="10"/>
</svg>
