<svg width="18" height="29" viewBox="0 0 18 29" fill="none" xmlns="http://www.w3.org/2000/svg">
<g clip-path="url(#clip0_2791_26236)">
<path d="M15.5202 0.5V13.93H1.74023V0.5H15.5202Z" stroke="black" stroke-miterlimit="10"/>
<path d="M17.19 28.0804V28.8504H0V28.0904H0.78C1.78 28.0904 1.69 28.1904 1.7 27.1404V21.8604H15.53V28.0804H17.19ZM6.81 23.0804V28.0804H10.4V23.0804H6.81ZM2.48 23.0804V28.0804H6.06V23.0804H2.48ZM14.77 23.0804H11.18V28.0004H14.77V23.0804Z" fill="black"/>
<path d="M11.1204 20.8498H16.5704V15.5098H0.650391V20.8498H11.1204Z" stroke="black" stroke-miterlimit="10"/>
<path d="M9.51027 6.64984V3.83984H7.28027V6.64984H9.51027Z" stroke="black" stroke-miterlimit="10"/>
<path d="M7.32031 5.2002H9.17031" stroke="black" stroke-miterlimit="10"/>
<path d="M5.39992 6.64984V3.83984H3.16992V6.64984H5.39992Z" stroke="black" stroke-miterlimit="10"/>
<path d="M3.21973 5.2002H5.06973" stroke="black" stroke-miterlimit="10"/>
<path d="M5.39992 11.2104V8.40039H3.16992V11.2104H5.39992Z" stroke="black" stroke-miterlimit="10"/>
<path d="M3.21973 9.75977H5.06973" stroke="black" stroke-miterlimit="10"/>
<path d="M9.51027 11.1596V8.34961H7.28027V11.1596H9.51027Z" stroke="black" stroke-miterlimit="10"/>
<path d="M7.32031 9.70996H9.17031" stroke="black" stroke-miterlimit="10"/>
<path d="M13.8599 11.1198V8.2998H11.6299V11.1198H13.8599Z" stroke="black" stroke-miterlimit="10"/>
<path d="M11.6797 9.66016H13.5197" stroke="black" stroke-miterlimit="10"/>
<path d="M13.8599 6.64984V3.83984H11.6299V6.64984H13.8599Z" stroke="black" stroke-miterlimit="10"/>
<path d="M11.6797 5.2002H13.5197" stroke="black" stroke-miterlimit="10"/>
<path d="M4.70043 18.8003C4.72508 18.9491 4.80674 19.0825 4.92809 19.1721C5.04944 19.2617 5.20094 19.3005 5.35043 19.2803C5.76043 19.2803 5.92043 19.0803 5.92043 18.8303C5.92043 18.5803 5.80043 18.4203 5.29043 18.2903C4.78043 18.1603 4.54043 17.9803 4.54043 17.6303C4.54043 17.2803 4.79043 17.0003 5.32043 17.0003C5.41585 16.9877 5.51282 16.9945 5.6056 17.02C5.69837 17.0456 5.78508 17.0895 5.8606 17.1492C5.93611 17.2089 5.9989 17.2831 6.04524 17.3674C6.09159 17.4518 6.12056 17.5445 6.13043 17.6403H5.88043C5.85826 17.5094 5.78687 17.3919 5.68089 17.312C5.57492 17.232 5.44237 17.1956 5.31043 17.2103C4.98043 17.2103 4.80043 17.3603 4.80043 17.6203C4.80043 17.8803 4.95043 17.9603 5.39043 18.0703C6.07043 18.2403 6.18043 18.5103 6.18043 18.8103C6.18043 19.1103 5.91043 19.4903 5.34043 19.4903C5.23599 19.5043 5.12981 19.4976 5.02798 19.4705C4.92615 19.4434 4.83067 19.3964 4.74704 19.3323C4.66342 19.2682 4.59328 19.1882 4.54066 19.0969C4.48804 19.0056 4.45398 18.9048 4.44043 18.8003H4.70043Z" fill="#231815" stroke="black" stroke-width="0.5" stroke-miterlimit="10"/>
<path d="M6.69043 17H6.93043V18H8.30043V17H8.55043V19.42H8.30043V18.29H6.93043V19.46H6.69043V17Z" fill="#231815" stroke="black" stroke-width="0.5" stroke-miterlimit="10"/>
<path d="M11.2701 18.23C11.2884 18.3873 11.2733 18.5466 11.226 18.6977C11.1787 18.8488 11.1002 18.9882 10.9956 19.107C10.8909 19.2258 10.7625 19.3213 10.6185 19.3873C10.4746 19.4533 10.3185 19.4883 10.1601 19.49C10.0045 19.4883 9.85087 19.4538 9.70936 19.3888C9.56786 19.3239 9.44161 19.2299 9.33881 19.1129C9.23601 18.996 9.15896 18.8587 9.11268 18.71C9.06639 18.5614 9.0519 18.4046 9.07015 18.25C9.05183 18.0932 9.06685 17.9343 9.11424 17.7838C9.16162 17.6332 9.2403 17.4944 9.34511 17.3763C9.44992 17.2583 9.57849 17.1638 9.7224 17.0989C9.86631 17.034 10.0223 17.0003 10.1801 17C10.3354 17.0003 10.4888 17.0335 10.6303 17.0973C10.7718 17.1612 10.8982 17.2543 11.0011 17.3704C11.1041 17.4866 11.1813 17.6233 11.2276 17.7714C11.274 17.9196 11.2885 18.0759 11.2701 18.23ZM9.33015 18.23C9.33015 18.77 9.62015 19.23 10.1701 19.23C10.7201 19.23 11.0101 18.74 11.0101 18.23C11.0101 17.72 10.7301 17.23 10.1701 17.23C9.61015 17.23 9.33015 17.7 9.33015 18.24V18.23Z" fill="#231815" stroke="black" stroke-width="0.5" stroke-miterlimit="10"/>
<path d="M11.79 17.0001H12.68C12.7774 16.9871 12.8765 16.9953 12.9704 17.0243C13.0643 17.0532 13.1508 17.1021 13.224 17.1677C13.2972 17.2333 13.3553 17.314 13.3943 17.4041C13.4333 17.4943 13.4523 17.5919 13.45 17.6901C13.4525 17.7907 13.4331 17.8905 13.3929 17.9827C13.3528 18.0749 13.2931 18.1572 13.2178 18.2239C13.1426 18.2906 13.0537 18.34 12.9573 18.3687C12.8609 18.3974 12.7595 18.4048 12.66 18.3901H12V19.3901H11.75L11.79 17.0001ZM12 18.2101H12.62C12.99 18.2101 13.15 18.0301 13.15 17.7301C13.1533 17.6636 13.1421 17.5972 13.1172 17.5354C13.0923 17.4737 13.0543 17.418 13.0058 17.3724C12.9573 17.3267 12.8995 17.2922 12.8363 17.2711C12.7732 17.25 12.7062 17.2428 12.64 17.2501H12V18.2101Z" fill="#231815" stroke="black" stroke-width="0.5" stroke-miterlimit="10"/>
</g>
<defs>
<clipPath id="clip0_2791_26236">
<rect width="17.23" height="28.85" fill="white"/>
</clipPath>
</defs>
</svg>
