<svg width="30" height="22" viewBox="0 0 30 22" fill="none" xmlns="http://www.w3.org/2000/svg">
<g clip-path="url(#clip0_2791_26223)">
<path d="M0.5 21.2V19.66H2.4V0.5H26.62V19.61H28.85V21.2H0.5Z" stroke="black" stroke-miterlimit="10"/>
<path d="M5 19.5799C5.2 19.5799 5.32 19.5799 5.44 19.5799C9.55 19.5799 13.65 19.5799 17.76 19.5799C18.29 19.5799 18.37 19.3599 18.37 18.8999C18.37 15.8999 18.37 12.8399 18.37 9.80992C18.37 9.59992 18.37 9.37992 18.32 9.16992H5V19.5799Z" stroke="black" stroke-miterlimit="10"/>
<path d="M5 19.5805V9.23047H18.32C18.32 9.44047 18.37 9.66047 18.37 9.87047C18.37 12.8705 18.37 15.9305 18.37 18.9605C18.37 19.4205 18.29 19.6405 17.76 19.6405C13.65 19.6405 9.55 19.6405 5.44 19.6405C5.33 19.6205 5.21 19.6005 5 19.5805Z" stroke="#231815" stroke-miterlimit="10"/>
<path d="M7.09036 13.23C6.25036 13.6 6.09036 14.14 6.49036 16.23H10.8804V13.32H7.79036L8.36036 12H6.36036L7.09036 13.23Z" stroke="#231815" stroke-miterlimit="10"/>
<path d="M14.5797 12.94C15.1397 12.25 15.2297 11.49 14.6297 10.94C14.5196 10.8352 14.3896 10.7536 14.2475 10.6998C14.1054 10.646 13.9539 10.6212 13.8021 10.6267C13.6502 10.6323 13.501 10.6682 13.3632 10.7323C13.2254 10.7964 13.1018 10.8874 12.9997 11C12.8772 11.0991 12.7759 11.2219 12.702 11.3611C12.6281 11.5003 12.5831 11.653 12.5697 11.81C12.6976 12.3111 12.8786 12.7972 13.1097 13.26L12.9297 13.13L11.9297 15.88H15.7197L14.5797 12.94Z" stroke="#231815" stroke-miterlimit="10"/>
<path d="M7 16.2197H15.72L15.42 19.1397H7.33L7 16.2197Z" stroke="black" stroke-miterlimit="10"/>
<path d="M11.2698 5.63024C11.3091 5.85727 11.4358 6.05986 11.6228 6.19448C11.8098 6.3291 12.0421 6.38503 12.2698 6.35024C12.8898 6.35024 13.1298 6.05024 13.1298 5.68024C13.1298 5.31024 12.9498 5.05024 12.1798 4.87024C11.4098 4.69024 10.9998 4.40024 10.9998 3.88024C10.9998 3.36024 11.3698 2.88024 12.1598 2.88024C12.3068 2.86223 12.4558 2.87406 12.598 2.91501C12.7402 2.95596 12.8728 3.02519 12.9876 3.11856C13.1024 3.21193 13.1973 3.32751 13.2664 3.45839C13.3355 3.58927 13.3775 3.73275 13.3898 3.88024H13.0098C12.9778 3.68273 12.87 3.50547 12.7095 3.38601C12.549 3.26654 12.3483 3.21426 12.1498 3.24024C11.6598 3.24024 11.3898 3.47024 11.3898 3.85024C11.3898 4.23024 11.6098 4.37024 12.2698 4.53024C13.2698 4.78024 13.4698 5.19024 13.4698 5.64024C13.4698 6.09024 13.0498 6.64024 12.1898 6.64024C11.8787 6.68341 11.5631 6.60286 11.3107 6.4159C11.0582 6.22893 10.8892 5.95045 10.8398 5.64024L11.2698 5.63024Z" fill="#231815" stroke="black" stroke-width="0.5" stroke-miterlimit="10"/>
<path d="M14.2598 3H14.6298V4.53H16.6898V3H17.0598V6.62H16.6898V4.86H14.6298V6.62H14.2598V3Z" fill="#231815" stroke="black" stroke-width="0.5" stroke-miterlimit="10"/>
<path d="M21.1598 4.78039C21.1855 5.01369 21.1616 5.24977 21.0899 5.47325C21.0182 5.69672 20.9002 5.90257 20.7435 6.07736C20.5869 6.25215 20.3952 6.39197 20.1809 6.48768C19.9666 6.5834 19.7345 6.63287 19.4998 6.63287C19.2651 6.63287 19.033 6.5834 18.8187 6.48768C18.6044 6.39197 18.4127 6.25215 18.2561 6.07736C18.0995 5.90257 17.9814 5.69672 17.9097 5.47325C17.838 5.24977 17.8142 5.01369 17.8398 4.78039C17.8131 4.54387 17.8366 4.30437 17.9088 4.07757C17.981 3.85076 18.1003 3.64178 18.2589 3.46429C18.4175 3.28681 18.6119 3.14482 18.8291 3.04765C19.0464 2.95047 19.2818 2.90029 19.5198 2.90039C19.7554 2.90275 19.9879 2.95495 20.2019 3.05355C20.4159 3.15216 20.6066 3.29493 20.7615 3.4725C20.9164 3.65007 21.032 3.85841 21.1007 4.08382C21.1693 4.30924 21.1895 4.54663 21.1598 4.78039ZM18.2298 4.78039C18.2298 5.60039 18.6698 6.34039 19.4998 6.34039C20.3298 6.34039 20.7698 5.61039 20.7698 4.78039C20.7698 3.95039 20.3498 3.25039 19.5098 3.25039C18.6698 3.25039 18.2298 4.00039 18.2298 4.78039Z" fill="#231815" stroke="black" stroke-width="0.5" stroke-miterlimit="10"/>
<path d="M21.9404 2.99961H23.2804C23.4238 2.97785 23.5701 2.98752 23.7093 3.02794C23.8485 3.06835 23.9773 3.13855 24.0867 3.23368C24.1961 3.3288 24.2835 3.44657 24.3428 3.57882C24.4022 3.71107 24.4321 3.85465 24.4304 3.99961C24.4422 4.15247 24.4187 4.30599 24.3617 4.44832C24.3047 4.59064 24.2157 4.71795 24.1017 4.82041C23.9876 4.92286 23.8515 4.99772 23.7039 5.0392C23.5563 5.08067 23.4012 5.08766 23.2504 5.0596H22.3204V6.6196H21.9404V2.99961ZM22.3204 4.76961H23.2504C23.8004 4.76961 24.0404 4.4896 24.0404 4.03961C24.0455 3.93936 24.0286 3.83923 23.991 3.74618C23.9534 3.65313 23.8959 3.56941 23.8226 3.50086C23.7493 3.4323 23.6619 3.38057 23.5665 3.34927C23.4711 3.31796 23.3701 3.30784 23.2704 3.3196H22.3204V4.76961Z" fill="#231815" stroke="black" stroke-width="0.5" stroke-miterlimit="10"/>
</g>
<defs>
<clipPath id="clip0_2791_26223">
<rect width="29.35" height="21.7" fill="white"/>
</clipPath>
</defs>
</svg>
