<svg width="34" height="32" viewBox="0 0 34 32" fill="none" xmlns="http://www.w3.org/2000/svg">
<path d="M11.0131 3.81C10.948 3.14078 11.1468 2.47261 11.567 1.94775C11.9873 1.4229 12.5958 1.08285 13.2631 1H20.7631C21.4303 1.08285 22.0389 1.4229 22.4591 1.94775C22.8794 2.47261 23.0782 3.14078 23.0131 3.81V31H19.2631V26.31C19.3282 25.6408 19.1294 24.9726 18.7091 24.4478C18.2889 23.9229 17.6803 23.5828 17.0131 23.5C16.3458 23.5828 15.7373 23.9229 15.317 24.4478C14.8968 24.9726 14.698 25.6408 14.7631 26.31V31H11.0131V3.81Z" stroke="#040000" stroke-miterlimit="10"/>
<path d="M16.6333 4.75C16.412 4.77999 16.2111 4.89483 16.073 5.07025C15.9349 5.24567 15.8705 5.46791 15.8933 5.69V7.09H14.7633C14.5413 7.12 14.3394 7.23446 14.1997 7.40956C14.06 7.58466 13.9932 7.8069 14.0133 8.03V8.97C13.9932 9.1931 14.06 9.41534 14.1997 9.59044C14.3394 9.76554 14.5413 9.88 14.7633 9.91H15.8933V11.31C15.8705 11.5321 15.9349 11.7543 16.073 11.9298C16.2111 12.1052 16.412 12.22 16.6333 12.25H17.3933C17.6145 12.22 17.8154 12.1052 17.9535 11.9298C18.0916 11.7543 18.156 11.5321 18.1333 11.31V9.91H19.2633C19.4852 9.88 19.6871 9.76554 19.8268 9.59044C19.9665 9.41534 20.0333 9.1931 20.0133 8.97V8.03C20.0333 7.8069 19.9665 7.58466 19.8268 7.40956C19.6871 7.23446 19.4852 7.12 19.2633 7.09H18.1333V5.69C18.156 5.46791 18.0916 5.24567 17.9535 5.07025C17.8154 4.89483 17.6145 4.77999 17.3933 4.75H16.6333Z" stroke="#040000" stroke-miterlimit="10"/>
<path d="M8.51309 6.62012V31.0001H3.26309C2.59585 30.9173 1.9873 30.5772 1.56705 30.0524C1.14679 29.5275 0.948031 28.8593 1.01309 28.1901V19.7501H4.76309C4.95283 19.6782 5.11617 19.5502 5.23144 19.3832C5.34671 19.2162 5.40845 19.018 5.40845 18.8151C5.40845 18.6122 5.34671 18.4141 5.23144 18.2471C5.11617 18.0801 4.95283 17.9521 4.76309 17.8801H1.01309V14.1201H4.76309C4.98425 14.0925 5.18604 13.9801 5.32595 13.8066C5.46586 13.6331 5.53295 13.4121 5.51309 13.1901C5.5357 12.9665 5.46988 12.7429 5.3297 12.5672C5.18953 12.3916 4.98615 12.2777 4.76309 12.2501H1.01309V9.44012C0.945267 8.76928 1.14275 8.09854 1.56327 7.57148C1.9838 7.04443 2.59394 6.70294 3.26309 6.62012H8.51309Z" stroke="#040000" stroke-miterlimit="10"/>
<path d="M30.7627 6.62012C31.4318 6.70294 32.042 7.04443 32.4625 7.57148C32.883 8.09854 33.0805 8.76928 33.0127 9.44012V12.2501H29.2627C29.0396 12.2777 28.8363 12.3916 28.6961 12.5672C28.5559 12.7429 28.4901 12.9665 28.5127 13.1901C28.4928 13.4121 28.5599 13.6331 28.6998 13.8066C28.8397 13.9801 29.0415 14.0925 29.2627 14.1201H33.0127V17.8801H29.2627C29.073 17.9521 28.9096 18.0801 28.7943 18.2471C28.6791 18.4141 28.6173 18.6122 28.6173 18.8151C28.6173 19.018 28.6791 19.2162 28.7943 19.3832C28.9096 19.5502 29.073 19.6782 29.2627 19.7501H33.0127V28.1901C33.0778 28.8593 32.879 29.5275 32.4587 30.0524C32.0385 30.5772 31.4299 30.9173 30.7627 31.0001H25.5127V6.62012H30.7627Z" stroke="#040000" stroke-miterlimit="10"/>
</svg>
