<svg width="24" height="27" viewBox="0 0 24 27" fill="none" xmlns="http://www.w3.org/2000/svg">
<g clip-path="url(#clip0_2765_26253)">
<path d="M7.85998 15.8605C7.68706 15.6854 7.46292 15.5699 7.21998 15.5305C6.97853 15.4786 6.7269 15.503 6.49998 15.6005C6.34883 15.6619 6.20995 15.75 6.08998 15.8605C5.97276 15.9752 5.88376 16.1156 5.82998 16.2705C5.74691 16.4599 5.71255 16.6671 5.73002 16.8732C5.74748 17.0793 5.81622 17.2778 5.92998 17.4505C6.04508 17.6274 6.20341 17.7719 6.38998 17.8705C6.58001 17.962 6.78918 18.0065 6.99998 18.0005C7.20546 17.9958 7.40718 17.9445 7.58998 17.8505C7.75669 17.7519 7.8973 17.6148 7.99998 17.4505C8.11048 17.2789 8.179 17.0836 8.19998 16.8805C8.22014 16.6729 8.18924 16.4635 8.10998 16.2705C8.05107 16.1204 7.96647 15.9817 7.85998 15.8605Z" fill="#040000"/>
<path d="M17.8594 15.8605C17.6195 15.6402 17.3052 15.5187 16.9794 15.5205C16.6508 15.5191 16.3334 15.6404 16.0894 15.8605C15.9765 15.9825 15.8882 16.1251 15.8294 16.2805C15.7279 16.5062 15.6999 16.7581 15.7494 17.0005C15.7971 17.2428 15.9154 17.4654 16.0894 17.6405C16.2094 17.7511 16.3483 17.8392 16.4994 17.9005C16.6562 17.9719 16.8273 18.0061 16.9994 18.0005C17.1615 18.0022 17.322 17.9681 17.4694 17.9005C17.6206 17.8392 17.7595 17.7511 17.8794 17.6405C18.0498 17.4655 18.1616 17.2418 18.1994 17.0005C18.2476 16.7589 18.2232 16.5084 18.1294 16.2805C18.067 16.1246 17.9753 15.9821 17.8594 15.8605Z" fill="#040000"/>
<path d="M21.1095 21.6202C22.0091 20.9185 22.7005 19.9851 23.1095 18.9202C23.5027 17.8593 23.5961 16.7106 23.3795 15.6002L21.5095 5.60016C21.2419 4.15987 20.4761 2.85963 19.3463 1.9272C18.2164 0.994776 16.7944 0.489601 15.3295 0.500162H8.62954C7.17133 0.502458 5.75952 1.01294 4.63705 1.94377C3.51457 2.8746 2.75165 4.16756 2.47954 5.60016L0.609541 15.6002C0.396136 16.7115 0.493013 17.8602 0.88954 18.9202C1.28336 19.98 1.95729 20.9131 2.83954 21.6202L1.08954 23.3702C0.97401 23.4844 0.882244 23.6203 0.819541 23.7702C0.75209 23.9211 0.717981 24.0848 0.719541 24.2502C0.718457 24.4145 0.749013 24.5774 0.809541 24.7302C0.873272 24.8849 0.968646 25.0245 1.08954 25.1402C1.20103 25.2589 1.33771 25.3512 1.48954 25.4102C1.64077 25.4767 1.8043 25.5108 1.96954 25.5102C2.1376 25.5069 2.30366 25.4731 2.45954 25.4102C2.61184 25.3474 2.74842 25.2518 2.85954 25.1302L5.19954 22.8002C5.70574 22.9317 6.22652 22.9989 6.74954 23.0002H17.1995C17.7259 22.9989 18.2499 22.9317 18.7595 22.8002L21.0895 25.1302C21.3258 25.3587 21.6409 25.4876 21.9695 25.4902C22.2988 25.4908 22.6151 25.3614 22.8495 25.1302C22.9667 25.0155 23.0599 24.8786 23.1234 24.7275C23.1869 24.5764 23.2196 24.4141 23.2195 24.2502C23.2201 23.9209 23.0908 23.6046 22.8595 23.3702L21.1095 21.6202Z" stroke="#040000" stroke-miterlimit="10"/>
<path d="M1.83984 9.14062C2.93314 10.6943 4.37171 11.9733 6.0426 12.8773C7.7135 13.7812 9.57121 14.2856 11.4698 14.3506C11.4698 14.3506 18.4698 14.6406 22.1098 9.14062" stroke="#040000" stroke-miterlimit="10"/>
</g>
<defs>
<clipPath id="clip0_2765_26253">
<rect width="23.95" height="26.01" fill="white"/>
</clipPath>
</defs>
</svg>
