<svg width="109" height="27" viewBox="0 0 109 27" fill="none" xmlns="http://www.w3.org/2000/svg">
<g opacity="0.6">
<path opacity="0.23" d="M16.3214 25.9512C17.4984 25.9512 18.671 25.893 19.8481 25.9033C21.2781 25.9135 22.7081 25.9032 24.1381 25.893C25.9624 25.893 27.7867 25.9118 29.6096 25.9084C39.5139 25.8947 49.4178 25.8907 59.3212 25.8964C69.2037 25.8964 79.0868 25.8993 88.9703 25.905C93.4597 25.905 97.9491 25.8896 102.439 25.905C103.215 25.849 103.616 25.3738 103.639 24.4792C103.378 23.0327 102.676 21.741 101.66 20.837C100.082 18.8701 98.4092 17.0061 96.65 15.2538C95.8321 14.1144 94.6877 13.348 93.4225 13.092C92.2321 13.0612 91.0416 13.0629 89.8601 13.051C89.1489 13.051 88.4346 13.0338 87.7233 13.051C86.96 13.0681 86.1996 13.1109 85.4362 13.1057C83.6238 13.0932 81.8118 13.0846 80.0004 13.0801C70.1387 13.0492 60.277 13.0401 50.4153 13.0527C40.4861 13.0527 30.5555 13.0646 20.6233 13.0886C18.9865 13.0886 17.3496 13.0749 15.7128 13.0373C14.2248 13.0013 12.7367 13.0612 11.2487 13.0698C10.7576 13.0698 10.2651 13.0492 9.77405 13.0561C9.3946 13.0561 9.01515 13.1109 8.6357 13.1228C8.32619 13.1331 8.0137 13.1228 7.7027 13.1109C6.93041 13.1554 6.52269 13.6243 6.47656 14.5075C6.69823 15.9415 7.36305 17.2351 8.34851 18.1498C9.86338 20.1225 11.4735 21.9956 13.1712 23.7603C13.957 24.904 15.0759 25.6822 16.3214 25.9512Z" fill="#75BBE3"/>
<path opacity="0.23" d="M7.10063 18.0395C7.63037 18.2552 8.1616 18.4862 8.70176 18.666L9.83118 18.9809L10.3371 18.8782L10.9323 18.7532H11.4844C14.5765 18.7293 17.6672 18.7669 20.7578 18.7532C30.7842 18.7338 40.8101 18.7287 50.8355 18.7378C60.7756 18.7378 70.7151 18.7413 80.6542 18.7481C85.3281 18.7481 90.0021 18.7327 94.676 18.7481C95.3972 18.634 95.7994 18.161 95.8828 17.3292C95.8207 16.6985 95.6489 16.0886 95.3777 15.5358C95.1064 14.983 94.7413 14.4986 94.304 14.1114C92.9799 12.4159 91.5613 10.8213 90.0571 9.33781C89.7113 8.84453 89.2829 8.43624 88.7972 8.13721C88.3115 7.83818 87.7785 7.65452 87.2298 7.59713C86.2388 7.57659 85.2478 7.58001 84.2538 7.56632C82.8858 7.54921 81.5183 7.5589 80.1513 7.59542C78.5665 7.6365 76.9788 7.59542 75.3896 7.59542C66.4613 7.56803 57.5331 7.55891 48.6049 7.56803C39.1936 7.56803 29.7818 7.57317 20.3694 7.58344C18.3854 7.58344 16.4014 7.588 14.4173 7.59713C13.3608 7.59713 12.3013 7.6228 11.2448 7.59713C10.5097 7.58344 9.77761 7.54749 9.04252 7.55092C7.70329 7.55092 6.36406 7.57317 5.02482 7.5783C4.71829 7.5783 4.41324 7.5783 4.10671 7.592L3.57845 7.60398C3.24365 7.6519 2.90884 7.76144 2.57998 7.83846L3.7094 8.1534L2.35678 7.69983C1.66236 7.2434 1.01209 7.28676 0.405963 7.82991C-0.0791362 8.52253 -0.125265 9.26935 0.267576 10.0704C1.17156 11.6317 2.22361 13.0725 3.40435 14.3665C4.51466 15.7442 5.75432 16.976 7.10063 18.0395V18.0395Z" fill="#75BBE3"/>
<path opacity="0.23" d="M6.88604 6.37895C7.75357 6.95575 8.63002 7.51202 9.51094 8.06144C9.85418 8.45168 10.2217 8.54981 10.6136 8.35583C10.8194 8.32725 11.018 8.25056 11.1971 8.13047C11.3762 8.01038 11.5321 7.84943 11.6552 7.6575C11.8933 7.40647 12.1284 7.15259 12.3605 6.89585L10.9811 7.69687L11.6835 7.49833C11.8801 7.4095 12.0969 7.39866 12.2995 7.46752C12.9453 7.53427 13.5822 7.59075 14.234 7.59931C15.722 7.62156 17.21 7.59931 18.6981 7.59931C22.567 7.59931 26.4359 7.59931 30.3047 7.59931H58.1295C70.3185 7.59931 82.5075 7.59931 94.6965 7.59931C94.9617 7.57908 95.2206 7.49739 95.4576 7.35915C95.6947 7.22091 95.905 7.02897 96.0759 6.79486C96.2779 6.59631 96.4428 6.35275 96.5607 6.07888C96.6786 5.80501 96.747 5.50651 96.7619 5.20138C96.5711 4.49982 96.2134 3.8737 95.7292 3.39394C95.3078 2.8417 94.7604 2.43616 94.1489 2.22322H25.3734C21.7515 2.22322 18.1306 2.22835 14.5107 2.23862C13.7161 2.23862 12.9334 2.22151 12.1418 2.15133L11.4171 2.08629L10.8963 2.19926C10.6198 2.24724 10.346 2.31411 10.0764 2.39951C9.87047 2.42979 9.67201 2.50772 9.49299 2.62863C9.31397 2.74953 9.15809 2.91089 9.03477 3.10297C8.78031 3.33404 8.52735 3.56852 8.27438 3.80301L10.4201 3.39908C9.66619 2.98145 8.91325 2.55983 8.16129 2.13422C7.9807 1.97345 7.75808 1.88779 7.52974 1.89121C7.3014 1.89463 7.08079 1.98692 6.9039 2.15304C6.41321 2.5143 5.99805 2.99592 5.68818 3.56339C5.54609 3.76899 5.46875 4.02389 5.46875 4.28654C5.46875 4.54918 5.54609 4.80408 5.68818 5.00968C5.99196 5.56474 6.4016 6.03299 6.88604 6.37895V6.37895Z" fill="#75BBE3"/>
<path opacity="0.23" d="M14.152 15.9399C15.3305 15.9519 16.5061 15.9279 17.6846 15.9399C19.1161 15.9399 20.5476 15.9399 21.979 15.9296C23.8004 15.9296 25.6203 15.9536 27.4416 15.9502C37.348 15.9308 47.2538 15.9251 57.1592 15.9331C67.0407 15.9331 76.9223 15.9371 86.8038 15.945C91.2932 15.945 95.7826 15.9262 100.272 15.945C101.099 15.945 101.496 15.4681 101.462 14.5142C101.079 12.9189 100.26 11.5077 99.1263 10.4885C97.3158 8.27828 95.4141 6.17646 93.4211 4.18303C92.4934 2.91938 91.2373 2.03197 89.8379 1.65159C88.6475 1.62079 87.4571 1.61736 86.2667 1.60367C85.5509 1.59511 84.8322 1.59169 84.115 1.60367C83.3561 1.6225 82.5986 1.66871 81.8398 1.66186C80.0273 1.64817 78.2154 1.63847 76.404 1.63277C66.5422 1.59511 56.681 1.58313 46.8203 1.59682C36.8892 1.59682 26.9565 1.59682 17.0239 1.64304C16.1311 1.64304 15.2502 1.65502 14.3618 1.64304C13.6178 1.64304 12.8738 1.5934 12.1208 1.57628C10.6328 1.54205 9.14474 1.60709 7.65671 1.61565C6.49455 1.61565 5.34132 1.61565 4.18214 1.70465C3.36373 1.70465 2.95799 2.17363 2.96493 3.11158C3.30204 4.68979 4.0805 6.09695 5.18062 7.11669C6.9177 9.31505 8.7498 11.4115 10.67 13.3982C11.5587 14.6594 12.7814 15.552 14.152 15.9399V15.9399Z" fill="#75BBE3"/>
<path opacity="0.23" d="M4.17925 16.4077L4.75661 16.7398L5.19111 16.9914C5.58792 17.2116 5.98473 17.429 6.38154 17.6435L7.25204 17.6709L7.81006 17.5836C8.2029 17.522 8.59425 17.4689 8.99007 17.4313C9.65076 17.3697 10.2966 17.3868 10.9617 17.3936C11.7742 17.3936 12.5881 17.4073 13.4021 17.4073H48.3055C62.9388 17.4073 77.5711 17.4073 92.2025 17.4073C92.4913 17.3096 92.7547 17.1316 92.9693 16.8888C93.184 16.6461 93.3433 16.3462 93.4331 16.0158C93.5621 15.095 93.3091 14.3088 92.6742 13.6572C91.8715 12.5052 90.9697 11.4495 89.9824 10.5062C89.4258 9.7645 88.7468 9.45984 87.9452 9.5922C75.0251 9.5922 62.1055 9.5922 49.1864 9.5922H9.58975C8.27432 9.5922 6.95741 9.58022 5.6405 9.56824C5.17209 9.55791 4.70409 9.60612 4.24472 9.71201C3.88611 9.80102 3.53047 9.95506 3.17929 10.0749L4.04979 10.1023L2.13915 9.20539C1.8558 9.11901 1.55725 9.12394 1.27617 9.21963C0.995085 9.31533 0.7423 9.4981 0.545467 9.74796C0.324694 9.97008 0.16138 10.2579 0.0734449 10.5797C-0.0144904 10.9016 -0.0236487 11.2451 0.0469751 11.5725C0.493946 12.6016 1.09887 13.5293 1.83262 14.311C2.49884 15.1666 3.29378 15.8769 4.17925 16.4077V16.4077Z" fill="#75BBE3"/>
<path opacity="0.23" d="M13.4751 6.57441L14.109 6.9561C14.3649 7.10786 14.6213 7.25848 14.8783 7.40795C15.2086 7.60079 15.54 7.79078 15.8723 7.97791L16.6788 7.91287L17.3023 7.64415L17.6728 7.48326L18.7144 7.33093L17.899 7.38741C20.6325 7.43192 23.3645 7.42165 26.0981 7.42165H65.4447C77.1506 7.42165 88.8565 7.42165 100.562 7.42165C100.845 7.4839 101.137 7.45941 101.408 7.35063C101.68 7.24186 101.922 7.05264 102.11 6.80205C102.323 6.58078 102.481 6.29859 102.569 5.98415C102.656 5.6697 102.67 5.33421 102.608 5.01173C102.19 4.04986 101.615 3.18977 100.914 2.47859C100.281 1.69284 99.5232 1.05374 98.6815 0.595843C85.5183 0.595843 72.3546 0.595843 59.1905 0.595843H30.5012C26.9586 0.595843 23.4151 0.595843 19.8706 0.595843C19.0567 0.595843 18.2427 0.595843 17.4288 0.580438C16.8202 0.568457 16.213 0.532514 15.6044 0.580438C15.3766 0.584971 15.1493 0.608423 14.9244 0.650613L14.1536 0.768713C13.8456 0.910774 13.5495 1.12815 13.2608 1.30444L14.0673 1.2394L12.051 0.263795C11.7732 0.228472 11.492 0.272464 11.2325 0.391878C10.9729 0.511292 10.743 0.702446 10.563 0.948429C10.3537 1.1585 10.1923 1.42434 10.093 1.72271C9.99363 2.02107 9.95932 2.34288 9.99306 2.66001C10.3343 3.53218 10.8353 4.30927 11.4618 4.93814C12.0228 5.64372 12.7095 6.20183 13.4751 6.57441Z" fill="#75BBE3"/>
<path opacity="0.23" d="M13.5222 9.72186L14.0549 10.0077L14.4537 10.2182C14.8168 10.4065 15.1814 10.5913 15.5474 10.7728L16.6188 11.0021L17.1084 10.8943L17.6842 10.7676L18.2259 10.7539C21.3121 10.6786 24.4012 10.7539 27.4874 10.7539C37.5138 10.7334 47.5397 10.7288 57.5651 10.7403C67.5042 10.7403 77.4438 10.7403 87.3838 10.7403C92.0563 10.7403 96.7302 10.7231 101.404 10.7403C102.099 10.5851 102.495 10.1053 102.595 9.30081C102.555 8.71278 102.405 8.14143 102.157 7.62532C101.909 7.10921 101.567 6.66033 101.156 6.30896C99.9266 4.76371 98.6039 3.32065 97.1974 1.99063C96.87 1.53542 96.4614 1.16633 95.9994 0.908266C95.5373 0.650201 95.0325 0.509172 94.519 0.4947C93.5265 0.479296 92.5339 0.481008 91.5429 0.469027C90.1769 0.453622 88.8124 0.458757 87.4463 0.492989C85.8616 0.532355 84.2724 0.492989 82.6846 0.492989C73.7564 0.469027 64.8282 0.461039 55.9 0.469027C46.4896 0.469027 37.0793 0.47302 27.669 0.481008C25.6849 0.481008 23.7009 0.485572 21.7168 0.4947C20.6588 0.4947 19.5993 0.518662 18.5414 0.4947C17.8048 0.481007 17.0712 0.448487 16.3346 0.45191C14.9954 0.45191 13.6636 0.470738 12.3288 0.481008C12.0312 0.481008 11.7336 0.481008 11.436 0.51524L10.9226 0.55974C10.6116 0.619646 10.3006 0.730899 9.99408 0.826748L11.0655 1.05439L9.31999 0.232828C8.63947 -0.149427 8.01995 -0.0609948 7.46144 0.498123C6.98527 1.15081 6.9193 1.86511 7.26353 2.64103C8.07552 4.05672 9.03499 5.35289 10.1206 6.50065C11.1363 7.7296 12.2786 8.81134 13.5222 9.72186V9.72186Z" fill="#75BBE3"/>
<path opacity="0.23" d="M12.1332 12.6356L13.145 12.752C13.5241 12.7642 13.9033 12.7344 14.2774 12.663C14.7371 12.6282 15.198 12.6207 15.6583 12.6407C18.9112 12.6476 22.164 12.651 25.4169 12.651C35.3242 12.6316 45.2316 12.6265 55.1389 12.6356C65.0195 12.6356 74.8995 12.639 84.7791 12.6459C89.267 12.6459 93.7564 12.6253 98.2443 12.6459C99.0012 12.566 99.398 12.0885 99.4347 11.2133C99.2119 9.82663 98.5477 8.58534 97.5717 7.73192C96.0689 5.86772 94.4719 4.10687 92.7892 2.45852C92.0056 1.37393 90.8991 0.66371 89.6851 0.466233C88.4947 0.438848 87.3043 0.437136 86.1138 0.423443C84.6392 0.408039 83.1646 0.486772 81.6914 0.476502C79.879 0.46395 78.0665 0.455963 76.2541 0.45254C66.3914 0.421731 56.5292 0.412033 46.6675 0.423443C36.7364 0.423443 26.8067 0.413173 16.8756 0.461098C15.2387 0.461098 13.6019 0.442271 11.965 0.408039C10.477 0.37723 8.98896 0.433713 7.50093 0.442271C7.01731 0.442271 6.52924 0.42002 6.04711 0.442271C5.69147 0.461098 5.33881 0.56037 4.98317 0.579198C4.6406 0.572168 4.29872 0.541303 3.9594 0.486772C3.20645 0.559799 2.80072 1.02877 2.74219 1.8937C2.92721 3.26646 3.55787 4.50747 4.507 5.3665C5.95155 7.22669 7.49197 8.98538 9.11991 10.6331C9.86928 11.7132 10.9454 12.4283 12.1332 12.6356V12.6356Z" fill="#75BBE3"/>
<path opacity="0.23" d="M10.2684 26.0314C10.8205 26.2744 11.3785 26.5551 11.9454 26.74L13.0213 27.0002L13.5451 26.9129L14.1581 26.8102H14.7147C17.8068 26.8102 20.8989 26.8204 23.9926 26.8102C34.012 26.7931 44.0359 26.7885 54.0643 26.7965C64.0044 26.7965 73.9449 26.7965 83.886 26.7965C88.5599 26.7965 93.2339 26.7776 97.9078 26.7965C98.6022 26.6595 99.0049 26.1871 99.1161 25.3793C99.079 24.7829 98.9325 24.2023 98.6863 23.6757C98.4401 23.1491 98.0997 22.6885 97.6875 22.3241C96.4607 20.7318 95.1381 19.2408 93.7294 17.862C93.405 17.3962 92.9987 17.0144 92.5371 16.7419C92.0755 16.4693 91.569 16.3121 91.0509 16.2805C90.0614 16.2599 89.0718 16.2668 88.0748 16.2548C86.7073 16.2394 85.3428 16.2428 83.9753 16.2771C82.3905 16.3181 80.8028 16.2771 79.2136 16.2771C70.2854 16.2531 61.3571 16.2451 52.4289 16.2531C43.0176 16.2531 33.6063 16.2577 24.1949 16.2668C22.2109 16.2668 20.2269 16.2708 18.2428 16.2788C17.1833 16.2788 16.1224 16.301 15.0629 16.2788C14.3308 16.2668 13.6001 16.2326 12.868 16.236C11.5288 16.236 10.1896 16.2531 8.85032 16.2634C8.54379 16.2634 8.23725 16.2685 7.93072 16.2788L7.40098 16.2908C7.06914 16.3387 6.73582 16.4499 6.40846 16.5287L7.48579 16.7888L6.02752 16.2137C5.34699 15.795 4.71706 15.8583 4.13771 16.4037C3.64964 17.061 3.5802 17.7844 3.92939 18.574C4.75139 20.0478 5.72242 21.4043 6.82213 22.6151C7.84949 23.9065 9.00633 25.0533 10.2684 26.0314V26.0314Z" fill="#75BBE3"/>
<path opacity="0.23" d="M19.0727 15.9241L20.0146 15.9635C20.4015 15.9772 20.7914 15.9276 21.1783 15.9019C21.644 15.8694 22.1128 15.9019 22.5785 15.9019C24.0115 15.9139 25.4445 15.9019 26.8774 15.8933C28.6973 15.8933 30.5172 15.9139 32.337 15.9104C42.2424 15.8956 52.1488 15.891 62.0561 15.8968C71.9366 15.8968 81.8177 15.9002 91.6992 15.907C96.1872 15.907 100.675 15.8916 105.163 15.907C105.947 15.85 106.343 15.3696 106.353 14.4659C106.059 12.9997 105.325 11.6995 104.281 10.7928C102.646 8.8091 100.918 6.92982 99.1052 5.1634C98.2588 4.01577 97.0893 3.24594 95.8003 2.98798C94.6098 2.95717 93.4298 2.95717 92.2439 2.94347C91.5311 2.93492 90.8154 2.92807 90.1026 2.94347C89.3377 2.96059 88.5744 3.00509 87.808 2.99996C85.9986 2.98626 84.1886 2.97714 82.3782 2.97257C72.5195 2.93834 62.6602 2.9275 52.8005 2.94005C42.8664 2.94005 32.9323 2.95374 22.9981 2.98113C22.1053 2.98113 21.2214 2.99311 20.3331 2.98113C19.589 2.98113 18.845 2.93663 18.101 2.9178C16.613 2.88357 15.116 2.9469 13.625 2.95374C13.1384 2.95374 12.6503 2.93149 12.1623 2.94005C11.7917 2.94005 11.4182 3.00338 11.0522 3.01365C10.7382 3.02221 10.4198 2.98969 10.1058 2.97771C9.32606 3.02449 8.92231 3.49575 8.89453 4.39148C9.14925 5.84529 9.84554 7.14735 10.8587 8.06454C12.4298 10.0546 14.0955 11.9431 15.8481 13.7213C16.6617 14.8725 17.8046 15.6533 19.0727 15.9241V15.9241Z" fill="#75BBE3"/>
<path opacity="0.23" d="M16.8948 19.326C21.3306 19.2764 25.7679 19.326 30.2053 19.3157C40.1086 19.2986 50.012 19.2935 59.9154 19.3003C69.7989 19.3003 79.6819 19.3037 89.5645 19.3106C94.0554 19.3106 98.5463 19.2918 103.036 19.3106C103.867 19.3106 104.265 18.8348 104.226 17.8797C103.832 16.2776 103.004 14.8619 101.862 13.8387C100.036 11.6136 98.1207 9.49522 96.1148 7.48353C95.18 6.21175 93.917 5.31599 92.5093 4.92643C91.3189 4.89562 90.1284 4.89219 88.938 4.8785C88.2238 4.8785 87.5065 4.86481 86.7908 4.8785C86.0334 4.89562 85.2774 4.94183 84.52 4.93498C82.7076 4.92129 80.8947 4.91216 79.0813 4.9076C69.2186 4.87108 59.3554 4.85967 49.4917 4.87337C39.562 4.87337 29.6324 4.87337 19.7027 4.91787C18.8099 4.91787 17.9275 4.92985 17.0391 4.91787C16.2951 4.91787 15.5392 4.86994 14.7892 4.85283C13.3012 4.8186 11.8131 4.88192 10.3251 4.89219C9.45014 4.89219 8.57369 4.85967 7.70021 4.90075C7.4026 4.91444 7.11839 4.95552 6.82822 4.98291C6.00682 4.97606 5.60059 5.44504 5.60952 6.38983C5.95871 7.97494 6.7456 9.38694 7.85199 10.4138C9.60489 12.6331 11.4491 14.7469 13.3845 16.7552C14.2813 18.0272 15.5133 18.9295 16.8948 19.326V19.326Z" fill="#75BBE3"/>
<path opacity="0.23" d="M10.5398 21.7205L11.513 21.7855C11.9059 21.7926 12.2988 21.7749 12.69 21.7324C13.1543 21.7016 13.6215 21.7205 14.0873 21.7205C17.3421 21.7296 20.5959 21.7324 23.8488 21.729C33.7551 21.7119 43.6605 21.7073 53.5649 21.7153C63.4474 21.7153 73.3289 21.7187 83.2095 21.7256C87.6989 21.7256 92.1883 21.7033 96.6777 21.7256C97.4425 21.6605 97.8448 21.1876 97.8845 20.3067C97.6603 18.8979 96.9935 17.6333 96.0111 16.7534C94.4979 14.8448 92.8902 13.0383 91.1958 11.3431C90.4108 10.233 89.2988 9.49296 88.0709 9.26353C86.8805 9.23615 85.69 9.23615 84.4996 9.22246C83.0265 9.20705 81.5563 9.28236 80.0846 9.2738C78.2712 9.26125 76.4573 9.25326 74.6429 9.24984C64.7802 9.22017 54.917 9.21104 45.0533 9.22246C35.1251 9.22246 25.1955 9.21219 15.2673 9.2584C13.6304 9.2584 11.9936 9.24299 10.3568 9.20705C8.86873 9.17624 7.3807 9.23101 5.89266 9.24128C5.40459 9.24128 4.91651 9.22588 4.42844 9.24128C4.05494 9.25326 3.68442 9.32002 3.31092 9.33371C2.98504 9.34398 2.65023 9.30119 2.32287 9.28578C1.56397 9.34284 1.15426 9.80725 1.09375 10.679C1.28029 12.0712 1.91237 13.333 2.866 14.2169C4.31914 16.1265 5.86889 17.9359 7.50718 19.6357C8.25867 20.7387 9.33933 21.4816 10.5398 21.7205Z" fill="#75BBE3"/>
<path opacity="0.23" d="M4.82208 9.88145L4.35334 9.58535L4.82208 9.88145L6.82795 11.1309C7.15829 11.5417 7.53625 11.6809 7.96183 11.5485C8.1451 11.5687 8.3297 11.5315 8.49603 11.4407L8.97369 11.2285L9.34273 11.0573L10.3665 10.869L9.58081 10.9495C16.1073 11.047 22.6368 10.9871 29.1634 10.9871H92.2367C92.5158 11.0348 92.8008 11.0007 93.0654 10.8879C93.3299 10.7751 93.5654 10.5873 93.75 10.3419C93.9637 10.1304 94.1274 9.86028 94.226 9.55656C94.3246 9.25284 94.3549 8.92538 94.314 8.60461C93.959 7.69911 93.4435 6.8888 92.8007 6.2255C92.2255 5.48467 91.5227 4.88955 90.7368 4.47798H22.5595C19.0159 4.47798 15.4729 4.47798 11.9304 4.47798C11.115 4.47798 10.2936 4.47797 9.48409 4.45744C8.88285 4.42063 8.28034 4.42063 7.6791 4.45744C7.45781 4.46904 7.23752 4.49878 7.0199 4.54644L6.26547 4.68679C5.95298 4.83227 5.65537 5.04793 5.35628 5.22423L6.13303 5.13694L4.57804 4.34447C4.3036 4.32197 4.0284 4.3739 3.7746 4.49608C3.52079 4.61827 3.29548 4.80729 3.11679 5.04793C2.94538 5.19222 2.80548 5.38035 2.70812 5.59749C2.61077 5.81462 2.55862 6.05481 2.5558 6.2991C2.41295 6.82627 2.54439 7.30038 2.95013 7.72143C3.47871 8.54306 4.10944 9.27085 4.82208 9.88145V9.88145Z" fill="#75BBE3"/>
<path opacity="0.23" d="M11.9021 18.532C13.0925 18.5765 14.2666 18.5406 15.4511 18.544C18.7039 18.5543 21.9568 18.5543 25.2096 18.544C35.1159 18.5269 45.0218 18.5218 54.9272 18.5286C64.8077 18.5286 74.6893 18.5326 84.5718 18.5406C89.0612 18.5406 93.5506 18.5218 98.04 18.5406C98.8574 18.5303 99.2577 18.0551 99.2408 17.1148C98.8872 15.5502 98.0961 14.1628 96.9895 13.1662C95.2351 11.0005 93.3871 8.9377 91.4525 6.98567C90.552 5.74435 89.3226 4.87678 87.9526 4.51585C86.7622 4.48675 85.5717 4.48161 84.3813 4.46963C83.6656 4.46963 82.9469 4.45594 82.2311 4.46963C81.4722 4.48846 80.7148 4.53296 79.9559 4.52783C78.1435 4.51185 76.3316 4.50215 74.5201 4.49873C64.6594 4.46336 54.7977 4.45195 44.935 4.4645C35.0038 4.4645 25.0712 4.4645 15.1401 4.509C14.2472 4.509 13.3648 4.52098 12.4765 4.509C11.7325 4.509 10.9884 4.46108 10.2355 4.44396C8.74746 4.40973 7.25942 4.47477 5.77139 4.48333C4.60328 4.48333 3.43815 4.50729 2.27153 4.5535C1.46402 4.5535 1.0558 5.02019 1.04688 5.95358C1.35198 7.50799 2.10181 8.89964 3.17625 9.90563C4.85761 12.0636 6.6347 14.1202 8.50044 16.0673C9.36412 17.3016 10.5613 18.169 11.9021 18.532Z" fill="#75BBE3"/>
<path opacity="0.23" d="M19.5481 12.3248L20.0764 12.5935L20.4737 12.7904C20.8328 12.9684 21.1929 13.1395 21.554 13.3039L22.5852 13.4853L23.106 13.4202C23.4914 13.3706 23.8679 13.3381 24.2548 13.3261C27.3365 13.232 30.4242 13.3261 33.5074 13.3141C43.5318 13.297 53.5567 13.293 63.5821 13.3021C73.5222 13.3021 83.4622 13.3021 93.4023 13.3021C98.0748 13.3021 102.749 13.2867 107.421 13.3021C107.729 13.2434 108.011 13.0697 108.224 12.808C108.438 12.5463 108.57 12.2111 108.601 11.8541C108.575 11.291 108.44 10.7417 108.207 10.2458C107.974 9.74996 107.647 9.32005 107.251 8.98723C106.082 7.5237 104.818 6.16316 103.472 4.91708C103.158 4.48316 102.764 4.13514 102.318 3.89829C101.873 3.66145 101.387 3.54172 100.896 3.54781C99.9065 3.52898 98.9155 3.53412 97.92 3.52385C96.5525 3.50845 95.188 3.51016 93.8219 3.54268C92.2372 3.58204 90.648 3.54268 89.0602 3.54268C80.132 3.521 71.2038 3.51358 62.2756 3.52043C52.8643 3.52043 43.4529 3.52442 34.0416 3.53241C32.0576 3.53241 30.0735 3.53583 28.0895 3.54268C27.0315 3.54268 25.9705 3.56493 24.911 3.54268C24.1774 3.53241 23.4453 3.49818 22.7132 3.5016C21.3789 3.5016 20.0442 3.51244 18.7089 3.53412C18.2505 3.53384 17.7926 3.56929 17.3384 3.64024C17.0334 3.69159 16.7298 3.79086 16.4277 3.86617L17.4589 4.04759L15.6272 3.20892C14.9526 2.8666 14.347 2.97329 13.8103 3.52898C13.3381 4.16113 13.2607 4.86003 13.5781 5.62568C14.3437 6.97595 15.2575 8.20704 16.2968 9.28847C17.2629 10.4567 18.3557 11.4772 19.5481 12.3248V12.3248Z" fill="#75BBE3"/>
<path opacity="0.23" d="M18.7812 23.6564C23.2185 23.6273 27.6558 23.6444 32.0932 23.6376C41.9955 23.6239 51.8984 23.6199 61.8018 23.6256C71.6853 23.6256 81.5689 23.6284 91.4524 23.6342C95.9418 23.6342 100.433 23.6187 104.922 23.6342C105.732 23.6102 106.129 23.1327 106.113 22.2016C105.77 20.6637 104.991 19.3012 103.9 18.3299C102.173 16.2147 100.351 14.2038 98.4432 12.3052C97.5549 11.0898 96.3395 10.2502 94.9894 9.91921C93.799 9.88669 92.6086 9.88669 91.4286 9.873C90.7158 9.86444 90.0001 9.85589 89.2873 9.873C88.5239 9.89012 87.7621 9.93633 86.9987 9.9312C85.1883 9.9175 83.3773 9.90837 81.5659 9.90381C71.7052 9.86844 61.8445 9.8576 51.9837 9.87129C42.0526 9.87129 32.1204 9.88498 22.1873 9.91237C21.2945 9.91237 20.4106 9.92435 19.5207 9.91237C18.7767 9.91237 18.0327 9.86787 17.2887 9.84904C15.8007 9.81138 14.3052 9.87642 12.8157 9.88498C11.6401 9.88498 10.466 9.88498 9.29199 9.92264C8.48944 9.93633 8.08222 10.4042 8.07031 11.3261C8.36898 12.8502 9.10681 14.2134 10.164 15.1943C11.8218 17.3131 13.5751 19.3305 15.4167 21.2379C16.2673 22.4596 17.4537 23.3124 18.7812 23.6564V23.6564Z" fill="#75BBE3"/>
<path opacity="0.23" d="M7.42118 13.5876C7.97919 13.8375 8.54018 14.1165 9.11159 14.315L10.241 14.6231L10.7276 14.5033L11.299 14.3613H11.8511C14.9417 14.3493 18.0309 14.3767 21.1215 14.3715C31.1479 14.3521 41.1753 14.3464 51.2037 14.3544C61.1417 14.3544 71.0803 14.3578 81.0194 14.3647C85.6918 14.3647 90.3658 14.3493 95.0397 14.3647C95.7579 14.2506 96.1577 13.7753 96.2391 12.9389C96.1755 12.3098 96.0023 11.702 95.7298 11.1517C95.4572 10.6015 95.0909 10.1201 94.6528 9.73655C93.3265 8.05121 91.9054 6.468 90.3985 4.99717C90.0518 4.50669 89.6228 4.10148 89.137 3.80567C88.6513 3.50986 88.1188 3.32949 87.5712 3.27531C86.5802 3.25648 85.5907 3.25819 84.5952 3.2445C83.2242 3.22739 81.8547 3.23766 80.4867 3.27531C78.9034 3.31639 77.3157 3.27531 75.725 3.27531C66.7968 3.24564 57.8715 3.23594 48.9493 3.24621C39.536 3.24621 30.1236 3.25135 20.7123 3.26162C18.7283 3.26162 16.7442 3.26675 14.7602 3.27702C13.7037 3.27702 12.6442 3.30098 11.5877 3.27702C10.8556 3.26333 10.1235 3.22739 9.38985 3.23081C8.05062 3.23081 6.71139 3.25306 5.37216 3.25991C5.06761 3.25991 4.76305 3.26504 4.4585 3.27531L3.93174 3.28729C3.60883 3.34035 3.28444 3.45845 2.966 3.54232L4.09245 3.84698L2.67584 3.3335C1.98142 2.87708 1.33313 2.92615 0.730973 3.4807C0.24885 4.17218 0.203713 4.91729 0.595562 5.71603C1.50155 7.2651 2.55462 8.69337 3.73532 9.97446C4.84319 11.3329 6.07947 12.5448 7.42118 13.5876Z" fill="#75BBE3"/>
<path opacity="0.23" d="M5.58242 21.6907L6.1077 21.9645L6.50352 22.1665C6.86362 22.3479 7.22521 22.5259 7.58829 22.7005L8.48112 22.7656L9.09567 22.7433C9.51828 22.7296 9.94088 22.7136 10.3635 22.6954C11.8381 22.6304 13.3187 22.6954 14.7949 22.6954H49.7086C64.342 22.6954 78.9743 22.6954 93.6057 22.6954C93.8991 22.6091 94.1677 22.4356 94.3845 22.1923C94.6013 21.949 94.7586 21.6443 94.8408 21.309C94.9449 20.3391 94.6627 19.5141 93.9941 18.8341C93.1362 17.6044 92.1785 16.4713 91.1341 15.4502C90.5587 14.6641 89.8489 14.3217 89.0047 14.4233C76.0855 14.4233 63.1659 14.4233 50.2458 14.4233H22.0669C18.2595 14.4233 14.4511 14.4233 10.6417 14.4233C9.3293 14.4233 8.01685 14.4233 6.70291 14.4113C5.82678 14.4365 4.95411 14.5476 4.09439 14.7434L4.98721 14.8084L3.20157 14.045C2.91761 13.9361 2.61244 13.9232 2.3223 14.0078C2.03215 14.0925 1.76922 14.2711 1.56473 14.5226C1.33978 14.7531 1.17723 15.0531 1.09649 15.387C1.01575 15.7208 1.02023 16.0743 1.10939 16.4053C1.61727 17.5099 2.2816 18.5095 3.07508 19.3629C3.79356 20.2926 4.64077 21.0791 5.58242 21.6907V21.6907Z" fill="#75BBE3"/>
</g>
</svg>
