<svg width="20" height="20" viewBox="0 0 16 18" fill="none" xmlns="http://www.w3.org/2000/svg">
<path d="M11.3343 13.167C11.5553 13.167 11.7672 13.0792 11.9235 12.9229C12.0798 12.7666 12.1676 12.5547 12.1676 12.3337C12.1717 12.2782 12.1717 12.2225 12.1676 12.167C12.1585 12.1148 12.1416 12.0642 12.1176 12.017C12.0994 11.9639 12.0741 11.9134 12.0426 11.867L11.9426 11.742C11.8616 11.6684 11.7686 11.6092 11.6676 11.567C11.4647 11.4836 11.2371 11.4836 11.0343 11.567C10.9333 11.6092 10.8403 11.6684 10.7593 11.742L10.6593 11.867C10.6277 11.9134 10.6025 11.9639 10.5843 12.017C10.5602 12.0642 10.5434 12.1148 10.5343 12.167C10.5302 12.2225 10.5302 12.2782 10.5343 12.3337C10.5343 12.5547 10.6221 12.7666 10.7783 12.9229C10.9346 13.0792 11.1466 13.167 11.3676 13.167H11.3343ZM13.0009 0.666992H3.00093C2.33788 0.666992 1.702 0.930384 1.23316 1.39923C0.764318 1.86807 0.500926 2.50395 0.500926 3.16699V13.167C0.502216 13.5537 0.593198 13.9348 0.766717 14.2804C0.940235 14.626 1.19156 14.9266 1.50093 15.1587L0.742592 15.9087C0.664485 15.9861 0.60249 16.0783 0.560183 16.1798C0.517876 16.2814 0.496094 16.3903 0.496094 16.5003C0.496094 16.6103 0.517876 16.7193 0.560183 16.8208C0.60249 16.9224 0.664485 17.0145 0.742592 17.092C0.820061 17.1701 0.912229 17.2321 1.01378 17.2744C1.11533 17.3167 1.22425 17.3385 1.33426 17.3385C1.44427 17.3385 1.55319 17.3167 1.65474 17.2744C1.75629 17.2321 1.84846 17.1701 1.92593 17.092L3.34259 15.667H12.6593L14.0759 17.092C14.1534 17.1701 14.2456 17.2321 14.3471 17.2744C14.4487 17.3167 14.5576 17.3385 14.6676 17.3385C14.7776 17.3385 14.8865 17.3167 14.9881 17.2744C15.0896 17.2321 15.1818 17.1701 15.2593 17.092C15.3374 17.0145 15.3994 16.9224 15.4417 16.8208C15.484 16.7193 15.5058 16.6103 15.5058 16.5003C15.5058 16.3903 15.484 16.2814 15.4417 16.1798C15.3994 16.0783 15.3374 15.9861 15.2593 15.9087L14.5009 15.1587C14.8103 14.9266 15.0616 14.626 15.2351 14.2804C15.4087 13.9348 15.4996 13.5537 15.5009 13.167V3.16699C15.5009 2.50395 15.2375 1.86807 14.7687 1.39923C14.2999 0.930384 13.664 0.666992 13.0009 0.666992ZM2.16759 5.66699H7.16759V9.00033H2.16759V5.66699ZM13.8343 13.167C13.8343 13.388 13.7465 13.6 13.5902 13.7562C13.4339 13.9125 13.2219 14.0003 13.0009 14.0003H3.00093C2.77991 14.0003 2.56795 13.9125 2.41167 13.7562C2.25539 13.6 2.16759 13.388 2.16759 13.167V10.667H13.8343V13.167ZM13.8343 9.00033H8.83426V5.66699H13.8343V9.00033ZM13.8343 4.00033H2.16759V3.16699C2.16759 2.94598 2.25539 2.73402 2.41167 2.57774C2.56795 2.42146 2.77991 2.33366 3.00093 2.33366H13.0009C13.2219 2.33366 13.4339 2.42146 13.5902 2.57774C13.7465 2.73402 13.8343 2.94598 13.8343 3.16699V4.00033ZM4.66759 13.167C4.88861 13.167 5.10057 13.0792 5.25685 12.9229C5.41313 12.7666 5.50093 12.5547 5.50093 12.3337C5.50502 12.2782 5.50502 12.2225 5.50093 12.167C5.4918 12.1148 5.47495 12.0642 5.45093 12.017C5.43268 11.9639 5.40746 11.9134 5.37593 11.867L5.27593 11.742C5.19492 11.6684 5.10191 11.6092 5.00093 11.567C4.79804 11.4836 4.57048 11.4836 4.36759 11.567C4.2666 11.6092 4.17359 11.6684 4.09259 11.742L3.99259 11.867C3.96105 11.9134 3.93583 11.9639 3.91759 12.017C3.8819 12.0622 3.85376 12.1128 3.83426 12.167C3.83017 12.2225 3.83017 12.2782 3.83426 12.3337C3.83518 12.5523 3.92197 12.7618 4.07593 12.917C4.1531 12.9957 4.24514 13.0584 4.3467 13.1013C4.44827 13.1442 4.55734 13.1665 4.66759 13.167V13.167Z" fill="black"/>
</svg>
