<svg width="32" height="32" viewBox="0 0 32 32" fill="none" xmlns="http://www.w3.org/2000/svg">
<path d="M0.6875 5.0625V26.9375C0.6875 29.354 2.646 31.3125 5.0625 31.3125H26.9375C29.354 31.3125 31.3125 29.354 31.3125 26.9375V5.0625C31.3125 2.646 29.354 0.6875 26.9375 0.6875H5.0625C2.646 0.6875 0.6875 2.646 0.6875 5.0625ZM7.89941 19.2539L11.6072 17.6646C12.0441 17.4755 12.5574 17.6026 12.8541 17.9711L14.3594 19.8106C16.7267 18.6485 18.6503 16.7249 19.8124 14.359L17.9729 12.8516C17.6054 12.5515 17.4799 12.0429 17.6658 11.6061L19.2565 7.89559C19.4648 7.42028 19.9804 7.15936 20.4822 7.27611L23.9261 8.07113C24.4132 8.18222 24.754 8.61056 24.754 9.11156C24.754 17.7317 17.7403 24.7522 9.12018 24.7522C8.61869 24.7522 8.19049 24.4115 8.07838 23.9244L7.28404 20.4797C7.16182 19.9785 7.4209 19.459 7.89941 19.2539Z" fill="#0E2E3D"/>
</svg>
