<svg width="46" height="52" viewBox="0 0 46 52" fill="none" xmlns="http://www.w3.org/2000/svg">
<path d="M36.362 5.66598C37.3987 6.4146 38.3687 7.24312 39.2638 8.15155C43.4271 12.3572 46 18.1653 46 24.5832C46 31.0011 43.4271 36.8092 39.2638 41.0149C35.1006 45.2206 29.3511 47.8197 23.0021 47.8197C20.092 47.8197 17.3109 47.273 14.7463 46.2804L18.231 42.3944C19.7506 42.8107 21.3493 43.0294 23.0021 43.0294C28.0438 43.0294 32.6109 40.9644 35.9124 37.6251C39.218 34.2858 41.258 29.6763 41.258 24.5832C41.258 19.4901 39.2139 14.8765 35.9124 11.5413C35.2213 10.8432 34.4761 10.2039 33.685 9.62354L36.362 5.66598ZM7.56883 41.814C7.28573 41.5532 7.00679 41.2882 6.73618 41.0149C2.5729 36.8092 0 31.0011 0 24.5832C0 18.1653 2.5729 12.3572 6.73618 8.15155C10.0085 4.84587 14.2592 2.53273 19.0137 1.6958L15.9537 7.56275C13.743 8.49642 11.7529 9.85906 10.0876 11.5413C6.78197 14.8807 4.7378 19.4901 4.7378 24.5832C4.7378 29.5544 6.68205 34.0629 9.84614 37.3812L7.56883 41.814Z" fill="white"/>
<path fill-rule="evenodd" clip-rule="evenodd" d="M37.0334 0L23.6443 0.180845L10.7465 24.9146L19.531 25.0071L5.80469 51.6797L36.767 17.4789H25.2014L37.0334 0Z" fill="white"/>
</svg>
