<svg id="圖層_1" data-name="圖層 1" xmlns="http://www.w3.org/2000/svg" viewBox="0 0 102.77 75.54"><defs><style>.cls-1,.cls-3{fill:#0e2e3d;}.cls-2{fill:#feac00;}.cls-3{font-size:18px;font-family:MicrosoftYaHeiUI, Microsoft YaHei UI;}</style></defs><polygon class="cls-1" points="37.63 39.29 37.63 20.32 52.15 8.03 59.02 13.68 59.02 8.35 51.84 2.67 33.58 17.99 33.58 39.29 37.63 39.29"/><polygon class="cls-2" points="43.72 8.03 40.13 11.1 40.13 0 43.72 0 43.72 8.03"/><polygon class="cls-2" points="40.13 19.78 43.72 16.96 43.72 25.06 60.27 24.73 60.27 6.59 64.12 6.59 64.12 34.23 60.21 34.23 60.27 28.87 43.72 28.72 43.72 44.19 39.87 44.19 40.13 19.78"/><polygon class="cls-1" points="45.13 35.61 45.13 39.29 69.19 39.29 69.19 18.29 65.73 15.54 65.73 35.61 45.13 35.61"/><rect class="cls-2" x="60.42" y="40.67" width="3.7" height="9.33"/><text class="cls-3" transform="translate(0 70.95)">Little House</text></svg>