<svg width="98" height="15" viewBox="0 0 98 15" fill="none" xmlns="http://www.w3.org/2000/svg">
<path d="M0.330141 0.932H2.25614V12.146H8.79014V14H0.330141V0.932ZM11.1837 6.458H13.0377V14H11.1837V6.458ZM11.0757 3.758C11.0757 3.47 11.1897 3.23 11.4177 3.038C11.6457 2.846 11.8917 2.75 12.1557 2.75C12.4317 2.75 12.6777 2.846 12.8937 3.038C13.1097 3.23 13.2177 3.47 13.2177 3.758C13.2177 4.046 13.1097 4.286 12.8937 4.478C12.6777 4.658 12.4317 4.748 12.1557 4.748C11.8917 4.748 11.6457 4.658 11.4177 4.478C11.1897 4.286 11.0757 4.046 11.0757 3.758ZM16.5795 3.146H18.4335V6.476H20.4495V7.934H18.4335V14H16.5795V7.934H15.2475V6.476H16.5795V3.146ZM23.1713 3.146H25.0253V6.476H27.0413V7.934H25.0253V14H23.1713V7.934H21.8393V6.476H23.1713V3.146ZM29.0431 0.0139998H30.8971V14H29.0431V0.0139998ZM37.2649 14.18C36.3889 14.18 35.6389 14.012 35.0149 13.676C34.3909 13.328 33.9109 12.854 33.5749 12.254C33.2389 11.642 33.0709 10.946 33.0709 10.166C33.0709 9.422 33.2569 8.75 33.6289 8.15C34.0129 7.538 34.5229 7.052 35.1589 6.692C35.8069 6.332 36.5209 6.152 37.3009 6.152C38.3089 6.152 39.1429 6.446 39.8029 7.034C40.4749 7.622 40.9249 8.444 41.1529 9.5L35.0149 11.624L34.5829 10.544L39.4969 8.78L39.1189 9.014C38.9749 8.642 38.7469 8.318 38.4349 8.042C38.1229 7.754 37.6969 7.61 37.1569 7.61C36.7249 7.61 36.3349 7.718 35.9869 7.934C35.6509 8.138 35.3809 8.426 35.1769 8.798C34.9849 9.158 34.8889 9.584 34.8889 10.076C34.8889 10.58 34.9909 11.024 35.1949 11.408C35.4109 11.78 35.6989 12.074 36.0589 12.29C36.4309 12.506 36.8449 12.614 37.3009 12.614C37.6249 12.614 37.9309 12.554 38.2189 12.434C38.5189 12.314 38.8009 12.164 39.0649 11.984L39.9109 13.352C39.5149 13.604 39.0829 13.808 38.6149 13.964C38.1589 14.108 37.7089 14.18 37.2649 14.18ZM59.8315 0.932V14H57.9055V8.366H51.2815V14H49.3555V0.932H51.2815V6.53H57.9055V0.932H59.8315ZM62.4439 10.148C62.4439 9.392 62.6239 8.714 62.9839 8.114C63.3439 7.502 63.8419 7.022 64.4779 6.674C65.1139 6.326 65.8399 6.152 66.6559 6.152C67.4839 6.152 68.2099 6.326 68.8339 6.674C69.4579 7.022 69.9379 7.502 70.2739 8.114C70.6219 8.714 70.7959 9.392 70.7959 10.148C70.7959 10.904 70.6219 11.588 70.2739 12.2C69.9379 12.812 69.4579 13.298 68.8339 13.658C68.2099 14.006 67.4779 14.18 66.6379 14.18C65.8339 14.18 65.1139 14.018 64.4779 13.694C63.8539 13.37 63.3559 12.908 62.9839 12.308C62.6239 11.696 62.4439 10.976 62.4439 10.148ZM64.3159 10.166C64.3159 10.634 64.4179 11.06 64.6219 11.444C64.8259 11.816 65.1019 12.116 65.4499 12.344C65.7979 12.56 66.1879 12.668 66.6199 12.668C67.0639 12.668 67.4599 12.56 67.8079 12.344C68.1559 12.116 68.4259 11.816 68.6179 11.444C68.8219 11.06 68.9239 10.634 68.9239 10.166C68.9239 9.698 68.8219 9.278 68.6179 8.906C68.4259 8.534 68.1559 8.234 67.8079 8.006C67.4599 7.778 67.0639 7.664 66.6199 7.664C66.1759 7.664 65.7799 7.778 65.4319 8.006C65.0839 8.234 64.8079 8.54 64.6039 8.924C64.4119 9.296 64.3159 9.71 64.3159 10.166ZM75.4004 14.306C74.7044 14.306 74.1344 14.096 73.6904 13.676C73.2464 13.256 73.0124 12.716 72.9884 12.056V6.458H74.8424V11.39C74.8664 11.774 74.9744 12.092 75.1664 12.344C75.3704 12.584 75.6944 12.71 76.1384 12.722C76.5464 12.722 76.9064 12.602 77.2184 12.362C77.5424 12.11 77.7944 11.774 77.9744 11.354C78.1664 10.922 78.2624 10.43 78.2624 9.878V6.458H80.1164V14H78.4424L78.2984 12.254L78.3704 12.542C78.2144 12.878 77.9924 13.184 77.7044 13.46C77.4164 13.724 77.0744 13.928 76.6784 14.072C76.2824 14.228 75.8564 14.306 75.4004 14.306ZM85.1512 14.162C84.5992 14.162 84.0652 14.066 83.5492 13.874C83.0332 13.67 82.6072 13.376 82.2712 12.992L83.0632 11.948C83.3872 12.248 83.7112 12.476 84.0352 12.632C84.3712 12.776 84.6892 12.848 84.9892 12.848C85.2292 12.848 85.4452 12.824 85.6372 12.776C85.8292 12.716 85.9852 12.62 86.1052 12.488C86.2252 12.356 86.2852 12.182 86.2852 11.966C86.2852 11.714 86.2012 11.516 86.0332 11.372C85.8652 11.228 85.6492 11.108 85.3852 11.012C85.1212 10.916 84.8392 10.826 84.5392 10.742C83.9032 10.538 83.4232 10.25 83.0992 9.878C82.7752 9.494 82.6132 9.044 82.6132 8.528C82.6132 8.132 82.7092 7.76 82.9012 7.412C83.1052 7.052 83.4112 6.758 83.8192 6.53C84.2272 6.302 84.7312 6.188 85.3312 6.188C85.8832 6.188 86.3692 6.254 86.7892 6.386C87.2092 6.506 87.5992 6.716 87.9592 7.016L87.2392 8.132C87.0232 7.916 86.7652 7.754 86.4652 7.646C86.1772 7.526 85.9132 7.46 85.6732 7.448C85.4572 7.448 85.2592 7.484 85.0792 7.556C84.8992 7.616 84.7552 7.712 84.6472 7.844C84.5392 7.964 84.4852 8.108 84.4852 8.276C84.4732 8.516 84.5512 8.714 84.7192 8.87C84.8992 9.014 85.1272 9.134 85.4032 9.23C85.6792 9.314 85.9492 9.404 86.2132 9.5C86.5852 9.608 86.9152 9.758 87.2032 9.95C87.4912 10.13 87.7192 10.352 87.8872 10.616C88.0552 10.88 88.1392 11.216 88.1392 11.624C88.1392 12.068 88.0312 12.488 87.8152 12.884C87.5992 13.268 87.2692 13.58 86.8252 13.82C86.3812 14.048 85.8232 14.162 85.1512 14.162ZM93.9719 14.18C93.0959 14.18 92.3459 14.012 91.7219 13.676C91.0979 13.328 90.6179 12.854 90.2819 12.254C89.9459 11.642 89.7779 10.946 89.7779 10.166C89.7779 9.422 89.9639 8.75 90.3359 8.15C90.7199 7.538 91.2299 7.052 91.8659 6.692C92.5139 6.332 93.2279 6.152 94.0079 6.152C95.0159 6.152 95.8499 6.446 96.5099 7.034C97.1819 7.622 97.6319 8.444 97.8599 9.5L91.7219 11.624L91.2899 10.544L96.2039 8.78L95.8259 9.014C95.6819 8.642 95.4539 8.318 95.1419 8.042C94.8299 7.754 94.4039 7.61 93.8639 7.61C93.4319 7.61 93.0419 7.718 92.6939 7.934C92.3579 8.138 92.0879 8.426 91.8839 8.798C91.6919 9.158 91.5959 9.584 91.5959 10.076C91.5959 10.58 91.6979 11.024 91.9019 11.408C92.1179 11.78 92.4059 12.074 92.7659 12.29C93.1379 12.506 93.5519 12.614 94.0079 12.614C94.3319 12.614 94.6379 12.554 94.9259 12.434C95.2259 12.314 95.5079 12.164 95.7719 11.984L96.6179 13.352C96.2219 13.604 95.7899 13.808 95.3219 13.964C94.8659 14.108 94.4159 14.18 93.9719 14.18Z" fill="#0E2E3D"/>
</svg>
