<svg width="20" height="20" viewBox="0 0 20 20" fill="none" xmlns="http://www.w3.org/2000/svg">
<path d="M6.94996 19.3005C6.21949 20.031 5.03199 20.031 4.30153 19.3005L0.701525 15.699C-0.0307168 14.9685 -0.0307168 13.781 0.701525 13.0505L2.68395 11.0662L4.55934 12.9412C4.80153 13.1873 5.19996 13.1873 5.44215 12.9412C5.68824 12.699 5.68824 12.3005 5.44215 12.0584L3.56754 10.1834L5.18434 8.56618L7.05934 10.4412C7.30153 10.6873 7.69996 10.6873 7.94215 10.4412C8.18824 10.199 8.18824 9.80055 7.94215 9.55836L6.06715 7.68336L7.68434 6.06618L9.55934 7.94118C9.80153 8.18727 10.2 8.18727 10.4422 7.94118C10.6882 7.69899 10.6882 7.30055 10.4422 7.05836L8.56715 5.18336L10.1843 3.56657L12.0593 5.44118C12.3015 5.68727 12.7 5.68727 12.9422 5.44118C13.1882 5.19899 13.1882 4.80055 12.9422 4.55836L11.0672 2.68297L13.0515 0.700552C13.782 -0.0316943 14.9695 -0.0316943 15.7 0.700552L19.3015 4.30055C20.032 5.03102 20.032 6.21852 19.3015 6.94899L6.94996 19.3005Z" fill="black"/>
</svg>
