<svg width="20" height="20" viewBox="0 0 20 20" fill="none" xmlns="http://www.w3.org/2000/svg">
<path d="M9.24219 19.5C7.20312 16.9922 2.66797 10.9141 2.66797 7.5C2.66797 3.35781 6.02578 0 10.168 0C14.3086 0 17.668 3.35781 17.668 7.5C17.668 10.9141 13.0977 16.9922 11.0937 19.5C10.6133 20.0977 9.72266 20.0977 9.24219 19.5ZM10.168 10C11.5469 10 12.668 8.87891 12.668 7.5C12.668 6.12109 11.5469 5 10.168 5C8.78906 5 7.66797 6.12109 7.66797 7.5C7.66797 8.87891 8.78906 10 10.168 10Z" fill="black"/>
</svg>
