<svg width="32" height="32" viewBox="0 0 32 32" fill="#FEAC00" xmlns="http://www.w3.org/2000/svg">
<path d="M27.25 12.25H4.75C3.75544 12.25 2.80161 12.6451 2.09835 13.3483C1.39509 14.0516 1 15.0054 1 16V21.62C1 22.1186 1.19807 22.5968 1.55064 22.9494C1.90321 23.3019 2.38139 23.5 2.88 23.5H4.75V29.12C4.74999 29.6169 4.94669 30.0936 5.2971 30.4458C5.64751 30.7981 6.12313 30.9974 6.62 31H25.38C25.8769 30.9974 26.3525 30.7981 26.7029 30.4458C27.0533 30.0936 27.25 29.6169 27.25 29.12V23.5H29.12C29.6186 23.5 30.0968 23.3019 30.4494 22.9494C30.8019 22.5968 31 22.1186 31 21.62V16C31 15.0054 30.6049 14.0516 29.9017 13.3483C29.1984 12.6451 28.2446 12.25 27.25 12.25V12.25ZM23.5 27.25H8.5V21.62H23.5V27.25ZM26.31 18.34C26.0307 18.34 25.7577 18.257 25.5256 18.1017C25.2935 17.9463 25.1128 17.7255 25.0064 17.4672C24.9 17.209 24.8726 16.925 24.9279 16.6512C24.9831 16.3774 25.1184 16.1262 25.3166 15.9294C25.5148 15.7326 25.7669 15.5992 26.0411 15.5459C26.3153 15.4926 26.5991 15.522 26.8565 15.6302C27.114 15.7385 27.3335 15.9208 27.4872 16.1539C27.641 16.3871 27.722 16.6607 27.72 16.94C27.72 17.1247 27.6835 17.3076 27.6125 17.4781C27.5415 17.6486 27.4375 17.8034 27.3064 17.9335C27.1754 18.0636 27.0198 18.1665 26.8488 18.2363C26.6778 18.3061 26.4947 18.3413 26.31 18.34V18.34ZM8.5 4.75H21.95L23.5 6.3V10.38H27.25V5.5C27.2425 5.01168 27.0452 4.54545 26.7 4.2L24.05 1.55C23.6996 1.19995 23.2253 1.0023 22.73 1H6.62C6.12313 1.00264 5.64751 1.20188 5.2971 1.55416C4.94669 1.90644 4.74999 2.38312 4.75 2.88V10.38H8.5V4.75Z" stroke="none" stroke-miterlimit="10"/>
</svg>
