<svg width="30" height="30" viewBox="0 0 30 30" fill="none" xmlns="http://www.w3.org/2000/svg">
<path d="M26.25 11.25H3.75C1.67871 11.25 0 12.9316 0 15V20.625C0 21.6604 0.839648 22.5 1.875 22.5H3.75V28.125C3.75 29.1604 4.58965 30 5.625 30H24.375C25.4104 30 26.25 29.1604 26.25 28.125V22.5H28.125C29.1604 22.5 30 21.6604 30 20.625V15C30 12.9316 28.3184 11.25 26.25 11.25ZM22.5 26.25H7.5V20.625H22.5V26.25ZM25.3125 17.3438C24.5361 17.3438 23.9062 16.7139 23.9062 15.9375C23.9062 15.16 24.5361 14.5312 25.3125 14.5312C26.0889 14.5312 26.7188 15.16 26.7188 15.9375C26.7188 16.7168 26.0918 17.3438 25.3125 17.3438ZM7.5 3.75H20.9473L22.5 5.30332V9.375H26.25V4.52637C26.25 4.02926 26.0522 3.55254 25.7007 3.20098L23.0493 0.549609C22.6992 0.197754 22.2188 0 21.7266 0H5.625C4.59023 0 3.75 0.839648 3.75 1.875V9.375H7.5V3.75Z" fill="black"/>
</svg>
