<svg width="53" height="70" viewBox="0 0 53 70" fill="none" xmlns="http://www.w3.org/2000/svg">
<path d="M23.3433 68.25C16.2065 59.4727 0.333496 38.1992 0.333496 26.25C0.333496 11.7523 12.0858 0 26.5835 0C41.0757 0 52.8335 11.7523 52.8335 26.25C52.8335 38.1992 36.8374 59.4727 29.8237 68.25C28.1421 70.3418 25.0249 70.3418 23.3433 68.25ZM26.5835 35C31.4097 35 35.3335 31.0762 35.3335 26.25C35.3335 21.4238 31.4097 17.5 26.5835 17.5C21.7573 17.5 17.8335 21.4238 17.8335 26.25C17.8335 31.0762 21.7573 35 26.5835 35Z" fill="white"/>
</svg>

