<svg width="70" height="54" viewBox="0 0 70 54" fill="none" xmlns="http://www.w3.org/2000/svg">
<path d="M62.2222 0.75C66.5122 0.75 70 4.66699 70 9.5V44.5C70 49.3262 66.5122 53.25 62.2222 53.25H7.77778C3.48177 53.25 0 49.3262 0 44.5V9.5C0 4.66699 3.48177 0.75 7.77778 0.75H62.2222ZM33.0556 18.25C31.9861 18.25 31.1111 19.2344 31.1111 20.4375C31.1111 21.6406 31.9861 22.625 33.0556 22.625H60.2778C61.3472 22.625 62.2222 21.6406 62.2222 20.4375C62.2222 19.2344 61.3472 18.25 60.2778 18.25H33.0556ZM33.0556 35.75H60.2778C61.3472 35.75 62.2222 34.7656 62.2222 33.5625C62.2222 32.3594 61.3472 31.375 60.2778 31.375H33.0556C31.9861 31.375 31.1111 32.3594 31.1111 33.5625C31.1111 34.7656 31.9861 35.75 33.0556 35.75ZM19.9427 13.875C19.9427 12.3574 18.849 11.127 17.3906 11.127C16.151 11.127 15.0573 12.3574 15.0573 13.875V14.6953C14.3767 14.8594 13.6233 15.0918 13.125 15.3926C11.3094 16.3223 9.73073 18.0449 9.3467 20.5469C9.1316 21.9414 9.24583 23.2949 9.76111 24.5117C10.2655 25.7148 11.059 26.5625 11.8648 27.1777C13.2708 28.2578 15.1302 28.8867 16.5521 29.3652L16.8194 29.4473C18.5208 30.0352 19.6632 30.459 20.3802 31.0469C20.684 31.293 20.7934 31.4844 20.8299 31.6074C20.8785 31.7168 20.9514 31.9629 20.8663 32.5098C20.7934 32.9883 20.5625 33.3984 19.8941 33.7129C19.1528 34.0684 17.9497 34.2461 16.3941 33.9727C15.6649 33.8359 14.3646 33.3438 13.2101 32.9063C12.9427 32.7969 12.6753 32.7012 12.4323 32.6055C11.1611 32.127 9.7842 32.9063 9.36007 34.3418C8.93594 35.7773 9.625 37.3223 10.8986 37.6777C11.0457 37.8555 11.228 37.9238 11.437 38.0059C12.2865 38.375 13.9028 38.9492 15.0573 39.25V40.125C15.0573 41.6426 16.151 42.873 17.3906 42.873C18.849 42.873 19.9427 41.6426 19.9427 40.125V39.373C20.5868 39.2363 21.2187 38.9082 21.8021 38.7441C23.7222 37.8281 25.2535 36.0508 25.6545 33.4531C25.8733 32.0313 25.776 30.6641 25.2899 29.4199C24.816 28.1895 24.0503 27.2871 23.2361 26.6309C21.7656 25.4141 19.7969 24.7578 18.3264 24.252L18.1198 24.2246C16.5035 23.6367 15.3368 23.2266 14.5955 22.6523C14.2795 22.4062 14.1823 22.2422 14.158 22.1738C14.1337 22.1191 14.0608 21.9551 14.1337 21.4902C14.1823 21.2168 14.3646 20.7656 15.1302 20.3828C15.8108 19.9863 17.1233 19.7676 18.6059 19.9043C19.1406 20.123 20.7812 20.4785 21.2552 20.6152C22.5434 21.0117 23.8802 20.1367 24.2205 18.6738C24.5729 17.2246 23.7951 15.7207 22.4948 15.3379C21.9601 15.1738 20.7448 14.9004 19.9427 14.7363V13.875Z" fill="white"/>
</svg>
