<svg width="70" height="70" viewBox="0 0 70 70" fill="none" xmlns="http://www.w3.org/2000/svg">
<path d="M70 45.9375V6.5625C70 2.93809 66.6406 0 62.5 0H15C6.71562 0 0 5.87617 0 13.125V56.875C0 64.1238 6.71562 70 15 70H65C67.7609 70 70 68.0408 70 65.748C70 64.1457 68.9677 62.8059 67.5 62.043V50.9195C69.0313 49.6016 70 47.8789 70 45.9375ZM22.3594 17.5H52.3594C53.875 17.5 55 18.4844 55 19.6875C55 20.8906 53.875 21.875 52.5 21.875H22.3594C21.125 21.875 20 20.8906 20 19.6875C20 18.4844 21.125 17.5 22.3594 17.5ZM22.3594 26.25H52.3594C53.875 26.25 55 27.2344 55 28.4375C55 29.6406 53.875 30.625 52.5 30.625H22.3594C21.125 30.625 20 29.6406 20 28.4375C20 27.2344 21.125 26.25 22.3594 26.25ZM60 61.25H15C12.2391 61.25 10 59.2908 10 56.875C10 54.4592 12.2391 52.5 15 52.5H60V61.25Z" fill="white"/>
</svg>
