<svg width="38" height="50" viewBox="0 0 38 50" fill="none" xmlns="http://www.w3.org/2000/svg">
<path d="M21.2296 3.79004V5.60938C27.2833 7.01462 31.8443 13.1331 31.8443 20.4673V22.2487C31.8443 26.7118 33.279 31.0043 35.8664 34.3397L36.48 35.1262C37.1766 36.0264 37.3508 37.2961 36.9195 38.3858C36.4883 39.4756 35.5429 40.1768 34.498 40.1768H2.65368C1.60878 40.1768 0.660999 39.4756 0.232925 38.3858C-0.195149 37.2961 -0.023928 36.0264 0.67037 35.1262L1.28536 34.3397C3.87604 31.0043 5.30737 26.7118 5.30737 22.2487V20.4673C5.30737 13.1331 9.79378 7.01462 15.9222 5.60938V3.79004C15.9222 2.11568 17.108 0.757812 18.5759 0.757812C20.0437 0.757812 21.2296 2.11568 21.2296 3.79004ZM18.5759 49.2734C17.1661 49.2734 15.8144 48.6386 14.8192 47.5015C13.8241 46.3644 13.2685 44.7346 13.2685 43.209H23.8833C23.8833 44.7346 23.3276 46.3644 22.3325 47.5015C21.3374 48.6386 19.911 49.2734 18.5759 49.2734Z" fill="white"/>
</svg>
