<svg width="46" height="46" viewBox="0 0 46 46" fill="none" xmlns="http://www.w3.org/2000/svg">
<g clip-path="url(#clip0_2368_10126)">
<path d="M21.2026 16.4675C21.2026 17.8565 20.0759 18.9832 18.6869 18.9832C17.298 18.9832 16.1713 17.8601 16.1713 16.4675C16.1713 15.075 17.2944 13.9519 18.6869 13.9519C20.0795 13.9519 21.2026 15.075 21.2026 16.4675ZM44.9483 45.6039C43.5449 47.0072 41.2692 47.0072 39.8658 45.6039L29.1115 34.8496C25.4809 37.2951 20.9447 38.5017 16.1111 37.8557C7.88593 36.7569 1.19707 30.0142 0.154879 21.7827C-1.39403 9.54597 8.89578 -0.74114 21.1244 0.813157C29.3577 1.85534 36.1014 8.54601 37.1975 16.7694C37.8434 21.603 36.6372 26.1401 34.1913 29.7698L44.9456 40.5241C46.3498 41.9203 46.3498 44.2023 44.9483 45.6039ZM26.4225 17.0246C26.4225 12.739 22.9635 9.28003 18.6061 9.28003C14.4104 9.28003 10.9514 12.739 10.9514 17.0246C10.9514 20.4701 16.0087 26.7726 17.9475 29.0636C18.1299 29.2703 18.3905 29.405 18.6061 29.405C18.8942 29.405 19.1685 29.2739 19.3521 29.0644C21.3643 26.7726 26.4225 20.4656 26.4225 17.0246Z" fill="white"/>
</g>
<defs>
<clipPath id="clip0_2368_10126">
<rect width="46" height="46" fill="white"/>
</clipPath>
</defs>
</svg>
