<svg width="23" height="20" viewBox="0 0 23 20" fill="none" xmlns="http://www.w3.org/2000/svg">
<g clip-path="url(#clip0_1263_43060)">
<path d="M21.875 17.5001H20V4.43374C20 3.36928 19.1602 2.50014 18.125 2.50014L13.75 2.50053V5.00014H17.5V20.0001H21.875C22.2217 20.0001 22.5 19.7218 22.5 19.4103V18.1955C22.5 17.7775 22.2227 17.5001 21.875 17.5001ZM10.9492 0.0394775L3.44922 1.98284C2.85547 2.12944 2.5 2.64702 2.5 3.23764V17.5001H0.625C0.27832 17.5001 0 17.7785 0 18.09V19.3048C0 19.7228 0.27832 20.0001 0.625 20.0001H12.5V1.29428C12.5 0.454438 11.7383 -0.165601 10.9492 0.0394775ZM9.0625 11.2501C8.54492 11.2501 8.125 10.6888 8.125 10.0353C8.125 9.34702 8.54492 8.82045 9.0625 8.82045C9.58008 8.82045 10 9.31264 10 10.0001C10 10.6876 9.58203 11.2501 9.0625 11.2501Z" fill="black"/>
</g>
<defs>
<clipPath id="clip0_1263_43060">
<rect width="22.5" height="20" fill="white"/>
</clipPath>
</defs>
</svg>
