<!-- 藍色顏料 -->
<svg width="109" height="27" viewBox="0 0 109 27" fill="none" xmlns="http://www.w3.org/2000/svg">
<g opacity="0.6">
<path opacity="0.23" d="M16.3214 25.9507C17.4984 25.9507 18.671 25.8925 19.8481 25.9028C21.2781 25.913 22.7081 25.9028 24.1381 25.8925C25.9624 25.8925 27.7867 25.9113 29.6096 25.9079C39.5139 25.8942 49.4178 25.8902 59.3212 25.8959C69.2037 25.8959 79.0868 25.8988 88.9703 25.9045C93.4597 25.9045 97.9491 25.8891 102.439 25.9045C103.215 25.8486 103.616 25.3733 103.639 24.4787C103.378 23.0322 102.676 21.7405 101.66 20.8365C100.082 18.8696 98.4092 17.0056 96.65 15.2533C95.8321 14.114 94.6877 13.3475 93.4225 13.0915C92.2321 13.0607 91.0416 13.0624 89.8601 13.0505C89.1488 13.0505 88.4346 13.0334 87.7233 13.0505C86.96 13.0676 86.1996 13.1104 85.4362 13.1052C83.6238 13.0927 81.8118 13.0841 80.0004 13.0796C70.1387 13.0488 60.277 13.0396 50.4153 13.0522C40.4861 13.0522 30.5555 13.0642 20.6233 13.0881C18.9865 13.0881 17.3496 13.0744 15.7128 13.0368C14.2248 13.0008 12.7367 13.0607 11.2487 13.0693C10.7576 13.0693 10.2651 13.0488 9.77405 13.0556C9.3946 13.0556 9.01515 13.1104 8.6357 13.1224C8.32619 13.1326 8.0137 13.1224 7.7027 13.1104C6.93041 13.1549 6.52269 13.6238 6.47656 14.507C6.69823 15.9411 7.36305 17.2346 8.34851 18.1493C9.86338 20.122 11.4735 21.9951 13.1712 23.7599C13.957 24.9035 15.0759 25.6817 16.3214 25.9507Z" fill="#75BBE3"/>
<path opacity="0.23" d="M7.09966 18.039C7.6294 18.2547 8.16063 18.4858 8.70078 18.6655L9.8302 18.9804L10.3361 18.8777L10.9313 18.7528H11.4834C14.5755 18.7288 17.6662 18.7664 20.7568 18.7528C30.7832 18.7334 40.8091 18.7282 50.8345 18.7374C60.7746 18.7374 70.7141 18.7408 80.6532 18.7476C85.3272 18.7476 90.0011 18.7322 94.675 18.7476C95.3962 18.6335 95.7985 18.1605 95.8818 17.3287C95.8197 16.698 95.6479 16.0881 95.3767 15.5353C95.1055 14.9825 94.7403 14.4981 94.303 14.1109C92.979 12.4154 91.5603 10.8208 90.0561 9.33732C89.7104 8.84404 89.2819 8.43575 88.7962 8.13672C88.3105 7.8377 87.7775 7.65403 87.2289 7.59664C86.2378 7.5761 85.2468 7.57953 84.2528 7.56583C82.8848 7.54872 81.5173 7.55842 80.1503 7.59493C78.5655 7.63601 76.9778 7.59493 75.3886 7.59493C66.4604 7.56754 57.5322 7.55842 48.6039 7.56755C39.1926 7.56755 29.7808 7.57268 20.3685 7.58295C18.3844 7.58295 16.4004 7.58751 14.4163 7.59664C13.3598 7.59664 12.3003 7.62232 11.2438 7.59664C10.5087 7.58295 9.77663 7.54701 9.04154 7.55043C7.70231 7.55043 6.36308 7.57268 5.02385 7.57781C4.71731 7.57781 4.41227 7.57781 4.10573 7.59151L3.57748 7.60349C3.24267 7.65141 2.90786 7.76095 2.57901 7.83798L3.70843 8.15291L2.3558 7.69934C1.66138 7.24291 1.01111 7.28627 0.404987 7.82942C-0.0801127 8.52204 -0.126242 9.26886 0.266599 10.0699C1.17058 11.6312 2.22263 13.072 3.40338 14.366C4.51368 15.7437 5.75335 16.9755 7.09966 18.039Z" fill="#75BBE3"/>
<path opacity="0.23" d="M6.88409 6.37846C7.75162 6.95527 8.62807 7.51153 9.50899 8.06095C9.85223 8.45119 10.2198 8.54932 10.6116 8.35534C10.8175 8.32676 11.016 8.25007 11.1952 8.12998C11.3743 8.00989 11.5302 7.84894 11.6532 7.65702C11.8913 7.40598 12.1264 7.1521 12.3586 6.89536L10.9792 7.69638L11.6815 7.49784C11.8782 7.40901 12.095 7.39817 12.2976 7.46703C12.9434 7.53378 13.5803 7.59026 14.232 7.59882C15.72 7.62107 17.2081 7.59882 18.6961 7.59882C22.565 7.59882 26.4339 7.59882 30.3028 7.59882H58.1276C70.3166 7.59882 82.5056 7.59882 94.6946 7.59882C94.9598 7.57859 95.2187 7.49691 95.4557 7.35866C95.6927 7.22042 95.9031 7.02848 96.074 6.79438C96.2759 6.59582 96.4408 6.35226 96.5587 6.07839C96.6766 5.80452 96.7451 5.50602 96.76 5.20089C96.5692 4.49933 96.2114 3.87322 95.7273 3.39346C95.3058 2.84121 94.7584 2.43568 94.147 2.22273H25.3714C21.7496 2.22273 18.1287 2.22787 14.5088 2.23813C13.7142 2.23813 12.9315 2.22102 12.1398 2.15084L11.4152 2.0858L10.8943 2.19877C10.6178 2.24675 10.344 2.31362 10.0744 2.39902C9.86852 2.4293 9.67006 2.50724 9.49104 2.62814C9.31202 2.74904 9.15614 2.9104 9.03281 3.10249C8.77836 3.33355 8.52539 3.56804 8.27243 3.80252L10.4182 3.39859C9.66424 2.98096 8.91129 2.55934 8.15934 2.13373C7.97874 1.97296 7.75613 1.8873 7.52779 1.89072C7.29944 1.89414 7.07884 1.98644 6.90195 2.15256C6.41126 2.51381 5.9961 2.99543 5.68622 3.5629C5.54414 3.76851 5.4668 4.0234 5.4668 4.28605C5.4668 4.54869 5.54414 4.80359 5.68622 5.00919C5.99001 5.56425 6.39964 6.0325 6.88409 6.37846Z" fill="#75BBE3"/>
<path opacity="0.23" d="M14.1515 15.9399C15.33 15.9519 16.5056 15.9279 17.6841 15.9399C19.1156 15.9399 20.5471 15.9399 21.9786 15.9296C23.7999 15.9296 25.6198 15.9536 27.4411 15.9502C37.3475 15.9308 47.2533 15.9251 57.1587 15.9331C67.0403 15.9331 76.9218 15.9371 86.8033 15.945C91.2927 15.945 95.7822 15.9262 100.272 15.945C101.099 15.945 101.496 15.4681 101.462 14.5142C101.078 12.9189 100.259 11.5077 99.1258 10.4885C97.3153 8.27828 95.4136 6.17646 93.4206 4.18303C92.4929 2.91938 91.2368 2.03197 89.8375 1.65159C88.647 1.62079 87.4566 1.61736 86.2662 1.60367C85.5504 1.59511 84.8317 1.59169 84.1145 1.60367C83.3556 1.6225 82.5982 1.66871 81.8393 1.66186C80.0268 1.64817 78.2149 1.63847 76.4035 1.63277C66.5418 1.59511 56.6805 1.58313 46.8198 1.59682C36.8887 1.59682 26.956 1.59682 17.0234 1.64304C16.1306 1.64304 15.2497 1.65502 14.3613 1.64304C13.6173 1.64304 12.8733 1.5934 12.1203 1.57628C10.6323 1.54205 9.14426 1.60709 7.65622 1.61565C6.49406 1.61565 5.34084 1.61565 4.18166 1.70465C3.36324 1.70465 2.9575 2.17363 2.96444 3.11158C3.30155 4.68979 4.08001 6.09695 5.18013 7.11669C6.91721 9.31505 8.74931 11.4115 10.6695 13.3982C11.5582 14.6594 12.781 15.552 14.1515 15.9399Z" fill="#75BBE3"/>
<path opacity="0.23" d="M4.17925 16.4082L4.75661 16.7403L5.19111 16.9919C5.58792 17.2121 5.98473 17.4295 6.38154 17.644L7.25204 17.6714L7.81006 17.5841C8.2029 17.5225 8.59425 17.4694 8.99007 17.4318C9.65076 17.3701 10.2966 17.3873 10.9617 17.3941C11.7742 17.3941 12.5881 17.4078 13.4021 17.4078H48.3055C62.9388 17.4078 77.5712 17.4078 92.2025 17.4078C92.4913 17.3101 92.7547 17.132 92.9693 16.8893C93.184 16.6466 93.3433 16.3467 93.4331 16.0163C93.5621 15.0954 93.3091 14.3093 92.6742 13.6577C91.8715 12.5057 90.9697 11.45 89.9824 10.5067C89.4258 9.76499 88.7468 9.46033 87.9452 9.59269C75.0251 9.59269 62.1055 9.59269 49.1864 9.59269H9.58975C8.27432 9.59269 6.95741 9.58071 5.6405 9.56873C5.17209 9.5584 4.70409 9.60661 4.24472 9.7125C3.88611 9.80151 3.53047 9.95555 3.17929 10.0754L4.04979 10.1027L2.13915 9.20587C1.8558 9.1195 1.55725 9.12443 1.27617 9.22012C0.995085 9.31582 0.7423 9.49859 0.545467 9.74845C0.324694 9.97056 0.16138 10.2583 0.0734449 10.5802C-0.0144904 10.9021 -0.0236487 11.2455 0.0469751 11.573C0.493946 12.6021 1.09887 13.5298 1.83262 14.3115C2.49884 15.1671 3.29378 15.8773 4.17925 16.4082Z" fill="#75BBE3"/>
<path opacity="0.23" d="M13.4741 6.57441L14.108 6.9561C14.3639 7.10786 14.6204 7.25848 14.8773 7.40795C15.2076 7.60079 15.539 7.79078 15.8713 7.97791L16.6778 7.91287L17.3013 7.64415L17.6718 7.48326L18.7135 7.33093L17.898 7.38741C20.6315 7.43192 23.3636 7.42165 26.0971 7.42165H65.4437C77.1496 7.42165 88.8555 7.42165 100.561 7.42165C100.844 7.4839 101.136 7.45941 101.407 7.35063C101.679 7.24186 101.921 7.05264 102.109 6.80205C102.322 6.58078 102.48 6.29859 102.568 5.98415C102.655 5.6697 102.669 5.33421 102.607 5.01173C102.189 4.04986 101.614 3.18977 100.913 2.47859C100.28 1.69284 99.5222 1.05374 98.6805 0.595843C85.5173 0.595843 72.3537 0.595843 59.1895 0.595843H30.5002C26.9577 0.595843 23.4142 0.595843 19.8697 0.595843C19.0557 0.595843 18.2418 0.595843 17.4278 0.580438C16.8192 0.568457 16.2121 0.532514 15.6035 0.580438C15.3756 0.584971 15.1483 0.608423 14.9234 0.650613L14.1526 0.768713C13.8446 0.910774 13.5485 1.12815 13.2598 1.30444L14.0663 1.2394L12.05 0.263795C11.7722 0.228472 11.4911 0.272464 11.2315 0.391878C10.972 0.511292 10.742 0.702446 10.562 0.948429C10.3527 1.1585 10.1914 1.42434 10.092 1.72271C9.99265 2.02107 9.95835 2.34288 9.99208 2.66001C10.3333 3.53218 10.8343 4.30927 11.4608 4.93814C12.0218 5.64372 12.7085 6.20183 13.4741 6.57441Z" fill="#75BBE3"/>
<path opacity="0.23" d="M13.5212 9.72186L14.0539 10.0077L14.4527 10.2182C14.8158 10.4065 15.1804 10.5913 15.5464 10.7728L16.6178 11.0021L17.1074 10.8943L17.6833 10.7676L18.2249 10.7539C21.3111 10.6786 24.4003 10.7539 27.4864 10.7539C37.5128 10.7334 47.5387 10.7288 57.5641 10.7403C67.5032 10.7403 77.4428 10.7403 87.3829 10.7403C92.0553 10.7403 96.7292 10.7231 101.403 10.7403C102.098 10.5851 102.494 10.1053 102.594 9.30081C102.554 8.71278 102.405 8.14143 102.156 7.62532C101.908 7.10921 101.566 6.66033 101.155 6.30896C99.9256 4.76371 98.6029 3.32065 97.1965 1.99063C96.869 1.53542 96.4604 1.16633 95.9984 0.908266C95.5363 0.650201 95.0315 0.509172 94.518 0.4947C93.5255 0.479296 92.533 0.481008 91.5419 0.469027C90.1759 0.453622 88.8114 0.458757 87.4454 0.492989C85.8606 0.532355 84.2714 0.492989 82.6836 0.492989C73.7554 0.469027 64.8272 0.461039 55.899 0.469027C46.4887 0.469027 37.0783 0.47302 27.668 0.481008C25.6839 0.481008 23.6999 0.485572 21.7158 0.4947C20.6578 0.4947 19.5984 0.518662 18.5404 0.4947C17.8038 0.481007 17.0702 0.448487 16.3336 0.45191C14.9944 0.45191 13.6626 0.470738 12.3278 0.481008C12.0302 0.481008 11.7326 0.481008 11.435 0.51524L10.9216 0.55974C10.6106 0.619646 10.2996 0.730899 9.9931 0.826748L11.0645 1.05439L9.31902 0.232828C8.63849 -0.149427 8.01897 -0.0609948 7.46046 0.498123C6.98429 1.15081 6.91832 1.86511 7.26255 2.64103C8.07455 4.05672 9.03401 5.35289 10.1196 6.50065C11.1353 7.7296 12.2776 8.81134 13.5212 9.72186Z" fill="#75BBE3"/>
<path opacity="0.23" d="M12.1322 12.6351L13.1441 12.7515C13.5231 12.7637 13.9024 12.7339 14.2765 12.6625C14.7361 12.6277 15.197 12.6203 15.6574 12.6403C18.9102 12.6471 22.1631 12.6505 25.4159 12.6505C35.3232 12.6311 45.2306 12.626 55.1379 12.6351C65.0185 12.6351 74.8985 12.6385 84.7781 12.6454C89.266 12.6454 93.7554 12.6249 98.2433 12.6454C99.0003 12.5655 99.3971 12.088 99.4338 11.2128C99.2109 9.82614 98.5467 8.58486 97.5707 7.73143C96.0679 5.86723 94.4709 4.10638 92.7882 2.45803C92.0046 1.37344 90.8981 0.663221 89.6842 0.465745C88.4937 0.438359 87.3033 0.436648 86.1129 0.422955C84.6382 0.407551 83.1636 0.486283 81.6904 0.476014C79.878 0.463462 78.0656 0.455475 76.2531 0.452052C66.3904 0.421243 56.5282 0.411544 46.6665 0.422955C36.7354 0.422955 26.8057 0.412685 16.8746 0.460609C15.2377 0.460609 13.6009 0.441782 11.9641 0.407551C10.476 0.376742 8.98798 0.433225 7.49995 0.441783C7.01634 0.441783 6.52826 0.419532 6.04614 0.441783C5.6905 0.46061 5.33783 0.559882 4.98219 0.578709C4.63963 0.571679 4.29775 0.540814 3.95842 0.486283C3.20548 0.559311 2.79974 1.02829 2.74121 1.89321C2.92624 3.26597 3.55689 4.50699 4.50602 5.36601C5.95058 7.2262 7.49099 8.98489 9.11893 10.6326C9.8683 11.7127 10.9444 12.4278 12.1322 12.6351Z" fill="#75BBE3"/>
<path opacity="0.23" d="M10.2674 26.0319C10.8195 26.2749 11.3775 26.5556 11.9445 26.7405L13.0203 27.0006L13.5441 26.9134L14.1572 26.8107H14.7137C17.8058 26.8107 20.898 26.8209 23.9916 26.8107C34.011 26.7935 44.0349 26.789 54.0633 26.797C64.0034 26.797 73.944 26.797 83.885 26.797C88.5589 26.797 93.2329 26.7781 97.9068 26.797C98.6012 26.66 99.004 26.1876 99.1151 25.3798C99.078 24.7834 98.9315 24.2028 98.6853 23.6762C98.4391 23.1496 98.0987 22.689 97.6866 22.3246C96.4598 20.7323 95.1371 19.2413 93.7284 17.8625C93.404 17.3966 92.9977 17.0149 92.5361 16.7424C92.0745 16.4698 91.5681 16.3126 91.0499 16.281C90.0604 16.2604 89.0708 16.2673 88.0739 16.2553C86.7063 16.2399 85.3418 16.2433 83.9743 16.2776C82.3896 16.3186 80.8018 16.2776 79.2126 16.2776C70.2844 16.2536 61.3562 16.2456 52.428 16.2536C43.0166 16.2536 33.6053 16.2582 24.194 16.2673C22.2099 16.2673 20.2259 16.2713 18.2418 16.2793C17.1823 16.2793 16.1214 16.3015 15.0619 16.2793C14.3298 16.2673 13.5992 16.2331 12.867 16.2365C11.5278 16.2365 10.1886 16.2536 8.84935 16.2639C8.54281 16.2639 8.23628 16.269 7.92974 16.2793L7.4 16.2912C7.06817 16.3392 6.73485 16.4504 6.40748 16.5292L7.48482 16.7893L6.02654 16.2142C5.34601 15.7955 4.71608 15.8588 4.13674 16.4042C3.64866 17.0615 3.57922 17.7849 3.92841 18.5745C4.75041 20.0483 5.72144 21.4048 6.82115 22.6156C7.84852 23.907 9.00535 25.0537 10.2674 26.0319Z" fill="#75BBE3"/>
<path opacity="0.23" d="M19.0737 15.9246L20.0156 15.964C20.4025 15.9777 20.7924 15.9281 21.1792 15.9024C21.645 15.8699 22.1137 15.9024 22.5795 15.9024C24.0125 15.9144 25.4454 15.9024 26.8784 15.8938C28.6983 15.8938 30.5182 15.9144 32.338 15.9109C42.2434 15.8961 52.1497 15.8915 62.0571 15.8972C71.9376 15.8972 81.8187 15.9007 91.7002 15.9075C96.1881 15.9075 100.676 15.8921 105.164 15.9075C105.948 15.8505 106.344 15.3701 106.354 14.4664C106.06 13.0002 105.326 11.7 104.282 10.7933C102.647 8.80959 100.919 6.93031 99.1062 5.16389C98.2598 4.01626 97.0903 3.24643 95.8012 2.98846C94.6108 2.95765 93.4308 2.95766 92.2449 2.94396C91.5321 2.9354 90.8163 2.92856 90.1036 2.94396C89.3387 2.96108 88.5754 3.00558 87.809 3.00044C85.9996 2.98675 84.1896 2.97762 82.3792 2.97306C72.5204 2.93883 62.6612 2.92799 52.8015 2.94054C42.8674 2.94054 32.9332 2.95423 22.9991 2.98162C22.1063 2.98162 21.2224 2.9936 20.334 2.98162C19.59 2.98162 18.846 2.93712 18.102 2.91829C16.6139 2.88406 15.117 2.94739 13.626 2.95423C13.1394 2.95423 12.6513 2.93198 12.1632 2.94054C11.7927 2.94054 11.4192 3.00387 11.0532 3.01414C10.7392 3.0227 10.4207 2.99018 10.1068 2.97819C9.32704 3.02498 8.92328 3.49623 8.89551 4.39196C9.15023 5.84578 9.84652 7.14784 10.8597 8.06503C12.4308 10.0551 14.0965 11.9436 15.8491 13.7218C16.6626 14.873 17.8056 15.6538 19.0737 15.9246Z" fill="#75BBE3"/>
<path opacity="0.23" d="M16.8933 19.325C21.3291 19.2754 25.7665 19.325 30.2038 19.3148C40.1072 19.2976 50.0105 19.2925 59.9139 19.2993C69.7974 19.2993 79.6805 19.3028 89.563 19.3096C94.0539 19.3096 98.5448 19.2908 103.034 19.3096C103.866 19.3096 104.263 18.8338 104.225 17.8787C103.83 16.2766 103.002 14.861 101.86 13.8377C100.035 11.6126 98.1192 9.49424 96.1133 7.48256C95.1786 6.21078 93.9155 5.31502 92.5078 4.92545C91.3174 4.89464 90.127 4.89122 88.9366 4.87752C88.2223 4.87752 87.5051 4.86383 86.7893 4.87752C86.0319 4.89464 85.276 4.94085 84.5186 4.93401C82.7061 4.92031 80.8932 4.91119 79.0798 4.90662C69.2171 4.87011 59.3539 4.8587 49.4902 4.87239C39.5606 4.87239 29.6309 4.87239 19.7012 4.91689C18.8084 4.91689 17.926 4.92887 17.0377 4.91689C16.2936 4.91689 15.5377 4.86897 14.7877 4.85185C13.2997 4.81762 11.8117 4.88095 10.3236 4.89122C9.44867 4.89122 8.57222 4.8587 7.69874 4.89977C7.40114 4.91347 7.11692 4.95454 6.82676 4.98193C6.00536 4.97508 5.59913 5.44406 5.60805 6.38885C5.95725 7.97396 6.74414 9.38597 7.85052 10.4128C9.60343 12.6321 11.4476 14.746 13.383 16.7542C14.2799 18.0262 15.5119 18.9285 16.8933 19.325Z" fill="#75BBE3"/>
<path opacity="0.23" d="M10.5413 21.72L11.5144 21.785C11.9073 21.7921 12.3003 21.7744 12.6915 21.7319C13.1557 21.7011 13.623 21.72 14.0887 21.72C17.3436 21.7291 20.5974 21.7319 23.8503 21.7285C33.7566 21.7114 43.662 21.7068 53.5663 21.7148C63.4489 21.7148 73.3304 21.7183 83.211 21.7251C87.7004 21.7251 92.1898 21.7029 96.6792 21.7251C97.444 21.6601 97.8463 21.1871 97.886 20.3062C97.6618 18.8975 96.995 17.6328 96.0125 16.7529C94.4994 14.8443 92.8916 13.0378 91.1972 11.3426C90.4123 10.2325 89.3003 9.49247 88.0724 9.26304C86.8819 9.23566 85.6915 9.23566 84.5011 9.22197C83.0279 9.20656 81.5577 9.28187 80.0861 9.27332C78.2727 9.26076 76.4587 9.25277 74.6443 9.24935C64.7816 9.21968 54.9184 9.21056 45.0548 9.22197C35.1266 9.22197 25.1969 9.2117 15.2688 9.25791C13.6319 9.25791 11.9951 9.24251 10.3582 9.20656C8.8702 9.17575 7.38216 9.23053 5.89413 9.24079C5.40605 9.24079 4.91798 9.22539 4.4299 9.24079C4.05641 9.25278 3.68588 9.31953 3.31239 9.33322C2.98651 9.34349 2.6517 9.3007 2.32433 9.2853C1.56543 9.34235 1.15573 9.80676 1.09521 10.6785C1.28175 12.0707 1.91384 13.3326 2.86746 14.2164C4.32061 16.126 5.87035 17.9354 7.50865 19.6353C8.26013 20.7382 9.34079 21.4811 10.5413 21.72Z" fill="#75BBE3"/>
<path opacity="0.23" d="M4.82256 9.88194L4.35383 9.58584L4.82256 9.88194L6.82843 11.1314C7.15878 11.5422 7.53674 11.6814 7.96232 11.549C8.14558 11.5692 8.33019 11.532 8.49652 11.4412L8.97418 11.229L9.34321 11.0578L10.367 10.8695L9.5813 10.95C16.1078 11.0475 22.6373 10.9876 29.1638 10.9876H92.2372C92.5163 11.0353 92.8013 11.0012 93.0659 10.8884C93.3304 10.7756 93.5659 10.5878 93.7505 10.3424C93.9642 10.1309 94.1279 9.86076 94.2265 9.55705C94.3251 9.25333 94.3554 8.92587 94.3145 8.6051C93.9594 7.6996 93.444 6.88929 92.8012 6.22599C92.226 5.48516 91.5231 4.89004 90.7373 4.47846H22.5599C19.0164 4.47846 15.4734 4.47846 11.9309 4.47846C11.1155 4.47846 10.2941 4.47846 9.48458 4.45792C8.88334 4.42112 8.28083 4.42112 7.67959 4.45792C7.4583 4.46953 7.23801 4.49927 7.02039 4.54693L6.26596 4.68728C5.95347 4.83276 5.65586 5.04842 5.35677 5.22472L6.13352 5.13742L4.57853 4.34496C4.30409 4.32246 4.02889 4.37439 3.77508 4.49657C3.52128 4.61876 3.29596 4.80778 3.11727 5.04842C2.94587 5.19271 2.80597 5.38084 2.70861 5.59798C2.61125 5.81511 2.55911 6.0553 2.55629 6.29959C2.41343 6.82676 2.54488 7.30087 2.95061 7.72192C3.4792 8.54355 4.10992 9.27134 4.82256 9.88194Z" fill="#75BBE3"/>
<path opacity="0.23" d="M11.9006 18.5315C13.0911 18.576 14.2651 18.5401 15.4496 18.5435C18.7024 18.5538 21.9553 18.5538 25.2081 18.5435C35.1145 18.5264 45.0203 18.5213 54.9257 18.5281C64.8062 18.5281 74.6878 18.5321 84.5703 18.5401C89.0597 18.5401 93.5491 18.5213 98.0385 18.5401C98.856 18.5298 99.2562 18.0546 99.2394 17.1143C98.8857 15.5497 98.0946 14.1623 96.988 13.1657C95.2336 11 93.3856 8.93721 91.451 6.98518C90.5506 5.74386 89.3212 4.87629 87.9511 4.51536C86.7607 4.48626 85.5703 4.48113 84.3799 4.46915C83.6641 4.46915 82.9454 4.45545 82.2297 4.46915C81.4708 4.48797 80.7133 4.53247 79.9544 4.52734C78.142 4.51137 76.3301 4.50167 74.5187 4.49824C64.6579 4.46287 54.7962 4.45146 44.9335 4.46401C35.0024 4.46401 25.0697 4.46401 15.1386 4.50851C14.2458 4.50851 13.3634 4.52049 12.475 4.50851C11.731 4.50851 10.987 4.46059 10.234 4.44347C8.74599 4.40924 7.25796 4.47428 5.76992 4.48284C4.60181 4.48284 3.43668 4.5068 2.27006 4.55301C1.46256 4.55301 1.05434 5.01971 1.04541 5.95309C1.35052 7.5075 2.10035 8.89916 3.17479 9.90514C4.85614 12.0631 6.63324 14.1197 8.49898 16.0669C9.36265 17.3011 10.5598 18.1685 11.9006 18.5315Z" fill="#75BBE3"/>
<path opacity="0.23" d="M19.5491 12.3253L20.0774 12.594L20.4747 12.7909C20.8338 12.9689 21.1939 13.14 21.555 13.3043L22.5862 13.4858L23.107 13.4207C23.4924 13.3711 23.8689 13.3386 24.2558 13.3266C27.3375 13.2325 30.4252 13.3266 33.5084 13.3146C43.5328 13.2975 53.5577 13.2935 63.5831 13.3026C73.5231 13.3026 83.4632 13.3026 93.4033 13.3026C98.0757 13.3026 102.75 13.2872 107.422 13.3026C107.73 13.2439 108.012 13.0702 108.225 12.8085C108.439 12.5468 108.571 12.2116 108.602 11.8546C108.576 11.2915 108.441 10.7422 108.208 10.2463C107.975 9.75045 107.648 9.32053 107.252 8.98772C106.083 7.52419 104.819 6.16365 103.473 4.91757C103.159 4.48365 102.765 4.13563 102.319 3.89878C101.874 3.66193 101.388 3.54221 100.897 3.5483C99.9075 3.52947 98.9165 3.53461 97.921 3.52434C96.5535 3.50893 95.1889 3.51065 93.8229 3.54317C92.2382 3.58253 90.6489 3.54317 89.0612 3.54317C80.133 3.52149 71.2048 3.51407 62.2766 3.52092C52.8652 3.52092 43.4539 3.52491 34.0426 3.5329C32.0585 3.5329 30.0745 3.53632 28.0904 3.54317C27.0324 3.54317 25.9715 3.56542 24.912 3.54317C24.1784 3.5329 23.4463 3.49866 22.7142 3.50209C21.3799 3.50209 20.0451 3.51293 18.7099 3.53461C18.2515 3.53433 17.7936 3.56978 17.3394 3.64073C17.0343 3.69207 16.7308 3.79135 16.4287 3.86666L17.4599 4.04808L15.6281 3.20941C14.9536 2.86709 14.3479 2.97378 13.8113 3.52947C13.3391 4.16162 13.2617 4.86052 13.5791 5.62617C14.3447 6.97644 15.2584 8.20753 16.2978 9.28896C17.2639 10.4572 18.3566 11.4777 19.5491 12.3253Z" fill="#75BBE3"/>
<path opacity="0.23" d="M18.7792 23.6569C23.2166 23.6278 27.6539 23.6449 32.0912 23.6381C41.9936 23.6244 51.8965 23.6204 61.7998 23.6261C71.6834 23.6261 81.5669 23.6289 91.4504 23.6346C95.9398 23.6346 100.431 23.6192 104.92 23.6346C105.73 23.6107 106.127 23.1331 106.111 22.202C105.768 20.6642 104.99 19.3017 103.898 18.3304C102.171 16.2152 100.349 14.2043 98.4412 12.3057C97.553 11.0903 96.3375 10.2507 94.9875 9.9197C93.7971 9.88718 92.6066 9.88718 91.4266 9.87349C90.7139 9.86493 89.9981 9.85637 89.2853 9.87349C88.522 9.89061 87.7601 9.93682 86.9967 9.93168C85.1863 9.91799 83.3754 9.90886 81.5639 9.9043C71.7032 9.86892 61.8425 9.85809 51.9818 9.87178C42.0506 9.87178 32.1185 9.88547 22.1854 9.91286C21.2925 9.91286 20.4086 9.92484 19.5188 9.91286C18.7748 9.91286 18.0308 9.86835 17.2867 9.84953C15.7987 9.81187 14.3032 9.87691 12.8137 9.88547C11.6382 9.88547 10.4641 9.88547 9.29004 9.92312C8.48749 9.93682 8.08026 10.4047 8.06836 11.3266C8.36702 12.8507 9.10485 14.2139 10.162 15.1948C11.8198 17.3136 13.5732 19.3309 15.4148 21.2384C16.2654 22.4601 17.4518 23.3129 18.7792 23.6569Z" fill="#75BBE3"/>
<path opacity="0.23" d="M7.42069 13.5886C7.97871 13.8385 8.5397 14.1175 9.1111 14.316L10.2405 14.6241L10.7271 14.5043L11.2985 14.3622H11.8506C14.9412 14.3502 18.0304 14.3776 21.121 14.3725C31.1474 14.3531 41.1748 14.3474 51.2032 14.3554C61.1413 14.3554 71.0798 14.3588 81.0189 14.3657C85.6914 14.3657 90.3653 14.3502 95.0392 14.3657C95.7574 14.2515 96.1572 13.7763 96.2386 12.9399C96.1751 12.3108 96.0018 11.703 95.7293 11.1527C95.4567 10.6024 95.0904 10.1211 94.6523 9.73752C93.3261 8.05219 91.9049 6.46898 90.398 4.99814C90.0513 4.50766 89.6223 4.10246 89.1366 3.80665C88.6508 3.51083 88.1183 3.33047 87.5707 3.27629C86.5797 3.25746 85.5902 3.25917 84.5947 3.24548C83.2237 3.22836 81.8542 3.23863 80.4862 3.27629C78.9029 3.31736 77.3152 3.27629 75.7245 3.27629C66.7963 3.24662 57.8711 3.23692 48.9488 3.24719C39.5355 3.24719 30.1232 3.25232 20.7118 3.26259C18.7278 3.26259 16.7437 3.26773 14.7597 3.278C13.7032 3.278 12.6437 3.30196 11.5872 3.278C10.8551 3.26431 10.123 3.22836 9.38936 3.23179C8.05013 3.23179 6.7109 3.25404 5.37167 3.26088C5.06712 3.26088 4.76257 3.26602 4.45801 3.27629L3.93125 3.28827C3.60835 3.34133 3.28395 3.45943 2.96551 3.54329L4.09196 3.84796L2.67535 3.33448C1.98093 2.87806 1.33264 2.92712 0.730485 3.48168C0.248362 4.17316 0.203225 4.91827 0.595074 5.71701C1.50106 7.26608 2.55413 8.69434 3.73483 9.97543C4.84271 11.3339 6.07899 12.5458 7.42069 13.5886Z" fill="#75BBE3"/>
<path opacity="0.23" d="M5.58047 21.6912L6.10575 21.965L6.50156 22.167C6.86167 22.3484 7.22326 22.5264 7.58634 22.701L8.47916 22.7661L9.09372 22.7438C9.51632 22.7301 9.93893 22.7141 10.3615 22.6959C11.8362 22.6308 13.3168 22.6959 14.7929 22.6959H49.7067C64.34 22.6959 78.9724 22.6959 93.6037 22.6959C93.8972 22.6096 94.1658 22.4361 94.3825 22.1928C94.5993 21.9494 94.7567 21.6448 94.8388 21.3095C94.943 20.3396 94.6607 19.5146 93.9921 18.8345C93.1342 17.6048 92.1766 16.4718 91.1321 15.4507C90.5567 14.6645 89.8469 14.3222 89.0027 14.4238C76.0836 14.4238 63.164 14.4238 50.2439 14.4238H22.0649C18.2575 14.4238 14.4492 14.4238 10.6398 14.4238C9.32734 14.4238 8.0149 14.4238 6.70096 14.4118C5.82483 14.437 4.95216 14.5481 4.09243 14.7438L4.98526 14.8089L3.19961 14.0455C2.91566 13.9366 2.61049 13.9237 2.32034 14.0083C2.0302 14.093 1.76727 14.2716 1.56277 14.5231C1.33782 14.7535 1.17528 15.0536 1.09454 15.3875C1.0138 15.7213 1.01828 16.0748 1.10743 16.4058C1.61532 17.5104 2.27965 18.51 3.07313 19.3634C3.79161 20.2931 4.63882 21.0796 5.58047 21.6912Z" fill="#75BBE3"/>
</g>
</svg>
