<!-- 黃色顏料 -->
<svg width="88" height="24" viewBox="0 0 88 24" fill="none" xmlns="http://www.w3.org/2000/svg">
<g opacity="0.6">
<path opacity="0.23" d="M13.1899 23.0673C14.1411 23.0673 15.0888 23.0155 16.04 23.0247C17.1957 23.0338 18.3514 23.0246 19.5072 23.0155C20.9816 23.0155 22.456 23.0323 23.9291 23.0292C31.9337 23.017 39.9379 23.0135 47.9416 23.0186C55.9285 23.0186 63.9159 23.0211 71.9036 23.0262C75.5319 23.0262 79.1601 23.0125 82.7884 23.0262C83.4162 22.9765 83.7397 22.554 83.7589 21.7588C83.5477 20.473 82.9805 19.3249 82.1594 18.5213C80.8838 16.7729 79.532 15.1161 78.1103 13.5585C77.4492 12.5457 76.5243 11.8644 75.5018 11.6369C74.5397 11.6095 73.5776 11.6111 72.6228 11.6004C72.0479 11.6004 71.4707 11.5852 70.8958 11.6004C70.2789 11.6156 69.6643 11.6537 69.0474 11.6491C67.5826 11.6379 66.1182 11.6303 64.6543 11.6263C56.6842 11.5989 48.7141 11.5908 40.744 11.6019C32.7194 11.6019 24.6936 11.6126 16.6666 11.6339C15.3437 11.6339 14.0209 11.6217 12.698 11.5882C11.4954 11.5563 10.2928 11.6095 9.09016 11.6171C8.6933 11.6171 8.29524 11.5989 7.89838 11.605C7.59171 11.605 7.28505 11.6537 6.97838 11.6643C6.72824 11.6734 6.47569 11.6643 6.22435 11.6537C5.60019 11.6932 5.27068 12.1101 5.2334 12.8951C5.41255 14.1698 5.94985 15.3196 6.74628 16.1327C7.97057 17.8862 9.27185 19.5512 10.6439 21.1199C11.279 22.1365 12.1832 22.8281 13.1899 23.0673Z" fill="#FEAC00"/>
<path opacity="0.23" d="M5.7384 16.0351C6.16653 16.2268 6.59586 16.4322 7.03241 16.5919L7.94519 16.8719L8.35407 16.7806L8.83512 16.6695H9.28129C11.7803 16.6482 14.2781 16.6817 16.7759 16.6695C24.8791 16.6523 32.9819 16.6477 41.0843 16.6558C49.1177 16.6558 57.1507 16.6589 65.1833 16.665C68.9607 16.665 72.7381 16.6513 76.5155 16.665C77.0984 16.5635 77.4235 16.1431 77.4908 15.4037C77.4406 14.8431 77.3018 14.3009 77.0826 13.8096C76.8634 13.3182 76.5683 12.8876 76.2149 12.5435C75.1448 11.0363 73.9983 9.61891 72.7826 8.30027C72.5032 7.8618 72.1569 7.49888 71.7643 7.23308C71.3718 6.96727 70.941 6.80401 70.4977 6.753C69.6967 6.73475 68.8958 6.73779 68.0924 6.72562C66.9868 6.7104 65.8816 6.71903 64.7768 6.75148C63.4961 6.788 62.2129 6.75148 60.9285 6.75148C53.7129 6.72714 46.4972 6.71903 39.2816 6.72714C31.6755 6.72714 24.069 6.7317 16.4621 6.74083C14.8586 6.74083 13.2551 6.74489 11.6516 6.753C10.7978 6.753 9.94152 6.77583 9.08767 6.753C8.49358 6.74083 7.90189 6.70888 7.30781 6.71193C6.22546 6.71193 5.14311 6.7317 4.06076 6.73627C3.81303 6.73627 3.56649 6.73627 3.31875 6.74844L2.89183 6.75909C2.62124 6.80169 2.35065 6.89906 2.08488 6.96752L2.99766 7.24746L1.90449 6.84429C1.34327 6.43858 0.817729 6.47712 0.327866 6.95992C-0.064184 7.57558 -0.101465 8.23942 0.216024 8.95144C0.946607 10.3392 1.79686 11.62 2.75112 12.7702C3.64846 13.9948 4.65033 15.0898 5.7384 16.0351Z" fill="#FEAC00"/>
<path opacity="0.23" d="M5.5634 5.67082C6.26453 6.18353 6.97286 6.67799 7.68481 7.16636C7.96221 7.51324 8.25925 7.60047 8.57594 7.42804C8.74229 7.40264 8.90279 7.33447 9.04755 7.22772C9.19232 7.12097 9.3183 6.97791 9.41776 6.80731C9.61018 6.58417 9.80019 6.35849 9.9878 6.13028L8.87298 6.8423L9.44061 6.66582C9.59954 6.58686 9.77475 6.57722 9.93849 6.63843C10.4604 6.69777 10.9751 6.74797 11.5019 6.75558C12.7045 6.77536 13.9071 6.75558 15.1097 6.75558C18.2365 6.75558 21.3633 6.75558 24.4901 6.75558H46.9776C56.8286 6.75558 66.6796 6.75558 76.5305 6.75558C76.7449 6.7376 76.9541 6.66499 77.1457 6.54211C77.3372 6.41923 77.5072 6.24861 77.6453 6.04052C77.8086 5.86402 77.9418 5.64753 78.0371 5.40409C78.1324 5.16065 78.1877 4.89531 78.1997 4.62409C78.0456 4.00048 77.7564 3.44394 77.3651 3.01749C77.0245 2.52661 76.5821 2.16613 76.088 1.97684H20.5046C17.5775 1.97684 14.6511 1.98141 11.7256 1.99054C11.0834 1.99054 10.4508 1.97532 9.81102 1.91295L9.22535 1.85513L8.80443 1.95555C8.58096 1.9982 8.35969 2.05764 8.1418 2.13355C7.97537 2.16046 7.81498 2.22974 7.6703 2.33721C7.52562 2.44467 7.39964 2.58811 7.29997 2.75885C7.09433 2.96424 6.88988 3.17267 6.68544 3.3811L8.4196 3.02205C7.81028 2.65083 7.20176 2.27605 6.59404 1.89773C6.44809 1.75483 6.26817 1.67869 6.08363 1.68173C5.89909 1.68477 5.7208 1.76681 5.57784 1.91447C5.18127 2.23559 4.84574 2.66369 4.59531 3.16811C4.48048 3.35086 4.41797 3.57744 4.41797 3.8109C4.41797 4.04436 4.48048 4.27093 4.59531 4.45369C4.84082 4.94708 5.17188 5.3633 5.5634 5.67082Z" fill="#FEAC00"/>
<path opacity="0.23" d="M11.4368 14.167C12.3893 14.1777 13.3393 14.1564 14.2918 14.167C15.4487 14.167 16.6056 14.167 17.7625 14.1579C19.2345 14.1579 20.7053 14.1792 22.1773 14.1762C30.1834 14.1589 38.1892 14.1539 46.1946 14.161C54.1807 14.161 62.1668 14.1645 70.1529 14.1716C73.7812 14.1716 77.4095 14.1549 81.0378 14.1716C81.7064 14.1716 82.0271 13.7476 81.9998 12.8997C81.6899 11.4817 81.028 10.2273 80.1117 9.32137C78.6486 7.35672 77.1116 5.48844 75.5009 3.71651C74.7512 2.59327 73.736 1.80446 72.6051 1.46635C71.643 1.43896 70.6809 1.43592 69.7188 1.42375C69.1404 1.41614 68.5595 1.4131 67.9798 1.42375C67.3665 1.44048 66.7544 1.48156 66.141 1.47548C64.6763 1.46331 63.2119 1.45468 61.7479 1.44961C53.7778 1.41614 45.8081 1.40549 37.8389 1.41766C29.8126 1.41766 21.7852 1.41766 13.7578 1.45874C13.0363 1.45874 12.3243 1.46939 11.6064 1.45874C11.0051 1.45874 10.4037 1.41462 9.79523 1.39941C8.59262 1.36898 7.39001 1.42679 6.1874 1.4344C5.24817 1.4344 4.31614 1.4344 3.37931 1.51351C2.71788 1.51351 2.38997 1.93038 2.39558 2.76411C2.66802 4.16696 3.29716 5.41776 4.18626 6.3242C5.59015 8.27829 7.07082 10.1418 8.62268 11.9078C9.34093 13.0289 10.3291 13.8222 11.4368 14.167Z" fill="#FEAC00"/>
<path opacity="0.23" d="M3.37761 14.5855L3.84422 14.8807L4.19538 15.1043C4.51608 15.3001 4.83677 15.4933 5.15747 15.684L5.86099 15.7083L6.31197 15.6307C6.62946 15.5759 6.94575 15.5288 7.26564 15.4953C7.7996 15.4405 8.32153 15.4558 8.8591 15.4618C9.51572 15.4618 10.1735 15.474 10.8314 15.474H39.0398C50.8662 15.474 62.6919 15.474 74.5167 15.474C74.7501 15.3872 74.963 15.2289 75.1364 15.0132C75.3099 14.7974 75.4387 14.5308 75.5113 14.2371C75.6155 13.4186 75.411 12.7198 74.8979 12.1406C74.2492 11.1166 73.5203 10.1782 72.7224 9.3397C72.2726 8.68043 71.7238 8.40961 71.076 8.52727C60.6342 8.52727 50.1927 8.52727 39.7517 8.52727H7.75029C6.68719 8.52727 5.62288 8.51662 4.55857 8.50597C4.18001 8.49679 3.80177 8.53964 3.43052 8.63377C3.14069 8.71288 2.85327 8.84981 2.56946 8.95631L3.27298 8.98065L1.72883 8.18343C1.49983 8.10665 1.25855 8.11103 1.03138 8.1961C0.804213 8.28116 0.599916 8.44362 0.440838 8.66572C0.262413 8.86316 0.130425 9.11896 0.0593571 9.40505C-0.0117109 9.69114 -0.0191125 9.99647 0.0379646 10.2875C0.3992 11.2023 0.888094 12.0269 1.48109 12.7218C2.01952 13.4823 2.66198 14.1136 3.37761 14.5855Z" fill="#FEAC00"/>
<path opacity="0.23" d="M10.8897 5.84261L11.402 6.18188C11.6089 6.31678 11.8161 6.45066 12.0238 6.58353C12.2907 6.75494 12.5585 6.92382 12.8271 7.09016L13.4789 7.03234L13.9828 6.79348L14.2823 6.65047L15.1241 6.51507L14.4651 6.56527C16.6743 6.60483 18.8822 6.5957 21.0914 6.5957H52.8908C62.3513 6.5957 71.8118 6.5957 81.2723 6.5957C81.5007 6.65104 81.7365 6.62927 81.9561 6.53258C82.1757 6.43589 82.3712 6.2677 82.5231 6.04495C82.6953 5.84827 82.8232 5.59743 82.894 5.31793C82.9647 5.03842 82.9758 4.7402 82.9259 4.45356C82.588 3.59857 82.1229 2.83404 81.5562 2.20188C81.0448 1.50344 80.4325 0.935356 79.7523 0.528335C69.114 0.528335 58.4753 0.528335 47.8362 0.528335H24.65C21.7869 0.528335 18.9231 0.528335 16.0585 0.528335C15.4007 0.528335 14.7429 0.528335 14.085 0.514642C13.5932 0.503993 13.1025 0.472043 12.6106 0.514642C12.4265 0.518671 12.2428 0.539518 12.061 0.57702L11.4381 0.681997C11.1892 0.808274 10.9498 1.00149 10.7165 1.1582L11.3683 1.10038L9.73881 0.233182C9.51426 0.201784 9.28706 0.240888 9.0773 0.347034C8.86754 0.453179 8.68169 0.623094 8.5362 0.841744C8.36706 1.02848 8.23665 1.26478 8.15636 1.52999C8.07607 1.7952 8.04834 2.08125 8.07561 2.36315C8.35139 3.1384 8.75628 3.82915 9.26258 4.38814C9.71599 5.01532 10.271 5.51142 10.8897 5.84261Z" fill="#FEAC00"/>
<path opacity="0.23" d="M10.9276 8.64163L11.3581 8.89571L11.6804 9.08284C11.9739 9.25019 12.2685 9.41451 12.5644 9.57578L13.4302 9.77964L13.8259 9.68379L14.2913 9.57121L14.729 9.55904C17.2233 9.4921 19.7199 9.55904 22.2141 9.55904C30.3173 9.54078 38.42 9.53673 46.5224 9.54687C54.555 9.54687 62.5881 9.54687 70.6215 9.54687C74.3977 9.54687 78.1751 9.53166 81.9524 9.54687C82.5137 9.40893 82.8344 8.98243 82.9145 8.26737C82.8823 7.74467 82.7617 7.23681 82.5611 6.77805C82.3605 6.31928 82.0845 5.92027 81.7516 5.60795C80.7584 4.2344 79.6894 2.95168 78.5527 1.76944C78.288 1.36482 77.9578 1.03674 77.5844 0.807346C77.211 0.577955 76.803 0.452596 76.388 0.439732C75.5858 0.42604 74.7837 0.427561 73.9828 0.416912C72.8788 0.403219 71.776 0.407783 70.672 0.438211C69.3912 0.473204 68.1068 0.438211 66.8236 0.438211C59.608 0.416911 52.3923 0.409812 45.1767 0.416912C37.5714 0.416912 29.9661 0.420461 22.3608 0.427561C20.7573 0.427561 19.1538 0.431618 17.5504 0.439732C16.6953 0.439732 15.8391 0.461032 14.984 0.439732C14.3887 0.427561 13.7958 0.398654 13.2005 0.401697C12.1182 0.401697 11.0419 0.418433 9.96311 0.427561C9.72259 0.427561 9.48207 0.427561 9.24155 0.45799L8.82665 0.497546C8.5753 0.550795 8.32396 0.649687 8.07622 0.734885L8.9421 0.937232L7.53144 0.206957C6.98144 -0.132823 6.48076 -0.0542174 6.02938 0.442775C5.64454 1.02294 5.59123 1.65787 5.86943 2.34758C6.52567 3.60597 7.3011 4.75811 8.17844 5.77835C8.99932 6.87074 9.92253 7.83228 10.9276 8.64163Z" fill="#FEAC00"/>
<path opacity="0.23" d="M9.8045 11.2325L10.6223 11.3359C10.9286 11.3468 11.2351 11.3203 11.5375 11.2568C11.909 11.2259 12.2815 11.2193 12.6535 11.2371C15.2824 11.2431 17.9113 11.2462 20.5402 11.2462C28.5472 11.2289 36.5541 11.2244 44.5611 11.2325C52.5464 11.2325 60.5313 11.2355 68.5158 11.2416C72.1429 11.2416 75.7712 11.2234 79.3982 11.2416C80.01 11.1706 80.3307 10.7462 80.3603 9.9682C80.1802 8.73563 79.6434 7.63227 78.8547 6.87367C77.6401 5.2166 76.3494 3.65141 74.9895 2.18621C74.3562 1.22213 73.4619 0.590832 72.4808 0.415297C71.5187 0.390955 70.5567 0.389433 69.5946 0.377262C68.4028 0.363569 67.211 0.433554 66.0204 0.424425C64.5556 0.413268 63.0909 0.406168 61.6261 0.403126C53.6552 0.37574 45.6847 0.367119 37.7146 0.377262C29.6884 0.377262 21.6634 0.368133 13.6372 0.410733C12.3143 0.410733 10.9915 0.393997 9.66861 0.363569C8.466 0.336184 7.26339 0.386391 6.06078 0.393998C5.66994 0.393998 5.27548 0.374219 4.88584 0.393998C4.59841 0.410733 4.3134 0.498974 4.02597 0.51571C3.74912 0.509461 3.47281 0.482026 3.19858 0.433554C2.59006 0.498467 2.26215 0.915332 2.21484 1.68415C2.36438 2.90438 2.87407 4.0075 3.64114 4.77108C4.80861 6.42458 6.05354 7.98785 7.36922 9.45245C7.97485 10.4126 8.84453 11.0482 9.8045 11.2325Z" fill="#FEAC00"/>
<path opacity="0.23" d="M8.29869 23.1392C8.74485 23.3553 9.19583 23.6048 9.65402 23.7691L10.5235 24.0003L10.9468 23.9227L11.4423 23.8315H11.8921C14.3911 23.8315 16.8901 23.8406 19.3903 23.8315C27.4879 23.8162 35.5891 23.8122 43.6939 23.8193C51.7273 23.8193 59.7611 23.8193 67.7953 23.8193C71.5727 23.8193 75.3501 23.8025 79.1275 23.8193C79.6887 23.6976 80.0142 23.2777 80.104 22.5596C80.0741 22.0294 79.9557 21.5133 79.7567 21.0453C79.5577 20.5772 79.2826 20.1677 78.9495 19.8438C77.958 18.4285 76.8891 17.1031 75.7506 15.8775C75.4884 15.4635 75.1601 15.1242 74.787 14.8819C74.414 14.6396 74.0046 14.4999 73.5859 14.4718C72.7862 14.4535 71.9864 14.4596 71.1807 14.4489C70.0755 14.4352 68.9727 14.4383 67.8675 14.4687C66.5867 14.5052 65.3035 14.4687 64.0191 14.4687C56.8035 14.4474 49.5878 14.4403 42.3722 14.4474C34.7661 14.4474 27.16 14.4515 19.5539 14.4596C17.9504 14.4596 16.3469 14.4631 14.7435 14.4702C13.8872 14.4702 13.0297 14.49 12.1735 14.4702C11.5818 14.4596 10.9913 14.4292 10.3996 14.4322C9.31729 14.4322 8.23495 14.4474 7.1526 14.4565C6.90486 14.4565 6.65712 14.4611 6.40939 14.4702L5.98126 14.4809C5.71308 14.5235 5.44369 14.6224 5.17912 14.6924L6.04981 14.9236L4.87125 14.4124C4.32126 14.0402 3.81215 14.0965 3.34394 14.5813C2.94948 15.1655 2.89336 15.8086 3.17557 16.5104C3.8399 17.8205 4.62467 19.0262 5.51344 20.1025C6.34374 21.2504 7.27868 22.2698 8.29869 23.1392Z" fill="#FEAC00"/>
<path opacity="0.23" d="M15.4153 14.1561L16.1765 14.1911C16.4892 14.2032 16.8043 14.1591 17.117 14.1363C17.4934 14.1074 17.8722 14.1363 18.2486 14.1363C19.4068 14.1469 20.5649 14.1363 21.723 14.1287C23.1938 14.1287 24.6646 14.1469 26.1353 14.1439C34.1407 14.1307 42.1469 14.1267 50.1538 14.1317C58.1392 14.1317 66.1249 14.1348 74.111 14.1409C77.7381 14.1409 81.3651 14.1272 84.9922 14.1409C85.6256 14.0901 85.9463 13.6631 85.9543 12.8598C85.716 11.5566 85.123 10.4008 84.279 9.59489C82.9581 7.8316 81.5617 6.16113 80.0964 4.59099C79.4123 3.57087 78.4671 2.88658 77.4254 2.65728C76.4633 2.62989 75.5096 2.62989 74.5511 2.61772C73.9751 2.61012 73.3966 2.60403 72.8206 2.61772C72.2025 2.63294 71.5855 2.67249 70.9662 2.66793C69.5038 2.65576 68.041 2.64764 66.5779 2.64359C58.6102 2.61316 50.6421 2.60352 42.6736 2.61468C34.645 2.61468 26.6164 2.62685 18.5878 2.65119C17.8662 2.65119 17.1519 2.66184 16.4339 2.65119C15.8326 2.65119 15.2313 2.61164 14.63 2.5949C13.4274 2.56447 12.2176 2.62077 11.0125 2.62685C10.6193 2.62685 10.2248 2.60707 9.83038 2.61468C9.53093 2.61468 9.22908 2.67097 8.93324 2.6801C8.67948 2.68771 8.42213 2.6588 8.16838 2.64815C7.53821 2.68974 7.2119 3.10863 7.18945 3.90483C7.39531 5.19711 7.95805 6.35449 8.7769 7.16977C10.0466 8.93872 11.3928 10.6174 12.8092 12.198C13.4667 13.2213 14.3905 13.9153 15.4153 14.1561Z" fill="#FEAC00"/>
<path opacity="0.23" d="M13.6529 17.1786C17.2379 17.1345 20.8241 17.1786 24.4103 17.1695C32.414 17.1543 40.4178 17.1497 48.4215 17.1558C56.4093 17.1558 64.3966 17.1589 72.3835 17.1649C76.013 17.1649 79.6424 17.1482 83.2707 17.1649C83.943 17.1649 84.2641 16.742 84.2328 15.893C83.9142 14.469 83.2447 13.2106 82.3219 12.301C80.8467 10.3232 79.2985 8.44018 77.6774 6.65202C76.9219 5.52156 75.9011 4.72533 74.7635 4.37904C73.8014 4.35166 72.8393 4.34862 71.8772 4.33645C71.2999 4.33645 70.7203 4.32427 70.1418 4.33645C69.5297 4.35166 68.9188 4.39274 68.3067 4.38665C66.8419 4.37448 65.3767 4.36637 63.9111 4.36231C55.9402 4.32985 47.969 4.31971 39.9973 4.33188C31.9723 4.33188 23.9473 4.33188 15.9222 4.37144C15.2007 4.37144 14.4875 4.38209 13.7696 4.37144C13.1683 4.37144 12.5573 4.32884 11.9512 4.31362C10.7486 4.2832 9.54602 4.33949 8.34341 4.34862C7.63627 4.34862 6.92794 4.31971 6.22201 4.35622C5.98149 4.36839 5.75179 4.40491 5.51728 4.42925C4.85344 4.42316 4.52513 4.84003 4.53234 5.67985C4.81456 7.08883 5.45051 8.34394 6.34467 9.25667C7.76135 11.2294 9.25178 13.1084 10.816 14.8935C11.5408 16.0241 12.5365 16.8261 13.6529 17.1786Z" fill="#FEAC00"/>
<path opacity="0.23" d="M8.51892 19.307L9.30543 19.3649C9.62296 19.3712 9.94052 19.3554 10.2567 19.3177C10.6319 19.2903 11.0095 19.307 11.3859 19.307C14.0164 19.3152 16.6461 19.3177 19.275 19.3147C27.2812 19.2994 35.2866 19.2954 43.2911 19.3025C51.2781 19.3025 59.2642 19.3055 67.2495 19.3116C70.8778 19.3116 74.506 19.2918 78.1343 19.3116C78.7524 19.2538 79.0775 18.8334 79.1096 18.0504C78.9284 16.7982 78.3895 15.674 77.5955 14.8919C76.3727 13.1953 75.0733 11.5896 73.7039 10.0828C73.0695 9.09598 72.1708 8.43819 71.1784 8.23425C70.2163 8.20991 69.2542 8.20991 68.2922 8.19774C67.1016 8.18405 65.9134 8.25099 64.724 8.24338C63.2584 8.23222 61.7925 8.22512 60.3261 8.22208C52.3552 8.19571 44.3839 8.1876 36.4122 8.19774C28.3884 8.19774 20.3634 8.18861 12.3396 8.22969C11.0167 8.22969 9.69387 8.21599 8.371 8.18404C7.16839 8.15666 5.96579 8.20535 4.76318 8.21447C4.36872 8.21447 3.97427 8.20078 3.57981 8.21447C3.27796 8.22512 2.97851 8.28446 2.67665 8.29663C2.41328 8.30576 2.14269 8.26772 1.87812 8.25403C1.26479 8.30474 0.933672 8.71755 0.884766 9.49246C1.03552 10.73 1.54637 11.8516 2.31707 12.6372C3.49148 14.3346 4.74396 15.943 6.06801 17.454C6.67535 18.4344 7.54872 19.0947 8.51892 19.307Z" fill="#FEAC00"/>
<path opacity="0.23" d="M3.89717 8.78372L3.51835 8.52051L3.89717 8.78372L5.51829 9.89434C5.78527 10.2595 6.09073 10.3832 6.43468 10.2656C6.58279 10.2835 6.73199 10.2504 6.86642 10.1697L7.25245 9.98106L7.5507 9.82892L8.37809 9.66157L7.74312 9.73307C13.0178 9.81979 18.2948 9.76655 23.5694 9.76655H74.5444C74.77 9.80895 75.0003 9.77861 75.2141 9.67834C75.4279 9.57807 75.6182 9.41112 75.7674 9.19298C75.9401 9.00501 76.0724 8.76489 76.1521 8.49492C76.2318 8.22495 76.2563 7.93388 76.2232 7.64875C75.9363 6.84386 75.5197 6.12359 75.0002 5.53399C74.5353 4.87548 73.9673 4.34648 73.3322 3.98064H18.2323C15.3685 3.98064 12.505 3.98064 9.64204 3.98064C8.98301 3.98064 8.31917 3.98064 7.66495 3.96238C7.17904 3.92967 6.69209 3.92967 6.20618 3.96238C6.02734 3.9727 5.8493 3.99914 5.67343 4.0415L5.0637 4.16625C4.81116 4.29557 4.57064 4.48727 4.32891 4.64397L4.95667 4.56638L3.69995 3.86197C3.47815 3.84197 3.25574 3.88813 3.05062 3.99674C2.8455 4.10534 2.6634 4.27336 2.51899 4.48727C2.38046 4.61552 2.26739 4.78275 2.18871 4.97576C2.11003 5.16877 2.06788 5.38227 2.0656 5.59942C1.95015 6.06801 2.05638 6.48944 2.38429 6.8637C2.81149 7.59404 3.32123 8.24096 3.89717 8.78372Z" fill="#FEAC00"/>
<path opacity="0.23" d="M9.61775 16.4729C10.5798 16.5124 11.5287 16.4805 12.486 16.4835C15.1149 16.4927 17.7438 16.4927 20.3727 16.4835C28.3788 16.4683 36.3846 16.4638 44.39 16.4698C52.3753 16.4698 60.3614 16.4734 68.3483 16.4805C71.9766 16.4805 75.6049 16.4638 79.2331 16.4805C79.8938 16.4714 80.2173 16.0489 80.2036 15.2132C79.9178 13.8224 79.2785 12.5891 78.3841 11.7033C76.9663 9.77819 75.4727 7.94461 73.9092 6.20948C73.1815 5.10609 72.1879 4.33491 71.0807 4.01409C70.1186 3.98822 69.1565 3.98366 68.1944 3.97301C67.6159 3.97301 67.0351 3.96084 66.4566 3.97301C65.8433 3.98974 65.2312 4.0293 64.6178 4.02474C63.1531 4.01054 61.6887 4.00192 60.2247 3.99887C52.2554 3.96743 44.2853 3.95729 36.3145 3.96844C28.2882 3.96844 20.2608 3.96844 12.2346 4.008C11.5131 4.008 10.7999 4.01865 10.082 4.008C9.48066 4.008 8.87935 3.9654 8.27083 3.95019C7.06822 3.91976 5.86562 3.97757 4.66301 3.98518C3.71896 3.98518 2.77732 4.00648 1.83447 4.04756C1.18186 4.04756 0.851942 4.46239 0.844727 5.29207C1.09131 6.67376 1.69731 7.91079 2.56566 8.80499C3.9245 10.7231 5.36073 12.5513 6.86859 14.2821C7.5666 15.3792 8.53411 16.1502 9.61775 16.4729Z" fill="#FEAC00"/>
<path opacity="0.23" d="M15.7989 10.9567L16.2258 11.1955L16.5469 11.3705C16.8372 11.5287 17.1282 11.6809 17.42 11.8269L18.2534 11.9882L18.6743 11.9304C18.9858 11.8863 19.2901 11.8574 19.6028 11.8467C22.0934 11.763 24.5888 11.8467 27.0806 11.8361C35.1821 11.8208 43.2841 11.8173 51.3865 11.8254C59.4199 11.8254 67.4533 11.8254 75.4868 11.8254C79.2629 11.8254 83.0403 11.8117 86.8165 11.8254C87.0652 11.7732 87.2933 11.6188 87.4657 11.3862C87.6381 11.1535 87.7451 10.8556 87.7702 10.5383C87.7492 10.0378 87.6404 9.54944 87.4517 9.10868C87.2631 8.66792 86.9993 8.28577 86.6794 7.98994C85.7342 6.68902 84.7131 5.47966 83.6248 4.37204C83.371 3.98633 83.0525 3.67698 82.6925 3.46645C82.3324 3.25592 81.9398 3.1495 81.5431 3.15491C80.7434 3.13818 79.9424 3.14274 79.1379 3.13361C78.0327 3.11992 76.9299 3.12144 75.8259 3.15035C74.5451 3.18534 73.2607 3.15035 71.9775 3.15035C64.7619 3.13108 57.5462 3.12448 50.3306 3.13057C42.7245 3.13057 35.1184 3.13412 27.5123 3.14122C25.9088 3.14122 24.3054 3.14426 22.7019 3.15035C21.8468 3.15035 20.9894 3.17013 20.1331 3.15035C19.5402 3.14122 18.9485 3.11079 18.3569 3.11383C17.2785 3.11383 16.1998 3.12347 15.1206 3.14274C14.7502 3.14249 14.3801 3.17401 14.013 3.23707C13.7665 3.28271 13.5212 3.37095 13.277 3.43789L14.1104 3.59916L12.63 2.85367C12.0849 2.54939 11.5954 2.64423 11.1617 3.13818C10.78 3.70008 10.7175 4.32132 10.974 5.0019C11.5928 6.20214 12.3312 7.29644 13.1712 8.25771C13.952 9.29616 14.8352 10.2033 15.7989 10.9567Z" fill="#FEAC00"/>
<path opacity="0.23" d="M15.1769 21.0277C18.7631 21.0018 22.3492 21.017 25.9354 21.0109C33.9384 20.9988 41.9417 20.9952 49.9455 21.0003C57.9332 21.0003 65.9209 21.0028 73.9087 21.0079C77.5369 21.0079 81.1664 20.9942 84.7947 21.0079C85.4489 20.9866 85.77 20.5621 85.7568 19.7345C85.4801 18.3675 84.8508 17.1564 83.9685 16.2931C82.5725 14.4129 81.1006 12.6254 79.5585 10.9377C78.8406 9.85741 77.8584 9.11105 76.7673 8.81686C75.8052 8.78796 74.8431 8.78796 73.8894 8.77578C73.3134 8.76818 72.7349 8.76057 72.1589 8.77578C71.5419 8.791 70.9262 8.83208 70.3093 8.82751C68.8461 8.81534 67.3825 8.80723 65.9185 8.80317C57.9493 8.77173 49.98 8.76209 42.0107 8.77426C33.9845 8.77426 25.9575 8.78643 17.9297 8.81078C17.2081 8.81078 16.4937 8.82143 15.7746 8.81078C15.1733 8.81078 14.572 8.77122 13.9707 8.75448C12.7681 8.72101 11.5594 8.77883 10.3556 8.78643C9.40557 8.78643 8.45671 8.78643 7.50785 8.8199C6.85924 8.83208 6.53013 9.24793 6.52051 10.0675C6.76188 11.4222 7.35819 12.6339 8.21258 13.5058C9.5524 15.3892 10.9694 17.1824 12.4578 18.8779C13.1452 19.9639 14.104 20.7219 15.1769 21.0277Z" fill="#FEAC00"/>
<path opacity="0.23" d="M5.99692 12.077C6.4479 12.2991 6.90129 12.5471 7.36309 12.7236L8.27587 12.9974L8.66912 12.8909L9.13092 12.7647H9.57709C12.0749 12.754 14.5715 12.7784 17.0693 12.7738C25.1725 12.7565 33.2765 12.7515 41.3813 12.7586C49.4131 12.7586 57.4453 12.7616 65.4779 12.7677C69.2541 12.7677 73.0315 12.754 76.8089 12.7677C77.3894 12.6663 77.7125 12.2438 77.7782 11.5004C77.7269 10.9412 77.5869 10.4009 77.3666 9.91176C77.1463 9.42264 76.8503 8.99479 76.4962 8.65382C75.4244 7.15576 74.2758 5.74846 73.058 4.44105C72.7777 4.00507 72.431 3.64489 72.0385 3.38195C71.6459 3.119 71.2156 2.95868 70.773 2.91052C69.9721 2.89378 69.1723 2.8953 68.3678 2.88313C67.2598 2.86792 66.153 2.87705 65.0474 2.91052C63.7678 2.94703 62.4846 2.91052 61.199 2.91052C53.9834 2.88415 46.7702 2.87553 39.5593 2.88465C31.9516 2.88465 24.3447 2.88922 16.7386 2.89835C15.1351 2.89835 13.5317 2.90291 11.9282 2.91204C11.0743 2.91204 10.2181 2.93334 9.36423 2.91204C8.77254 2.89987 8.18086 2.86792 7.58797 2.87096C6.50563 2.87096 5.42328 2.89074 4.34093 2.89683C4.0948 2.89683 3.84866 2.90139 3.60253 2.91052L3.17681 2.92117C2.91584 2.96833 2.65367 3.07331 2.39631 3.14786L3.30669 3.41867L2.16181 2.96225C1.60059 2.55654 1.07665 2.60015 0.589997 3.09309C0.200352 3.70773 0.163873 4.37005 0.48056 5.08004C1.21276 6.45699 2.06384 7.72656 3.01806 8.8653C3.91343 10.0728 4.91258 11.15 5.99692 12.077Z" fill="#FEAC00"/>
<path opacity="0.23" d="M4.51074 19.2806L4.93526 19.524L5.25516 19.7035C5.54619 19.8648 5.83842 20.023 6.13186 20.1782L6.85342 20.236L7.3501 20.2163C7.69164 20.2041 8.03318 20.1899 8.37472 20.1737C9.56651 20.1158 10.7631 20.1737 11.9561 20.1737H40.1729C51.9993 20.1737 63.825 20.1737 75.6498 20.1737C75.887 20.097 76.1041 19.9428 76.2793 19.7265C76.4545 19.5102 76.5816 19.2394 76.648 18.9413C76.7322 18.0792 76.5041 17.3459 75.9637 16.7414C75.2704 15.6483 74.4964 14.6412 73.6523 13.7335C73.1873 13.0347 72.6136 12.7304 71.9314 12.8207C61.4903 12.8207 51.0489 12.8207 40.607 12.8207H17.8332C14.7562 12.8207 11.6783 12.8207 8.59961 12.8207C7.53891 12.8207 6.47821 12.8207 5.41631 12.8101C4.70823 12.8324 4.00295 12.9312 3.30814 13.1052L4.0297 13.163L2.58657 12.4845C2.35708 12.3877 2.11045 12.3762 1.87596 12.4514C1.64147 12.5267 1.42897 12.6855 1.2637 12.9089C1.0819 13.1138 0.950533 13.3806 0.885281 13.6773C0.820029 13.974 0.823647 14.2883 0.895703 14.5825C1.30617 15.5644 1.84307 16.4528 2.48435 17.2115C3.06501 18.0378 3.74972 18.737 4.51074 19.2806Z" fill="#FEAC00"/>
</g>
</svg>
