<svg width="20" height="20" viewBox="0 0 20 20" fill="none" xmlns="http://www.w3.org/2000/svg">
<path d="M9.24072 19.5C7.20166 16.9922 2.6665 10.9141 2.6665 7.5C2.6665 3.35781 6.02432 0 10.1665 0C14.3071 0 17.6665 3.35781 17.6665 7.5C17.6665 10.9141 13.0962 16.9922 11.0923 19.5C10.6118 20.0977 9.72119 20.0977 9.24072 19.5ZM10.1665 10C11.5454 10 12.6665 8.87891 12.6665 7.5C12.6665 6.12109 11.5454 5 10.1665 5C8.7876 5 7.6665 6.12109 7.6665 7.5C7.6665 8.87891 8.7876 10 10.1665 10Z" fill="black"/>
</svg>
