<svg width="20" height="20" viewBox="0 0 20 20" fill="none" xmlns="http://www.w3.org/2000/svg">
<path d="M6.94899 19.3008C6.21852 20.0313 5.03102 20.0313 4.30055 19.3008L0.700549 15.6992C-0.0316934 14.9688 -0.0316934 13.7813 0.700549 13.0508L2.68297 11.0664L4.55836 12.9414C4.80055 13.1875 5.19899 13.1875 5.44117 12.9414C5.68727 12.6992 5.68727 12.3008 5.44117 12.0586L3.56656 10.1836L5.18336 8.56642L7.05836 10.4414C7.30055 10.6875 7.69899 10.6875 7.94117 10.4414C8.18727 10.1992 8.18727 9.80079 7.94117 9.55861L6.06617 7.68361L7.68336 6.06642L9.55836 7.94142C9.80055 8.18751 10.199 8.18751 10.4412 7.94142C10.6873 7.69923 10.6873 7.30079 10.4412 7.05861L8.56617 5.18361L10.1834 3.56681L12.0584 5.44142C12.3006 5.68751 12.699 5.68751 12.9412 5.44142C13.1873 5.19923 13.1873 4.8008 12.9412 4.55861L11.0662 2.68322L13.0506 0.700796C13.781 -0.0314502 14.9685 -0.0314502 15.699 0.700796L19.3006 4.3008C20.031 5.03126 20.031 6.21876 19.3006 6.94923L6.94899 19.3008Z" fill="black"/>
</svg>
