<svg width="187" height="36" viewBox="0 0 187 36" fill="none" xmlns="http://www.w3.org/2000/svg">
<g opacity="0.6">
<path opacity="0.23" d="M68.0388 35.0673C69.5561 35.0673 71.0677 35.0155 72.585 35.0247C74.4285 35.0338 76.2719 35.0246 78.1153 35.0155C80.4671 35.0155 82.8189 35.0323 85.1687 35.0292C97.9366 35.017 110.704 35.0135 123.47 35.0186C136.21 35.0186 148.95 35.0211 161.691 35.0262C167.479 35.0262 173.266 35.0125 179.053 35.0262C180.055 34.9765 180.571 34.554 180.602 33.7588C180.265 32.473 179.36 31.3249 178.05 30.5213C176.015 28.7729 173.859 27.1161 171.591 25.5585C170.537 24.5457 169.062 23.8644 167.431 23.6369C165.896 23.6095 164.362 23.6111 162.839 23.6004C161.922 23.6004 161.001 23.5852 160.084 23.6004C159.1 23.6156 158.12 23.6537 157.136 23.6491C154.799 23.6379 152.463 23.6303 150.128 23.6263C137.415 23.5989 124.703 23.5908 111.99 23.6019C99.1898 23.6019 86.3881 23.6126 73.5844 23.6339C71.4744 23.6339 69.3643 23.6217 67.2542 23.5882C65.336 23.5563 63.4177 23.6095 61.4995 23.6171C60.8665 23.6171 60.2315 23.5989 59.5985 23.605C59.1093 23.605 58.6202 23.6537 58.131 23.6643C57.732 23.6734 57.3292 23.6643 56.9283 23.6537C55.9327 23.6932 55.4071 24.1101 55.3477 24.8951C55.6334 26.1698 56.4904 27.3196 57.7608 28.1327C59.7136 29.8862 61.7893 31.5512 63.9778 33.1199C64.9908 34.1365 66.4331 34.8281 68.0388 35.0673Z" fill="#FEAC00"/>
<path opacity="0.23" d="M56.1534 28.0361C56.8363 28.2278 57.5211 28.4332 58.2174 28.5929L59.6734 28.8729L60.3256 28.7816L61.0929 28.6705H61.8045C65.7906 28.6492 69.7748 28.6827 73.759 28.6705C86.6842 28.6533 99.6087 28.6487 112.533 28.6568C125.346 28.6568 138.16 28.6599 150.972 28.6659C156.998 28.6659 163.023 28.6522 169.048 28.6659C169.978 28.5645 170.496 28.1441 170.604 27.4047C170.524 26.8441 170.302 26.3019 169.952 25.8105C169.603 25.3192 169.132 24.8886 168.568 24.5445C166.862 23.0373 165.033 21.6199 163.094 20.3013C162.648 19.8628 162.096 19.4999 161.469 19.2341C160.843 18.9682 160.156 18.805 159.449 18.754C158.171 18.7357 156.894 18.7388 155.613 18.7266C153.849 18.7114 152.086 18.72 150.324 18.7525C148.281 18.789 146.234 18.7525 144.186 18.7525C132.676 18.7281 121.167 18.72 109.657 18.7281C97.5248 18.7281 85.3919 18.7327 73.2584 18.7418C70.7007 18.7418 68.1431 18.7459 65.5854 18.754C64.2234 18.754 62.8576 18.7768 61.4957 18.754C60.5481 18.7418 59.6043 18.7099 58.6567 18.7129C56.9303 18.7129 55.2038 18.7327 53.4774 18.7372C53.0823 18.7372 52.689 18.7372 52.2939 18.7494L51.6129 18.7601C51.1813 18.8027 50.7497 18.9 50.3257 18.9685L51.7817 19.2484L50.038 18.8453C49.1428 18.4396 48.3045 18.4781 47.5232 18.9609C46.8978 19.5766 46.8384 20.2404 47.3448 20.9524C48.5101 22.3402 49.8663 23.621 51.3884 24.7711C52.8198 25.9958 54.4178 27.0908 56.1534 28.0361Z" fill="#FEAC00"/>
<path opacity="0.23" d="M55.8739 17.6708C56.9923 18.1835 58.1221 18.678 59.2577 19.1664C59.7002 19.5132 60.174 19.6005 60.6791 19.428C60.9445 19.4026 61.2005 19.3345 61.4314 19.2277C61.6623 19.121 61.8633 18.9779 62.0219 18.8073C62.3288 18.5842 62.6319 18.3585 62.9312 18.1303L61.1529 18.8423L62.0584 18.6658C62.3119 18.5869 62.5913 18.5772 62.8525 18.6384C63.685 18.6978 64.506 18.748 65.3462 18.7556C67.2645 18.7754 69.1827 18.7556 71.101 18.7556C76.0884 18.7556 81.0759 18.7556 86.0633 18.7556H121.933C137.646 18.7556 153.359 18.7556 169.072 18.7556C169.413 18.7376 169.747 18.665 170.053 18.5421C170.358 18.4192 170.629 18.2486 170.85 18.0405C171.11 17.864 171.323 17.6475 171.475 17.4041C171.627 17.1606 171.715 16.8953 171.734 16.6241C171.488 16.0005 171.027 15.4439 170.403 15.0175C169.86 14.5266 169.154 14.1661 168.366 13.9768H79.7062C75.0372 13.9768 70.3695 13.9814 65.703 13.9905C64.6787 13.9905 63.6697 13.9753 62.6492 13.9129L61.715 13.8551L61.0436 13.9555C60.6871 13.9982 60.3342 14.0576 59.9866 14.1335C59.7212 14.1605 59.4654 14.2297 59.2346 14.3372C59.0038 14.4447 58.8029 14.5881 58.6439 14.7588C58.3159 14.9642 57.9898 15.1727 57.6637 15.3811L60.4298 15.0221C59.4579 14.6508 58.4872 14.2761 57.5179 13.8977C57.2851 13.7548 56.9981 13.6787 56.7037 13.6817C56.4094 13.6848 56.125 13.7668 55.8969 13.9145C55.2644 14.2356 54.7292 14.6637 54.3297 15.1681C54.1466 15.3509 54.0469 15.5774 54.0469 15.8109C54.0469 16.0444 54.1466 16.2709 54.3297 16.4537C54.7214 16.9471 55.2494 17.3633 55.8739 17.6708Z" fill="#FEAC00"/>
<path opacity="0.23" d="M65.2418 26.168C66.7611 26.1787 68.2765 26.1574 69.7957 26.168C71.6411 26.168 73.4864 26.168 75.3318 26.1589C77.6797 26.1589 80.0257 26.1802 82.3737 26.1772C95.1441 26.1599 107.914 26.1548 120.683 26.1619C133.421 26.1619 146.16 26.1655 158.898 26.1726C164.686 26.1726 170.473 26.1559 176.26 26.1726C177.327 26.1726 177.838 25.7486 177.795 24.9007C177.301 23.4827 176.245 22.2283 174.783 21.3223C172.449 19.3577 169.998 17.4894 167.429 15.7175C166.233 14.5942 164.614 13.8054 162.81 13.4673C161.275 13.4399 159.74 13.4369 158.206 13.4247C157.283 13.4171 156.357 13.4141 155.432 13.4247C154.454 13.4415 153.477 13.4825 152.499 13.4765C150.163 13.4643 147.827 13.4557 145.492 13.4506C132.779 13.4171 120.067 13.4065 107.355 13.4186C94.5526 13.4186 81.7483 13.4186 68.944 13.4597C67.7931 13.4597 66.6575 13.4704 65.5123 13.4597C64.5532 13.4597 63.594 13.4156 62.6234 13.4004C60.7052 13.37 58.7869 13.4278 56.8687 13.4354C55.3705 13.4354 53.8839 13.4354 52.3896 13.5145C51.3345 13.5145 50.8115 13.9314 50.8204 14.7651C51.255 16.1679 52.2585 17.4187 53.6767 18.3252C55.916 20.2793 58.2778 22.1428 60.7531 23.9087C61.8988 25.0298 63.475 25.8232 65.2418 26.168Z" fill="#FEAC00"/>
<path opacity="0.23" d="M52.3875 26.5845L53.1318 26.8797L53.6919 27.1033C54.2035 27.2991 54.715 27.4923 55.2265 27.683L56.3487 27.7073L57.0681 27.6297C57.5745 27.575 58.079 27.5278 58.5892 27.4943C59.4409 27.4396 60.2734 27.4548 61.1309 27.4609C62.1783 27.4609 63.2275 27.473 64.2768 27.473H109.271C128.135 27.473 146.998 27.473 165.86 27.473C166.232 27.3862 166.571 27.2279 166.848 27.0122C167.125 26.7964 167.33 26.5299 167.446 26.2361C167.612 25.4176 167.286 24.7188 166.468 24.1396C165.433 23.1157 164.27 22.1772 162.997 21.3387C162.28 20.6794 161.405 20.4086 160.371 20.5263C143.716 20.5263 127.061 20.5263 110.407 20.5263H59.3623C57.6665 20.5263 55.9689 20.5156 54.2712 20.505C53.6674 20.4958 53.0641 20.5387 52.4719 20.6328C52.0096 20.7119 51.5512 20.8488 51.0985 20.9553L52.2206 20.9797L49.7576 20.1825C49.3923 20.1057 49.0075 20.1101 48.6451 20.1951C48.2828 20.2802 47.9569 20.4426 47.7032 20.6647C47.4186 20.8622 47.208 21.118 47.0947 21.4041C46.9813 21.6902 46.9695 21.9955 47.0606 22.2866C47.6368 23.2013 48.4166 24.026 49.3625 24.7208C50.2213 25.4813 51.2461 26.1126 52.3875 26.5845Z" fill="#FEAC00"/>
<path opacity="0.23" d="M64.3702 17.8436L65.1873 18.1829C65.5173 18.3178 65.8479 18.4516 66.1791 18.5845C66.6049 18.7559 67.032 18.9248 67.4605 19.0911L68.5001 19.0333L69.3039 18.7945L69.7815 18.6514L71.1243 18.516L70.0731 18.5662C73.5969 18.6058 77.1188 18.5967 80.6426 18.5967H131.365C146.455 18.5967 161.545 18.5967 176.636 18.5967C177 18.652 177.376 18.6302 177.726 18.5336C178.076 18.4369 178.388 18.2687 178.631 18.0459C178.905 17.8492 179.109 17.5984 179.222 17.3189C179.335 17.0394 179.353 16.7412 179.273 16.4545C178.734 15.5995 177.992 14.835 177.088 14.2029C176.273 13.5044 175.296 12.9363 174.211 12.5293C157.242 12.5293 140.273 12.5293 123.303 12.5293H86.3187C81.752 12.5293 77.184 12.5293 72.6148 12.5293C71.5655 12.5293 70.5162 12.5293 69.4669 12.5156C68.6824 12.505 67.8997 12.473 67.1152 12.5156C66.8214 12.5196 66.5285 12.5405 66.2385 12.578L65.2449 12.683C64.8478 12.8093 64.4661 13.0025 64.0939 13.1592L65.1336 13.1014L62.5344 12.2342C62.1762 12.2028 61.8138 12.2419 61.4792 12.348C61.1447 12.4542 60.8482 12.6241 60.6162 12.8427C60.3464 13.0295 60.1383 13.2658 60.0103 13.531C59.8822 13.7962 59.838 14.0822 59.8815 14.3641C60.3214 15.1394 60.9672 15.8301 61.7748 16.3891C62.498 17.0163 63.3832 17.5124 64.3702 17.8436Z" fill="#FEAC00"/>
<path opacity="0.23" d="M64.4304 20.6416L65.1172 20.8957L65.6313 21.0828C66.0993 21.2502 66.5693 21.4145 67.0412 21.5758L68.4223 21.7796L69.0534 21.6838L69.7958 21.5712L70.494 21.559C74.4725 21.4921 78.4547 21.559 82.4332 21.559C95.3583 21.5408 108.283 21.5367 121.207 21.5469C134.019 21.5469 146.833 21.5469 159.646 21.5469C165.67 21.5469 171.695 21.5317 177.72 21.5469C178.615 21.4089 179.127 20.9824 179.255 20.2674C179.203 19.7447 179.011 19.2368 178.691 18.778C178.371 18.3193 177.931 17.9203 177.4 17.6079C175.816 16.2344 174.11 14.9517 172.297 13.7694C171.875 13.3648 171.349 13.0367 170.753 12.8073C170.157 12.578 169.506 12.4526 168.844 12.4397C167.565 12.426 166.286 12.4276 165.008 12.4169C163.247 12.4032 161.488 12.4078 159.727 12.4382C157.684 12.4732 155.635 12.4382 153.589 12.4382C142.079 12.4169 130.57 12.4098 119.06 12.4169C106.929 12.4169 94.7982 12.4205 82.6672 12.4276C80.1096 12.4276 77.5519 12.4316 74.9942 12.4397C73.6304 12.4397 72.2646 12.461 70.9007 12.4397C69.9512 12.4276 69.0055 12.3987 68.0559 12.4017C66.3295 12.4017 64.6127 12.4184 62.892 12.4276C62.5084 12.4276 62.1247 12.4276 61.7411 12.458L61.0793 12.4975C60.6784 12.5508 60.2774 12.6497 59.8823 12.7349L61.2634 12.9372L59.0133 12.207C58.136 11.8672 57.3374 11.9458 56.6174 12.4428C56.0036 13.0229 55.9185 13.6579 56.3623 14.3476C57.4091 15.606 58.6459 16.7581 60.0453 17.7783C61.3547 18.8707 62.8273 19.8323 64.4304 20.6416Z" fill="#FEAC00"/>
<path opacity="0.23" d="M62.6383 23.2325L63.9427 23.3359C64.4314 23.3468 64.9202 23.3203 65.4025 23.2568C65.995 23.2259 66.5892 23.2193 67.1826 23.2371C71.3759 23.2431 75.5692 23.2462 79.7625 23.2462C92.5342 23.2289 105.306 23.2244 118.078 23.2325C130.815 23.2325 143.551 23.2355 156.287 23.2416C162.073 23.2416 167.86 23.2234 173.645 23.2416C174.621 23.1706 175.133 22.7462 175.18 21.9682C174.893 20.7356 174.036 19.6323 172.778 18.8737C170.841 17.2166 168.782 15.6514 166.613 14.1862C165.603 13.2221 164.176 12.5908 162.612 12.4153C161.077 12.391 159.542 12.3894 158.008 12.3773C156.107 12.3636 154.206 12.4336 152.307 12.4244C149.97 12.4133 147.634 12.4062 145.297 12.4031C132.583 12.3757 119.87 12.3671 107.157 12.3773C94.3546 12.3773 81.5541 12.3681 68.7517 12.4107C66.6417 12.4107 64.5316 12.394 62.4215 12.3636C60.5033 12.3362 58.585 12.3864 56.6668 12.394C56.0433 12.394 55.4142 12.3742 54.7927 12.394C54.3342 12.4107 53.8796 12.499 53.4211 12.5157C52.9795 12.5095 52.5388 12.482 52.1014 12.4336C51.1307 12.4985 50.6077 12.9153 50.5322 13.6841C50.7707 14.9044 51.5837 16.0075 52.8073 16.7711C54.6695 18.4246 56.6552 19.9879 58.7538 21.4524C59.7199 22.4126 61.1071 23.0482 62.6383 23.2325Z" fill="#FEAC00"/>
<path opacity="0.23" d="M60.2375 35.1392C60.9492 35.3553 61.6685 35.6048 62.3994 35.7691L63.7863 36.0003L64.4615 35.9227L65.2518 35.8315H65.9692C69.9554 35.8315 73.9415 35.8406 77.9295 35.8315C90.8457 35.8162 103.768 35.8122 116.695 35.8193C129.509 35.8193 142.324 35.8193 155.139 35.8193C161.164 35.8193 167.189 35.8025 173.215 35.8193C174.11 35.6976 174.629 35.2777 174.772 34.5596C174.724 34.0294 174.536 33.5133 174.218 33.0453C173.901 32.5772 173.462 32.1677 172.931 31.8438C171.349 30.4285 169.644 29.1031 167.828 27.8775C167.41 27.4635 166.886 27.1242 166.291 26.8819C165.696 26.6396 165.043 26.4999 164.375 26.4718C163.1 26.4535 161.824 26.4596 160.539 26.4489C158.776 26.4352 157.017 26.4383 155.254 26.4687C153.211 26.5052 151.164 26.4687 149.116 26.4687C137.606 26.4474 126.097 26.4403 114.587 26.4474C102.455 26.4474 90.3227 26.4515 78.1904 26.4596C75.6327 26.4596 73.0751 26.4631 70.5174 26.4702C69.1516 26.4702 67.7839 26.49 66.4181 26.4702C65.4743 26.4596 64.5325 26.4292 63.5887 26.4322C61.8623 26.4322 60.1359 26.4474 58.4094 26.4565C58.0143 26.4565 57.6191 26.4611 57.224 26.4702L56.5411 26.4809C56.1133 26.5235 55.6836 26.6224 55.2616 26.6924L56.6504 26.9236L54.7705 26.4124C53.8932 26.0402 53.0812 26.0965 52.3343 26.5813C51.7052 27.1655 51.6156 27.8086 52.0658 28.5104C53.1254 29.8205 54.3772 31.0262 55.7949 32.1025C57.1192 33.2504 58.6105 34.2698 60.2375 35.1392Z" fill="#FEAC00"/>
<path opacity="0.23" d="M71.5886 26.1551L72.8028 26.1901C73.3016 26.2023 73.8042 26.1581 74.3029 26.1353C74.9033 26.1064 75.5076 26.1353 76.108 26.1353C77.9552 26.146 79.8025 26.1353 81.6498 26.1277C83.9958 26.1277 86.3418 26.146 88.6878 26.1429C101.457 26.1297 114.227 26.1257 126.999 26.1307C139.736 26.1307 152.474 26.1338 165.212 26.1399C170.998 26.1399 176.783 26.1262 182.569 26.1399C183.579 26.0892 184.091 25.6622 184.103 24.8589C183.723 23.5556 182.777 22.3999 181.431 21.5939C179.324 19.8306 177.097 18.1602 174.76 16.59C173.668 15.5699 172.161 14.8856 170.499 14.6563C168.965 14.6289 167.443 14.6289 165.915 14.6167C164.996 14.6091 164.073 14.6031 163.154 14.6167C162.168 14.632 161.184 14.6715 160.196 14.667C157.864 14.6548 155.53 14.6467 153.197 14.6426C140.488 14.6122 127.778 14.6025 115.068 14.6137C102.261 14.6137 89.4551 14.6259 76.6489 14.6502C75.498 14.6502 74.3585 14.6609 73.2133 14.6502C72.2542 14.6502 71.2951 14.6107 70.336 14.5939C68.4177 14.5635 66.488 14.6198 64.5659 14.6259C63.9386 14.6259 63.3094 14.6061 62.6802 14.6137C62.2026 14.6137 61.7211 14.67 61.2492 14.6791C60.8445 14.6867 60.434 14.6578 60.0292 14.6472C59.0241 14.6888 58.5036 15.1077 58.4678 15.9039C58.7961 17.1961 59.6937 18.3535 60.9999 19.1688C63.0252 20.9377 65.1724 22.6164 67.4317 24.197C68.4805 25.2203 69.9539 25.9143 71.5886 26.1551Z" fill="#FEAC00"/>
<path opacity="0.23" d="M68.7767 29.1786C74.495 29.1345 80.2152 29.1786 85.9354 29.1695C98.702 29.1543 111.469 29.1497 124.235 29.1558C136.976 29.1558 149.716 29.1589 162.456 29.1649C168.245 29.1649 174.035 29.1482 179.822 29.1649C180.894 29.1649 181.407 28.742 181.357 27.893C180.848 26.469 179.781 25.2106 178.309 24.301C175.956 22.3232 173.486 20.4402 170.9 18.652C169.695 17.5216 168.067 16.7253 166.252 16.379C164.718 16.3517 163.183 16.3486 161.649 16.3364C160.728 16.3364 159.803 16.3243 158.881 16.3364C157.904 16.3517 156.93 16.3927 155.953 16.3867C153.617 16.3745 151.28 16.3664 148.942 16.3623C136.228 16.3299 123.513 16.3197 110.798 16.3319C97.9973 16.3319 85.1969 16.3319 72.3964 16.3714C71.2455 16.3714 70.1079 16.3821 68.9628 16.3714C68.0036 16.3714 67.0292 16.3288 66.0624 16.3136C64.1441 16.2832 62.2259 16.3395 60.3076 16.3486C59.1797 16.3486 58.0498 16.3197 56.9238 16.3562C56.5402 16.3684 56.1738 16.4049 55.7997 16.4293C54.7409 16.4232 54.2172 16.84 54.2287 17.6798C54.6789 19.0888 55.6932 20.3439 57.1195 21.2567C59.3792 23.2294 61.7565 25.1084 64.2515 26.8935C65.4077 28.0241 66.9958 28.8261 68.7767 29.1786Z" fill="#FEAC00"/>
<path opacity="0.23" d="M60.5891 31.307L61.8437 31.3649C62.3502 31.3712 62.8567 31.3554 63.361 31.3177C63.9595 31.2903 64.5618 31.307 65.1622 31.307C69.3581 31.3152 73.5526 31.3177 77.7459 31.3147C90.5163 31.2994 103.285 31.2954 116.053 31.3025C128.793 31.3025 141.531 31.3055 154.269 31.3116C160.056 31.3116 165.843 31.2918 171.631 31.3116C172.617 31.2538 173.135 30.8334 173.186 30.0504C172.897 28.7982 172.038 27.674 170.771 26.8919C168.821 25.1953 166.748 23.5896 164.564 22.0828C163.552 21.096 162.118 20.4382 160.536 20.2343C159.001 20.2099 157.466 20.2099 155.932 20.1977C154.033 20.184 152.137 20.251 150.24 20.2434C147.903 20.2322 145.564 20.2251 143.225 20.2221C130.511 20.1957 117.796 20.1876 105.081 20.1977C92.2824 20.1977 79.4819 20.1886 66.6834 20.2297C64.5733 20.2297 62.4633 20.216 60.3532 20.184C58.4349 20.1567 56.5167 20.2053 54.5985 20.2145C53.9693 20.2145 53.3401 20.2008 52.7109 20.2145C52.2294 20.2251 51.7518 20.2845 51.2703 20.2966C50.8502 20.3058 50.4186 20.2677 49.9966 20.254C49.0183 20.3047 48.4901 20.7176 48.4121 21.4925C48.6526 22.73 49.4674 23.8516 50.6967 24.6372C52.57 26.3346 54.5678 27.943 56.6798 29.454C57.6485 30.4344 59.0416 31.0947 60.5891 31.307Z" fill="#FEAC00"/>
<path opacity="0.23" d="M53.2161 20.7837L52.6118 20.5205L53.2161 20.7837L55.8019 21.8943C56.2277 22.2595 56.715 22.3832 57.2636 22.2656C57.4998 22.2835 57.7378 22.2504 57.9522 22.1697L58.568 21.9811L59.0437 21.8289L60.3635 21.6616L59.3506 21.7331C67.7641 21.8198 76.1813 21.7665 84.5948 21.7665H165.903C166.263 21.8089 166.631 21.7786 166.972 21.6783C167.313 21.5781 167.616 21.4111 167.854 21.193C168.13 21.005 168.341 20.7649 168.468 20.4949C168.595 20.225 168.634 19.9339 168.581 19.6487C168.124 18.8439 167.459 18.1236 166.63 17.534C165.889 16.8755 164.983 16.3465 163.97 15.9806H76.0816C71.5136 15.9806 66.9462 15.9806 62.3795 15.9806C61.3283 15.9806 60.2695 15.9806 59.2259 15.9624C58.4509 15.9297 57.6742 15.9297 56.8991 15.9624C56.6138 15.9727 56.3299 15.9991 56.0493 16.0415L55.0768 16.1663C54.6739 16.2956 54.2903 16.4873 53.9047 16.644L54.9061 16.5664L52.9015 15.862C52.5477 15.842 52.1929 15.8881 51.8658 15.9967C51.5386 16.1053 51.2481 16.2734 51.0178 16.4873C50.7968 16.6155 50.6165 16.7828 50.4909 16.9758C50.3654 17.1688 50.2982 17.3823 50.2946 17.5994C50.1104 18.068 50.2799 18.4894 50.8029 18.8637C51.4843 19.594 52.2974 20.241 53.2161 20.7837Z" fill="#FEAC00"/>
<path opacity="0.23" d="M62.3413 28.4729C63.8759 28.5124 65.3894 28.4805 66.9163 28.4835C71.1096 28.4927 75.3029 28.4927 79.4961 28.4835C92.2666 28.4683 105.036 28.4638 117.805 28.4698C130.543 28.4698 143.281 28.4734 156.021 28.4805C161.808 28.4805 167.595 28.4638 173.383 28.4805C174.437 28.4714 174.953 28.0489 174.931 27.2132C174.475 25.8224 173.455 24.5891 172.029 23.7033C169.767 21.7782 167.385 19.9446 164.891 18.2095C163.73 17.1061 162.145 16.3349 160.379 16.0141C158.844 15.9882 157.31 15.9837 155.775 15.973C154.853 15.973 153.926 15.9608 153.003 15.973C152.025 15.9897 151.049 16.0293 150.07 16.0247C147.734 16.0105 145.398 16.0019 143.063 15.9989C130.351 15.9674 117.639 15.9573 104.924 15.9684C92.122 15.9684 79.3177 15.9684 66.5154 16.008C65.3644 16.008 64.2269 16.0187 63.0817 16.008C62.1226 16.008 61.1635 15.9654 60.1928 15.9502C58.2746 15.9198 56.3563 15.9776 54.4381 15.9852C52.9323 15.9852 51.4303 16.0065 49.9264 16.0476C48.8854 16.0476 48.3592 16.4624 48.3477 17.2921C48.741 18.6738 49.7076 19.9108 51.0927 20.805C53.2601 22.7231 55.551 24.5513 57.9562 26.2821C59.0695 27.3792 60.6128 28.1502 62.3413 28.4729Z" fill="#FEAC00"/>
<path opacity="0.23" d="M72.2006 22.9557L72.8816 23.1946L73.3937 23.3695C73.8567 23.5278 74.3209 23.6799 74.7864 23.8259L76.1157 23.9872L76.7871 23.9294C77.2839 23.8853 77.7693 23.8564 78.268 23.8457C82.2407 23.762 86.2211 23.8457 90.1957 23.8351C103.118 23.8199 116.041 23.8163 128.965 23.8244C141.779 23.8244 154.593 23.8244 167.407 23.8244C173.43 23.8244 179.456 23.8107 185.479 23.8244C185.875 23.7722 186.239 23.6178 186.514 23.3852C186.789 23.1526 186.96 22.8546 187 22.5373C186.966 22.0368 186.793 21.5485 186.492 21.1077C186.191 20.6669 185.77 20.2848 185.26 19.989C183.752 18.688 182.124 17.4787 180.388 16.3711C179.983 15.9854 179.475 15.676 178.901 15.4655C178.326 15.2549 177.7 15.1485 177.067 15.1539C175.792 15.1372 174.514 15.1418 173.231 15.1326C171.468 15.1189 169.709 15.1205 167.948 15.1494C165.905 15.1844 163.856 15.1494 161.81 15.1494C150.3 15.1301 138.791 15.1235 127.281 15.1296C115.149 15.1296 103.017 15.1331 90.8843 15.1402C88.3266 15.1402 85.769 15.1433 83.2113 15.1494C81.8475 15.1494 80.4797 15.1691 79.1139 15.1494C78.1683 15.1402 77.2245 15.1098 76.2807 15.1129C74.5607 15.1129 72.84 15.1225 71.1187 15.1418C70.5278 15.1415 69.9375 15.173 69.352 15.2361C68.9588 15.2817 68.5674 15.37 68.178 15.4369L69.5074 15.5982L67.146 14.8527C66.2764 14.5484 65.4957 14.6432 64.8038 15.1372C64.1951 15.6991 64.0954 16.3203 64.5046 17.0009C65.4915 18.2012 66.6694 19.2955 68.0092 20.2567C69.2547 21.2952 70.6634 22.2023 72.2006 22.9557Z" fill="#FEAC00"/>
<path opacity="0.23" d="M71.2079 33.0277C76.9281 33.0018 82.6484 33.017 88.3686 33.0109C101.134 32.9988 113.9 32.9952 126.666 33.0003C139.407 33.0003 152.148 33.0028 164.889 33.0079C170.677 33.0079 176.466 32.9942 182.253 33.0079C183.297 32.9866 183.809 32.5621 183.788 31.7345C183.347 30.3675 182.343 29.1564 180.936 28.2931C178.709 26.4129 176.361 24.6254 173.901 22.9377C172.756 21.8574 171.189 21.1111 169.449 20.8169C167.914 20.788 166.38 20.788 164.859 20.7758C163.94 20.7682 163.017 20.7606 162.098 20.7758C161.114 20.791 160.132 20.8321 159.148 20.8275C156.814 20.8153 154.48 20.8072 152.145 20.8032C139.433 20.7717 126.721 20.7621 114.01 20.7743C101.207 20.7743 88.4037 20.7864 75.5988 20.8108C74.4479 20.8108 73.3084 20.8214 72.1613 20.8108C71.2022 20.8108 70.2431 20.7712 69.2839 20.7545C67.3657 20.721 65.4378 20.7788 63.5177 20.7864C62.0023 20.7864 60.4888 20.7864 58.9753 20.8199C57.9407 20.8321 57.4157 21.2479 57.4004 22.0675C57.7854 23.4222 58.7365 24.6339 60.0994 25.5058C62.2365 27.3892 64.4967 29.1824 66.8708 30.8779C67.9673 31.9639 69.4967 32.7219 71.2079 33.0277Z" fill="#FEAC00"/>
<path opacity="0.23" d="M56.5655 24.078C57.2848 24.3001 58.008 24.5481 58.7446 24.7246L60.2006 24.9984L60.8278 24.8919L61.5644 24.7656H62.2761C66.2603 24.755 70.2426 24.7793 74.2268 24.7748C87.1519 24.7575 100.078 24.7525 113.006 24.7596C125.817 24.7596 138.629 24.7626 151.442 24.7687C157.465 24.7687 163.49 24.755 169.516 24.7687C170.442 24.6673 170.957 24.2448 171.062 23.5014C170.98 22.9422 170.757 22.4018 170.405 21.9127C170.054 21.4236 169.582 20.9958 169.017 20.6548C167.307 19.1567 165.475 17.7494 163.533 16.442C163.086 16.006 162.533 15.6459 161.906 15.3829C161.28 15.12 160.594 14.9597 159.888 14.9115C158.61 14.8948 157.335 14.8963 156.051 14.8841C154.284 14.8689 152.519 14.878 150.755 14.9115C148.714 14.948 146.667 14.9115 144.617 14.9115C133.107 14.8851 121.602 14.8765 110.1 14.8856C97.9651 14.8856 85.8315 14.8902 73.6993 14.8993C71.1416 14.8993 68.5839 14.9039 66.0263 14.913C64.6643 14.913 63.2985 14.9343 61.9366 14.913C60.9928 14.9008 60.049 14.8689 59.1033 14.8719C57.3769 14.8719 55.6505 14.8917 53.9241 14.8978C53.5314 14.8978 53.1388 14.9024 52.7462 14.9115L52.0672 14.9221C51.6509 14.9693 51.2328 15.0743 50.8222 15.1488L52.2744 15.4196L50.4482 14.9632C49.553 14.5575 48.7173 14.6011 47.941 15.0941C47.3195 15.7087 47.2613 16.371 47.7665 17.081C48.9344 18.458 50.2919 19.7275 51.814 20.8663C53.2422 22.0738 54.8359 23.151 56.5655 24.078Z" fill="#FEAC00"/>
<path opacity="0.23" d="M54.1958 31.2806L54.8729 31.524L55.3832 31.7035C55.8474 31.8648 56.3135 32.023 56.7816 32.1782L57.9325 32.236L58.7248 32.2163C59.2695 32.2041 59.8143 32.1899 60.3591 32.1737C62.2601 32.1158 64.1687 32.1737 66.0716 32.1737H111.079C129.943 32.1737 148.806 32.1737 167.668 32.1737C168.046 32.097 168.392 31.9428 168.672 31.7265C168.951 31.5102 169.154 31.2394 169.26 30.9413C169.394 30.0792 169.03 29.3459 168.168 28.7414C167.062 27.6483 165.828 26.6412 164.482 25.7335C163.74 25.0347 162.825 24.7304 161.737 24.8207C145.082 24.8207 128.427 24.8207 111.772 24.8207H75.4461C70.538 24.8207 65.6285 24.8207 60.7178 24.8207C59.0259 24.8207 57.334 24.8207 55.6402 24.8101C54.5108 24.8324 53.3858 24.9312 52.2775 25.1052L53.4285 25.163L51.1266 24.4845C50.7605 24.3877 50.3671 24.3762 49.9931 24.4514C49.6191 24.5267 49.2801 24.6855 49.0165 24.9089C48.7265 25.1138 48.517 25.3806 48.4129 25.6773C48.3088 25.974 48.3146 26.2883 48.4295 26.5825C49.0842 27.5644 49.9406 28.4528 50.9635 29.2115C51.8897 30.0378 52.9819 30.737 54.1958 31.2806Z" fill="#FEAC00"/>
</g>
<path d="M10.44 16.44V23.952H13.416V16.44H10.44ZM4.128 9.504V11.976H19.944V9.504H4.128ZM1.368 22.968V25.512H22.728V22.968H1.368ZM3.504 18.648V21.12H20.832V18.648H3.504ZM7.968 10.92C7.488 12.264 6.6 14.112 5.856 15.336L8.232 16.056C9.048 14.928 10.104 13.272 11.04 11.664L7.968 10.92ZM3.072 14.256L3.192 16.824C7.248 16.728 13.272 16.584 18.912 16.368L19.056 13.968C13.32 14.088 7.104 14.232 3.072 14.256ZM14.352 12.984C16.2 14.376 18.456 16.392 19.464 17.736L21.72 16.2C20.616 14.808 18.264 12.888 16.44 11.592L14.352 12.984ZM10.44 3.648V6.984H13.416V3.648H10.44ZM1.44 5.184V10.2H4.248V7.8H19.656V10.2H22.608V5.184H1.44ZM34.032 13.92L31.512 14.664C34.008 20.76 38.184 24.528 45.24 26.088C45.648 25.296 46.464 24.048 47.112 23.448C40.344 22.248 36.048 18.96 34.032 13.92ZM41.376 12.48V12.984C39.888 18.648 35.448 22.248 29.88 23.688C30.456 24.288 31.152 25.392 31.512 26.136C37.752 24.168 42.504 20.376 44.424 13.2L42.456 12.36L41.928 12.48H41.376ZM25.512 7.2V9.984H46.464V7.2H25.512ZM32.304 12.48L31.488 15.264H41.664V12.48H32.304ZM31.512 3.624C31.368 6.552 31.416 17.64 24.552 23.232C25.536 23.808 26.448 24.528 27.048 25.296C33.96 19.008 34.32 7.392 34.512 3.624H31.512ZM50.376 9.888V26.136H52.992V9.888H50.376ZM55.44 17.28V24.888H58.008V17.28H55.44ZM56.592 17.28V18.888H62.016V22.464H56.592V24.048H64.536V17.28H56.592ZM51.768 9.888V11.568H56.784V14.712H51.768V16.368H59.376V9.888H51.768ZM51.792 12.36V13.896H57.528V12.36H51.792ZM56.592 19.872V21.432H63.168V19.872H56.592ZM62.376 12.36V13.896H68.256V12.36H62.376ZM67.92 9.888H60.792V16.368H67.92V14.712H63.384V11.568H67.92V9.888ZM67.272 9.888V23.232C67.272 23.568 67.152 23.664 66.792 23.688C66.432 23.688 65.208 23.712 64.128 23.64C64.464 24.336 64.824 25.416 64.92 26.136C66.696 26.16 67.968 26.112 68.832 25.704C69.696 25.296 69.96 24.6 69.96 23.256V9.888H67.272ZM52.08 5.328V7.488H59.64V5.328H52.08ZM61.728 5.328V7.488H70.944V5.328H61.728ZM52.176 3.432C51.432 5.232 50.088 7.056 48.624 8.232C49.272 8.592 50.424 9.336 50.976 9.792C52.392 8.448 53.928 6.288 54.864 4.152L52.176 3.432ZM61.992 3.432C61.272 5.256 59.88 7.056 58.32 8.208C59.016 8.496 60.24 9.144 60.84 9.552C62.28 8.28 63.84 6.216 64.728 4.104L61.992 3.432ZM52.968 7.128C53.496 7.944 54.072 9.048 54.288 9.744L56.784 9.048C56.52 8.328 55.896 7.272 55.344 6.504L52.968 7.128ZM63.72 7.128C64.392 7.944 65.112 9.072 65.424 9.792L67.992 9.072C67.632 8.328 66.84 7.224 66.168 6.456L63.72 7.128ZM83.904 6.504C85.848 9.624 89.784 12.984 93.624 14.928C94.152 14.04 94.8 13.056 95.544 12.288C91.608 10.776 87.792 7.608 85.32 3.552H82.2C80.544 6.744 76.8 10.584 72.528 12.624C73.152 13.224 73.968 14.304 74.328 15.024C78.36 12.888 82.032 9.576 83.904 6.504ZM86.568 12.408V26.16H89.568V12.408H86.568ZM78.288 12.528V15.432C78.288 18.216 77.856 21.6 73.632 24.12C74.4 24.576 75.528 25.536 76.032 26.16C80.76 23.208 81.24 18.912 81.24 15.504V12.528H78.288ZM111.696 5.016V7.512H116.136V5.016H111.696ZM106.272 6.048V8.4H111.216V6.048H106.272ZM111.984 9.432V11.784H116.04V9.432H111.984ZM111.96 13.848V16.2H115.992V13.848H111.96ZM100.176 9.432V11.784H104.208V9.432H100.176ZM100.2 13.824V16.176H104.208V13.824H100.2ZM98.784 5.208L99.216 19.344H101.784L101.4 6.432C101.784 6.36 101.952 6.264 102 6.072L98.784 5.208ZM114.48 5.016C114.528 9.624 114.336 15.6 114.048 19.248H116.736C117 15.672 117.12 9.72 117.12 5.016H114.48ZM103.248 3.864C102.312 4.56 100.8 5.472 99.456 6.12C99.768 6.672 100.176 7.584 100.32 8.112C101.88 7.536 103.776 6.744 105.408 5.928L103.248 3.864ZM105.048 13.08V19.056H107.328V13.08H105.048ZM105.096 3.912V12.288H110.088V10.056H107.544V3.912H105.096ZM108.672 10.056V19.128H111.12V10.056H108.672ZM96.936 18.168V20.832H119.136V18.168H96.936ZM109.608 22.416C112.032 23.568 114.72 25.152 116.208 26.208L119.088 24.24C117.36 23.208 114.36 21.672 111.768 20.496L109.608 22.416ZM103.728 20.544C102.192 21.744 99.312 23.328 97.008 24.192C97.728 24.72 98.712 25.608 99.24 26.184C101.448 25.248 104.328 23.712 106.272 22.368L103.728 20.544ZM125.76 23.592V25.512H138.432V23.592H125.76ZM124.008 20.184V26.16H126.84V22.104H137.256V26.16H140.232V20.184H124.008ZM121.776 5.04V7.104H142.224V5.04H121.776ZM123.432 8.064V10.056H140.808V8.064H123.432ZM120.936 17.136V19.32H142.992V17.136H120.936ZM130.44 3.576V8.808H133.368V3.576H130.44ZM125.928 15.912C126.312 16.56 126.696 17.52 126.792 18.144L129.552 17.376C129.384 16.752 129 15.888 128.544 15.24L125.928 15.912ZM135.216 15.216C135.024 15.888 134.616 16.824 134.256 17.52L136.752 18.048C137.208 17.448 137.808 16.632 138.384 15.672L135.216 15.216ZM127.2 12.672H136.848V13.872H127.2V12.672ZM124.464 10.872V15.648H139.752V10.872H124.464ZM154.848 4.824V7.488H164.592V4.824H154.848ZM154.032 13.176V15.888H167.28V13.176H154.032ZM159.096 10.368V22.92C159.096 23.256 158.976 23.352 158.592 23.376C158.184 23.4 156.936 23.376 155.712 23.328C156.096 24.096 156.576 25.344 156.72 26.136C158.496 26.16 159.816 26.064 160.776 25.632C161.712 25.176 162 24.408 162 22.968V10.368H159.096ZM163.56 4.824V5.448C162.84 6.888 161.184 9.264 159.768 10.632C160.224 11.016 161.016 11.808 161.4 12.312C163.272 10.728 165.312 8.184 166.728 6.096L164.856 4.68L164.256 4.824H163.56ZM144.888 8.4V11.064H152.64V8.4H144.888ZM148.104 3.624C147.36 8.4 146.064 14.736 145.032 18.528L147.384 19.776C148.512 15.456 149.904 9.024 150.816 3.912L148.104 3.624ZM146.28 18.12C148.8 19.776 151.848 22.296 153.192 24.12L154.92 21.792C153.528 19.992 150.36 17.664 147.864 16.104L146.28 18.12ZM151.656 8.4V8.928C151.176 16.512 149.04 21.816 144.96 23.952C145.536 24.504 146.304 25.536 146.688 26.232C151.44 23.28 153.768 17.976 154.32 8.616L152.616 8.328L152.112 8.4H151.656Z" fill="black"/>
</svg>
