<svg width="98" height="98" viewBox="0 0 98 98" fill="none" xmlns="http://www.w3.org/2000/svg">
<circle cx="49" cy="49" r="47" fill="#F4F4F4" stroke="#F4F4F4" stroke-width="4"/>
<path d="M68.4142 51.4142C69.1953 50.6332 69.1953 49.3668 68.4142 48.5858L55.6863 35.8579C54.9052 35.0768 53.6389 35.0768 52.8579 35.8579C52.0768 36.6389 52.0768 37.9052 52.8579 38.6863L64.1716 50L52.8579 61.3137C52.0768 62.0948 52.0768 63.3611 52.8579 64.1421C53.6389 64.9232 54.9052 64.9232 55.6863 64.1421L68.4142 51.4142ZM31 48C29.8954 48 29 48.8954 29 50C29 51.1046 29.8954 52 31 52L31 48ZM67 48L31 48L31 52L67 52L67 48Z" fill="#0E2E3D"/>
</svg>
