<svg width="20" height="20" viewBox="0 0 20 20" fill="none" xmlns="http://www.w3.org/2000/svg">
<path d="M13.3333 14.1667C13.5543 14.1667 13.7663 14.079 13.9225 13.9227C14.0788 13.7664 14.1666 13.5544 14.1666 13.3334C14.1707 13.2779 14.1707 13.2222 14.1666 13.1667C14.1575 13.1145 14.1406 13.064 14.1166 13.0167C14.0984 12.9636 14.0732 12.9132 14.0416 12.8667L13.9416 12.7417C13.8606 12.6681 13.7676 12.6089 13.6666 12.5667C13.4637 12.4834 13.2362 12.4834 13.0333 12.5667C12.9323 12.6089 12.8393 12.6681 12.7583 12.7417L12.6583 12.8667C12.6267 12.9132 12.6015 12.9636 12.5833 13.0167C12.5593 13.064 12.5424 13.1145 12.5333 13.1667C12.5292 13.2222 12.5292 13.2779 12.5333 13.3334C12.5333 13.5544 12.6211 13.7664 12.7774 13.9227C12.9336 14.079 13.1456 14.1667 13.3666 14.1667H13.3333ZM14.9999 1.66675H4.99995C4.33691 1.66675 3.70102 1.93014 3.23218 2.39898C2.76334 2.86782 2.49995 3.50371 2.49995 4.16675V14.1667C2.50124 14.5535 2.59222 14.9346 2.76574 15.2802C2.93926 15.6258 3.19058 15.9264 3.49995 16.1584L2.74162 16.9084C2.66351 16.9859 2.60151 17.0781 2.55921 17.1796C2.5169 17.2812 2.49512 17.3901 2.49512 17.5001C2.49512 17.6101 2.5169 17.719 2.55921 17.8206C2.60151 17.9221 2.66351 18.0143 2.74162 18.0917C2.81908 18.1699 2.91125 18.2319 3.0128 18.2742C3.11435 18.3165 3.22327 18.3382 3.33328 18.3382C3.44329 18.3382 3.55221 18.3165 3.65376 18.2742C3.75531 18.2319 3.84748 18.1699 3.92495 18.0917L5.34162 16.6667H14.6583L16.0749 18.0917C16.1524 18.1699 16.2446 18.2319 16.3461 18.2742C16.4477 18.3165 16.5566 18.3382 16.6666 18.3382C16.7766 18.3382 16.8855 18.3165 16.9871 18.2742C17.0886 18.2319 17.1808 18.1699 17.2583 18.0917C17.3364 18.0143 17.3984 17.9221 17.4407 17.8206C17.483 17.719 17.5048 17.6101 17.5048 17.5001C17.5048 17.3901 17.483 17.2812 17.4407 17.1796C17.3984 17.0781 17.3364 16.9859 17.2583 16.9084L16.4999 16.1584C16.8093 15.9264 17.0606 15.6258 17.2342 15.2802C17.4077 14.9346 17.4987 14.5535 17.4999 14.1667V4.16675C17.4999 3.50371 17.2366 2.86782 16.7677 2.39898C16.2989 1.93014 15.663 1.66675 14.9999 1.66675ZM4.16662 6.66675H9.16662V10.0001H4.16662V6.66675ZM15.8333 14.1667C15.8333 14.3878 15.7455 14.5997 15.5892 14.756C15.4329 14.9123 15.221 15.0001 14.9999 15.0001H4.99995C4.77894 15.0001 4.56697 14.9123 4.41069 14.756C4.25441 14.5997 4.16662 14.3878 4.16662 14.1667V11.6667H15.8333V14.1667ZM15.8333 10.0001H10.8333V6.66675H15.8333V10.0001ZM15.8333 5.00008H4.16662V4.16675C4.16662 3.94573 4.25441 3.73377 4.41069 3.57749C4.56697 3.42121 4.77894 3.33341 4.99995 3.33341H14.9999C15.221 3.33341 15.4329 3.42121 15.5892 3.57749C15.7455 3.73377 15.8333 3.94573 15.8333 4.16675V5.00008ZM6.66662 14.1667C6.88763 14.1667 7.09959 14.079 7.25587 13.9227C7.41215 13.7664 7.49995 13.5544 7.49995 13.3334C7.50404 13.2779 7.50404 13.2222 7.49995 13.1667C7.49083 13.1145 7.47398 13.064 7.44995 13.0167C7.43171 12.9636 7.40649 12.9132 7.37495 12.8667L7.27495 12.7417C7.19395 12.6681 7.10094 12.6089 6.99995 12.5667C6.79706 12.4834 6.5695 12.4834 6.36662 12.5667C6.26563 12.6089 6.17262 12.6681 6.09162 12.7417L5.99162 12.8667C5.96008 12.9132 5.93486 12.9636 5.91662 13.0167C5.88092 13.0619 5.85278 13.1126 5.83328 13.1667C5.82919 13.2222 5.82919 13.2779 5.83328 13.3334C5.8342 13.552 5.921 13.7615 6.07495 13.9167C6.15213 13.9955 6.24416 14.0581 6.34573 14.101C6.44729 14.144 6.55636 14.1663 6.66662 14.1667Z" fill="black"/>
</svg>
