<svg width="118" height="36" viewBox="0 0 118 36" fill="none" xmlns="http://www.w3.org/2000/svg">
<g opacity="0.6">
<path opacity="0.23" d="M43.1899 35.0673C44.1411 35.0673 45.0888 35.0155 46.04 35.0247C47.1957 35.0338 48.3514 35.0246 49.5072 35.0155C50.9816 35.0155 52.456 35.0323 53.9291 35.0292C61.9337 35.017 69.9379 35.0135 77.9416 35.0186C85.9285 35.0186 93.9159 35.0211 101.904 35.0262C105.532 35.0262 109.16 35.0125 112.788 35.0262C113.416 34.9765 113.74 34.554 113.759 33.7588C113.548 32.473 112.981 31.3249 112.159 30.5213C110.884 28.7729 109.532 27.1161 108.11 25.5585C107.449 24.5457 106.524 23.8644 105.502 23.6369C104.54 23.6095 103.578 23.6111 102.623 23.6004C102.048 23.6004 101.471 23.5852 100.896 23.6004C100.279 23.6156 99.6643 23.6537 99.0474 23.6491C97.5826 23.6379 96.1182 23.6303 94.6543 23.6263C86.6842 23.5989 78.7141 23.5908 70.744 23.6019C62.7194 23.6019 54.6936 23.6126 46.6666 23.6339C45.3437 23.6339 44.0209 23.6217 42.698 23.5882C41.4954 23.5563 40.2928 23.6095 39.0902 23.6171C38.6933 23.6171 38.2952 23.5989 37.8984 23.605C37.5917 23.605 37.285 23.6537 36.9784 23.6643C36.7282 23.6734 36.4757 23.6643 36.2243 23.6537C35.6002 23.6932 35.2707 24.1101 35.2334 24.8951C35.4125 26.1698 35.9498 27.3196 36.7463 28.1327C37.9706 29.8862 39.2718 31.5512 40.6439 33.1199C41.279 34.1365 42.1832 34.8281 43.1899 35.0673Z" fill="#FEAC00"/>
<path opacity="0.23" d="M35.7384 28.0361C36.1665 28.2278 36.5959 28.4332 37.0324 28.5929L37.9452 28.8729L38.3541 28.7816L38.8351 28.6705H39.2813C41.7803 28.6492 44.2781 28.6827 46.7759 28.6705C54.8791 28.6533 62.9819 28.6487 71.0843 28.6568C79.1177 28.6568 87.1507 28.6599 95.1833 28.6659C98.9607 28.6659 102.738 28.6522 106.516 28.6659C107.098 28.5645 107.423 28.1441 107.491 27.4047C107.441 26.8441 107.302 26.3019 107.083 25.8105C106.863 25.3192 106.568 24.8886 106.215 24.5445C105.145 23.0373 103.998 21.6199 102.783 20.3013C102.503 19.8628 102.157 19.4999 101.764 19.2341C101.372 18.9682 100.941 18.805 100.498 18.754C99.6967 18.7357 98.8958 18.7388 98.0924 18.7266C96.9868 18.7114 95.8816 18.72 94.7768 18.7525C93.4961 18.789 92.2129 18.7525 90.9285 18.7525C83.7129 18.7281 76.4972 18.72 69.2816 18.7281C61.6755 18.7281 54.069 18.7327 46.4621 18.7418C44.8586 18.7418 43.2551 18.7459 41.6516 18.754C40.7978 18.754 39.9415 18.7768 39.0877 18.754C38.4936 18.7418 37.9019 18.7099 37.3078 18.7129C36.2255 18.7129 35.1431 18.7327 34.0608 18.7372C33.813 18.7372 33.5665 18.7372 33.3188 18.7494L32.8918 18.7601C32.6212 18.8027 32.3507 18.9 32.0849 18.9685L32.9977 19.2484L31.9045 18.8453C31.3433 18.4396 30.8177 18.4781 30.3279 18.9609C29.9358 19.5766 29.8985 20.2404 30.216 20.9524C30.9466 22.3402 31.7969 23.621 32.7511 24.7711C33.6485 25.9958 34.6503 27.0908 35.7384 28.0361Z" fill="#FEAC00"/>
<path opacity="0.23" d="M35.5634 17.6708C36.2645 18.1835 36.9729 18.678 37.6848 19.1664C37.9622 19.5132 38.2593 19.6005 38.5759 19.428C38.7423 19.4026 38.9028 19.3345 39.0476 19.2277C39.1923 19.121 39.3183 18.9779 39.4178 18.8073C39.6102 18.5842 39.8002 18.3585 39.9878 18.1303L38.873 18.8423L39.4406 18.6658C39.5995 18.5869 39.7747 18.5772 39.9385 18.6384C40.4604 18.6978 40.9751 18.748 41.5019 18.7556C42.7045 18.7754 43.9071 18.7556 45.1097 18.7556C48.2365 18.7556 51.3633 18.7556 54.4901 18.7556H76.9776C86.8286 18.7556 96.6796 18.7556 106.531 18.7556C106.745 18.7376 106.954 18.665 107.146 18.5421C107.337 18.4192 107.507 18.2486 107.645 18.0405C107.809 17.864 107.942 17.6475 108.037 17.4041C108.132 17.1606 108.188 16.8953 108.2 16.6241C108.046 16.0005 107.756 15.4439 107.365 15.0175C107.025 14.5266 106.582 14.1661 106.088 13.9768H50.5046C47.5775 13.9768 44.6511 13.9814 41.7256 13.9905C41.0834 13.9905 40.4508 13.9753 39.811 13.9129L39.2253 13.8551L38.8044 13.9555C38.581 13.9982 38.3597 14.0576 38.1418 14.1335C37.9754 14.1605 37.815 14.2297 37.6703 14.3372C37.5256 14.4447 37.3996 14.5881 37.3 14.7588C37.0943 14.9642 36.8899 15.1727 36.6854 15.3811L38.4196 15.0221C37.8103 14.6508 37.2018 14.2761 36.594 13.8977C36.4481 13.7548 36.2682 13.6787 36.0836 13.6817C35.8991 13.6848 35.7208 13.7668 35.5778 13.9145C35.1813 14.2356 34.8457 14.6637 34.5953 15.1681C34.4805 15.3509 34.418 15.5774 34.418 15.8109C34.418 16.0444 34.4805 16.2709 34.5953 16.4537C34.8408 16.9471 35.1719 17.3633 35.5634 17.6708Z" fill="#FEAC00"/>
<path opacity="0.23" d="M41.4368 26.168C42.3893 26.1787 43.3393 26.1574 44.2918 26.168C45.4487 26.168 46.6056 26.168 47.7625 26.1589C49.2345 26.1589 50.7053 26.1802 52.1773 26.1772C60.1834 26.1599 68.1892 26.1548 76.1946 26.1619C84.1807 26.1619 92.1668 26.1655 100.153 26.1726C103.781 26.1726 107.409 26.1559 111.038 26.1726C111.706 26.1726 112.027 25.7486 112 24.9007C111.69 23.4827 111.028 22.2283 110.112 21.3223C108.649 19.3577 107.112 17.4894 105.501 15.7175C104.751 14.5942 103.736 13.8054 102.605 13.4673C101.643 13.4399 100.681 13.4369 99.7188 13.4247C99.1404 13.4171 98.5595 13.4141 97.9798 13.4247C97.3665 13.4415 96.7544 13.4825 96.141 13.4765C94.6763 13.4643 93.2119 13.4557 91.7479 13.4506C83.7778 13.4171 75.8081 13.4065 67.8389 13.4186C59.8126 13.4186 51.7852 13.4186 43.7578 13.4597C43.0363 13.4597 42.3243 13.4704 41.6064 13.4597C41.0051 13.4597 40.4037 13.4156 39.7952 13.4004C38.5926 13.37 37.39 13.4278 36.1874 13.4354C35.2482 13.4354 34.3161 13.4354 33.3793 13.5145C32.7179 13.5145 32.39 13.9314 32.3956 14.7651C32.668 16.1679 33.2972 17.4187 34.1863 18.3252C35.5901 20.2793 37.0708 22.1428 38.6227 23.9087C39.3409 25.0298 40.3291 25.8232 41.4368 26.168Z" fill="#FEAC00"/>
<path opacity="0.23" d="M33.3776 26.5845L33.8442 26.8797L34.1954 27.1033C34.5161 27.2991 34.8368 27.4923 35.1575 27.683L35.861 27.7073L36.312 27.6297C36.6295 27.575 36.9457 27.5278 37.2656 27.4943C37.7996 27.4396 38.3215 27.4548 38.8591 27.4609C39.5157 27.4609 40.1735 27.473 40.8314 27.473H69.0398C80.8662 27.473 92.6919 27.473 104.517 27.473C104.75 27.3862 104.963 27.2279 105.136 27.0122C105.31 26.7964 105.439 26.5299 105.511 26.2361C105.615 25.4176 105.411 24.7188 104.898 24.1396C104.249 23.1157 103.52 22.1772 102.722 21.3387C102.273 20.6794 101.724 20.4086 101.076 20.5263C90.6342 20.5263 80.1927 20.5263 69.7517 20.5263H37.7503C36.6872 20.5263 35.6229 20.5156 34.5586 20.505C34.18 20.4958 33.8018 20.5387 33.4305 20.6328C33.1407 20.7119 32.8533 20.8488 32.5695 20.9553L33.273 20.9797L31.7288 20.1825C31.4998 20.1057 31.2585 20.1101 31.0314 20.1951C30.8042 20.2802 30.5999 20.4426 30.4408 20.6647C30.2624 20.8622 30.1304 21.118 30.0594 21.4041C29.9883 21.6902 29.9809 21.9955 30.038 22.2866C30.3992 23.2013 30.8881 24.026 31.4811 24.7208C32.0195 25.4813 32.662 26.1126 33.3776 26.5845Z" fill="#FEAC00"/>
<path opacity="0.23" d="M40.8897 17.8436L41.402 18.1829C41.6089 18.3178 41.8161 18.4516 42.0238 18.5845C42.2907 18.7559 42.5585 18.9248 42.8271 19.0911L43.4789 19.0333L43.9828 18.7945L44.2823 18.6514L45.1241 18.516L44.4651 18.5662C46.6743 18.6058 48.8822 18.5967 51.0914 18.5967H82.8908C92.3513 18.5967 101.812 18.5967 111.272 18.5967C111.501 18.652 111.737 18.6302 111.956 18.5336C112.176 18.4369 112.371 18.2687 112.523 18.0459C112.695 17.8492 112.823 17.5984 112.894 17.3189C112.965 17.0394 112.976 16.7412 112.926 16.4545C112.588 15.5995 112.123 14.835 111.556 14.2029C111.045 13.5044 110.433 12.9363 109.752 12.5293C99.114 12.5293 88.4753 12.5293 77.8362 12.5293H54.65C51.7869 12.5293 48.9231 12.5293 46.0585 12.5293C45.4007 12.5293 44.7429 12.5293 44.085 12.5156C43.5932 12.505 43.1025 12.473 42.6106 12.5156C42.4265 12.5196 42.2428 12.5405 42.061 12.578L41.4381 12.683C41.1892 12.8093 40.9498 13.0025 40.7165 13.1592L41.3683 13.1014L39.7388 12.2342C39.5143 12.2028 39.2871 12.2419 39.0773 12.348C38.8675 12.4542 38.6817 12.6241 38.5362 12.8427C38.3671 13.0295 38.2367 13.2658 38.1564 13.531C38.0761 13.7962 38.0483 14.0822 38.0756 14.3641C38.3514 15.1394 38.7563 15.8301 39.2626 16.3891C39.716 17.0163 40.271 17.5124 40.8897 17.8436Z" fill="#FEAC00"/>
<path opacity="0.23" d="M40.9276 20.6416L41.3581 20.8957L41.6804 21.0828C41.9739 21.2502 42.2685 21.4145 42.5644 21.5758L43.4302 21.7796L43.8259 21.6838L44.2913 21.5712L44.729 21.559C47.2233 21.4921 49.7199 21.559 52.2141 21.559C60.3173 21.5408 68.42 21.5367 76.5224 21.5469C84.555 21.5469 92.5881 21.5469 100.621 21.5469C104.398 21.5469 108.175 21.5317 111.952 21.5469C112.514 21.4089 112.834 20.9824 112.915 20.2674C112.882 19.7447 112.762 19.2368 112.561 18.778C112.361 18.3193 112.084 17.9203 111.752 17.6079C110.758 16.2344 109.689 14.9517 108.553 13.7694C108.288 13.3648 107.958 13.0367 107.584 12.8073C107.211 12.578 106.803 12.4526 106.388 12.4397C105.586 12.426 104.784 12.4276 103.983 12.4169C102.879 12.4032 101.776 12.4078 100.672 12.4382C99.3912 12.4732 98.1068 12.4382 96.8236 12.4382C89.608 12.4169 82.3923 12.4098 75.1767 12.4169C67.5714 12.4169 59.9661 12.4205 52.3608 12.4276C50.7573 12.4276 49.1538 12.4316 47.5504 12.4397C46.6953 12.4397 45.8391 12.461 44.984 12.4397C44.3887 12.4276 43.7958 12.3987 43.2005 12.4017C42.1182 12.4017 41.0419 12.4184 39.9631 12.4276C39.7226 12.4276 39.4821 12.4276 39.2415 12.458L38.8266 12.4975C38.5753 12.5508 38.324 12.6497 38.0762 12.7349L38.9421 12.9372L37.5314 12.207C36.9814 11.8672 36.4808 11.9458 36.0294 12.4428C35.6445 13.0229 35.5912 13.6579 35.8694 14.3476C36.5257 15.606 37.3011 16.7581 38.1784 17.7783C38.9993 18.8707 39.9225 19.8323 40.9276 20.6416Z" fill="#FEAC00"/>
<path opacity="0.23" d="M39.8045 23.2325L40.6223 23.3359C40.9286 23.3468 41.2351 23.3203 41.5375 23.2568C41.909 23.2259 42.2815 23.2193 42.6535 23.2371C45.2824 23.2431 47.9113 23.2462 50.5402 23.2462C58.5472 23.2289 66.5541 23.2244 74.5611 23.2325C82.5464 23.2325 90.5313 23.2355 98.5158 23.2416C102.143 23.2416 105.771 23.2234 109.398 23.2416C110.01 23.1706 110.331 22.7462 110.36 21.9682C110.18 20.7356 109.643 19.6323 108.855 18.8737C107.64 17.2166 106.349 15.6514 104.989 14.1862C104.356 13.2221 103.462 12.5908 102.481 12.4153C101.519 12.391 100.557 12.3894 99.5946 12.3773C98.4028 12.3636 97.211 12.4336 96.0204 12.4244C94.5556 12.4133 93.0909 12.4062 91.6261 12.4031C83.6552 12.3757 75.6847 12.3671 67.7146 12.3773C59.6884 12.3773 51.6634 12.3681 43.6372 12.4107C42.3143 12.4107 40.9915 12.394 39.6686 12.3636C38.466 12.3362 37.2634 12.3864 36.0608 12.394C35.6699 12.394 35.2755 12.3742 34.8858 12.394C34.5984 12.4107 34.3134 12.499 34.026 12.5157C33.7491 12.5095 33.4728 12.482 33.1986 12.4336C32.5901 12.4985 32.2621 12.9153 32.2148 13.6841C32.3644 14.9044 32.8741 16.0075 33.6411 16.7711C34.8086 18.4246 36.0535 19.9879 37.3692 21.4524C37.9749 22.4126 38.8445 23.0482 39.8045 23.2325Z" fill="#FEAC00"/>
<path opacity="0.23" d="M38.2987 35.1392C38.7449 35.3553 39.1958 35.6048 39.654 35.7691L40.5235 36.0003L40.9468 35.9227L41.4423 35.8315H41.8921C44.3911 35.8315 46.8901 35.8406 49.3903 35.8315C57.4879 35.8162 65.5891 35.8122 73.6939 35.8193C81.7273 35.8193 89.7611 35.8193 97.7953 35.8193C101.573 35.8193 105.35 35.8025 109.128 35.8193C109.689 35.6976 110.014 35.2777 110.104 34.5596C110.074 34.0294 109.956 33.5133 109.757 33.0453C109.558 32.5772 109.283 32.1677 108.95 31.8438C107.958 30.4285 106.889 29.1031 105.751 27.8775C105.488 27.4635 105.16 27.1242 104.787 26.8819C104.414 26.6396 104.005 26.4999 103.586 26.4718C102.786 26.4535 101.986 26.4596 101.181 26.4489C100.075 26.4352 98.9727 26.4383 97.8675 26.4687C96.5867 26.5052 95.3035 26.4687 94.0191 26.4687C86.8035 26.4474 79.5878 26.4403 72.3722 26.4474C64.7661 26.4474 57.16 26.4515 49.5539 26.4596C47.9504 26.4596 46.3469 26.4631 44.7435 26.4702C43.8872 26.4702 43.0297 26.49 42.1735 26.4702C41.5818 26.4596 40.9913 26.4292 40.3996 26.4322C39.3173 26.4322 38.2349 26.4474 37.1526 26.4565C36.9049 26.4565 36.6571 26.4611 36.4094 26.4702L35.9813 26.4809C35.7131 26.5235 35.4437 26.6224 35.1791 26.6924L36.0498 26.9236L34.8713 26.4124C34.3213 26.0402 33.8122 26.0965 33.3439 26.5813C32.9495 27.1655 32.8934 27.8086 33.1756 28.5104C33.8399 29.8205 34.6247 31.0262 35.5134 32.1025C36.3437 33.2504 37.2787 34.2698 38.2987 35.1392Z" fill="#FEAC00"/>
<path opacity="0.23" d="M45.4153 26.1551L46.1765 26.1901C46.4892 26.2023 46.8043 26.1581 47.117 26.1353C47.4934 26.1064 47.8722 26.1353 48.2486 26.1353C49.4068 26.146 50.5649 26.1353 51.723 26.1277C53.1938 26.1277 54.6646 26.146 56.1353 26.1429C64.1407 26.1297 72.1469 26.1257 80.1538 26.1307C88.1392 26.1307 96.1249 26.1338 104.111 26.1399C107.738 26.1399 111.365 26.1262 114.992 26.1399C115.626 26.0892 115.946 25.6622 115.954 24.8589C115.716 23.5556 115.123 22.3999 114.279 21.5939C112.958 19.8306 111.562 18.1602 110.096 16.59C109.412 15.5699 108.467 14.8856 107.425 14.6563C106.463 14.6289 105.51 14.6289 104.551 14.6167C103.975 14.6091 103.397 14.6031 102.821 14.6167C102.202 14.632 101.586 14.6715 100.966 14.667C99.5038 14.6548 98.041 14.6467 96.5779 14.6426C88.6102 14.6122 80.6421 14.6025 72.6736 14.6137C64.645 14.6137 56.6164 14.6259 48.5878 14.6502C47.8662 14.6502 47.1519 14.6609 46.4339 14.6502C45.8326 14.6502 45.2313 14.6107 44.63 14.5939C43.4274 14.5635 42.2176 14.6198 41.0125 14.6259C40.6193 14.6259 40.2248 14.6061 39.8304 14.6137C39.5309 14.6137 39.2291 14.67 38.9332 14.6791C38.6795 14.6867 38.4221 14.6578 38.1684 14.6472C37.5382 14.6888 37.2119 15.1077 37.1895 15.9039C37.3953 17.1961 37.958 18.3535 38.7769 19.1688C40.0466 20.9377 41.3928 22.6164 42.8092 24.197C43.4667 25.2203 44.3905 25.9143 45.4153 26.1551Z" fill="#FEAC00"/>
<path opacity="0.23" d="M43.6529 29.1786C47.2379 29.1345 50.8241 29.1786 54.4103 29.1695C62.414 29.1543 70.4178 29.1497 78.4215 29.1558C86.4093 29.1558 94.3966 29.1589 102.383 29.1649C106.013 29.1649 109.642 29.1482 113.271 29.1649C113.943 29.1649 114.264 28.742 114.233 27.893C113.914 26.469 113.245 25.2106 112.322 24.301C110.847 22.3232 109.299 20.4402 107.677 18.652C106.922 17.5216 105.901 16.7253 104.763 16.379C103.801 16.3517 102.839 16.3486 101.877 16.3364C101.3 16.3364 100.72 16.3243 100.142 16.3364C99.5297 16.3517 98.9188 16.3927 98.3067 16.3867C96.8419 16.3745 95.3767 16.3664 93.9111 16.3623C85.9402 16.3299 77.969 16.3197 69.9973 16.3319C61.9723 16.3319 53.9473 16.3319 45.9222 16.3714C45.2007 16.3714 44.4875 16.3821 43.7696 16.3714C43.1683 16.3714 42.5573 16.3288 41.9512 16.3136C40.7486 16.2832 39.546 16.3395 38.3434 16.3486C37.6363 16.3486 36.9279 16.3197 36.222 16.3562C35.9815 16.3684 35.7518 16.4049 35.5173 16.4293C34.8534 16.4232 34.5251 16.84 34.5323 17.6798C34.8146 19.0888 35.4505 20.3439 36.3447 21.2567C37.7613 23.2294 39.2518 25.1084 40.816 26.8935C41.5408 28.0241 42.5365 28.8261 43.6529 29.1786Z" fill="#FEAC00"/>
<path opacity="0.23" d="M38.5189 31.307L39.3054 31.3649C39.623 31.3712 39.9405 31.3554 40.2567 31.3177C40.6319 31.2903 41.0095 31.307 41.3859 31.307C44.0164 31.3152 46.6461 31.3177 49.275 31.3147C57.2812 31.2994 65.2866 31.2954 73.2911 31.3025C81.2781 31.3025 89.2642 31.3055 97.2495 31.3116C100.878 31.3116 104.506 31.2918 108.134 31.3116C108.752 31.2538 109.078 30.8334 109.11 30.0504C108.928 28.7982 108.39 27.674 107.596 26.8919C106.373 25.1953 105.073 23.5896 103.704 22.0828C103.07 21.096 102.171 20.4382 101.178 20.2343C100.216 20.2099 99.2542 20.2099 98.2922 20.1977C97.1016 20.184 95.9134 20.251 94.724 20.2434C93.2584 20.2322 91.7925 20.2251 90.3261 20.2221C82.3552 20.1957 74.3839 20.1876 66.4122 20.1977C58.3884 20.1977 50.3634 20.1886 42.3396 20.2297C41.0167 20.2297 39.6939 20.216 38.371 20.184C37.1684 20.1567 35.9658 20.2053 34.7632 20.2145C34.3687 20.2145 33.9743 20.2008 33.5798 20.2145C33.278 20.2251 32.9785 20.2845 32.6767 20.2966C32.4133 20.3058 32.1427 20.2677 31.8781 20.254C31.2648 20.3047 30.9337 20.7176 30.8848 21.4925C31.0355 22.73 31.5464 23.8516 32.3171 24.6372C33.4915 26.3346 34.744 27.943 36.068 29.454C36.6753 30.4344 37.5487 31.0947 38.5189 31.307Z" fill="#FEAC00"/>
<path opacity="0.23" d="M33.8972 20.7837L33.5184 20.5205L33.8972 20.7837L35.5183 21.8943C35.7853 22.2595 36.0907 22.3832 36.4347 22.2656C36.5828 22.2835 36.732 22.2504 36.8664 22.1697L37.2525 21.9811L37.5507 21.8289L38.3781 21.6616L37.7431 21.7331C43.0178 21.8198 48.2948 21.7665 53.5694 21.7665H104.544C104.77 21.8089 105 21.7786 105.214 21.6783C105.428 21.5781 105.618 21.4111 105.767 21.193C105.94 21.005 106.072 20.7649 106.152 20.4949C106.232 20.225 106.256 19.9339 106.223 19.6487C105.936 18.8439 105.52 18.1236 105 17.534C104.535 16.8755 103.967 16.3465 103.332 15.9806H48.2323C45.3685 15.9806 42.505 15.9806 39.642 15.9806C38.983 15.9806 38.3192 15.9806 37.6649 15.9624C37.179 15.9297 36.6921 15.9297 36.2062 15.9624C36.0273 15.9727 35.8493 15.9991 35.6734 16.0415L35.0637 16.1663C34.8112 16.2956 34.5706 16.4873 34.3289 16.644L34.9567 16.5664L33.6999 15.862C33.4781 15.842 33.2557 15.8881 33.0506 15.9967C32.8455 16.1053 32.6634 16.2734 32.519 16.4873C32.3805 16.6155 32.2674 16.7828 32.1887 16.9758C32.11 17.1688 32.0679 17.3823 32.0656 17.5994C31.9502 18.068 32.0564 18.4894 32.3843 18.8637C32.8115 19.594 33.3212 20.241 33.8972 20.7837Z" fill="#FEAC00"/>
<path opacity="0.23" d="M39.6178 28.4729C40.5798 28.5124 41.5287 28.4805 42.486 28.4835C45.1149 28.4927 47.7438 28.4927 50.3727 28.4835C58.3788 28.4683 66.3846 28.4638 74.39 28.4698C82.3753 28.4698 90.3614 28.4734 98.3483 28.4805C101.977 28.4805 105.605 28.4638 109.233 28.4805C109.894 28.4714 110.217 28.0489 110.204 27.2132C109.918 25.8224 109.278 24.5891 108.384 23.7033C106.966 21.7782 105.473 19.9446 103.909 18.2095C103.181 17.1061 102.188 16.3349 101.081 16.0141C100.119 15.9882 99.1565 15.9837 98.1944 15.973C97.6159 15.973 97.0351 15.9608 96.4566 15.973C95.8433 15.9897 95.2312 16.0293 94.6178 16.0247C93.1531 16.0105 91.6887 16.0019 90.2247 15.9989C82.2554 15.9674 74.2853 15.9573 66.3145 15.9684C58.2882 15.9684 50.2608 15.9684 42.2346 16.008C41.5131 16.008 40.7999 16.0187 40.082 16.008C39.4807 16.008 38.8794 15.9654 38.2708 15.9502C37.0682 15.9198 35.8656 15.9776 34.663 15.9852C33.719 15.9852 32.7773 16.0065 31.8345 16.0476C31.1819 16.0476 30.8519 16.4624 30.8447 17.2921C31.0913 18.6738 31.6973 19.9108 32.5657 20.805C33.9245 22.7231 35.3607 24.5513 36.8686 26.2821C37.5666 27.3792 38.5341 28.1502 39.6178 28.4729Z" fill="#FEAC00"/>
<path opacity="0.23" d="M45.7989 22.9557L46.2258 23.1946L46.5469 23.3695C46.8372 23.5278 47.1282 23.6799 47.42 23.8259L48.2534 23.9872L48.6743 23.9294C48.9858 23.8853 49.2901 23.8564 49.6028 23.8457C52.0934 23.762 54.5888 23.8457 57.0806 23.8351C65.1821 23.8199 73.2841 23.8163 81.3865 23.8244C89.4199 23.8244 97.4533 23.8244 105.487 23.8244C109.263 23.8244 113.04 23.8107 116.817 23.8244C117.065 23.7722 117.293 23.6178 117.466 23.3852C117.638 23.1526 117.745 22.8546 117.77 22.5373C117.749 22.0368 117.64 21.5485 117.452 21.1077C117.263 20.6669 116.999 20.2848 116.679 19.989C115.734 18.688 114.713 17.4787 113.625 16.3711C113.371 15.9854 113.053 15.676 112.692 15.4655C112.332 15.2549 111.94 15.1485 111.543 15.1539C110.743 15.1372 109.942 15.1418 109.138 15.1326C108.033 15.1189 106.93 15.1205 105.826 15.1494C104.545 15.1844 103.261 15.1494 101.978 15.1494C94.7619 15.1301 87.5462 15.1235 80.3306 15.1296C72.7245 15.1296 65.1184 15.1331 57.5123 15.1402C55.9088 15.1402 54.3054 15.1433 52.7019 15.1494C51.8468 15.1494 50.9894 15.1691 50.1331 15.1494C49.5402 15.1402 48.9485 15.1098 48.3569 15.1129C47.2785 15.1129 46.1998 15.1225 45.1206 15.1418C44.7502 15.1415 44.3801 15.173 44.013 15.2361C43.7665 15.2817 43.5212 15.37 43.277 15.4369L44.1104 15.5982L42.63 14.8527C42.0849 14.5484 41.5954 14.6432 41.1617 15.1372C40.78 15.6991 40.7175 16.3203 40.974 17.0009C41.5928 18.2012 42.3312 19.2955 43.1712 20.2567C43.952 21.2952 44.8352 22.2023 45.7989 22.9557Z" fill="#FEAC00"/>
<path opacity="0.23" d="M45.1769 33.0277C48.7631 33.0018 52.3492 33.017 55.9354 33.0109C63.9384 32.9988 71.9417 32.9952 79.9455 33.0003C87.9332 33.0003 95.9209 33.0028 103.909 33.0079C107.537 33.0079 111.166 32.9942 114.795 33.0079C115.449 32.9866 115.77 32.5621 115.757 31.7345C115.48 30.3675 114.851 29.1564 113.968 28.2931C112.573 26.4129 111.101 24.6254 109.559 22.9377C108.841 21.8574 107.858 21.1111 106.767 20.8169C105.805 20.788 104.843 20.788 103.889 20.7758C103.313 20.7682 102.735 20.7606 102.159 20.7758C101.542 20.791 100.926 20.8321 100.309 20.8275C98.8461 20.8153 97.3825 20.8072 95.9185 20.8032C87.9493 20.7717 79.98 20.7621 72.0107 20.7743C63.9845 20.7743 55.9575 20.7864 47.9297 20.8108C47.2081 20.8108 46.4937 20.8214 45.7746 20.8108C45.1733 20.8108 44.572 20.7712 43.9707 20.7545C42.7681 20.721 41.5594 20.7788 40.3556 20.7864C39.4056 20.7864 38.4567 20.7864 37.5078 20.8199C36.8592 20.8321 36.5301 21.2479 36.5205 22.0675C36.7619 23.4222 37.3582 24.6339 38.2126 25.5058C39.5524 27.3892 40.9694 29.1824 42.4578 30.8779C43.1452 31.9639 44.104 32.7219 45.1769 33.0277Z" fill="#FEAC00"/>
<path opacity="0.23" d="M35.9969 24.078C36.4479 24.3001 36.9013 24.5481 37.3631 24.7246L38.2759 24.9984L38.6691 24.8919L39.1309 24.7656H39.5771C42.0749 24.755 44.5715 24.7793 47.0693 24.7748C55.1725 24.7575 63.2765 24.7525 71.3813 24.7596C79.4131 24.7596 87.4453 24.7626 95.4779 24.7687C99.2541 24.7687 103.032 24.755 106.809 24.7687C107.389 24.6673 107.712 24.2448 107.778 23.5014C107.727 22.9422 107.587 22.4018 107.367 21.9127C107.146 21.4236 106.85 20.9958 106.496 20.6548C105.424 19.1567 104.276 17.7494 103.058 16.442C102.778 16.006 102.431 15.6459 102.038 15.3829C101.646 15.12 101.216 14.9597 100.773 14.9115C99.9721 14.8948 99.1723 14.8963 98.3678 14.8841C97.2598 14.8689 96.153 14.878 95.0474 14.9115C93.7678 14.948 92.4846 14.9115 91.199 14.9115C83.9834 14.8851 76.7702 14.8765 69.5593 14.8856C61.9516 14.8856 54.3447 14.8902 46.7386 14.8993C45.1351 14.8993 43.5317 14.9039 41.9282 14.913C41.0743 14.913 40.2181 14.9343 39.3642 14.913C38.7725 14.9008 38.1809 14.8689 37.588 14.8719C36.5056 14.8719 35.4233 14.8917 34.3409 14.8978C34.0948 14.8978 33.8487 14.9024 33.6025 14.9115L33.1768 14.9221C32.9158 14.9693 32.6537 15.0743 32.3963 15.1488L33.3067 15.4196L32.1618 14.9632C31.6006 14.5575 31.0767 14.6011 30.59 15.0941C30.2004 15.7087 30.1639 16.371 30.4806 17.081C31.2128 18.458 32.0638 19.7275 33.0181 20.8663C33.9134 22.0738 34.9126 23.151 35.9969 24.078Z" fill="#FEAC00"/>
<path opacity="0.23" d="M34.5107 31.2806L34.9353 31.524L35.2552 31.7035C35.5462 31.8648 35.8384 32.023 36.1319 32.1782L36.8534 32.236L37.3501 32.2163C37.6916 32.2041 38.0332 32.1899 38.3747 32.1737C39.5665 32.1158 40.7631 32.1737 41.9561 32.1737H70.1729C81.9993 32.1737 93.825 32.1737 105.65 32.1737C105.887 32.097 106.104 31.9428 106.279 31.7265C106.454 31.5102 106.582 31.2394 106.648 30.9413C106.732 30.0792 106.504 29.3459 105.964 28.7414C105.27 27.6483 104.496 26.6412 103.652 25.7335C103.187 25.0347 102.614 24.7304 101.931 24.8207C91.4903 24.8207 81.0489 24.8207 70.607 24.8207H47.8332C44.7562 24.8207 41.6783 24.8207 38.5996 24.8207C37.5389 24.8207 36.4782 24.8207 35.4163 24.8101C34.7082 24.8324 34.0029 24.9312 33.3081 25.1052L34.0297 25.163L32.5866 24.4845C32.3571 24.3877 32.1104 24.3762 31.876 24.4514C31.6415 24.5267 31.429 24.6855 31.2637 24.9089C31.0819 25.1138 30.9505 25.3806 30.8853 25.6773C30.82 25.974 30.8236 26.2883 30.8957 26.5825C31.3062 27.5644 31.8431 28.4528 32.4843 29.2115C33.065 30.0378 33.7497 30.737 34.5107 31.2806Z" fill="#FEAC00"/>
</g>
<path d="M11.352 12.792V15.216H22.128V12.792H11.352ZM11.352 17.52V19.944H22.128V17.52H11.352ZM11.04 22.344V24.96H23.208V22.344H11.04ZM15.72 9.408V23.112H18.384V9.408H15.72ZM17.232 3.672C16.8 5.472 15.936 7.896 15.144 9.456L17.616 10.08C18.408 8.64 19.44 6.384 20.28 4.296L17.232 3.672ZM11.736 3.576C10.848 6.888 9.264 10.104 7.272 12.096C7.824 12.72 8.736 14.04 9.096 14.64C11.4 12.168 13.344 8.208 14.496 4.272L11.736 3.576ZM12.912 8.016H11.568L10.152 9.432V26.136H12.912V10.536H22.752V8.016H12.912ZM0.48 15.888L1.08 18.696C3.288 18.096 6.072 17.328 8.688 16.56L8.352 14.016C5.496 14.736 2.496 15.48 0.48 15.888ZM0.96 8.184V10.824H8.376V8.184H0.96ZM3.792 3.648V22.92C3.792 23.256 3.672 23.376 3.36 23.376C3.048 23.376 2.064 23.376 1.128 23.328C1.488 24.12 1.848 25.368 1.944 26.136C3.576 26.136 4.728 26.04 5.52 25.56C6.312 25.104 6.552 24.336 6.552 22.92V3.648H3.792ZM25.344 4.872V7.152H46.704V4.872H25.344ZM27.84 8.856V10.8H46.488V8.856H27.84ZM32.352 16.968V18.792H46.608V16.968H32.352ZM31.824 19.608V21.504H44.328V19.608H31.824ZM30.384 3.624V8.4H33.216V3.624H30.384ZM38.832 3.624V8.4H41.712V3.624H38.832ZM34.536 7.704V9.648H37.248V7.704H34.536ZM32.04 10.2V14.976H34.464V10.2H32.04ZM37.272 10.2V14.976H39.72V10.2H37.272ZM26.544 8.856V14.16C26.544 17.208 26.352 21.528 24.432 24.552C25.104 24.816 26.28 25.512 26.784 25.944C28.848 22.68 29.208 17.64 29.208 14.184V8.856H26.544ZM28.2 11.784V13.392H42.72V14.52H28.2V16.128H45.528V11.784H28.2ZM31.008 15.528C30.624 17.496 30 20.016 29.496 21.6L32.088 21.84C32.568 20.256 33.192 17.832 33.624 15.816L31.008 15.528ZM43.656 19.608V19.92C43.488 22.536 43.272 23.592 42.984 23.904C42.816 24.096 42.648 24.12 42.336 24.12C42.024 24.12 41.4 24.12 40.704 24.024C41.016 24.6 41.232 25.488 41.28 26.112C42.264 26.16 43.176 26.16 43.68 26.088C44.28 26.016 44.784 25.848 45.216 25.392C45.744 24.816 46.032 23.472 46.248 20.52C46.272 20.208 46.296 19.608 46.296 19.608H43.656ZM29.808 21.816C29.352 22.968 28.512 24.192 27.48 24.936L29.472 26.208C30.648 25.32 31.392 23.976 31.896 22.68L29.808 21.816ZM32.568 22.416C32.784 23.52 32.952 24.984 32.904 25.92L35.16 25.584C35.136 24.672 34.944 23.232 34.656 22.128L32.568 22.416ZM35.592 22.416C36.048 23.4 36.504 24.696 36.648 25.56L38.76 24.864C38.568 24.048 38.112 22.776 37.608 21.84L35.592 22.416ZM38.64 22.08C39.168 22.752 39.792 23.712 40.032 24.312L41.928 23.448C41.64 22.848 41.04 21.96 40.464 21.336L38.64 22.08ZM57.024 22.776V25.44H71.208V22.776H57.024ZM60.624 10.728V13.32H67.488V10.728H60.624ZM60.624 16.704V19.296H67.488V16.704H60.624ZM59.256 4.824V24.312H62.04V7.488H66.216V24.312H69.144V4.824H59.256ZM52.368 5.856V26.136H55.104V5.856H52.368ZM48.768 10.368V13.056H58.104V10.368H48.768ZM52.536 11.448C51.792 14.112 50.112 17.592 48.456 19.512C48.912 20.232 49.536 21.432 49.824 22.272C51.648 19.896 53.304 15.624 54.216 12.192L52.536 11.448ZM56.712 3.84C54.72 4.656 51.696 5.4 48.96 5.808C49.248 6.432 49.608 7.392 49.728 8.04C52.536 7.704 55.824 7.104 58.32 6.192L56.712 3.84ZM55.104 13.344L53.856 14.496C54.624 15.6 56.136 18.168 56.736 19.488L58.392 17.208C57.912 16.56 55.728 13.944 55.104 13.344ZM75.288 4.728V11.688C75.288 15.528 75.096 20.976 72.696 24.672C73.44 24.96 74.712 25.68 75.264 26.16C77.808 22.2 78.192 15.912 78.192 11.688V4.728H75.288ZM76.896 4.728V7.056H90.72V8.544H76.896V10.872H93.624V4.728H76.896ZM77.664 11.928V14.184H94.248V11.928H77.664ZM78.816 19.392V21.672H93.072V19.392H78.816ZM77.184 23.328V25.584H94.8V23.328H77.184ZM84.48 17.592V24.864H87.288V17.592H84.48ZM78.336 16.008L78.456 18.24C81.912 18.12 86.952 17.928 91.704 17.688L91.776 15.6C86.88 15.792 81.696 15.936 78.336 16.008ZM82.704 12.432C82.176 13.752 81.168 15.552 80.328 16.704L82.56 17.592C83.448 16.536 84.576 14.904 85.632 13.392L82.704 12.432ZM87.456 14.808C89.112 16.008 91.128 17.76 92.064 18.936L94.44 17.448C93.432 16.248 91.296 14.568 89.664 13.464L87.456 14.808Z" fill="black"/>
</svg>
