<svg width="174" height="48" viewBox="0 0 174 48" fill="none" xmlns="http://www.w3.org/2000/svg">
                    <g opacity="0.6">
                    <path opacity="0.23" d="M54.2638 46.2033C55.7896 46.2033 57.3096 46.1278 58.8354 46.1411C60.6891 46.1545 62.5428 46.1411 64.3965 46.1278C66.7614 46.1278 69.1263 46.1522 71.4892 46.1478C84.3282 46.1301 97.1666 46.1249 110.004 46.1323C122.815 46.1323 135.626 46.136 148.438 46.1434C154.258 46.1434 160.078 46.1234 165.897 46.1434C166.904 46.0709 167.423 45.4548 167.454 44.2952C167.115 42.42 166.205 40.7456 164.888 39.5737C162.842 37.0241 160.674 34.6078 158.394 32.3362C157.333 30.8594 155.85 29.8658 154.21 29.534C152.667 29.4941 151.123 29.4963 149.592 29.4807C148.67 29.4807 147.744 29.4586 146.822 29.4807C145.832 29.5029 144.847 29.5584 143.857 29.5517C141.508 29.5355 139.159 29.5244 136.811 29.5185C124.027 29.4785 111.243 29.4667 98.4596 29.483C85.5885 29.483 72.7154 29.4985 59.8404 29.5296C57.7185 29.5296 55.5967 29.5118 53.4749 29.463C51.5459 29.4164 49.617 29.4941 47.6881 29.5052C47.0515 29.5052 46.413 29.4785 45.7765 29.4874C45.2846 29.4874 44.7927 29.5584 44.3008 29.5739C43.8996 29.5872 43.4945 29.5739 43.0914 29.5584C42.0903 29.6161 41.5618 30.224 41.502 31.3689C41.7893 33.2278 42.6511 34.9046 43.9286 36.0903C45.8923 38.6475 47.9795 41.0757 50.1802 43.3633C51.1988 44.8459 52.6492 45.8546 54.2638 46.2033Z" fill="#75BBE3"/>
                    <path opacity="0.23" d="M42.3108 35.9472C42.9975 36.2268 43.6861 36.5263 44.3863 36.7593L45.8504 37.1675L46.5062 37.0344L47.2778 36.8724H47.9934C52.0018 36.8414 56.0082 36.8902 60.0146 36.8724C73.0118 36.8473 86.0083 36.8406 99.0042 36.8525C111.889 36.8525 124.774 36.8569 137.658 36.8658C143.717 36.8658 149.776 36.8458 155.835 36.8658C156.769 36.7179 157.291 36.1048 157.399 35.0265C157.318 34.2089 157.096 33.4182 156.744 32.7016C156.393 31.985 155.919 31.3571 155.352 30.8553C153.636 28.6573 151.797 26.5903 149.847 24.6672C149.399 24.0278 148.843 23.4985 148.214 23.1109C147.584 22.7233 146.893 22.4852 146.182 22.4108C144.897 22.3842 143.613 22.3886 142.324 22.3709C140.551 22.3487 138.778 22.3612 137.006 22.4086C134.952 22.4618 132.894 22.4086 130.834 22.4086C119.26 22.3731 107.686 22.3612 96.1127 22.3731C83.9128 22.3731 71.7123 22.3797 59.5111 22.393C56.9392 22.393 54.3673 22.399 51.7954 22.4108C50.4258 22.4108 49.0524 22.4441 47.6829 22.4108C46.73 22.393 45.781 22.3465 44.8281 22.3509C43.092 22.3509 41.356 22.3797 39.6199 22.3864C39.2226 22.3864 38.8271 22.3864 38.4298 22.4041L37.745 22.4197C37.311 22.4818 36.877 22.6238 36.4507 22.7236L37.9148 23.1319L36.1614 22.5439C35.2612 21.9523 34.4182 22.0085 33.6325 22.7125C33.0037 23.6104 32.9439 24.5785 33.4531 25.6169C34.6249 27.6407 35.9887 29.5085 37.5193 31.1859C38.9586 32.9718 40.5656 34.5686 42.3108 35.9472V35.9472Z" fill="#75BBE3"/>
                    <path opacity="0.23" d="M42.0311 20.8322C43.1557 21.5799 44.2918 22.301 45.4337 23.0132C45.8787 23.5191 46.3551 23.6463 46.8631 23.3948C47.1299 23.3578 47.3873 23.2584 47.6195 23.1027C47.8517 22.947 48.0538 22.7384 48.2133 22.4896C48.522 22.1642 48.8267 21.8351 49.1276 21.5023L47.3395 22.5406L48.25 22.2833C48.5049 22.1681 48.7859 22.1541 49.0486 22.2433C49.8857 22.3299 50.7113 22.4031 51.5562 22.4142C53.4851 22.443 55.414 22.4142 57.343 22.4142C62.3582 22.4142 67.3735 22.4142 72.3887 22.4142H108.458C124.258 22.4142 140.059 22.4142 155.86 22.4142C156.203 22.3879 156.539 22.2821 156.846 22.1029C157.154 21.9236 157.426 21.6748 157.648 21.3714C157.91 21.114 158.123 20.7983 158.276 20.4432C158.429 20.0882 158.518 19.7013 158.537 19.3057C158.29 18.3963 157.826 17.5847 157.198 16.9628C156.652 16.2469 155.942 15.7212 155.15 15.4452H65.9962C61.3012 15.4452 56.6074 15.4518 51.915 15.4651C50.8849 15.4651 49.8703 15.4429 48.8441 15.352L47.9047 15.2677L47.2296 15.4141C46.8711 15.4763 46.5162 15.563 46.1667 15.6737C45.8998 15.7129 45.6425 15.814 45.4105 15.9707C45.1784 16.1274 44.9763 16.3366 44.8165 16.5856C44.4866 16.8851 44.1587 17.1891 43.8308 17.493L46.6123 16.9694C45.635 16.4281 44.6589 15.8815 43.6842 15.3298C43.4501 15.1214 43.1615 15.0103 42.8655 15.0148C42.5695 15.0192 42.2835 15.1388 42.0542 15.3542C41.4181 15.8225 40.88 16.4468 40.4783 17.1824C40.2941 17.4489 40.1938 17.7794 40.1938 18.1198C40.1938 18.4603 40.2941 18.7907 40.4783 19.0572C40.8721 19.7768 41.4031 20.3838 42.0311 20.8322V20.8322Z" fill="#75BBE3"/>
                    <path opacity="0.23" d="M51.4521 33.2251C52.9798 33.2406 54.5036 33.2096 56.0314 33.2251C57.887 33.2251 59.7426 33.2251 61.5983 33.2118C63.9593 33.2118 66.3184 33.2429 68.6794 33.2384C81.521 33.2133 94.3619 33.2059 107.202 33.2162C120.012 33.2162 132.821 33.2214 145.63 33.2318C151.45 33.2318 157.27 33.2074 163.089 33.2318C164.162 33.2318 164.676 32.6135 164.632 31.3769C164.135 29.309 163.074 27.4796 161.604 26.1585C159.257 23.2934 156.792 20.5688 154.208 17.9847C153.006 16.3466 151.378 15.1963 149.564 14.7032C148.02 14.6633 146.477 14.6588 144.934 14.6411C144.006 14.63 143.075 14.6255 142.145 14.6411C141.161 14.6655 140.179 14.7254 139.196 14.7165C136.846 14.6988 134.497 14.6862 132.149 14.6788C119.365 14.63 106.582 14.6145 93.7999 14.6322C80.9262 14.6322 68.0506 14.6322 55.1749 14.6921C54.0175 14.6921 52.8756 14.7076 51.724 14.6921C50.7596 14.6921 49.7951 14.6278 48.8191 14.6056C46.8901 14.5612 44.9612 14.6455 43.0322 14.6566C41.5257 14.6566 40.0308 14.6566 38.5282 14.772C37.4673 14.772 36.9413 15.3799 36.9503 16.5958C37.3873 18.6416 38.3964 20.4657 39.8225 21.7876C42.0743 24.6373 44.4492 27.355 46.9383 29.9303C48.0904 31.5652 49.6754 32.7223 51.4521 33.2251V33.2251Z" fill="#75BBE3"/>
                    <path opacity="0.23" d="M38.5245 33.8319L39.2729 34.2624L39.8362 34.5885C40.3505 34.874 40.8649 35.1558 41.3793 35.4338L42.5077 35.4693L43.2311 35.3562C43.7403 35.2763 44.2476 35.2075 44.7607 35.1587C45.6172 35.0789 46.4543 35.101 47.3166 35.1099C48.3698 35.1099 49.4249 35.1277 50.48 35.1277H95.7252C114.694 35.1277 133.662 35.1277 152.629 35.1277C153.003 35.0011 153.345 34.7702 153.623 34.4556C153.901 34.1409 154.108 33.7522 154.224 33.3238C154.391 32.1302 154.063 31.111 153.24 30.2664C152.2 28.7731 151.031 27.4046 149.751 26.1818C149.029 25.2203 148.149 24.8254 147.11 24.997C130.362 24.997 113.614 24.997 96.8671 24.997H45.5381C43.8329 24.997 42.1258 24.9814 40.4187 24.9659C39.8115 24.9525 39.2048 25.015 38.6094 25.1523C38.1445 25.2676 37.6835 25.4673 37.2282 25.6226L38.3567 25.6581L35.8799 24.4955C35.5126 24.3836 35.1256 24.39 34.7612 24.514C34.3969 24.6381 34.0692 24.875 33.814 25.1989C33.5278 25.4868 33.3161 25.8598 33.2021 26.2771C33.0881 26.6943 33.0763 27.1396 33.1678 27.564C33.7472 28.898 34.5314 30.1007 35.4826 31.114C36.3462 32.223 37.3767 33.1437 38.5245 33.8319V33.8319Z" fill="#75BBE3"/>
                    <path opacity="0.23" d="M50.573 21.0845L51.3947 21.5792C51.7265 21.776 52.0589 21.9712 52.392 22.165C52.8202 22.415 53.2497 22.6612 53.6805 22.9038L54.726 22.8195L55.5342 22.4712L56.0145 22.2626L57.3648 22.0651L56.3077 22.1384C59.8512 22.196 63.3927 22.1827 66.9362 22.1827H117.941C133.115 22.1827 148.29 22.1827 163.464 22.1827C163.83 22.2634 164.209 22.2317 164.561 22.0907C164.913 21.9497 165.227 21.7044 165.47 21.3796C165.746 21.0927 165.952 20.7269 166.065 20.3193C166.179 19.9117 166.196 19.4768 166.116 19.0588C165.574 17.8119 164.828 16.697 163.919 15.7751C163.099 14.7565 162.117 13.928 161.026 13.3345C143.962 13.3345 126.898 13.3345 109.834 13.3345H72.6439C68.0517 13.3345 63.4583 13.3345 58.8636 13.3345C57.8084 13.3345 56.7533 13.3345 55.6982 13.3145C54.9093 13.299 54.1222 13.2524 53.3333 13.3145C53.0379 13.3204 52.7433 13.3508 52.4518 13.4055L51.4526 13.5585C51.0533 13.7427 50.6694 14.0245 50.2952 14.253L51.3407 14.1687L48.727 12.904C48.3668 12.8582 48.0024 12.9153 47.666 13.0701C47.3295 13.2249 47.0314 13.4726 46.7981 13.7915C46.5268 14.0638 46.3176 14.4084 46.1888 14.7952C46.06 15.182 46.0156 15.5991 46.0593 16.0102C46.5016 17.1408 47.1511 18.1482 47.9632 18.9634C48.6904 19.878 49.5806 20.6015 50.573 21.0845Z" fill="#75BBE3"/>
                    <path opacity="0.23" d="M50.6347 25.1649L51.3252 25.5354L51.8422 25.8084C52.3129 26.0524 52.7854 26.292 53.26 26.5272L54.6488 26.8245L55.2834 26.6847L56.0299 26.5206L56.7321 26.5028C60.7327 26.4052 64.7371 26.5028 68.7378 26.5028C81.7349 26.4762 94.7315 26.4703 107.727 26.4851C120.611 26.4851 133.496 26.4851 146.381 26.4851C152.438 26.4851 158.497 26.4629 164.556 26.4851C165.456 26.2839 165.97 25.6619 166.099 24.6191C166.047 23.8568 165.854 23.1162 165.532 22.4472C165.21 21.7781 164.768 21.1963 164.234 20.7408C162.641 18.7377 160.926 16.867 159.103 15.1429C158.678 14.5529 158.149 14.0744 157.55 13.7399C156.951 13.4054 156.296 13.2225 155.631 13.2038C154.344 13.1838 153.057 13.186 151.773 13.1705C150.002 13.1505 148.233 13.1572 146.462 13.2016C144.408 13.2526 142.348 13.2016 140.29 13.2016C128.716 13.1705 117.143 13.1601 105.569 13.1705C93.3703 13.1705 81.1717 13.1757 68.9731 13.186C66.4012 13.186 63.8293 13.1919 61.2573 13.2038C59.8859 13.2038 58.5125 13.2348 57.141 13.2038C56.1862 13.186 55.2352 13.1439 54.2804 13.1483C52.5443 13.1483 50.8179 13.1727 49.0877 13.186C48.7019 13.186 48.3161 13.186 47.9303 13.2304L47.2648 13.2881C46.8617 13.3657 46.4585 13.51 46.0612 13.6342L47.45 13.9293L45.1874 12.8643C44.3052 12.3688 43.5021 12.4834 42.7781 13.2082C42.1609 14.0543 42.0753 14.9802 42.5216 15.9861C43.5742 17.8212 44.8179 19.5014 46.2251 20.9893C47.5418 22.5824 49.0226 23.9846 50.6347 25.1649V25.1649Z" fill="#75BBE3"/>
                    <path opacity="0.23" d="M48.8337 28.9425L50.1454 29.0933C50.6367 29.1091 51.1283 29.0705 51.6133 28.978C52.2091 28.9328 52.8066 28.9232 53.4033 28.9491C57.62 28.958 61.8366 28.9624 66.0533 28.9624C78.8962 28.9373 91.739 28.9306 104.582 28.9425C117.39 28.9425 130.198 28.9469 143.004 28.9558C148.822 28.9558 154.642 28.9291 160.459 28.9558C161.441 28.8522 161.955 28.2332 162.002 27.0987C161.714 25.3012 160.853 23.6921 159.587 22.5858C157.639 20.1693 155.569 17.8867 153.388 15.7499C152.372 14.344 150.938 13.4233 149.364 13.1673C147.821 13.1318 146.278 13.1296 144.735 13.1119C142.823 13.0919 140.911 13.194 139.002 13.1806C136.652 13.1644 134.303 13.154 131.953 13.1496C119.168 13.1096 106.384 13.0971 93.6004 13.1119C80.7267 13.1119 67.8549 13.0985 54.9812 13.1607C52.8594 13.1607 50.7375 13.1363 48.6157 13.0919C46.6868 13.052 44.7578 13.1252 42.8289 13.1363C42.202 13.1363 41.5693 13.1074 40.9443 13.1363C40.4833 13.1607 40.0262 13.2894 39.5651 13.3138C39.1211 13.3047 38.6779 13.2646 38.238 13.194C37.262 13.2886 36.736 13.8965 36.6602 15.0177C36.9 16.7973 37.7175 18.406 38.9479 19.5195C40.8205 21.9309 42.8173 24.2107 44.9276 26.3466C45.899 27.7467 47.2939 28.6738 48.8337 28.9425V28.9425Z" fill="#75BBE3"/>
                    <path opacity="0.23" d="M46.417 46.3068C47.1326 46.6219 47.8559 46.9858 48.5909 47.2254L49.9855 47.5626L50.6645 47.4495L51.4592 47.3163H52.1806C56.1889 47.3163 60.1973 47.3297 64.2075 47.3163C77.1957 47.2942 90.1897 47.2882 103.189 47.2986C116.075 47.2986 128.961 47.2986 141.847 47.2986C147.906 47.2986 153.965 47.2742 160.024 47.2986C160.924 47.1211 161.446 46.5087 161.59 45.4615C161.542 44.6884 161.352 43.9358 161.033 43.2532C160.714 42.5705 160.272 41.9734 159.738 41.5011C158.148 39.437 156.433 37.5042 154.607 35.7168C154.187 35.113 153.66 34.6182 153.062 34.2649C152.463 33.9116 151.807 33.7077 151.135 33.6667C149.852 33.6401 148.57 33.649 147.277 33.6335C145.505 33.6135 143.736 33.6179 141.963 33.6623C139.909 33.7156 137.85 33.6623 135.79 33.6623C124.217 33.6312 112.643 33.6209 101.07 33.6312C88.8696 33.6312 76.6698 33.6372 64.4699 33.649C61.898 33.649 59.326 33.6542 56.7541 33.6645C55.3807 33.6645 54.0054 33.6934 52.632 33.6645C51.683 33.649 50.7358 33.6046 49.7868 33.6091C48.0508 33.6091 46.3147 33.6312 44.5787 33.6446C44.1813 33.6446 43.784 33.6512 43.3866 33.6645L42.6999 33.6801C42.2697 33.7422 41.8377 33.8864 41.4133 33.9885L42.8098 34.3257L40.9195 33.5802C40.0373 33.0374 39.2207 33.1195 38.4697 33.8265C37.837 34.6785 37.747 35.6163 38.1997 36.6398C39.2652 38.5503 40.524 40.3087 41.9495 41.8782C43.2813 43.5523 44.7809 45.0389 46.417 46.3068V46.3068Z" fill="#75BBE3"/>
                    <path opacity="0.23" d="M57.8321 33.2052L59.0531 33.2562C59.5547 33.274 60.06 33.2096 60.5616 33.1763C61.1653 33.1342 61.7729 33.1763 62.3767 33.1763C64.2343 33.1919 66.0918 33.1763 67.9494 33.1653C70.3085 33.1653 72.6676 33.1919 75.0267 33.1874C87.867 33.1682 100.709 33.1623 113.551 33.1697C126.36 33.1697 139.168 33.1741 151.978 33.183C157.795 33.183 163.613 33.163 169.431 33.183C170.447 33.109 170.961 32.4863 170.974 31.3148C170.592 29.4143 169.641 27.7288 168.287 26.5535C166.168 23.982 163.928 21.5459 161.578 19.2561C160.481 17.7684 158.965 16.7705 157.294 16.4361C155.751 16.3961 154.221 16.3961 152.684 16.3784C151.76 16.3673 150.832 16.3584 149.908 16.3784C148.917 16.4006 147.927 16.4583 146.934 16.4516C144.588 16.4339 142.242 16.422 139.895 16.4161C127.115 16.3717 114.335 16.3577 101.553 16.3739C88.6758 16.3739 75.7982 16.3917 62.9207 16.4272C61.7633 16.4272 60.6175 16.4427 59.4659 16.4272C58.5015 16.4272 57.537 16.3695 56.5725 16.3451C54.6436 16.3007 52.7031 16.3828 50.7703 16.3917C50.1395 16.3917 49.5068 16.3629 48.8741 16.3739C48.3938 16.3739 47.9097 16.456 47.4351 16.4694C47.0281 16.4804 46.6153 16.4383 46.2083 16.4228C45.1976 16.4834 44.6742 17.0943 44.6382 18.2554C44.9684 20.14 45.871 21.8279 47.1844 23.0168C49.221 25.5965 51.3802 28.0446 53.6521 30.3497C54.7067 31.8419 56.1883 32.8541 57.8321 33.2052V33.2052Z" fill="#75BBE3"/>
                    <path opacity="0.23" d="M55.0057 37.6144C60.7559 37.5501 66.508 37.6144 72.2601 37.6011C85.0978 37.5789 97.9355 37.5723 110.773 37.5811C123.585 37.5811 136.397 37.5856 149.207 37.5944C155.029 37.5944 160.85 37.57 166.67 37.5944C167.748 37.5944 168.263 36.9776 168.213 35.7396C167.702 33.6628 166.628 31.8277 165.148 30.5012C162.782 27.6168 160.299 24.8708 157.698 22.2631C156.487 20.6145 154.849 19.4533 153.025 18.9483C151.481 18.9083 149.938 18.9039 148.395 18.8862C147.469 18.8862 146.54 18.8684 145.612 18.8862C144.63 18.9083 143.65 18.9682 142.668 18.9594C140.319 18.9416 137.969 18.9298 135.618 18.9239C122.833 18.8765 110.047 18.8618 97.261 18.8795C84.3892 18.8795 71.5174 18.8795 58.6456 18.9372C57.4883 18.9372 56.3444 18.9527 55.1928 18.9372C54.2283 18.9372 53.2484 18.8751 52.2763 18.8529C50.3473 18.8085 48.4184 18.8906 46.4895 18.9039C45.3552 18.9039 44.2191 18.8618 43.0868 18.915C42.701 18.9328 42.3326 18.986 41.9565 19.0215C40.8917 19.0126 40.3651 19.6206 40.3767 20.8453C40.8293 22.9001 41.8494 24.7304 43.2836 26.0615C45.5558 28.9385 47.9464 31.6786 50.4553 34.2819C51.6179 35.9308 53.2149 37.1004 55.0057 37.6144V37.6144Z" fill="#75BBE3"/>
                    <path opacity="0.23" d="M46.7717 40.7185L48.0333 40.8028C48.5426 40.812 49.0519 40.7891 49.5591 40.734C50.1609 40.6941 50.7666 40.7185 51.3703 40.7185C55.5896 40.7303 59.8075 40.734 64.0242 40.7296C76.8657 40.7074 89.706 40.7015 102.545 40.7118C115.356 40.7118 128.165 40.7163 140.973 40.7252C146.793 40.7252 152.612 40.6963 158.432 40.7252C159.424 40.6408 159.945 40.0277 159.996 38.8858C159.706 37.0597 158.841 35.4203 157.568 34.2798C155.606 31.8056 153.522 29.4639 151.326 27.2664C150.308 25.8273 148.867 24.868 147.275 24.5706C145.732 24.5351 144.189 24.5351 142.646 24.5174C140.736 24.4974 138.83 24.595 136.923 24.5839C134.572 24.5677 132.22 24.5573 129.868 24.5529C117.083 24.5144 104.298 24.5026 91.5115 24.5174C78.6416 24.5174 65.7698 24.5041 52.9 24.564C50.7781 24.564 48.6563 24.544 46.5345 24.4974C44.6055 24.4575 42.6766 24.5285 40.7477 24.5418C40.115 24.5418 39.4823 24.5218 38.8496 24.5418C38.3654 24.5573 37.8851 24.6438 37.401 24.6616C36.9785 24.6749 36.5445 24.6194 36.1202 24.5995C35.1364 24.6734 34.6053 25.2754 34.5269 26.4055C34.7687 28.2102 35.588 29.8459 36.8242 30.9916C38.7079 33.4671 40.7169 35.8126 42.8406 38.0161C43.8147 39.4459 45.2156 40.4089 46.7717 40.7185Z" fill="#75BBE3"/>
                    <path opacity="0.23" d="M39.3587 25.3717L38.7511 24.9879L39.3587 25.3717L41.9589 26.9914C42.3872 27.5239 42.8771 27.7043 43.4288 27.5327C43.6664 27.5589 43.9057 27.5106 44.1213 27.393L44.7405 27.1178L45.2188 26.896L46.546 26.6519L45.5275 26.7562C53.9878 26.8827 62.452 26.805 70.9123 26.805H152.674C153.036 26.8668 153.405 26.8226 153.748 26.6764C154.091 26.5301 154.397 26.2867 154.636 25.9685C154.913 25.6944 155.125 25.3443 155.253 24.9505C155.381 24.5568 155.42 24.1324 155.367 23.7165C154.907 22.5427 154.238 21.4923 153.405 20.6325C152.66 19.6722 151.748 18.9007 150.73 18.3672H62.3517C57.7582 18.3672 53.1654 18.3672 48.5733 18.3672C47.5162 18.3672 46.4514 18.3672 45.4021 18.3406C44.6227 18.2929 43.8417 18.2929 43.0623 18.3406C42.7754 18.3556 42.4899 18.3942 42.2078 18.4559L41.2298 18.6379C40.8247 18.8265 40.4389 19.106 40.0512 19.3346L41.0581 19.2214L39.0424 18.1941C38.6866 18.165 38.3299 18.2323 38.0009 18.3907C37.6719 18.5491 37.3798 18.7941 37.1482 19.106C36.926 19.2931 36.7446 19.5369 36.6184 19.8184C36.4922 20.0999 36.4246 20.4112 36.421 20.7279C36.2358 21.4113 36.4062 22.0259 36.9321 22.5717C37.6173 23.6368 38.4349 24.5802 39.3587 25.3717V25.3717Z" fill="#75BBE3"/>
                    <path opacity="0.23" d="M48.534 36.5857C50.0771 36.6434 51.5991 36.5968 53.1345 36.6012C57.3512 36.6145 61.5678 36.6145 65.7845 36.6012C78.6261 36.579 91.467 36.5724 104.307 36.5812C117.115 36.5812 129.925 36.5864 142.736 36.5968C148.555 36.5968 154.375 36.5724 160.194 36.5968C161.254 36.5835 161.773 35.9674 161.751 34.7486C161.293 32.7204 160.267 30.9218 158.833 29.63C156.558 26.8226 154.163 24.1486 151.655 21.6182C150.488 20.009 148.894 18.8844 147.118 18.4165C145.575 18.3788 144.032 18.3722 142.489 18.3566C141.561 18.3566 140.629 18.3389 139.701 18.3566C138.718 18.381 137.736 18.4387 136.752 18.4321C134.403 18.4114 132.054 18.3988 129.706 18.3944C116.923 18.3485 104.139 18.3337 91.3545 18.35C78.4807 18.35 65.6051 18.35 52.7314 18.4077C51.574 18.4077 50.4301 18.4232 49.2786 18.4077C48.3141 18.4077 47.3496 18.3455 46.3736 18.3234C44.4446 18.279 42.5157 18.3633 40.5868 18.3744C39.0726 18.3744 37.5622 18.4054 36.0499 18.4654C35.0031 18.4654 34.474 19.0703 34.4624 20.2803C34.8579 22.2952 35.8299 24.0992 37.2227 25.4033C39.4022 28.2006 41.7059 30.8666 44.1244 33.3907C45.244 34.9907 46.7959 36.1151 48.534 36.5857Z" fill="#75BBE3"/>
                    <path opacity="0.23" d="M58.449 28.5394L59.1337 28.8877L59.6488 29.1429C60.1143 29.3736 60.5811 29.5955 61.0492 29.8085L62.3859 30.0437L63.061 29.9594C63.5606 29.895 64.0487 29.8529 64.5502 29.8374C68.545 29.7153 72.5476 29.8374 76.5443 29.8218C89.5389 29.7996 102.534 29.7945 115.53 29.8063C128.415 29.8063 141.301 29.8063 154.186 29.8063C160.243 29.8063 166.302 29.7863 172.358 29.8063C172.757 29.7301 173.123 29.505 173.4 29.1658C173.676 28.8265 173.848 28.392 173.888 27.9293C173.854 27.1993 173.68 26.4872 173.377 25.8444C173.075 25.2016 172.652 24.6443 172.139 24.2129C170.622 22.3157 168.985 20.5521 167.239 18.9368C166.832 18.3743 166.321 17.9231 165.744 17.6161C165.166 17.3091 164.536 17.1539 163.9 17.1618C162.617 17.1374 161.333 17.144 160.042 17.1307C158.27 17.1108 156.501 17.113 154.73 17.1551C152.676 17.2062 150.615 17.1551 148.557 17.1551C136.984 17.127 125.41 17.1174 113.836 17.1263C101.637 17.1263 89.4367 17.1315 77.2368 17.1418C74.6649 17.1418 72.093 17.1463 69.521 17.1551C68.1496 17.1551 66.7742 17.184 65.4008 17.1551C64.4499 17.1418 63.5008 17.0974 62.5518 17.1019C60.8222 17.1019 59.0919 17.1159 57.361 17.144C56.7668 17.1437 56.1733 17.1896 55.5845 17.2816C55.189 17.3482 54.7955 17.4768 54.404 17.5745L55.7407 17.8097L53.3662 16.7225C52.4918 16.2787 51.7067 16.417 51.011 17.1374C50.3989 17.9568 50.2986 18.8628 50.7101 19.8553C51.7025 21.6057 52.8869 23.2015 54.2342 24.6034C55.4866 26.1178 56.9032 27.4407 58.449 28.5394V28.5394Z" fill="#75BBE3"/>
                    <path opacity="0.23" d="M57.4509 43.228C63.203 43.1903 68.9551 43.2125 74.7072 43.2036C87.5436 43.1858 100.381 43.1807 113.218 43.1881C126.03 43.1881 138.842 43.1917 151.654 43.1991C157.474 43.1991 163.296 43.1792 169.115 43.1991C170.164 43.1681 170.679 42.5491 170.658 41.3421C170.215 39.3485 169.205 37.5823 167.79 36.3233C165.551 33.5814 163.19 30.9746 160.717 28.5134C159.565 26.938 157.99 25.8495 156.239 25.4205C154.696 25.3783 153.153 25.3784 151.624 25.3606C150.7 25.3495 149.772 25.3384 148.848 25.3606C147.858 25.3828 146.871 25.4427 145.881 25.436C143.534 25.4183 141.187 25.4065 138.839 25.4005C126.056 25.3547 113.274 25.3406 100.491 25.3584C87.6175 25.3584 74.7425 25.3761 61.8662 25.4116C60.7089 25.4116 59.5631 25.4272 58.4096 25.4116C57.4451 25.4116 56.4806 25.3539 55.5162 25.3295C53.5872 25.2807 51.6487 25.365 49.7178 25.3761C48.1939 25.3761 46.672 25.3761 45.1501 25.4249C44.1097 25.4427 43.5818 26.0491 43.5664 27.2443C43.9536 29.22 44.91 30.9871 46.2804 32.2586C48.4294 35.0052 50.7023 37.6203 53.0896 40.0929C54.1922 41.6766 55.7301 42.7821 57.4509 43.228V43.228Z" fill="#75BBE3"/>
                    <path opacity="0.23" d="M42.7263 30.1764C43.4496 30.5004 44.1768 30.862 44.9175 31.1194L46.3816 31.5188L47.0124 31.3635L47.7531 31.1793H48.4687C52.4751 31.1638 56.4796 31.1993 60.486 31.1926C73.4832 31.1675 86.4816 31.1601 99.4814 31.1704C112.364 31.1704 125.247 31.1749 138.131 31.1838C144.188 31.1838 150.247 31.1638 156.306 31.1838C157.237 31.0358 157.755 30.4198 157.861 29.3356C157.778 28.5201 157.554 27.7321 157.2 27.0188C156.847 26.3055 156.372 25.6816 155.804 25.1843C154.085 22.9996 152.243 20.9473 150.29 19.0407C149.84 18.4049 149.284 17.8796 148.654 17.4961C148.025 17.1127 147.334 16.8789 146.625 16.8086C145.34 16.7842 144.057 16.7864 142.767 16.7687C140.99 16.7465 139.214 16.7598 137.441 16.8086C135.389 16.8619 133.33 16.8086 131.268 16.8086C119.695 16.7702 108.125 16.7576 96.559 16.7709C84.3566 16.7709 72.1554 16.7776 59.9555 16.7909C57.3836 16.7909 54.8117 16.7975 52.2398 16.8109C50.8702 16.8109 49.4968 16.8419 48.1273 16.8109C47.1783 16.7931 46.2292 16.7465 45.2783 16.7509C43.5422 16.7509 41.8062 16.7798 40.0701 16.7887C39.6753 16.7887 39.2805 16.7953 38.8858 16.8086L38.2029 16.8242C37.7843 16.8929 37.3638 17.046 36.951 17.1548L38.4112 17.5497L36.5749 16.8841C35.6747 16.2924 34.8343 16.356 34.0538 17.0749C33.4288 17.9712 33.3703 18.9371 33.8782 19.9725C35.0527 21.9806 36.4178 23.832 37.9483 25.4927C39.3844 27.2536 40.987 28.8246 42.7263 30.1764Z" fill="#75BBE3"/>
                    <path opacity="0.23" d="M40.3412 40.6802L41.0221 41.0352L41.5352 41.297C42.002 41.5322 42.4708 41.763 42.9414 41.9893L44.0988 42.0736L44.8954 42.0447C45.4432 42.027 45.9911 42.0063 46.5389 41.9826C48.4505 41.8983 50.3698 41.9826 52.2833 41.9826H97.5419C116.511 41.9826 135.479 41.9826 154.446 41.9826C154.826 41.8708 155.174 41.6459 155.455 41.3305C155.736 41.015 155.94 40.6202 156.047 40.1855C156.182 38.9282 155.816 37.8588 154.949 36.9772C153.837 35.3831 152.596 33.9144 151.242 32.5908C150.496 31.5716 149.576 31.1279 148.481 31.2595C131.734 31.2595 114.987 31.2595 98.2382 31.2595H61.71C56.7745 31.2595 51.8377 31.2595 46.8996 31.2595C45.1983 31.2595 43.4969 31.2595 41.7937 31.244C40.658 31.2767 39.5267 31.4207 38.4123 31.6744L39.5696 31.7587L37.2549 30.7692C36.8868 30.628 36.4912 30.6113 36.1151 30.721C35.739 30.8307 35.3982 31.0623 35.1331 31.3882C34.8415 31.687 34.6308 32.076 34.5261 32.5087C34.4214 32.9415 34.4272 33.3997 34.5428 33.8288C35.2012 35.2607 36.0624 36.5564 37.0909 37.6628C38.0223 38.8678 39.1206 39.8874 40.3412 40.6802V40.6802Z" fill="#75BBE3"/>
                    </g>
                    <path d="M1.96733 9.6025V13.5065H30.2873V9.6025H1.96733ZM8.55933 24.1305V28.0345H23.4073V24.1305H8.55933ZM14.0313 3.3945V33.4425H18.1273V3.3945H14.0313ZM12.8793 11.0105C10.6073 16.8985 5.96733 22.6585 0.719328 25.5385C1.58333 26.3065 2.86333 27.7785 3.50333 28.7385C9.10333 25.2185 13.6473 19.1065 16.3993 12.1305L12.8793 11.0105ZM19.2793 11.1065L15.7913 12.2585C18.5753 19.0745 23.0553 25.1865 28.6873 28.6425C29.3273 27.5545 30.7033 25.9545 31.6633 25.1545C26.2873 22.3705 21.6153 16.8025 19.2793 11.1065ZM40.7193 4.8985V8.6425H56.7193V4.8985H40.7193ZM40.7513 12.5465V16.1945H56.8793V12.5465H40.7513ZM40.5913 20.1305V23.8425H56.6553V20.1305H40.5913ZM38.0953 4.8985V15.4905C38.0953 20.3865 37.6473 26.5625 32.7833 30.6905C33.6153 31.2025 35.1833 32.6425 35.7593 33.4425C41.1673 28.8985 42.0313 21.0585 42.0313 15.4905V4.8985H38.0953ZM54.9273 4.8985V28.5145C54.9273 29.1865 54.6713 29.4105 53.9353 29.4425C53.1673 29.4425 50.5113 29.4745 48.2393 29.3465C48.8793 30.3705 49.6153 32.2265 49.8393 33.3785C53.1673 33.3785 55.4393 33.3145 56.9753 32.6425C58.4473 32.0025 58.9913 30.8505 58.9913 28.5785V4.8985H54.9273ZM69.2633 3.5225V33.3465H72.6873V3.5225H69.2633ZM65.1993 14.0505V17.6345H75.7593V14.0505H65.1993ZM69.2313 15.9705C68.4313 19.1385 66.5433 23.5865 64.6873 25.9545C65.2633 27.0425 66.1273 28.7705 66.4473 29.9545C68.5273 26.8825 70.3833 21.2825 71.3753 17.0265L69.2313 15.9705ZM72.7513 17.8905L70.9913 19.3625C71.9833 20.9945 73.8393 24.5785 74.5433 26.4665L76.9753 23.5225C76.3673 22.5625 73.5833 18.7545 72.7513 17.8905ZM65.1673 6.0185C65.9353 8.2905 66.5433 11.3305 66.6393 13.2825L69.2953 12.6425C69.1353 10.6585 68.5273 7.6825 67.6633 5.3785L65.1673 6.0185ZM74.0633 5.2185C73.7433 7.4585 73.0393 10.5945 72.4313 12.5785L74.7033 13.2185C75.4393 11.3625 76.3353 8.3545 77.1033 5.8585L74.0633 5.2185ZM77.4873 5.7305V8.4825H94.1593V5.7305H77.4873ZM78.2553 9.7305V12.3225H93.4873V9.7305H78.2553ZM76.5913 13.6985V16.4825H94.9913V13.6985H76.5913ZM83.6953 3.4265V15.2665H87.3433V3.4265H83.6953ZM78.2553 17.7945V33.4745H81.8393V20.5145H90.4153V17.7945H78.2553ZM89.5513 17.7945V29.9545C89.5513 30.3065 89.4233 30.4345 89.0073 30.4345C88.6233 30.4345 87.2793 30.4345 86.0953 30.3705C86.5113 31.2345 86.9273 32.5145 87.0873 33.4425C89.1353 33.4425 90.6393 33.4105 91.7273 32.9305C92.8473 32.4185 93.1353 31.5865 93.1353 29.9865V17.7945H89.5513ZM80.2713 22.0505V24.5465H90.7993V22.0505H80.2713ZM80.2713 26.0825V28.5785H90.7993V26.0825H80.2713ZM104.175 15.8745H97.2633V19.4265H100.591V27.6505H104.175V15.8745ZM104.175 26.1785H100.975C99.6313 27.3625 98.0953 28.5785 96.8153 29.4745L98.6393 33.1545C100.143 31.7145 101.423 30.4985 102.639 29.2185C104.559 31.7145 107.183 32.6745 111.087 32.8345C115.087 32.9945 122.191 32.9305 126.287 32.7385C126.447 31.6825 127.023 29.9865 127.439 29.1545C122.895 29.5065 115.023 29.6025 111.055 29.4425C107.759 29.2825 105.423 28.3545 104.175 26.1785ZM97.0713 6.0505C98.7033 7.6825 100.623 10.0185 101.359 11.5545L104.623 9.4105C103.759 7.8425 101.775 5.6665 100.079 4.1305L97.0713 6.0505ZM106.127 16.4825V19.2665H125.743V16.4825H106.127ZM105.167 21.4105V24.2585H126.735V21.4105H105.167ZM110.383 14.7865V22.7865H113.999V14.7865H110.383ZM117.711 14.7865V22.7865H121.359V14.7865H117.711ZM106.991 8.1305V10.5625H114.895V4.3865H105.583V6.7865H111.663V8.1305H106.991ZM106.031 8.1305V11.2665C106.031 13.8265 106.831 14.5625 109.679 14.5625C110.287 14.5625 112.431 14.5625 113.039 14.5625C114.991 14.5625 115.855 13.9545 116.175 11.7785C115.311 11.6185 114.095 11.2025 113.519 10.7865C113.391 11.8425 113.263 12.0345 112.623 12.0345C112.143 12.0345 110.511 12.0345 110.159 12.0345C109.327 12.0345 109.199 11.9065 109.199 11.2345V8.1305H106.031ZM117.519 8.1305V10.5625H125.487V4.3865H115.983V6.7865H122.223V8.1305H117.519ZM116.559 8.1305V11.2345C116.559 13.8265 117.359 14.5625 120.239 14.5625C120.847 14.5625 123.087 14.5625 123.695 14.5625C125.679 14.5625 126.543 13.9545 126.863 11.7465C125.999 11.5545 124.783 11.1705 124.207 10.7545C124.079 11.8425 123.951 12.0345 123.279 12.0345C122.799 12.0345 121.103 12.0345 120.719 12.0345C119.887 12.0345 119.727 11.9065 119.727 11.2345V8.1305H116.559ZM117.167 25.6025C119.279 26.6905 121.551 28.1305 122.735 29.1545L126.703 27.7145C125.103 26.6265 122.287 25.0905 119.983 24.0345L117.167 25.6025ZM111.567 24.0345C110.191 25.1225 107.823 26.1465 105.583 26.8185C106.383 27.3305 107.759 28.4825 108.367 29.1225C110.575 28.2265 113.263 26.7545 114.927 25.2185L111.567 24.0345Z" fill="black"/>
                    </svg>