<svg width="23" height="20" viewBox="0 0 23 20" fill="none" xmlns="http://www.w3.org/2000/svg">
<g clip-path="url(#clip0_2097_13168)">
<path d="M21.875 17.4999H20V4.43349C20 3.36904 19.1602 2.4999 18.125 2.4999L13.75 2.50029V4.9999H17.5V19.9999H21.875C22.2217 19.9999 22.5 19.7216 22.5 19.4101V18.1952C22.5 17.7772 22.2227 17.4999 21.875 17.4999ZM10.9492 0.0392334L3.44922 1.98259C2.85547 2.12919 2.5 2.64677 2.5 3.2374V17.4999H0.625C0.27832 17.4999 0 17.7782 0 18.0897V19.3046C0 19.7226 0.27832 19.9999 0.625 19.9999H12.5V1.29404C12.5 0.454194 11.7383 -0.165845 10.9492 0.0392334ZM9.0625 11.2499C8.54492 11.2499 8.125 10.6886 8.125 10.0351C8.125 9.34677 8.54492 8.82021 9.0625 8.82021C9.58008 8.82021 10 9.3124 10 9.9999C10 10.6874 9.58203 11.2499 9.0625 11.2499Z" fill="black"/>
</g>
<defs>
<clipPath id="clip0_2097_13168">
<rect width="22.5" height="20" fill="white"/>
</clipPath>
</defs>
</svg>
