<svg width="26" height="20" viewBox="0 0 26 20" fill="none" xmlns="http://www.w3.org/2000/svg">
<path d="M12.5643 5.73214C12.6901 5.71875 12.8159 5.71429 12.9417 5.71429C15.3234 5.71429 17.2557 7.59375 17.2557 10C17.2557 12.3661 15.3234 14.2857 12.9417 14.2857C10.5197 14.2857 8.62783 12.3661 8.62783 10C8.62783 9.875 8.63232 9.75 8.6458 9.625C9.06371 9.82589 9.54903 10 10.0658 10C11.6521 10 12.9417 8.71875 12.9417 7.14286C12.9417 6.62946 12.7665 6.14732 12.5643 5.73214ZM21.5965 3.59821C23.6996 5.53571 25.1061 7.81696 25.7711 9.45089C25.9194 9.80357 25.9194 10.1964 25.7711 10.5491C25.1061 12.1429 23.6996 14.4241 21.5965 16.4018C19.48 18.3571 16.5726 20 12.9417 20C9.31087 20 6.40347 18.3571 4.28785 16.4018C2.18482 14.4241 0.779206 12.1429 0.110595 10.5491C-0.0368648 10.1964 -0.0368648 9.80357 0.110595 9.45089C0.779206 7.81696 2.18482 5.53571 4.28785 3.59821C6.40347 1.64464 9.31087 0 12.9417 0C16.5726 0 19.48 1.64464 21.5965 3.59821ZM12.9417 3.57143C9.36928 3.57143 6.47087 6.45089 6.47087 10C6.47087 13.5491 9.36928 16.4286 12.9417 16.4286C16.5142 16.4286 19.4126 13.5491 19.4126 10C19.4126 6.45089 16.5142 3.57143 12.9417 3.57143Z" fill="black"/>
</svg>
