<svg width="165" height="36" viewBox="0 0 165 36" fill="none" xmlns="http://www.w3.org/2000/svg">
<g opacity="0.6">
<path opacity="0.23" d="M64.6984 35.0673C65.9749 35.0673 67.2464 35.0155 68.5228 35.0247C70.0736 35.0338 71.6243 35.0246 73.175 35.0155C75.1534 35.0155 77.1317 35.0323 79.1084 35.0292C89.849 35.017 100.589 35.0135 111.328 35.0186C122.045 35.0186 132.763 35.0211 143.481 35.0262C148.349 35.0262 153.217 35.0125 158.086 35.0262C158.928 34.9765 159.362 34.554 159.388 33.7588C159.105 32.473 158.344 31.3249 157.242 30.5213C155.53 28.7729 153.716 27.1161 151.809 25.5585C150.922 24.5457 149.681 23.8644 148.309 23.6369C147.018 23.6095 145.727 23.6111 144.446 23.6004C143.674 23.6004 142.9 23.5852 142.128 23.6004C141.301 23.6156 140.476 23.6537 139.648 23.6491C137.683 23.6379 135.718 23.6303 133.753 23.6263C123.059 23.5989 112.365 23.5908 101.671 23.6019C90.9032 23.6019 80.1342 23.6126 69.3635 23.6339C67.5885 23.6339 65.8135 23.6217 64.0385 23.5882C62.4248 23.5563 60.8111 23.6095 59.1975 23.6171C58.665 23.6171 58.1308 23.5989 57.5983 23.605C57.1869 23.605 56.7754 23.6537 56.3639 23.6643C56.0282 23.6734 55.6894 23.6643 55.3521 23.6537C54.5146 23.6932 54.0725 24.1101 54.0225 24.8951C54.2628 26.1698 54.9838 27.3196 56.0524 28.1327C57.6952 29.8862 59.4413 31.5512 61.2823 33.1199C62.1344 34.1365 63.3478 34.8281 64.6984 35.0673Z" fill="#FEAC00"/>
<path opacity="0.23" d="M54.6998 28.0361C55.2742 28.2278 55.8503 28.4332 56.4361 28.5929L57.6608 28.8729L58.2095 28.7816L58.8549 28.6705H59.4536C62.8068 28.6492 66.1584 28.6827 69.51 28.6705C80.3828 28.6533 91.2551 28.6487 102.127 28.6568C112.906 28.6568 123.685 28.6599 134.463 28.6659C139.532 28.6659 144.6 28.6522 149.669 28.6659C150.451 28.5645 150.887 28.1441 150.977 27.4047C150.91 26.8441 150.724 26.3019 150.43 25.8105C150.135 25.3192 149.739 24.8886 149.265 24.5445C147.829 23.0373 146.291 21.6199 144.66 20.3013C144.285 19.8628 143.82 19.4999 143.293 19.2341C142.767 18.9682 142.189 18.805 141.594 18.754C140.519 18.7357 139.444 18.7388 138.367 18.7266C136.883 18.7114 135.4 18.72 133.918 18.7525C132.199 18.789 130.477 18.7525 128.754 18.7525C119.072 18.7281 109.39 18.72 99.708 18.7281C89.5022 18.7281 79.2957 18.7327 69.0888 18.7418C66.9372 18.7418 64.7857 18.7459 62.6341 18.754C61.4884 18.754 60.3395 18.7768 59.1938 18.754C58.3967 18.7418 57.6027 18.7099 56.8056 18.7129C55.3533 18.7129 53.901 18.7327 52.4487 18.7372C52.1163 18.7372 51.7855 18.7372 51.4531 18.7494L50.8802 18.7601C50.5172 18.8027 50.1541 18.9 49.7975 18.9685L51.0222 19.2484L49.5554 18.8453C48.8024 18.4396 48.0972 18.4781 47.4399 18.9609C46.9139 19.5766 46.8638 20.2404 47.2898 20.9524C48.2701 22.3402 49.411 23.621 50.6914 24.7711C51.8955 25.9958 53.2398 27.0908 54.6998 28.0361Z" fill="#FEAC00"/>
<path opacity="0.23" d="M54.4647 17.6708C55.4054 18.1835 56.3559 18.678 57.3112 19.1664C57.6834 19.5132 58.082 19.6005 58.5069 19.428C58.7301 19.4026 58.9455 19.3345 59.1397 19.2277C59.334 19.121 59.503 18.9779 59.6365 18.8073C59.8947 18.5842 60.1496 18.3585 60.4013 18.1303L58.9055 18.8423L59.6671 18.6658C59.8804 18.5869 60.1155 18.5772 60.3352 18.6384C61.0355 18.6978 61.7262 18.748 62.4329 18.7556C64.0466 18.7754 65.6603 18.7556 67.2739 18.7556C71.4695 18.7556 75.665 18.7556 79.8605 18.7556H110.034C123.252 18.7556 136.47 18.7556 149.688 18.7556C149.976 18.7376 150.257 18.665 150.514 18.5421C150.771 18.4192 150.999 18.2486 151.184 18.0405C151.403 17.864 151.582 17.6475 151.71 17.4041C151.838 17.1606 151.912 16.8953 151.928 16.6241C151.721 16.0005 151.333 15.4439 150.808 15.0175C150.351 14.5266 149.758 14.1661 149.095 13.9768H74.5128C70.5852 13.9768 66.6586 13.9814 62.7331 13.9905C61.8714 13.9905 61.0226 13.9753 60.1641 13.9129L59.3783 13.8551L58.8135 13.9555C58.5136 13.9982 58.2167 14.0576 57.9244 14.1335C57.7011 14.1605 57.4859 14.2297 57.2917 14.3372C57.0976 14.4447 56.9285 14.5881 56.7948 14.7588C56.5189 14.9642 56.2446 15.1727 55.9702 15.3811L58.2971 15.0221C57.4795 14.6508 56.663 14.2761 55.8476 13.8977C55.6518 13.7548 55.4103 13.6787 55.1627 13.6817C54.9151 13.6848 54.6759 13.7668 54.484 13.9145C53.9519 14.2356 53.5017 14.6637 53.1657 15.1681C53.0116 15.3509 52.9277 15.5774 52.9277 15.8109C52.9277 16.0444 53.0116 16.2709 53.1657 16.4537C53.4951 16.9471 53.9393 17.3633 54.4647 17.6708Z" fill="#FEAC00"/>
<path opacity="0.23" d="M62.3455 26.168C63.6235 26.1787 64.8983 26.1574 66.1763 26.168C67.7287 26.168 69.281 26.168 70.8333 26.1589C72.8085 26.1589 74.782 26.1802 76.7571 26.1772C87.4998 26.1599 98.2419 26.1548 108.984 26.1619C119.699 26.1619 130.415 26.1655 141.131 26.1726C145.999 26.1726 150.868 26.1559 155.736 26.1726C156.633 26.1726 157.064 25.7486 157.027 24.9007C156.611 23.4827 155.723 22.2283 154.494 21.3223C152.53 19.3577 150.468 17.4894 148.307 15.7175C147.301 14.5942 145.939 13.8054 144.421 13.4673C143.13 13.4399 141.839 13.4369 140.548 13.4247C139.772 13.4171 138.993 13.4141 138.215 13.4247C137.392 13.4415 136.571 13.4825 135.748 13.4765C133.782 13.4643 131.817 13.4557 129.853 13.4506C119.159 13.4171 108.465 13.4065 97.7718 13.4186C87.0022 13.4186 76.231 13.4186 65.4598 13.4597C64.4916 13.4597 63.5364 13.4704 62.573 13.4597C61.7662 13.4597 60.9593 13.4156 60.1428 13.4004C58.5292 13.37 56.9155 13.4278 55.3018 13.4354C54.0416 13.4354 52.791 13.4354 51.5339 13.5145C50.6464 13.5145 50.2064 13.9314 50.214 14.7651C50.5795 16.1679 51.4237 17.4187 52.6167 18.3252C54.5004 20.2793 56.4872 22.1428 58.5695 23.9087C59.5332 25.0298 60.8592 25.8232 62.3455 26.168Z" fill="#FEAC00"/>
<path opacity="0.23" d="M51.5321 26.5845L52.1582 26.8797L52.6294 27.1033C53.0597 27.2991 53.49 27.4923 53.9203 27.683L54.8643 27.7073L55.4694 27.6297C55.8954 27.575 56.3198 27.5278 56.749 27.4943C57.4655 27.4396 58.1658 27.4548 58.8872 27.4609C59.7682 27.4609 60.6509 27.473 61.5336 27.473H99.3836C115.252 27.473 131.12 27.473 146.987 27.473C147.3 27.3862 147.585 27.2279 147.818 27.0122C148.051 26.7964 148.224 26.5299 148.321 26.2361C148.461 25.4176 148.187 24.7188 147.498 24.1396C146.628 23.1157 145.65 22.1772 144.579 21.3387C143.976 20.6794 143.239 20.4086 142.37 20.5263C128.359 20.5263 114.349 20.5263 100.339 20.5263H57.3994C55.9729 20.5263 54.5448 20.5156 53.1167 20.505C52.6087 20.4958 52.1012 20.5387 51.6031 20.6328C51.2142 20.7119 50.8285 20.8488 50.4477 20.9553L51.3917 20.9797L49.3197 20.1825C49.0125 20.1057 48.6887 20.1101 48.3839 20.1951C48.0791 20.2802 47.805 20.4426 47.5915 20.6647C47.3521 20.8622 47.175 21.118 47.0796 21.4041C46.9843 21.6902 46.9744 21.9955 47.0509 22.2866C47.5356 23.2013 48.1916 24.026 48.9873 24.7208C49.7098 25.4813 50.5719 26.1126 51.5321 26.5845Z" fill="#FEAC00"/>
<path opacity="0.23" d="M61.6119 17.8436L62.2993 18.1829C62.5769 18.3178 62.8549 18.4516 63.1336 18.5845C63.4918 18.7559 63.8511 18.9248 64.2115 19.0911L65.0861 19.0333L65.7622 18.7945L66.164 18.6514L67.2936 18.516L66.4093 18.5662C69.3736 18.6058 72.3363 18.5967 75.3006 18.5967H117.969C130.663 18.5967 143.357 18.5967 156.051 18.5967C156.358 18.652 156.674 18.6302 156.969 18.5336C157.264 18.4369 157.526 18.2687 157.73 18.0459C157.961 17.8492 158.132 17.5984 158.227 17.3189C158.322 17.0394 158.337 16.7412 158.27 16.4545C157.817 15.5995 157.193 14.835 156.432 14.2029C155.746 13.5044 154.925 12.9363 154.012 12.5293C139.737 12.5293 125.462 12.5293 111.187 12.5293H80.0754C76.2338 12.5293 72.3911 12.5293 68.5474 12.5293C67.6647 12.5293 66.7821 12.5293 65.8994 12.5156C65.2394 12.505 64.581 12.473 63.921 12.5156C63.674 12.5196 63.4275 12.5405 63.1836 12.578L62.3477 12.683C62.0137 12.8093 61.6926 13.0025 61.3795 13.1592L62.2541 13.1014L60.0676 12.2342C59.7663 12.2028 59.4614 12.2419 59.18 12.348C58.8985 12.4542 58.6492 12.6241 58.454 12.8427C58.227 13.0295 58.052 13.2658 57.9443 13.531C57.8365 13.7962 57.7993 14.0822 57.8359 14.3641C58.206 15.1394 58.7492 15.8301 59.4286 16.3891C60.037 17.0163 60.7817 17.5124 61.6119 17.8436Z" fill="#FEAC00"/>
<path opacity="0.23" d="M61.6626 20.6416L62.2403 20.8957L62.6728 21.0828C63.0665 21.2502 63.4619 21.4145 63.8588 21.5758L65.0207 21.7796L65.5516 21.6838L66.176 21.5712L66.7634 21.559C70.1102 21.4921 73.4601 21.559 76.8068 21.559C87.6797 21.5408 98.552 21.5367 109.424 21.5469C120.202 21.5469 130.981 21.5469 141.76 21.5469C146.827 21.5469 151.895 21.5317 156.964 21.5469C157.717 21.4089 158.147 20.9824 158.255 20.2674C158.212 19.7447 158.05 19.2368 157.781 18.778C157.511 18.3193 157.141 17.9203 156.694 17.6079C155.362 16.2344 153.927 14.9517 152.402 13.7694C152.047 13.3648 151.604 13.0367 151.103 12.8073C150.602 12.578 150.054 12.4526 149.497 12.4397C148.421 12.426 147.345 12.4276 146.27 12.4169C144.789 12.4032 143.309 12.4078 141.828 12.4382C140.109 12.4732 138.386 12.4382 136.664 12.4382C126.982 12.4169 117.3 12.4098 107.618 12.4169C97.4133 12.4169 87.2085 12.4205 77.0037 12.4276C74.8522 12.4276 72.7006 12.4316 70.5491 12.4397C69.4018 12.4397 68.2528 12.461 67.1055 12.4397C66.3067 12.4276 65.5112 12.3987 64.7125 12.4017C63.2602 12.4017 61.8159 12.4184 60.3685 12.4276C60.0457 12.4276 59.723 12.4276 59.4003 12.458L58.8436 12.4975C58.5063 12.5508 58.1691 12.6497 57.8366 12.7349L58.9985 12.9372L57.1056 12.207C56.3677 11.8672 55.6958 11.9458 55.0902 12.4428C54.5738 13.0229 54.5023 13.6579 54.8756 14.3476C55.7561 15.606 56.7966 16.7581 57.9738 17.7783C59.0753 18.8707 60.314 19.8323 61.6626 20.6416Z" fill="#FEAC00"/>
<path opacity="0.23" d="M60.1555 23.2325L61.2528 23.3359C61.6639 23.3468 62.0751 23.3203 62.4808 23.2568C62.9792 23.2259 63.4791 23.2193 63.9783 23.2371C67.5057 23.2431 71.0332 23.2462 74.5607 23.2462C85.3044 23.2289 96.0482 23.2244 106.792 23.2325C117.507 23.2325 128.221 23.2355 138.934 23.2416C143.801 23.2416 148.67 23.2234 153.536 23.2416C154.357 23.1706 154.788 22.7462 154.827 21.9682C154.586 20.7356 153.865 19.6323 152.807 18.8737C151.177 17.2166 149.446 15.6514 147.621 14.1862C146.771 13.2221 145.571 12.5908 144.255 12.4153C142.964 12.391 141.673 12.3894 140.382 12.3773C138.783 12.3636 137.184 12.4336 135.586 12.4244C133.621 12.4133 131.655 12.4062 129.69 12.4031C118.994 12.3757 108.3 12.3671 97.6054 12.3773C86.8358 12.3773 76.0678 12.3681 65.2982 12.4107C63.5232 12.4107 61.7482 12.394 59.9732 12.3636C58.3595 12.3362 56.7458 12.3864 55.1322 12.394C54.6077 12.394 54.0784 12.3742 53.5556 12.394C53.17 12.4107 52.7875 12.499 52.4019 12.5157C52.0304 12.5095 51.6596 12.482 51.2917 12.4336C50.4751 12.4985 50.0352 12.9153 49.9717 13.6841C50.1723 14.9044 50.8562 16.0075 51.8855 16.7711C53.452 18.4246 55.1225 19.9879 56.8878 21.4524C57.7005 22.4126 58.8674 23.0482 60.1555 23.2325Z" fill="#FEAC00"/>
<path opacity="0.23" d="M58.1355 35.1392C58.7342 35.3553 59.3393 35.6048 59.9541 35.7691L61.1208 36.0003L61.6888 35.9227L62.3536 35.8315H62.9571C66.3103 35.8315 69.6635 35.8406 73.0183 35.8315C83.8836 35.8162 94.7538 35.8122 105.629 35.8193C116.408 35.8193 127.188 35.8193 137.968 35.8193C143.037 35.8193 148.105 35.8025 153.174 35.8193C153.927 35.6976 154.364 35.2777 154.484 34.5596C154.444 34.0294 154.285 33.5133 154.018 33.0453C153.751 32.5772 153.382 32.1677 152.935 31.8438C151.605 30.4285 150.17 29.1031 148.643 27.8775C148.291 27.4635 147.85 27.1242 147.35 26.8819C146.849 26.6396 146.3 26.4999 145.738 26.4718C144.665 26.4535 143.592 26.4596 142.511 26.4489C141.028 26.4352 139.548 26.4383 138.065 26.4687C136.346 26.5052 134.625 26.4687 132.901 26.4687C123.219 26.4474 113.537 26.4403 103.855 26.4474C93.6495 26.4474 83.4436 26.4515 73.2378 26.4596C71.0862 26.4596 68.9347 26.4631 66.7831 26.4702C65.6342 26.4702 64.4837 26.49 63.3347 26.4702C62.5408 26.4596 61.7485 26.4292 60.9546 26.4322C59.5023 26.4322 58.05 26.4474 56.5977 26.4565C56.2653 26.4565 55.9329 26.4611 55.6004 26.4702L55.026 26.4809C54.6661 26.5235 54.3047 26.6224 53.9497 26.6924L55.118 26.9236L53.5366 26.4124C52.7986 26.0402 52.1155 26.0965 51.4872 26.5813C50.9579 27.1655 50.8826 27.8086 51.2613 28.5104C52.1527 29.8205 53.2057 31.0262 54.3983 32.1025C55.5124 33.2504 56.7669 34.2698 58.1355 35.1392Z" fill="#FEAC00"/>
<path opacity="0.23" d="M67.6839 26.1551L68.7054 26.1901C69.1249 26.2023 69.5477 26.1581 69.9673 26.1353C70.4723 26.1064 70.9806 26.1353 71.4857 26.1353C73.0397 26.146 74.5936 26.1353 76.1476 26.1277C78.1211 26.1277 80.0946 26.146 82.0681 26.1429C92.8097 26.1297 103.552 26.1257 114.296 26.1307C125.011 26.1307 135.726 26.1338 146.442 26.1399C151.309 26.1399 156.176 26.1262 161.042 26.1399C161.892 26.0892 162.322 25.6622 162.333 24.8589C162.013 23.5556 161.218 22.3999 160.085 21.5939C158.313 19.8306 156.439 18.1602 154.473 16.59C153.555 15.5699 152.287 14.8856 150.889 14.6563C149.598 14.6289 148.319 14.6289 147.033 14.6167C146.26 14.6091 145.483 14.6031 144.71 14.6167C143.881 14.632 143.053 14.6715 142.222 14.667C140.26 14.6548 138.297 14.6467 136.334 14.6426C125.643 14.6122 114.951 14.6025 104.259 14.6137C93.4864 14.6137 82.7136 14.6259 71.9408 14.6502C70.9726 14.6502 70.0141 14.6609 69.0507 14.6502C68.2439 14.6502 67.437 14.6107 66.6302 14.5939C65.0165 14.5635 63.3932 14.6198 61.7763 14.6259C61.2486 14.6259 60.7194 14.6061 60.1901 14.6137C59.7883 14.6137 59.3833 14.67 58.9863 14.6791C58.6458 14.6867 58.3005 14.6578 57.96 14.6472C57.1144 14.6888 56.6766 15.1077 56.6465 15.9039C56.9227 17.1961 57.6778 18.3535 58.7765 19.1688C60.4802 20.9377 62.2865 22.6164 64.1871 24.197C65.0694 25.2203 66.3088 25.9143 67.6839 26.1551Z" fill="#FEAC00"/>
<path opacity="0.23" d="M65.3192 29.1786C70.1295 29.1345 74.9415 29.1786 79.7534 29.1695C90.4929 29.1543 101.232 29.1497 111.972 29.1558C122.69 29.1558 133.407 29.1589 144.124 29.1649C148.994 29.1649 153.864 29.1482 158.732 29.1649C159.635 29.1649 160.065 28.742 160.023 27.893C159.596 26.469 158.698 25.2106 157.459 24.301C155.48 22.3232 153.403 20.4402 151.227 18.652C150.214 17.5216 148.844 16.7253 147.317 16.379C146.027 16.3517 144.736 16.3486 143.445 16.3364C142.67 16.3364 141.892 16.3243 141.116 16.3364C140.295 16.3517 139.475 16.3927 138.654 16.3867C136.688 16.3745 134.722 16.3664 132.756 16.3623C122.06 16.3299 111.365 16.3197 100.668 16.3319C89.9001 16.3319 79.1322 16.3319 68.3642 16.3714C67.396 16.3714 66.4391 16.3821 65.4757 16.3714C64.6689 16.3714 63.8492 16.3288 63.0359 16.3136C61.4222 16.2832 59.8086 16.3395 58.1949 16.3486C57.2461 16.3486 56.2956 16.3197 55.3484 16.3562C55.0257 16.3684 54.7175 16.4049 54.4028 16.4293C53.5121 16.4232 53.0715 16.84 53.0812 17.6798C53.4599 19.0888 54.3132 20.3439 55.513 21.2567C57.4139 23.2294 59.4138 25.1084 61.5126 26.8935C62.4852 28.0241 63.8211 28.8261 65.3192 29.1786Z" fill="#FEAC00"/>
<path opacity="0.23" d="M58.431 31.307L59.4864 31.3649C59.9124 31.3712 60.3385 31.3554 60.7628 31.3177C61.2662 31.2903 61.7729 31.307 62.278 31.307C65.8076 31.3152 69.3361 31.3177 72.8636 31.3147C83.6063 31.2994 94.3479 31.2954 105.088 31.3025C115.805 31.3025 126.521 31.3055 137.236 31.3116C142.104 31.3116 146.973 31.2918 151.841 31.3116C152.67 31.2538 153.107 30.8334 153.15 30.0504C152.907 28.7982 152.184 27.674 151.118 26.8919C149.477 25.1953 147.734 23.5896 145.896 22.0828C145.045 21.096 143.839 20.4382 142.508 20.2343C141.217 20.2099 139.926 20.2099 138.635 20.1977C137.037 20.184 135.443 20.251 133.847 20.2434C131.881 20.2322 129.914 20.2251 127.946 20.2221C117.251 20.1957 106.555 20.1876 95.8583 20.1977C85.0919 20.1977 74.324 20.1886 63.5576 20.2297C61.7826 20.2297 60.0076 20.216 58.2325 20.184C56.6189 20.1567 55.0052 20.2053 53.3916 20.2145C52.8623 20.2145 52.333 20.2008 51.8037 20.2145C51.3987 20.2251 50.9969 20.2845 50.5919 20.2966C50.2385 20.3058 49.8754 20.2677 49.5204 20.254C48.6974 20.3047 48.2531 20.7176 48.1875 21.4925C48.3898 22.73 49.0752 23.8516 50.1094 24.6372C51.6852 26.3346 53.3658 27.943 55.1424 29.454C55.9573 30.4344 57.1292 31.0947 58.431 31.307Z" fill="#FEAC00"/>
<path opacity="0.23" d="M52.2291 20.7837L51.7207 20.5205L52.2291 20.7837L54.4043 21.8943C54.7625 22.2595 55.1724 22.3832 55.6339 22.2656C55.8326 22.2835 56.0328 22.2504 56.2132 22.1697L56.7312 21.9811L57.1314 21.8289L58.2416 21.6616L57.3895 21.7331C64.4671 21.8198 71.5478 21.7665 78.6253 21.7665H147.024C147.326 21.8089 147.635 21.7786 147.922 21.6783C148.209 21.5781 148.465 21.4111 148.665 21.193C148.896 21.005 149.074 20.7649 149.181 20.4949C149.288 20.225 149.321 19.9339 149.276 19.6487C148.891 18.8439 148.332 18.1236 147.635 17.534C147.011 16.8755 146.249 16.3465 145.397 15.9806H71.4639C67.6212 15.9806 63.7791 15.9806 59.9375 15.9806C59.0532 15.9806 58.1625 15.9806 57.2847 15.9624C56.6327 15.9297 55.9793 15.9297 55.3273 15.9624C55.0873 15.9727 54.8484 15.9991 54.6124 16.0415L53.7943 16.1663C53.4554 16.2956 53.1327 16.4873 52.8084 16.644L53.6507 16.5664L51.9644 15.862C51.6668 15.842 51.3684 15.8881 51.0931 15.9967C50.8179 16.1053 50.5736 16.2734 50.3798 16.4873C50.1939 16.6155 50.0422 16.7828 49.9366 16.9758C49.8311 17.1688 49.7745 17.3823 49.7714 17.5994C49.6165 18.068 49.7591 18.4894 50.1991 18.8637C50.7723 19.594 51.4562 20.241 52.2291 20.7837Z" fill="#FEAC00"/>
<path opacity="0.23" d="M59.9055 28.4729C61.1964 28.5124 62.4696 28.4805 63.754 28.4835C67.2815 28.4927 70.809 28.4927 74.3364 28.4835C85.0791 28.4683 95.8213 28.4638 106.563 28.4698C117.278 28.4698 127.993 28.4734 138.71 28.4805C143.579 28.4805 148.447 28.4638 153.315 28.4805C154.202 28.4714 154.636 28.0489 154.618 27.2132C154.234 25.8224 153.376 24.5891 152.176 23.7033C150.274 21.7782 148.27 19.9446 146.172 18.2095C145.195 17.1061 143.862 16.3349 142.376 16.0141C141.086 15.9882 139.795 15.9837 138.504 15.973C137.728 15.973 136.948 15.9608 136.172 15.973C135.349 15.9897 134.528 16.0293 133.705 16.0247C131.739 16.0105 129.774 16.0019 127.81 15.9989C117.117 15.9674 106.422 15.9573 95.7271 15.9684C84.9576 15.9684 74.1864 15.9684 63.4168 16.008C62.4486 16.008 61.4917 16.0187 60.5283 16.008C59.7215 16.008 58.9147 15.9654 58.0982 15.9502C56.4845 15.9198 54.8708 15.9776 53.2572 15.9852C51.9904 15.9852 50.7269 16.0065 49.4618 16.0476C48.5862 16.0476 48.1435 16.4624 48.1338 17.2921C48.4647 18.6738 49.2778 19.9108 50.4429 20.805C52.2662 22.7231 54.1934 24.5513 56.2166 26.2821C57.1532 27.3792 58.4514 28.1502 59.9055 28.4729Z" fill="#FEAC00"/>
<path opacity="0.23" d="M68.1992 22.9557L68.772 23.1946L69.2029 23.3695C69.5923 23.5278 69.9828 23.6799 70.3744 23.8259L71.4927 23.9872L72.0574 23.9294C72.4754 23.8853 72.8836 23.8564 73.3032 23.8457C76.6451 23.762 79.9934 23.8457 83.3369 23.8351C94.2076 23.8199 105.079 23.8163 115.951 23.8244C126.73 23.8244 137.509 23.8244 148.288 23.8244C153.355 23.8244 158.424 23.8107 163.491 23.8244C163.824 23.7722 164.13 23.6178 164.362 23.3852C164.593 23.1526 164.737 22.8546 164.77 22.5373C164.742 22.0368 164.596 21.5485 164.343 21.1077C164.09 20.6669 163.736 20.2848 163.307 19.989C162.038 18.688 160.668 17.4787 159.208 16.3711C158.868 15.9854 158.44 15.676 157.957 15.4655C157.474 15.2549 156.947 15.1485 156.415 15.1539C155.342 15.1372 154.267 15.1418 153.188 15.1326C151.705 15.1189 150.225 15.1205 148.743 15.1494C147.025 15.1844 145.302 15.1494 143.58 15.1494C133.898 15.1301 124.216 15.1235 114.534 15.1296C104.328 15.1296 94.1221 15.1331 83.9162 15.1402C81.7647 15.1402 79.6131 15.1433 77.4616 15.1494C76.3143 15.1494 75.1637 15.1691 74.0148 15.1494C73.2193 15.1402 72.4254 15.1098 71.6314 15.1129C70.1845 15.1129 68.7371 15.1225 67.2891 15.1418C66.792 15.1415 66.2955 15.173 65.8029 15.2361C65.4721 15.2817 65.1429 15.37 64.8153 15.4369L65.9336 15.5982L63.9472 14.8527C63.2156 14.5484 62.5589 14.6432 61.9769 15.1372C61.4648 15.6991 61.3809 16.3203 61.7252 17.0009C62.5554 18.2012 63.5462 19.2955 64.6733 20.2567C65.721 21.2952 66.906 22.2023 68.1992 22.9557Z" fill="#FEAC00"/>
<path opacity="0.23" d="M67.3642 33.0277C72.1761 33.0018 76.988 33.017 81.8 33.0109C92.5384 32.9988 103.277 32.9952 114.017 33.0003C124.735 33.0003 135.453 33.0028 146.171 33.0079C151.039 33.0079 155.909 32.9942 160.777 33.0079C161.655 32.9866 162.086 32.5621 162.068 31.7345C161.697 30.3675 160.853 29.1564 159.669 28.2931C157.796 26.4129 155.821 24.6254 153.752 22.9377C152.788 21.8574 151.47 21.1111 150.006 20.8169C148.715 20.788 147.424 20.788 146.145 20.7758C145.372 20.7682 144.596 20.7606 143.823 20.7758C142.995 20.791 142.169 20.8321 141.341 20.8275C139.378 20.8153 137.414 20.8072 135.449 20.8032C124.756 20.7717 114.063 20.7621 103.37 20.7743C92.6002 20.7743 81.8296 20.7864 71.0578 20.8108C70.0896 20.8108 69.1311 20.8214 68.1662 20.8108C67.3593 20.8108 66.5525 20.7712 65.7457 20.7545C64.132 20.721 62.5103 20.7788 60.895 20.7864C59.6202 20.7864 58.347 20.7864 57.0738 20.8199C56.2035 20.8321 55.7619 21.2479 55.749 22.0675C56.0729 23.4222 56.873 24.6339 58.0194 25.5058C59.8172 27.3892 61.7186 29.1824 63.7157 30.8779C64.6381 31.9639 65.9246 32.7219 67.3642 33.0277Z" fill="#FEAC00"/>
<path opacity="0.23" d="M55.047 24.078C55.6521 24.3001 56.2605 24.5481 56.8801 24.7246L58.1049 24.9984L58.6326 24.8919L59.2522 24.7656H59.8509C63.2025 24.755 66.5524 24.7793 69.904 24.7748C80.7769 24.7575 91.6508 24.7525 102.526 24.7596C113.303 24.7596 124.081 24.7626 134.859 24.7687C139.926 24.7687 144.994 24.755 150.063 24.7687C150.842 24.6673 151.275 24.2448 151.363 23.5014C151.294 22.9422 151.107 22.4018 150.811 21.9127C150.515 21.4236 150.118 20.9958 149.643 20.6548C148.205 19.1567 146.664 17.7494 145.03 16.442C144.654 16.006 144.188 15.6459 143.662 15.3829C143.135 15.12 142.557 14.9597 141.964 14.9115C140.889 14.8948 139.816 14.8963 138.736 14.8841C137.25 14.8689 135.765 14.878 134.281 14.9115C132.564 14.948 130.842 14.9115 129.117 14.9115C119.435 14.8851 109.757 14.8765 100.081 14.8856C89.8731 14.8856 79.6661 14.8902 69.4602 14.8993C67.3087 14.8993 65.1572 14.9039 63.0056 14.913C61.8599 14.913 60.711 14.9343 59.5653 14.913C58.7714 14.9008 57.9774 14.8689 57.1819 14.8719C55.7296 14.8719 54.2773 14.8917 52.825 14.8978C52.4947 14.8978 52.1645 14.9024 51.8342 14.9115L51.263 14.9221C50.9128 14.9693 50.561 15.0743 50.2157 15.1488L51.4373 15.4196L49.9011 14.9632C49.148 14.5575 48.445 14.6011 47.792 15.0941C47.2692 15.7087 47.2202 16.371 47.6452 17.081C48.6276 18.458 49.7696 19.7275 51.05 20.8663C52.2514 22.0738 53.592 23.151 55.047 24.078Z" fill="#FEAC00"/>
<path opacity="0.23" d="M53.0529 31.2806L53.6225 31.524L54.0518 31.7035C54.4423 31.8648 54.8344 32.023 55.2281 32.1782L56.1963 32.236L56.8628 32.2163C57.321 32.2041 57.7793 32.1899 58.2376 32.1737C59.8367 32.1158 61.4423 32.1737 63.0431 32.1737H100.904C116.773 32.1737 132.641 32.1737 148.507 32.1737C148.826 32.097 149.117 31.9428 149.352 31.7265C149.587 31.5102 149.758 31.2394 149.847 30.9413C149.96 30.0792 149.654 29.3459 148.929 28.7414C147.998 27.6483 146.96 26.6412 145.827 25.7335C145.203 25.0347 144.433 24.7304 143.518 24.8207C129.508 24.8207 115.498 24.8207 101.487 24.8207H70.9291C66.8002 24.8207 62.6703 24.8207 58.5394 24.8207C57.1161 24.8207 55.6929 24.8207 54.268 24.8101C53.3179 24.8324 52.3715 24.9312 51.4392 25.1052L52.4074 25.163L50.471 24.4845C50.1631 24.3877 49.8322 24.3762 49.5175 24.4514C49.2029 24.5267 48.9178 24.6855 48.696 24.9089C48.4521 25.1138 48.2758 25.3806 48.1883 25.6773C48.1007 25.974 48.1056 26.2883 48.2022 26.5825C48.753 27.5644 49.4734 28.4528 50.3339 29.2115C51.113 30.0378 52.0318 30.737 53.0529 31.2806Z" fill="#FEAC00"/>
</g>
<path d="M12.384 3.624C11.664 7.176 10.32 10.608 8.4 12.72C9 13.08 10.128 13.896 10.584 14.328C12.528 11.928 14.112 8.112 14.976 4.128L12.384 3.624ZM20.448 7.368V7.992C20.064 18.192 19.608 21.912 18.936 22.752C18.648 23.088 18.432 23.208 18.072 23.208C17.616 23.208 16.8 23.184 15.912 23.088C16.344 23.88 16.632 25.104 16.704 25.92C17.76 25.968 18.768 25.968 19.44 25.824C20.232 25.68 20.76 25.392 21.312 24.576C22.224 23.376 22.656 19.44 23.112 8.664C23.136 8.304 23.16 7.368 23.16 7.368H20.448ZM13.104 7.368L11.784 10.032H21.672V7.368H13.104ZM14.784 8.232C13.872 12.264 11.76 16.776 8.976 18.96C9.72 19.368 10.632 20.04 11.184 20.592C13.8 18.144 15.912 13.392 16.872 9.264L14.784 8.232ZM18.12 8.496C17.016 14.664 14.544 20.928 10.344 23.928C11.136 24.312 12.144 25.032 12.696 25.608C16.656 22.296 19.2 15.768 20.352 9.528L18.12 8.496ZM0.624 16.704L1.32 19.464C3.864 18.72 7.152 17.736 10.176 16.8L9.792 14.256C6.48 15.192 2.976 16.176 0.624 16.704ZM4.944 3.624V26.16H7.584V3.624H4.944ZM1.776 4.992C1.56 7.848 1.152 10.848 0.384 12.768C0.96 13.056 1.992 13.728 2.424 14.064C3.288 11.928 3.864 8.568 4.176 5.4L1.776 4.992ZM2.424 8.256L1.896 11.016H9.576V8.256H2.424ZM38.088 3.936V26.136H40.992V3.936H38.088ZM34.008 4.944C33.456 7.896 32.448 10.944 31.152 12.84C31.848 13.152 33.096 13.8 33.672 14.232C34.944 12.12 36.096 8.76 36.768 5.52L34.008 4.944ZM34.92 8.28L34.224 11.088H46.032V8.28H34.92ZM31.584 15.24V18.072H47.184V15.24H31.584ZM29.808 3.72C28.608 7.152 26.568 10.56 24.432 12.744C24.912 13.44 25.704 15.024 25.968 15.72C28.536 12.96 30.984 8.64 32.52 4.56L29.808 3.72ZM27.432 10.344V26.136H30.168V7.632V7.608L27.432 10.344ZM49.176 18.312V20.952H70.776V18.312H49.176ZM49.92 6.024V8.664H70.176V6.024H49.92ZM55.104 10.152V12.552H64.824V10.152H55.104ZM55.104 14.184V16.584H64.824V14.184H55.104ZM53.28 3.672V19.728H56.136V3.672H53.28ZM63.72 3.672V19.728H66.648V3.672H63.72ZM61.2 22.896C63.84 23.856 66.6 25.152 68.136 26.088L70.92 24.264C69.096 23.352 66 22.056 63.264 21.12L61.2 22.896ZM56.352 20.88C54.672 21.96 51.408 23.304 48.888 23.976C49.488 24.576 50.328 25.536 50.76 26.136C53.304 25.368 56.568 24.024 58.752 22.776L56.352 20.88ZM86.568 3.72V20.448H89.256V3.72H86.568ZM78.456 13.128L79.56 15.672L93.792 10.08L92.712 7.584L78.456 13.128ZM81.384 6.312V21.552C81.384 24.888 82.344 25.8 85.824 25.8C86.568 25.8 90.312 25.8 91.128 25.8C94.152 25.8 95.016 24.624 95.4 21.024C94.584 20.832 93.432 20.352 92.784 19.896C92.568 22.632 92.304 23.208 90.912 23.208C90.072 23.208 86.784 23.208 86.064 23.208C84.48 23.208 84.24 22.992 84.24 21.552V6.312H81.384ZM91.728 8.064C91.728 13.104 91.704 15.504 91.608 16.032C91.488 16.512 91.32 16.584 90.984 16.584C90.72 16.584 90.024 16.584 89.52 16.56C89.832 17.184 90.096 18.384 90.144 19.2C91.008 19.224 92.136 19.176 92.856 18.864C93.672 18.504 94.104 17.88 94.224 16.656C94.368 15.624 94.392 12.72 94.416 8.52L94.536 8.088L92.568 7.32L92.064 7.704L91.56 8.064H91.728ZM77.784 3.72C76.56 7.152 74.496 10.56 72.312 12.744C72.792 13.44 73.56 15 73.824 15.672C76.416 12.936 78.912 8.616 80.448 4.56L77.784 3.72ZM75.36 10.344V26.136H78.192V7.56V7.536L75.36 10.344ZM100.248 7.32V9.024H117.144V4.68H98.52V6.384H114.528V7.32H100.248ZM99.408 7.32C99 8.76 98.424 10.488 97.896 11.688L100.512 11.856C100.992 10.656 101.592 8.88 102.096 7.32H99.408ZM99.672 9.936L99.144 11.64H116.928V9.936H99.672ZM115.992 9.936V10.248C115.896 11.568 115.824 12.12 115.656 12.336C115.512 12.48 115.368 12.504 115.152 12.504C114.888 12.504 114.408 12.48 113.808 12.408C114.048 12.888 114.288 13.656 114.312 14.136C115.248 14.184 116.112 14.184 116.592 14.16C117.096 14.112 117.624 13.944 117.984 13.56C118.392 13.104 118.536 12.264 118.656 10.704C118.656 10.416 118.68 9.936 118.68 9.936H115.992ZM103.992 3.624V8.52C103.992 10.896 103.128 12.624 96.96 13.44C97.44 13.944 98.088 15.024 98.328 15.648C105.456 14.592 106.608 12 106.608 8.592V3.624H103.992ZM109.296 3.624V13.296H112.032V3.624H109.296ZM102.912 17.352H113.28V18.336H102.912V17.352ZM102.912 19.872H113.28V20.856H102.912V19.872ZM102.912 14.856H113.28V15.816H102.912V14.856ZM100.128 13.224V22.488H116.208V13.224H100.128ZM109.32 23.64C111.816 24.456 114.336 25.464 115.728 26.208L118.944 24.816C117.216 24.072 114.216 22.992 111.648 22.2L109.32 23.64ZM104.04 22.2C102.408 23.04 99.552 23.76 97.008 24.168C97.632 24.648 98.616 25.68 99.096 26.256C101.544 25.632 104.64 24.552 106.608 23.376L104.04 22.2ZM125.04 5.232V7.968H139.776V5.232H125.04ZM125.04 10.752V13.44H139.824V10.752H125.04ZM124.992 16.416V19.128H139.92V16.416H124.992ZM123.384 5.232V13.848C123.384 17.232 123.168 21.528 120.552 24.432C121.176 24.792 122.352 25.752 122.808 26.304C125.76 23.088 126.24 17.688 126.24 13.872V5.232H123.384ZM138.768 5.232V22.752C138.768 23.16 138.6 23.304 138.144 23.328C137.712 23.328 136.128 23.352 134.76 23.256C135.144 24 135.576 25.248 135.696 26.016C137.88 26.04 139.32 25.992 140.328 25.536C141.288 25.08 141.624 24.312 141.624 22.776V5.232H138.768ZM130.776 6.312V25.872H133.704V6.312H130.776Z" fill="black"/>
</svg>
