<svg width="359" height="60" viewBox="0 0 359 60" fill="none" xmlns="http://www.w3.org/2000/svg">
<g opacity="0.6">
<path opacity="0.23" d="M99.8393 57.1764C103.145 57.1764 106.438 57.0751 109.743 57.093C113.759 57.1109 117.775 57.093 121.791 57.0751C126.915 57.0751 132.038 57.1079 137.157 57.1019C164.972 57.0781 192.786 57.0712 220.598 57.0811C248.352 57.0811 276.107 57.0861 303.864 57.096C316.472 57.096 329.08 57.0692 341.687 57.096C343.869 56.9987 344.993 56.1713 345.06 54.614C344.326 52.0958 342.355 49.8473 339.502 48.2735C335.069 44.8495 330.372 41.6046 325.431 38.5541C323.134 36.5708 319.92 35.2365 316.367 34.7909C313.024 34.7373 309.681 34.7403 306.363 34.7194C304.365 34.7194 302.359 34.6896 300.362 34.7194C298.218 34.7492 296.083 34.8237 293.939 34.8148C288.849 34.7929 283.76 34.778 278.673 34.7701C250.978 34.7165 223.283 34.7006 195.587 34.7224C167.703 34.7224 139.814 34.7433 111.921 34.785C107.324 34.785 102.727 34.7611 98.1301 34.6956C93.9512 34.633 89.7722 34.7373 85.5933 34.7522C84.2142 34.7522 82.831 34.7165 81.452 34.7284C80.3863 34.7284 79.3207 34.8237 78.2551 34.8446C77.3858 34.8625 76.5083 34.8446 75.6349 34.8237C73.466 34.9012 72.321 35.7176 72.1914 37.255C72.8139 39.7514 74.681 42.0033 77.4485 43.5956C81.7028 47.0297 86.2246 50.2905 90.9925 53.3626C93.1991 55.3535 96.3414 56.7082 99.8393 57.1764Z" fill="#FEAC00"/>
<path opacity="0.23" d="M73.9341 43.4032C75.4218 43.7786 76.9137 44.1808 78.4307 44.4937L81.6025 45.0419L83.0233 44.8631L84.6949 44.6456H86.2453C94.9291 44.6039 103.609 44.6695 112.288 44.6456C140.446 44.6119 168.603 44.6029 196.758 44.6188C224.673 44.6188 252.587 44.6248 280.499 44.6367C293.625 44.6367 306.752 44.6099 319.878 44.6367C321.903 44.4381 323.033 43.6147 323.267 42.1666C323.092 41.0687 322.61 40.0069 321.848 39.0446C321.086 38.0823 320.061 37.239 318.833 36.565C315.115 33.6134 311.131 30.8375 306.906 28.255C305.935 27.3963 304.732 26.6856 303.368 26.165C302.004 25.6444 300.507 25.3247 298.966 25.2248C296.183 25.1891 293.4 25.195 290.608 25.1712C286.766 25.1414 282.926 25.1583 279.087 25.2218C274.636 25.2933 270.177 25.2218 265.714 25.2218C240.641 25.1742 215.567 25.1583 190.493 25.1742C164.063 25.1742 137.631 25.1831 111.198 25.201C105.626 25.201 100.054 25.2089 94.482 25.2248C91.5149 25.2248 88.5395 25.2695 85.5725 25.2248C83.5081 25.201 81.452 25.1384 79.3876 25.1444C75.6266 25.1444 71.8655 25.1831 68.1045 25.192C67.2436 25.192 66.3869 25.192 65.5261 25.2159L64.0425 25.2367C63.1023 25.3202 62.162 25.5109 61.2385 25.6449L64.4103 26.1932L60.6116 25.4036C58.6615 24.609 56.8353 24.6845 55.133 25.63C53.7707 26.8358 53.6411 28.1359 54.7444 29.5303C57.2831 32.2482 60.2376 34.7565 63.5536 37.009C66.6718 39.4073 70.1532 41.5518 73.9341 43.4032Z" fill="#FEAC00"/>
<path opacity="0.23" d="M73.3397 23.1055C75.776 24.1096 78.2374 25.078 80.7113 26.0344C81.6753 26.7138 82.7075 26.8846 83.8079 26.5469C84.386 26.4971 84.9437 26.3636 85.4467 26.1546C85.9498 25.9455 86.3876 25.6653 86.7332 25.3312C87.4018 24.8942 88.0621 24.4523 88.714 24.0053L84.8401 25.3998L86.8126 25.0541C87.3648 24.8995 87.9737 24.8806 88.5427 25.0005C90.3563 25.1167 92.1449 25.215 93.9753 25.2299C98.1542 25.2687 102.333 25.2299 106.512 25.2299C117.377 25.2299 128.243 25.2299 139.108 25.2299H217.25C251.481 25.2299 285.712 25.2299 319.943 25.2299C320.688 25.1947 321.415 25.0525 322.081 24.8119C322.747 24.5712 323.337 24.2371 323.817 23.8295C324.385 23.4839 324.848 23.0599 325.179 22.5831C325.51 22.1064 325.702 21.5867 325.744 21.0556C325.208 19.8343 324.203 18.7443 322.844 17.9091C321.66 16.9478 320.123 16.2418 318.406 15.8711H125.259C115.087 15.8711 104.919 15.88 94.7526 15.8979C92.521 15.8979 90.3229 15.8681 88.0997 15.746L86.0645 15.6327L84.6019 15.8294C83.8254 15.9129 83.0565 16.0293 82.2993 16.178C81.721 16.2307 81.1637 16.3664 80.6609 16.5768C80.1582 16.7873 79.7204 17.0682 79.3741 17.4026C78.6595 17.8048 77.949 18.213 77.2386 18.6212L83.2647 17.9181C81.1473 17.1911 79.0328 16.4571 76.921 15.7162C76.4138 15.4363 75.7887 15.2872 75.1474 15.2931C74.5061 15.2991 73.8866 15.4598 73.3898 15.7489C72.0118 16.3778 70.8459 17.2162 69.9756 18.2041C69.5766 18.562 69.3594 19.0058 69.3594 19.463C69.3594 19.9202 69.5766 20.3639 69.9756 20.7218C70.8287 21.6881 71.9791 22.5032 73.3397 23.1055Z" fill="#FEAC00"/>
<path opacity="0.23" d="M93.7418 39.7483C97.0515 39.7691 100.353 39.7274 103.663 39.7483C107.683 39.7483 111.703 39.7483 115.723 39.7304C120.838 39.7304 125.949 39.7721 131.064 39.7662C158.885 39.7324 186.704 39.7225 214.522 39.7364C242.273 39.7364 270.024 39.7433 297.775 39.7572C310.383 39.7572 322.99 39.7245 335.598 39.7572C337.922 39.7572 339.036 38.9269 338.941 37.2663C337.864 34.4893 335.564 32.0326 332.381 30.2584C327.296 26.4108 321.955 22.7518 316.358 19.2816C313.753 17.0819 310.225 15.537 306.296 14.8749C302.952 14.8212 299.609 14.8153 296.266 14.7914C294.256 14.7765 292.238 14.7706 290.223 14.7914C288.092 14.8242 285.965 14.9047 283.834 14.8927C278.744 14.8689 273.655 14.852 268.568 14.8421C240.873 14.7765 213.179 14.7557 185.486 14.7795C157.596 14.7795 129.702 14.7795 101.807 14.86C99.2998 14.86 96.8258 14.8808 94.331 14.86C92.2415 14.86 90.1521 14.7736 88.0375 14.7438C83.8586 14.6842 79.6796 14.7974 75.5007 14.8123C72.2369 14.8123 68.9982 14.8123 65.7428 14.9672C63.4444 14.9672 62.305 15.7836 62.3245 17.4164C63.2712 20.1638 65.4574 22.6134 68.5469 24.3886C73.4253 28.2156 78.5705 31.8652 83.963 35.3236C86.4589 37.5192 89.8928 39.073 93.7418 39.7483Z" fill="#FEAC00"/>
<path opacity="0.23" d="M65.7369 40.5628L67.3583 41.1408L68.5785 41.5788C69.6929 41.9622 70.8073 42.3406 71.9217 42.714L74.3664 42.7617L75.9335 42.6097C77.0367 42.5025 78.1358 42.4101 79.2474 42.3446C81.1028 42.2373 82.9165 42.2671 84.7845 42.279C87.0662 42.279 89.3521 42.3028 91.638 42.3028H189.659C230.755 42.3028 271.848 42.3028 312.938 42.3028C313.749 42.1328 314.489 41.8228 315.092 41.4003C315.695 40.9777 316.142 40.4557 316.394 39.8805C316.756 38.2774 316.046 36.9088 314.263 35.7746C312.009 33.7692 309.476 31.9314 306.703 30.2892C305.14 28.9981 303.233 28.4677 300.982 28.6981C264.698 28.6981 228.415 28.6981 192.133 28.6981H80.9315C77.2373 28.6981 73.5389 28.6773 69.8406 28.6564C68.5251 28.6384 67.2108 28.7224 65.9207 28.9067C64.9136 29.0616 63.9148 29.3298 62.9286 29.5384L65.3733 29.586L60.0075 28.0248C59.2118 27.8744 58.3733 27.883 57.5839 28.0496C56.7946 28.2161 56.0846 28.5343 55.5319 28.9693C54.9119 29.3559 54.4532 29.8569 54.2063 30.4172C53.9593 30.9775 53.9336 31.5755 54.1319 32.1455C55.3872 33.937 57.086 35.552 59.1467 36.9128C61.0176 38.4021 63.2501 39.6386 65.7369 40.5628Z" fill="#FEAC00"/>
<path opacity="0.23" d="M91.8375 23.4438L93.6178 24.1082C94.3365 24.3724 95.0567 24.6346 95.7783 24.8948C96.706 25.2305 97.6365 25.5613 98.5698 25.887L100.835 25.7738L102.586 25.306L103.626 25.0259L106.552 24.7607L104.262 24.8591C111.938 24.9365 119.611 24.9187 127.288 24.9187H237.787C270.662 24.9187 303.536 24.9187 336.41 24.9187C337.204 25.027 338.023 24.9844 338.786 24.795C339.549 24.6057 340.229 24.2763 340.756 23.8401C341.355 23.4549 341.799 22.9636 342.045 22.4162C342.291 21.8688 342.33 21.2848 342.156 20.7234C340.982 19.049 339.366 17.5517 337.397 16.3137C335.62 14.9458 333.492 13.8333 331.128 13.0362C294.161 13.0362 257.193 13.0362 220.223 13.0362H139.653C129.704 13.0362 119.753 13.0362 109.799 13.0362C107.513 13.0362 105.227 13.0362 102.941 13.0093C101.232 12.9885 99.5268 12.9259 97.8176 13.0093C97.1777 13.0172 96.5395 13.0581 95.9078 13.1315L93.7431 13.3371C92.8781 13.5844 92.0465 13.9628 91.2358 14.2697L93.5008 14.1565L87.8383 12.4581C87.058 12.3966 86.2685 12.4732 85.5396 12.6811C84.8107 12.889 84.1649 13.2217 83.6593 13.6499C83.0716 14.0156 82.6184 14.4784 82.3394 14.9978C82.0604 15.5172 81.9641 16.0774 82.0588 16.6295C83.0171 18.1478 84.4241 19.5006 86.1834 20.5953C87.759 21.8236 89.6875 22.7952 91.8375 23.4438Z" fill="#FEAC00"/>
<path opacity="0.23" d="M91.9702 28.924L93.4663 29.4216L94.5863 29.7881C95.6059 30.1159 96.6298 30.4377 97.6578 30.7535L100.667 31.1528L102.042 30.965L103.659 30.7445L105.18 30.7207C113.847 30.5896 122.523 30.7207 131.19 30.7207C159.347 30.685 187.504 30.677 215.659 30.6969C243.571 30.6969 271.485 30.6969 299.401 30.6969C312.522 30.6969 325.649 30.6671 338.775 30.6969C340.725 30.4267 341.839 29.5915 342.118 28.1911C342.006 27.1674 341.587 26.1728 340.89 25.2743C340.193 24.3759 339.233 23.5944 338.077 22.9828C334.625 20.2928 330.911 17.7807 326.961 15.4653C326.041 14.6729 324.894 14.0304 323.596 13.5811C322.298 13.1319 320.881 12.8864 319.439 12.8612C316.651 12.8344 313.864 12.8373 311.081 12.8165C307.244 12.7897 303.412 12.7986 299.576 12.8582C295.126 12.9267 290.662 12.8582 286.203 12.8582C261.13 12.8165 236.056 12.8026 210.982 12.8165C184.555 12.8165 158.127 12.8234 131.699 12.8373C126.128 12.8373 120.556 12.8453 114.984 12.8612C112.012 12.8612 109.037 12.9029 106.066 12.8612C103.997 12.8373 101.937 12.7807 99.8685 12.7867C96.1074 12.7867 92.3672 12.8195 88.6187 12.8373C87.7829 12.8373 86.9472 12.8373 86.1114 12.8969L84.6696 12.9744C83.7962 13.0787 82.9228 13.2724 82.062 13.4392L85.0708 13.8355L80.1689 12.4053C78.2577 11.7399 76.5179 11.8938 74.9494 12.8671C73.6121 14.0034 73.4269 15.2468 74.3936 16.5976C76.674 19.062 79.3685 21.3184 82.4172 23.3165C85.2696 25.4559 88.4777 27.339 91.9702 28.924Z" fill="#FEAC00"/>
<path opacity="0.23" d="M88.0725 33.9972L90.9142 34.1998C91.9788 34.2211 93.0438 34.1692 94.0944 34.0449C95.3853 33.9843 96.6797 33.9713 97.9725 34.0061C107.108 34.0181 116.243 34.024 125.378 34.024C153.201 33.9903 181.025 33.9813 208.848 33.9972C236.596 33.9972 264.343 34.0032 292.089 34.0151C304.692 34.0151 317.3 33.9793 329.904 34.0151C332.03 33.876 333.144 33.0447 333.247 31.5212C332.621 29.1073 330.756 26.9464 328.015 25.4607C323.794 22.2155 319.31 19.1502 314.584 16.2807C312.383 14.3926 309.276 13.1563 305.867 12.8125C302.524 12.7648 299.18 12.7618 295.837 12.738C291.696 12.7112 287.555 12.8482 283.417 12.8304C278.327 12.8085 273.237 12.7946 268.147 12.7886C240.449 12.735 212.753 12.7181 185.058 12.738C157.167 12.738 129.281 12.7201 101.391 12.8035C96.794 12.8035 92.1972 12.7708 87.6003 12.7112C83.4214 12.6575 79.2424 12.7559 75.0635 12.7708C73.7053 12.7708 72.3346 12.732 70.9807 12.7708C69.9819 12.8035 68.9915 12.9764 67.9927 13.0091C67.0307 12.9969 66.0705 12.9432 65.1176 12.8482C63.0031 12.9754 61.8636 13.7918 61.6992 15.2974C62.2188 17.6872 63.99 19.8476 66.6554 21.343C70.7123 24.5812 75.0383 27.6428 79.6102 30.5111C81.7147 32.3914 84.7367 33.6364 88.0725 33.9972Z" fill="#FEAC00"/>
<path opacity="0.23" d="M82.8416 57.3157C84.392 57.7388 85.9591 58.2275 87.5513 58.5493L90.5726 59.0022L92.0436 58.8502L93.7653 58.6714H95.3283C104.012 58.6714 112.696 58.6893 121.384 58.6714C149.522 58.6416 177.673 58.6337 205.836 58.6476C233.752 58.6476 261.668 58.6476 289.587 58.6476C302.713 58.6476 315.839 58.6148 328.965 58.6476C330.915 58.4092 332.046 57.5869 332.358 56.1805C332.254 55.1423 331.843 54.1316 331.151 53.2149C330.46 52.2982 329.504 51.4963 328.346 50.862C324.901 48.0901 321.186 45.4945 317.23 43.0943C316.319 42.2833 315.178 41.6188 313.882 41.1444C312.586 40.6699 311.163 40.3962 309.708 40.3411C306.929 40.3054 304.15 40.3173 301.35 40.2964C297.51 40.2696 293.678 40.2756 289.837 40.3352C285.387 40.4067 280.928 40.3352 276.465 40.3352C251.391 40.2935 226.317 40.2796 201.244 40.2935C174.813 40.2935 148.383 40.3014 121.952 40.3173C116.38 40.3173 110.808 40.3242 105.237 40.3382C102.261 40.3382 99.2816 40.3769 96.3061 40.3382C94.2501 40.3173 92.1982 40.2577 90.1422 40.2637C86.3812 40.2637 82.6201 40.2935 78.859 40.3113C77.9982 40.3113 77.1373 40.3203 76.2765 40.3382L74.7888 40.359C73.8568 40.4424 72.9208 40.6361 72.0014 40.7732L75.027 41.2261L70.9316 40.2249C69.0204 39.4959 67.2513 39.6062 65.6243 40.5557C64.2536 41.6998 64.0586 42.9592 65.0393 44.3338C67.3478 46.8994 70.0747 49.2608 73.1631 51.3685C76.0484 53.6166 79.2972 55.613 82.8416 57.3157Z" fill="#FEAC00"/>
<path opacity="0.23" d="M107.568 39.7218L110.214 39.7903C111.3 39.8142 112.395 39.7277 113.482 39.6831C114.79 39.6264 116.106 39.6831 117.414 39.6831C121.438 39.7039 125.463 39.6831 129.487 39.6682C134.598 39.6682 139.709 39.7039 144.819 39.698C172.637 39.6721 200.458 39.6642 228.281 39.6741C256.03 39.6741 283.779 39.6801 311.53 39.692C324.134 39.692 336.738 39.6652 349.341 39.692C351.542 39.5927 352.657 38.7564 352.684 37.1832C351.856 34.6309 349.796 32.3675 346.863 30.789C342.273 27.3358 337.421 24.0643 332.329 20.9892C329.952 18.9914 326.667 17.6513 323.047 17.2022C319.704 17.1486 316.39 17.1486 313.06 17.1248C311.058 17.1099 309.048 17.0979 307.046 17.1248C304.898 17.1545 302.754 17.232 300.602 17.2231C295.521 17.1992 290.438 17.1833 285.353 17.1754C257.666 17.1158 229.978 17.0969 202.288 17.1188C174.39 17.1188 146.491 17.1426 118.592 17.1903C116.085 17.1903 113.603 17.2112 111.108 17.1903C109.018 17.1903 106.929 17.1128 104.84 17.0801C100.661 17.0205 96.4565 17.1307 92.2692 17.1426C90.9027 17.1426 89.532 17.1039 88.1613 17.1188C87.1208 17.1188 86.0719 17.229 85.0438 17.2469C84.1621 17.2618 83.2678 17.2052 82.386 17.1843C80.1963 17.2658 79.0624 18.0862 78.9844 19.6455C79.6997 22.1763 81.6552 24.443 84.5006 26.0396C88.9128 29.504 93.5906 32.7915 98.5126 35.8871C100.797 37.891 104.007 39.2503 107.568 39.7218Z" fill="#FEAC00"/>
<path opacity="0.23" d="M101.44 45.6424C113.897 45.556 126.359 45.6424 138.82 45.6245C166.633 45.5947 194.445 45.5858 222.257 45.5977C250.014 45.5977 277.769 45.6037 305.523 45.6156C318.135 45.6156 330.747 45.5828 343.355 45.6156C345.691 45.6156 346.806 44.7873 346.698 43.1247C345.591 40.3357 343.264 37.8713 340.057 36.0899C334.931 32.2165 329.552 28.5288 323.918 25.0268C321.293 22.8128 317.746 21.2535 313.793 20.5753C310.45 20.5217 307.106 20.5157 303.763 20.4919C301.757 20.4919 299.743 20.468 297.733 20.4919C295.606 20.5217 293.483 20.6021 291.356 20.5902C286.266 20.5664 281.175 20.5505 276.082 20.5425C248.384 20.479 220.684 20.4591 192.984 20.4829C165.098 20.4829 137.211 20.4829 109.325 20.5604C106.818 20.5604 104.34 20.5813 101.845 20.5604C99.7555 20.5604 97.6326 20.477 95.5264 20.4472C91.3475 20.3876 87.1685 20.4978 82.9896 20.5157C80.5324 20.5157 78.071 20.4591 75.6179 20.5306C74.7821 20.5545 73.9839 20.626 73.1691 20.6736C70.8623 20.6617 69.7214 21.4781 69.7465 23.1228C70.7272 25.8822 72.937 28.3403 76.0442 30.1278C80.967 33.9913 86.1461 37.6711 91.5815 41.1671C94.1002 43.3814 97.56 44.9521 101.44 45.6424Z" fill="#FEAC00"/>
<path opacity="0.23" d="M83.6061 49.8115L86.3391 49.9247C87.4425 49.9371 88.546 49.9063 89.6446 49.8324C90.9485 49.7787 92.2607 49.8115 93.5687 49.8115C102.709 49.8274 111.847 49.8324 120.983 49.8264C148.803 49.7966 176.621 49.7887 204.436 49.8026C232.19 49.8026 259.941 49.8085 287.689 49.8205C300.297 49.8205 312.905 49.7817 325.513 49.8205C327.661 49.7072 328.79 48.8839 328.902 47.3504C328.272 44.898 326.4 42.6964 323.641 41.1648C319.391 37.8422 314.876 34.6975 310.117 31.7464C307.913 29.8139 304.79 28.5256 301.342 28.1262C297.999 28.0786 294.655 28.0786 291.312 28.0547C287.175 28.0279 283.046 28.159 278.913 28.1441C273.821 28.1223 268.726 28.1084 263.631 28.1024C235.933 28.0507 208.233 28.0349 180.533 28.0547C152.651 28.0547 124.765 28.0368 96.8826 28.1173C92.2857 28.1173 87.6889 28.0905 83.0921 28.0279C78.9131 27.9743 74.7342 28.0696 70.5552 28.0875C69.1845 28.0875 67.8138 28.0607 66.4431 28.0875C65.3942 28.1084 64.3537 28.2246 63.3048 28.2484C62.3896 28.2663 61.4493 28.1918 60.5299 28.165C58.3987 28.2643 57.2481 29.0727 57.0781 30.5903C57.602 33.0139 59.3771 35.2105 62.0552 36.7491C66.1362 40.0734 70.4885 43.2233 75.0894 46.1824C77.1998 48.1025 80.2347 49.3957 83.6061 49.8115Z" fill="#FEAC00"/>
<path opacity="0.23" d="M67.5408 29.2025L66.2244 28.687L67.5408 29.2025L73.174 31.3776C74.1017 32.0927 75.1632 32.335 76.3583 32.1046C76.873 32.1398 77.3915 32.0749 77.8586 31.9169L79.2 31.5474L80.2364 31.2495L83.1115 30.9217L80.905 31.0617C99.2339 31.2316 117.571 31.1273 135.9 31.1273H313.033C313.817 31.2103 314.617 31.1509 315.36 30.9545C316.103 30.7582 316.764 30.4312 317.283 30.004C317.883 29.6359 318.343 29.1656 318.62 28.6369C318.897 28.1082 318.982 27.5382 318.867 26.9797C317.87 25.4034 316.422 23.9928 314.617 22.8381C313.001 21.5485 311.028 20.5125 308.821 19.796H117.354C107.402 19.796 97.4523 19.796 87.5036 19.796C85.2135 19.796 82.9067 19.796 80.6334 19.7602C78.9449 19.6962 77.2528 19.6962 75.5643 19.7602C74.9429 19.7804 74.3242 19.8322 73.7131 19.9152L71.5943 20.1595C70.7168 20.4128 69.881 20.7882 69.041 21.0951L71.2224 20.9431L66.8554 19.5636C66.0847 19.5244 65.3118 19.6148 64.5991 19.8275C63.8863 20.0402 63.2535 20.3693 62.7517 20.7882C62.2703 21.0394 61.8774 21.3669 61.604 21.7449C61.3306 22.1229 61.1842 22.541 61.1762 22.9663C60.7751 23.884 61.1442 24.7093 62.2837 25.4423C63.7681 26.8726 65.5394 28.1395 67.5408 29.2025Z" fill="#FEAC00"/>
<path opacity="0.23" d="M87.4229 44.2608C90.7661 44.3382 94.0633 44.2757 97.3897 44.2816C106.525 44.2995 115.66 44.2995 124.795 44.2816C152.616 44.2518 180.435 44.2429 208.253 44.2548C236.001 44.2548 263.752 44.2618 291.506 44.2757C304.114 44.2757 316.722 44.2429 329.33 44.2757C331.625 44.2578 332.749 43.4305 332.702 41.7937C331.709 39.07 329.487 36.6547 326.379 34.9198C321.452 31.1497 316.263 27.5587 310.829 24.1606C308.301 21.9997 304.848 20.4894 301 19.8611C297.657 19.8104 294.314 19.8015 290.971 19.7806C288.961 19.7806 286.943 19.7568 284.932 19.7806C282.801 19.8134 280.674 19.8909 278.543 19.8819C273.453 19.8541 268.364 19.8373 263.277 19.8313C235.585 19.7697 207.889 19.7499 180.191 19.7717C152.301 19.7717 124.407 19.7717 96.5163 19.8492C94.0089 19.8492 91.5308 19.87 89.036 19.8492C86.9465 19.8492 84.857 19.7657 82.7425 19.7359C78.5635 19.6764 74.3846 19.7896 70.2057 19.8045C66.9252 19.8045 63.6531 19.8462 60.3768 19.9266C58.109 19.9266 56.9626 20.7391 56.9375 22.3639C57.7944 25.0699 59.9001 27.4925 62.9176 29.2437C67.6394 33.0003 72.6302 36.5806 77.8698 39.9702C80.2954 42.1189 83.6574 43.6289 87.4229 44.2608Z" fill="#FEAC00"/>
<path opacity="0.23" d="M108.905 33.456L110.389 33.9238L111.504 34.2665C112.513 34.5763 113.524 34.8743 114.538 35.1603L117.434 35.4762L118.897 35.3629C119.979 35.2765 121.037 35.2199 122.123 35.1991C130.778 35.0352 139.449 35.1991 148.108 35.1782C176.26 35.1484 204.414 35.1415 232.568 35.1573C260.484 35.1573 288.399 35.1573 316.315 35.1573C329.436 35.1573 342.563 35.1305 355.684 35.1573C356.548 35.0551 357.341 34.7528 357.94 34.2972C358.539 33.8416 358.911 33.258 358.998 32.6366C358.925 31.6564 358.547 30.7 357.892 29.8368C357.236 28.9736 356.319 28.2252 355.208 27.6459C351.923 25.0981 348.375 22.7296 344.594 20.5604C343.712 19.8051 342.605 19.1992 341.354 18.7869C340.102 18.3746 338.738 18.1662 337.36 18.1768C334.581 18.144 331.798 18.153 329.002 18.1351C325.161 18.1083 321.329 18.1112 317.493 18.1678C313.042 18.2364 308.579 18.1678 304.12 18.1678C279.047 18.1301 253.973 18.1172 228.899 18.1291C202.469 18.1291 176.038 18.1361 149.608 18.15C144.036 18.15 138.464 18.1559 132.892 18.1678C129.921 18.1678 126.941 18.2066 123.966 18.1678C121.906 18.15 119.85 18.0904 117.794 18.0963C114.047 18.0963 110.298 18.1152 106.548 18.1529C105.261 18.1525 103.975 18.2142 102.699 18.3377C101.843 18.4271 100.99 18.5999 100.142 18.731L103.038 19.0468L97.8936 17.5868C95.9991 16.9909 94.2983 17.1766 92.7911 18.144C91.465 19.2445 91.2476 20.4611 92.1392 21.794C94.2891 24.1446 96.8553 26.2877 99.7741 28.1703C102.487 30.204 105.556 31.9805 108.905 33.456Z" fill="#FEAC00"/>
<path opacity="0.23" d="M106.736 53.1814C119.198 53.1308 131.66 53.1606 144.121 53.1487C171.931 53.1248 199.742 53.1179 227.554 53.1278C255.31 53.1278 283.067 53.1328 310.823 53.1427C323.431 53.1427 336.043 53.1159 348.651 53.1427C350.925 53.101 352.04 52.2697 351.994 50.6488C351.033 47.9716 348.846 45.5998 345.78 43.909C340.93 40.2268 335.815 36.7261 330.456 33.4209C327.962 31.3053 324.548 29.8436 320.757 29.2674C317.414 29.2108 314.071 29.2108 310.757 29.187C308.755 29.1721 306.745 29.1572 304.743 29.187C302.599 29.2168 300.46 29.2972 298.316 29.2883C293.232 29.2644 288.146 29.2485 283.059 29.2406C255.366 29.179 227.674 29.1602 199.981 29.184C172.091 29.184 144.198 29.2078 116.302 29.2555C113.795 29.2555 111.312 29.2764 108.813 29.2555C106.724 29.2555 104.634 29.178 102.545 29.1453C98.3659 29.0797 94.166 29.1929 89.9829 29.2078C86.6815 29.2078 83.3844 29.2078 80.0872 29.2734C77.8333 29.2972 76.6897 30.1116 76.6562 31.7166C77.495 34.3698 79.5671 36.7428 82.536 38.4504C87.1918 42.1389 92.1158 45.6507 97.2877 48.9713C99.6765 51.098 103.008 52.5826 106.736 53.1814Z" fill="#FEAC00"/>
<path opacity="0.23" d="M74.8425 35.6543C76.4096 36.0893 77.9851 36.575 79.5898 36.9206L82.7616 37.4569L84.1281 37.2484L85.7328 37.001H87.2832C95.9629 36.9802 104.638 37.0279 113.318 37.0189C141.476 36.9852 169.636 36.9752 197.8 36.9891C225.709 36.9891 253.621 36.9951 281.533 37.007C294.655 37.007 307.781 36.9802 320.907 37.007C322.924 36.8084 324.047 35.981 324.275 34.525C324.097 33.4299 323.611 32.3717 322.845 31.4138C322.08 30.4559 321.051 29.618 319.821 28.9503C316.096 26.0164 312.105 23.2603 307.873 20.6998C306.899 19.846 305.694 19.1406 304.33 18.6257C302.966 18.1107 301.471 17.7967 299.933 17.7024C297.15 17.6696 294.371 17.6726 291.575 17.6488C287.725 17.619 283.879 17.6368 280.037 17.7024C275.591 17.7739 271.132 17.7024 266.664 17.7024C241.591 17.6507 216.525 17.6339 191.469 17.6517C165.033 17.6517 138.599 17.6607 112.169 17.6786C106.597 17.6786 101.025 17.6875 95.4531 17.7054C92.486 17.7054 89.5106 17.7471 86.5436 17.7054C84.4875 17.6815 82.4315 17.619 80.3713 17.6249C76.6102 17.6249 72.8492 17.6637 69.0881 17.6756C68.2328 17.6756 67.3775 17.6845 66.5222 17.7024L65.0429 17.7232C64.1361 17.8156 63.225 18.0212 62.3307 18.1672L65.4942 18.6976L61.5159 17.8037C59.5657 17.0091 57.745 17.0946 56.054 18.0599C54.7 19.2637 54.5732 20.5608 55.6737 21.9513C58.218 24.6479 61.1754 27.1343 64.4913 29.3644C67.6026 31.7292 71.0745 33.8389 74.8425 35.6543Z" fill="#FEAC00"/>
<path opacity="0.23" d="M69.6774 49.7596L71.1525 50.2364L72.2641 50.588C73.2755 50.9038 74.2909 51.2137 75.3106 51.5176L77.818 51.6308L79.5439 51.5921C80.7307 51.5682 81.9175 51.5404 83.1043 51.5086C87.2457 51.3954 91.4037 51.5086 95.5492 51.5086H193.6C234.696 51.5086 275.789 51.5086 316.879 51.5086C317.703 51.3585 318.457 51.0564 319.066 50.6328C319.675 50.2092 320.117 49.679 320.347 49.0952C320.64 47.4068 319.847 45.9706 317.969 44.7867C315.56 42.6461 312.871 40.6736 309.938 38.8961C308.322 37.5275 306.328 36.9316 303.957 37.1084C267.676 37.1084 231.393 37.1084 195.108 37.1084H115.972C105.279 37.1084 94.5839 37.1084 83.8858 37.1084C80.2 37.1084 76.5141 37.1084 72.8241 37.0875C70.3636 37.1314 67.9128 37.3248 65.4984 37.6656L68.0058 37.7788L62.9911 36.4499C62.1936 36.2603 61.3366 36.2378 60.5218 36.3852C59.7069 36.5325 58.9685 36.8435 58.3942 37.2812C57.7625 37.6824 57.306 38.2048 57.0793 38.786C56.8525 39.3671 56.8651 39.9825 57.1155 40.5587C58.5418 42.4816 60.4075 44.2217 62.6359 45.7074C64.6536 47.3258 67.0329 48.695 69.6774 49.7596Z" fill="#FEAC00"/>
</g>
<path d="M2.352 2.264V7.256H17.664V2.264H2.352ZM1.248 17.72V22.808H19.488V17.72H1.248ZM8.4 20.504V39.032C8.4 39.608 8.208 39.752 7.536 39.752C6.864 39.752 4.608 39.752 2.544 39.704C3.312 41.24 4.08 43.592 4.272 45.224C7.536 45.224 9.936 45.128 11.664 44.216C13.488 43.352 13.92 41.816 13.92 39.176V20.504H8.4ZM15.936 2.264V3.32C14.736 5.864 12.048 9.704 9.648 11.96C10.608 12.776 12.096 14.36 12.864 15.368C15.936 12.632 19.344 8.264 21.696 4.472L18.192 1.976L17.136 2.264H15.936ZM17.808 17.72V18.392C17.136 21.896 16.032 26.216 15.168 28.808L19.44 29.768C20.496 26.888 21.84 22.376 22.848 18.344L19.296 17.528L18.528 17.72H17.808ZM3.216 12.68C7.2 14.648 12.144 17.816 14.448 20.216L17.568 15.944C15.12 13.64 10.032 10.712 6.096 8.888L3.216 12.68ZM21.456 2.12V6.968H46.032V2.12H21.456ZM28.368 21.368H39.072V24.44H28.368V21.368ZM28.368 28.376H39.072V31.448H28.368V28.376ZM28.368 14.408H39.072V17.432H28.368V14.408ZM23.088 10.184V35.672H44.592V10.184H23.088ZM30.816 4.76C30.672 7.112 30.144 10.376 29.664 12.68L34.656 13.592C35.472 11.528 36.48 8.504 37.392 5.48L30.816 4.76ZM27.792 35.72C25.68 37.784 21.456 40.376 17.712 41.72C18.96 42.68 20.64 44.408 21.552 45.464C25.296 44.024 29.856 41.336 32.496 38.792L27.792 35.72ZM34.752 38.936C37.488 40.856 41.04 43.688 42.72 45.464L47.232 42.248C45.36 40.424 41.712 37.784 39.024 36.056L34.752 38.936ZM71.664 21.992C74.112 25.448 76.656 30.104 77.52 33.08L82.56 30.488C81.504 27.416 78.768 22.952 76.272 19.64L71.664 21.992ZM73.248 8.408V13.832H90.48V8.408H73.248ZM88.032 8.408V9.56C87.456 29.096 86.784 37.208 85.2 38.84C84.672 39.512 84.096 39.656 83.136 39.656C81.888 39.656 79.104 39.656 76.08 39.416C77.136 41.048 77.904 43.544 78 45.176C80.832 45.32 83.76 45.32 85.536 45.08C87.552 44.744 88.848 44.216 90.192 42.392C92.208 39.848 92.832 32.216 93.552 11.048C93.6 10.328 93.6 8.408 93.6 8.408H88.032ZM73.536 0.199999C71.952 6.488 69.024 12.776 65.376 16.568C66.816 17.384 69.36 19.112 70.512 20.072C74.16 15.704 77.472 8.648 79.488 1.496L73.536 0.199999ZM56.64 0.295998C55.536 3.656 53.472 8.264 51.744 11.144L55.632 12.728C57.504 10.088 59.76 5.816 61.728 2.072L56.64 0.295998ZM62.4 5.96C59.856 11.096 55.488 18.152 51.792 22.472L55.296 24.248C58.992 20.168 63.696 13.496 67.248 7.976L62.4 5.96ZM49.248 11.672C51.696 13.976 54.624 17.288 55.824 19.592L58.752 15.08C57.504 12.968 54.528 9.896 51.936 7.688L49.248 11.672ZM61.2 17.528C63.024 20.84 64.8 25.208 65.376 27.944L69.744 25.928C69.12 23.144 67.2 18.968 65.28 15.752L61.2 17.528ZM49.2 21.416L49.68 26.408C54.432 26.12 60.672 25.688 66.72 25.208V20.648C60.288 20.984 53.664 21.272 49.2 21.416ZM62.064 29.576C63.216 32.504 64.464 36.392 64.896 38.888L69.408 37.256C68.832 34.808 67.536 31.064 66.288 28.184L62.064 29.576ZM51.264 28.472C50.88 32.552 50.112 36.824 48.72 39.656C49.92 40.136 52.08 41.144 53.088 41.768C54.48 38.696 55.536 33.896 56.016 29.288L51.264 28.472ZM56.832 23.96V45.368H61.968V23.96H56.832ZM118.8 26.744V30.44H135.216V26.744H118.8ZM112.512 2.744V6.872H141.024V2.744H112.512ZM113.808 8.696V12.536H139.728V8.696H113.808ZM110.976 14.504V18.632H142.56V14.504H110.976ZM118.8 32.696V36.536H135.264V32.696H118.8ZM115.104 20.408V45.272H120.432V24.632H135.648V20.408H115.104ZM133.536 20.408V39.512C133.536 40.088 133.296 40.28 132.672 40.28C132.048 40.328 129.744 40.328 127.776 40.232C128.448 41.576 129.168 43.688 129.36 45.128C132.672 45.128 135.072 45.08 136.8 44.312C138.576 43.544 139.008 42.152 139.008 39.608V20.408H133.536ZM123.6 0.247998V16.808H129.312V0.247998H123.6ZM99.792 4.712C102.816 6.056 106.608 8.264 108.336 9.944L111.696 5.24C109.728 3.608 105.888 1.64 102.912 0.487998L99.792 4.712ZM97.296 17.768C100.368 19.064 104.208 21.176 106.032 22.808L109.344 18.008C107.376 16.424 103.392 14.504 100.416 13.448L97.296 17.768ZM98.688 41.048L103.728 44.696C106.416 39.944 109.296 34.376 111.696 29.288L107.28 25.688C104.592 31.304 101.136 37.4 98.688 41.048ZM147.168 4.856C149.808 6.104 153.12 8.216 154.656 9.752L158.064 5.144C156.384 3.656 153.024 1.784 150.384 0.679998L147.168 4.856ZM145.296 17.672C147.984 18.872 151.296 20.84 152.832 22.328L156.192 17.672C154.56 16.184 151.152 14.456 148.464 13.448L145.296 17.672ZM177.744 38.312C180.72 40.136 184.464 42.92 186.288 44.744L190.464 41.768C188.496 39.896 184.656 37.352 181.68 35.624L177.744 38.312ZM179.184 28.568C182.112 30.92 185.568 34.376 187.152 36.68L191.088 33.992C189.408 31.688 185.808 28.424 182.88 26.216L179.184 28.568ZM146.112 41.864L151.344 44.792C153.312 40.088 155.376 34.52 157.056 29.384L152.4 26.408C150.48 32.024 147.984 38.12 146.112 41.864ZM163.248 0.199999V17.48H168.336V0.199999H163.248ZM170.688 32.312V45.272H176.304V32.312H170.688ZM158.256 3.176V7.112H173.04V3.176H158.256ZM158.832 9.272V12.968H172.56V9.272H158.832ZM174 2.504V7.016H186.96V2.504H174ZM157.152 16.184L157.872 20.696C162.24 20.168 167.856 19.448 173.232 18.68L173.088 14.504C167.232 15.176 161.28 15.8 157.152 16.184ZM157.536 30.824L157.872 35.528C165.312 35.336 176.208 34.952 186.432 34.52L186.672 30.152C176.16 30.44 164.832 30.728 157.536 30.824ZM184.8 2.504V3.224C184.608 12.2 184.32 15.368 183.792 16.136C183.456 16.568 183.12 16.664 182.592 16.664C181.968 16.664 180.816 16.616 179.472 16.52C180.144 17.72 180.624 19.592 180.72 21.032C182.448 21.08 184.128 21.032 185.136 20.84C186.288 20.696 187.2 20.312 187.968 19.256C189.024 17.912 189.312 14.072 189.552 4.376C189.6 3.752 189.6 2.504 189.6 2.504H184.8ZM169.68 18.632C168.288 20.552 165.888 23.192 164.016 24.872L167.616 26.936C169.536 25.496 172.08 23.288 174.432 21.08L169.68 18.632ZM178.464 20.984C174.96 24.536 169.104 29 164.448 31.736L168.336 33.992C172.896 31.352 178.752 27.224 183.36 23.288L178.464 20.984ZM159.888 25.448C163.248 26.936 167.376 29.528 169.584 31.448L172.944 27.56C170.688 25.784 166.608 23.384 163.152 21.992L159.888 25.448ZM164.016 36.2C162.192 38.168 159.024 40.28 156 41.624C157.296 42.392 159.36 44.072 160.368 45.08C163.344 43.4 166.944 40.616 169.2 37.976L164.016 36.2ZM176.928 4.664C176.88 10.952 175.728 15.656 171.792 18.488C172.944 19.16 175.104 20.744 175.92 21.608C180.048 17.96 181.632 12.488 181.92 4.76L176.928 4.664ZM198.624 1.928V7.256H209.424V1.928H198.624ZM198.624 12.824V18.152H209.616V12.824H198.624ZM217.344 18.68V23.912H234.192V18.68H217.344ZM198.576 23.96V29.384H209.424V23.96H198.576ZM196.368 1.928V19.4C196.368 26.456 196.128 36.152 193.104 42.776C194.448 43.256 196.752 44.552 197.76 45.416C201.072 38.264 201.552 27.128 201.552 19.4V1.928H196.368ZM206.208 1.928V38.984C206.208 39.608 205.968 39.8 205.392 39.8C204.816 39.848 203.04 39.848 201.312 39.8C202.032 41.24 202.704 43.832 202.848 45.32C205.968 45.32 208.032 45.224 209.568 44.264C211.104 43.304 211.536 41.672 211.536 39.08V1.928H206.208ZM230.88 1.976V11.192C230.88 11.768 230.64 11.912 229.872 11.912C229.104 11.96 226.224 11.96 223.824 11.864C224.544 13.208 225.312 15.176 225.552 16.664C229.2 16.664 231.936 16.664 233.856 15.944C235.872 15.176 236.4 13.784 236.4 11.288V1.976H230.88ZM232.608 18.68V19.64C230.976 29.336 225.984 37.448 219.216 41.048C220.368 42.008 221.856 43.976 222.528 45.272C230.4 40.52 235.776 32.12 237.888 19.64L234.48 18.536L233.568 18.68H232.608ZM224.256 22.232L219.792 23.384C222.768 33.128 227.904 41.192 235.632 45.32C236.448 43.976 238.032 41.96 239.232 40.904C231.984 37.544 226.8 30.392 224.256 22.232ZM214.224 1.976V45.32H219.648V7.304H232.224V1.976H214.224ZM242.544 2.408V7.256H258.288V2.408H242.544ZM261.744 27.128V31.928H281.28V27.128H261.744ZM241.872 17.096V22.136H259.728V17.096H241.872ZM249.696 19.16V39.032C249.696 39.56 249.504 39.704 248.928 39.752C248.352 39.752 246.384 39.752 244.608 39.656C245.328 41.192 246.096 43.592 246.24 45.128C249.264 45.128 251.424 45.032 253.056 44.168C254.736 43.256 255.168 41.72 255.168 39.128V19.16H249.696ZM279.408 27.128V27.896C278.832 35.24 278.112 38.264 277.248 39.08C276.816 39.56 276.384 39.608 275.664 39.608C274.896 39.608 273.312 39.56 271.584 39.416C272.448 40.856 273.024 43.112 273.12 44.696C275.328 44.792 277.344 44.744 278.544 44.6C279.936 44.408 280.992 44.024 282.048 42.872C283.44 41.384 284.256 37.64 285.072 29.336C285.168 28.568 285.216 27.128 285.216 27.128H279.408ZM269.232 22.856C268.56 30.68 267.408 37.256 257.472 40.904C258.672 41.96 260.16 43.976 260.784 45.368C272.16 40.856 274.176 32.696 274.944 22.856H269.232ZM243.648 12.44C247.632 14.024 252.816 16.76 255.264 18.68L259.152 14.552C256.416 12.632 251.136 10.136 247.248 8.744L243.648 12.44ZM258.336 17.096V17.912C257.904 21.512 257.04 25.976 256.176 28.76L260.016 30.584C261.312 27.32 262.56 22.376 263.328 18.008L259.872 16.856L259.104 17.096H258.336ZM277.584 7.448C275.376 14.312 268.992 18.008 260.16 19.784C261.312 20.936 263.088 23.288 263.76 24.584C273.168 21.896 280.32 17.288 283.584 8.36L277.584 7.448ZM267.984 0.199999C266.064 4.664 262.512 9.032 258.768 11.768C260.112 12.488 262.368 14.072 263.472 14.984C267.072 11.864 270.96 6.872 273.36 1.688L267.984 0.199999ZM268.656 8.696L263.856 10.232C267.888 17.384 274.56 22.376 283.44 24.632C284.208 23.144 285.84 20.888 287.088 19.736C278.688 18.152 271.968 14.168 268.656 8.696ZM249.168 18.824C247.68 23.624 244.56 29.048 241.056 32.024C241.968 33.56 243.216 35.96 243.744 37.592C247.824 33.896 251.04 26.648 252.864 20.264L249.168 18.824ZM267.84 5.096L265.536 9.848H285.792V5.096H267.84ZM256.896 2.408V3.416C255.6 5.864 252.528 9.416 249.552 11.528C250.656 12.2 252.288 13.4 253.296 14.264C256.752 11.864 260.544 8.024 262.704 4.52L259.008 2.216L258.144 2.408H256.896Z" fill="#0E2E3D"/>
</svg>
