<svg width="30" height="30" viewBox="0 0 30 30" fill="none" xmlns="http://www.w3.org/2000/svg">
<path d="M20.0617 1C17.5017 1.29 16.1117 4.05 15.9317 6.5C15.6317 8.63 16.5617 11.35 18.8017 11.84C20.7417 12.01 22.2817 10.19 22.9217 8.45C23.6717 6.28 23.6917 3.37 21.8717 1.74C21.3815 1.27667 20.7361 1.01281 20.0617 1V1Z" stroke="#040000" stroke-miterlimit="10"/>
<path d="M9.79196 1.11001C7.69196 1.27001 6.62196 3.70001 6.79196 5.66001C6.79196 8.27001 8.25196 11.21 10.862 11.83C12.812 12.04 14.122 9.97001 14.242 8.16001C14.492 5.39001 13.242 2.03001 10.482 1.16001C10.2554 1.11145 10.0232 1.09462 9.79196 1.11001V1.11001Z" stroke="#040000" stroke-miterlimit="10"/>
<path d="M26.6215 9.5C23.8115 9.7 22.0315 12.7 21.9115 15.4C21.7615 17.17 22.9115 19.4 24.8215 19.26C27.6915 18.96 29.4215 15.76 29.3415 12.99C29.3315 11.4 28.3115 9.57 26.6215 9.5Z" stroke="#040000" stroke-miterlimit="10"/>
<path d="M1.02172 13.1601C0.761725 16.1601 2.86172 19.5501 5.91172 19.7401C7.76172 19.6201 8.63172 17.4701 8.42172 15.7401C8.25172 13.2401 6.57172 10.6701 4.42172 10.3301C4.00402 10.2298 3.56869 10.2285 3.15038 10.3262C2.73207 10.4238 2.34233 10.6178 2.01217 10.8926C1.68202 11.1674 1.42056 11.5155 1.24862 11.9091C1.07667 12.3028 0.998978 12.7311 1.02172 13.1601V13.1601Z" stroke="#040000" stroke-miterlimit="10"/>
<path d="M15.502 15.7195C14.073 15.7863 12.6867 16.2281 11.4826 17.0005C10.2784 17.7728 9.29872 18.8486 8.64203 20.1195C7.38267 22.0026 6.59074 24.159 6.33203 26.4095C6.34189 26.8252 6.4398 27.234 6.6193 27.609C6.79879 27.9841 7.05579 28.3168 7.37333 28.5852C7.69087 28.8536 8.06173 29.0516 8.46142 29.1661C8.86111 29.2806 9.28054 29.309 9.69203 29.2495C12.072 28.9495 14.192 27.2995 16.692 27.5995C18.752 27.7695 20.442 29.3595 22.512 29.3395C24.582 29.3195 25.692 27.1095 24.922 25.3395C24.0042 22.8018 22.5938 20.4704 20.772 18.4795C19.362 16.9395 17.572 15.6495 15.502 15.7195Z" stroke="#040000" stroke-miterlimit="10"/>
</svg>
