<svg width="17" height="29" viewBox="0 0 17 29" fill="none" xmlns="http://www.w3.org/2000/svg">
<path d="M12.5476 23.0958H9.9976C9.9276 23.0958 9.8976 23.0958 9.8976 23.1958C9.8976 23.2958 9.8976 23.2958 9.8976 23.3558V28.1158C9.8976 28.3658 9.8976 28.3658 9.6676 28.3658H6.8176C6.5776 28.3658 6.5776 28.3658 6.5776 28.1158V23.3458C6.5776 23.0658 6.5776 23.0958 6.3176 23.0958H1.5676C1.3176 23.0958 1.3176 23.0958 1.3176 22.8358V20.0158C1.3176 19.7858 1.3176 19.7858 1.5476 19.7858H6.3476C6.5776 19.7858 6.5776 19.7858 6.5776 19.5558V16.4858C6.5776 16.3158 6.5776 16.3058 6.4176 16.2758C5.21846 15.9978 4.09595 15.4571 3.13103 14.6927C2.1661 13.9284 1.3828 12.9595 0.837604 11.8558C0.41546 11.0101 0.147917 10.0957 0.0476037 9.15583C-0.132113 7.51566 0.199708 5.86005 0.997604 4.41583C1.9285 2.62609 3.48865 1.24404 5.3776 0.535825C6.01944 0.287792 6.69247 0.129629 7.3776 0.0658252C7.915 0.000470363 8.4572 -0.0162641 8.9976 0.0158252C9.82673 0.0859617 10.6398 0.285022 11.4076 0.605825C13.1011 1.32249 14.5082 2.58188 15.4076 4.18583C16.0357 5.28465 16.3988 6.51479 16.4683 7.77854C16.5377 9.04228 16.3115 10.3048 15.8076 11.4658C15.3488 12.5401 14.6671 13.5047 13.8076 14.2958C12.7631 15.2644 11.4901 15.9525 10.1076 16.2958C9.9476 16.2958 9.9476 16.2958 9.9476 16.4958C9.9476 16.6958 9.9476 16.8858 9.9476 17.0858V19.5558C9.9476 19.6058 9.9476 19.6458 9.9476 19.6958C9.94595 19.708 9.94714 19.7205 9.95108 19.7321C9.95502 19.7438 9.9616 19.7544 9.97031 19.7631C9.97902 19.7718 9.98963 19.7784 10.0013 19.7823C10.013 19.7863 10.0254 19.7875 10.0376 19.7858H14.9976C15.2376 19.7858 15.2376 19.7858 15.2376 20.0258V22.8858C15.2376 23.1158 15.2376 23.1158 15.0076 23.1158L12.5476 23.0958ZM9.2176 25.0158V22.6558C9.2176 22.3858 9.2176 22.3958 9.4676 22.3958H14.3576C14.4376 22.3958 14.4776 22.3958 14.4776 22.2858V20.7258C14.4776 20.4658 14.4776 20.4658 14.2176 20.4658H9.4776C9.2176 20.4658 9.2176 20.4658 9.2176 20.2158V15.8458C9.2176 15.7658 9.2176 15.7358 9.3276 15.7158H9.5676C11.3243 15.4078 12.9132 14.4821 14.0476 13.1058C14.6793 12.3655 15.1569 11.5066 15.4522 10.5793C15.7476 9.65201 15.8548 8.67509 15.7676 7.70583C15.725 7.05023 15.5904 6.40388 15.3676 5.78583C14.831 4.2446 13.8057 2.92082 12.4476 2.01583C11.428 1.29903 10.2386 0.86122 8.9976 0.745825C7.50596 0.599188 6.00453 0.901637 4.686 1.61436C3.36747 2.32708 2.29199 3.41755 1.5976 4.74583C0.965445 5.89888 0.657859 7.20179 0.707604 8.51583C0.716593 9.02122 0.780298 9.52415 0.897604 10.0158C1.25824 11.5774 2.11414 12.9806 3.3376 14.0158C4.39463 14.9301 5.68692 15.5294 7.0676 15.7458C7.2776 15.7458 7.2876 15.7458 7.2876 16.0058V20.2258C7.2876 20.5158 7.2876 20.5158 7.0076 20.5158H2.0976C2.0476 20.5158 2.0176 20.5158 2.0176 20.6058C2.0176 20.6958 2.0176 20.6858 2.0176 20.7258V22.2058C2.0176 22.4558 2.0176 22.4458 2.2576 22.4458H6.9976C7.2776 22.4458 7.2876 22.4458 7.2876 22.7258V27.5258C7.2876 27.7158 7.2876 27.7158 7.4776 27.7158H9.1276C9.13981 27.7175 9.15224 27.7163 9.16391 27.7123C9.17558 27.7084 9.18618 27.7018 9.19489 27.6931C9.2036 27.6844 9.21019 27.6738 9.21412 27.6621C9.21806 27.6505 9.21925 27.638 9.2176 27.6258V25.0158Z" fill="black"/>
<path d="M8.2477 13.8655C7.13814 13.8655 6.05351 13.5365 5.13095 12.9201C4.20839 12.3036 3.48934 11.4275 3.06473 10.4024C2.64013 9.37727 2.52903 8.24929 2.74549 7.16105C2.96196 6.07282 3.49626 5.07321 4.28083 4.28864C5.0654 3.50407 6.06501 2.96977 7.15324 2.7533C8.24147 2.53684 9.36946 2.64794 10.3946 3.07255C11.4196 3.49715 12.2958 4.2162 12.9122 5.13876C13.5287 6.06132 13.8577 7.14596 13.8577 8.25551C13.8644 8.99408 13.7238 9.72658 13.4443 10.4102C13.1647 11.0939 12.7517 11.715 12.2294 12.2373C11.7072 12.7595 11.0861 13.1725 10.4024 13.4521C9.71877 13.7316 8.98627 13.8722 8.2477 13.8655ZM8.2477 13.1755C9.22036 13.1755 10.1712 12.8872 10.9801 12.347C11.7889 11.8069 12.4195 11.039 12.7922 10.1406C13.1649 9.24219 13.2629 8.25345 13.0739 7.29934C12.8848 6.34523 12.4173 5.46855 11.7302 4.78008C11.0431 4.09161 10.1674 3.62224 9.21366 3.43127C8.25993 3.2403 7.271 3.33631 6.37181 3.70716C5.47263 4.07801 4.70354 4.70706 4.16172 5.51483C3.61991 6.32261 3.32967 7.27285 3.3277 8.24551C3.3224 8.89272 3.44563 9.53454 3.69026 10.1338C3.93488 10.733 4.29603 11.2777 4.75276 11.7363C5.20949 12.1949 5.75272 12.5582 6.35094 12.8053C6.94916 13.0523 7.59047 13.1782 8.2377 13.1755H8.2477Z" fill="black"/>
</svg>
