<svg width="23" height="26" viewBox="0 0 23 26" fill="none" xmlns="http://www.w3.org/2000/svg">
<path fill-rule="evenodd" clip-rule="evenodd" d="M10.7098 1C10.4605 1 10.2214 1.09904 10.0451 1.27532C9.86881 1.4516 9.76977 1.6907 9.76977 1.94V6.94V16.01C8.84506 15.2223 7.67862 14.7748 6.46435 14.7418C5.25007 14.7089 4.06108 15.0925 3.095 15.8288C2.12892 16.5652 1.44393 17.61 1.15388 18.7896C0.86384 19.9692 0.986208 21.2125 1.50065 22.3129C2.01509 23.4133 2.89062 24.3046 3.98173 24.8385C5.07283 25.3724 6.31378 25.5168 7.49834 25.2477C8.68289 24.9787 9.7397 24.3124 10.4931 23.3595C11.2465 22.4067 11.6512 21.2247 11.6398 20.01C11.6398 19.86 11.6398 19.72 11.6398 19.57C11.6447 19.5101 11.6447 19.4499 11.6398 19.39V7.88H18.2098C19.1221 7.88 19.9971 7.51757 20.6422 6.87245C21.2873 6.22732 21.6498 5.35234 21.6498 4.44C21.6498 3.52766 21.2873 2.65268 20.6422 2.00755C19.9971 1.36243 19.1221 1 18.2098 1H10.7098Z" stroke="#040000" stroke-miterlimit="10"/>
</svg>
