<svg width="26" height="25" viewBox="0 0 26 25" fill="none" xmlns="http://www.w3.org/2000/svg">
<path fill-rule="evenodd" clip-rule="evenodd" d="M12.7977 1C13.0453 1.00263 13.2818 1.10283 13.4559 1.27883C13.6301 1.45483 13.7277 1.69242 13.7277 1.94V4.11C15.5177 4.11 17.3077 4.23 19.0877 4.39H19.5077C20.8761 4.51565 22.1497 5.14269 23.0838 6.15057C24.0178 7.15845 24.5463 8.47603 24.5677 9.85V10.74C24.6265 14.2087 24.3485 17.675 23.7377 21.09C23.6093 21.8546 23.2126 22.5484 22.6188 23.0469C22.025 23.5454 21.273 23.8159 20.4977 23.81H20.2177C19.523 23.8126 18.8427 23.6124 18.2601 23.2341C17.6775 22.8558 17.2179 22.3157 16.9377 21.68L15.6077 18.68C15.3636 18.1262 14.9638 17.6554 14.4569 17.3249C13.95 16.9943 13.3579 16.8183 12.7527 16.8183C12.1475 16.8183 11.5554 16.9943 11.0485 17.3249C10.5416 17.6554 10.1418 18.1262 9.8977 18.68L8.5677 21.68C8.2875 22.3157 7.82793 22.8558 7.24532 23.2341C6.66271 23.6124 5.98238 23.8126 5.2877 23.81H5.0477C4.28335 23.8105 3.54314 23.5424 2.95639 23.0525C2.36965 22.5626 1.97369 21.8822 1.8377 21.13C1.22687 17.715 0.948896 14.2487 1.0077 10.78V9.89C1.02933 8.51446 1.55925 7.19558 2.49536 6.18746C3.43146 5.17935 4.70753 4.55332 6.0777 4.43H6.4977C8.2777 4.27 10.0677 4.17 11.8577 4.15V1.94C11.8577 1.81656 11.882 1.69432 11.9293 1.58028C11.9765 1.46623 12.0457 1.36261 12.133 1.27532C12.2203 1.18803 12.3239 1.11879 12.438 1.07155C12.552 1.02431 12.6743 1 12.7977 1V1ZM19.0477 8.19C19.0477 7.85848 18.916 7.54054 18.6816 7.30612C18.4472 7.0717 18.1292 6.94 17.7977 6.94C17.4662 6.94 17.1482 7.0717 16.9138 7.30612C16.6794 7.54054 16.5477 7.85848 16.5477 8.19V8.5C16.5477 8.83152 16.6794 9.14946 16.9138 9.38388C17.1482 9.6183 17.4662 9.75 17.7977 9.75C18.1292 9.75 18.4472 9.6183 18.6816 9.38388C18.916 9.14946 19.0477 8.83152 19.0477 8.5V8.19ZM7.7977 7.25C8.04527 7.25263 8.2818 7.35283 8.45593 7.52883C8.63006 7.70483 8.72772 7.94242 8.7277 8.19V9.75H10.2977C10.529 9.77395 10.7432 9.88279 10.899 10.0555C11.0547 10.2282 11.1409 10.4525 11.1409 10.685C11.1409 10.9175 11.0547 11.1418 10.899 11.3145C10.7432 11.4872 10.529 11.596 10.2977 11.62H8.7277V13.19C8.70375 13.4213 8.59491 13.6355 8.42222 13.7912C8.24953 13.947 8.02524 14.0332 7.7927 14.0332C7.56016 14.0332 7.33588 13.947 7.16319 13.7912C6.9905 13.6355 6.88166 13.4213 6.8577 13.19V11.62H5.2977C5.1668 11.6336 5.0345 11.6195 4.90938 11.5787C4.78426 11.5378 4.6691 11.4712 4.57136 11.3831C4.47363 11.2949 4.39549 11.1873 4.342 11.067C4.28852 10.9468 4.26088 10.8166 4.26088 10.685C4.26088 10.5534 4.28852 10.4232 4.342 10.303C4.39549 10.1827 4.47363 10.0751 4.57136 9.98693C4.6691 9.89879 4.78426 9.83215 4.90938 9.79134C5.0345 9.75053 5.1668 9.73644 5.2977 9.75H6.8577V8.19C6.8577 7.9407 6.95674 7.7016 7.13302 7.52532C7.30931 7.34904 7.5484 7.25 7.7977 7.25V7.25ZM17.7977 11.62C17.9627 11.62 18.1261 11.6527 18.2784 11.7161C18.4307 11.7795 18.5689 11.8725 18.6851 11.9896C18.8013 12.1068 18.8932 12.2458 18.9554 12.3986C19.0177 12.5514 19.049 12.715 19.0477 12.88V13.19C19.0477 13.5215 18.916 13.8395 18.6816 14.0739C18.4472 14.3083 18.1292 14.44 17.7977 14.44C17.4662 14.44 17.1482 14.3083 16.9138 14.0739C16.6794 13.8395 16.5477 13.5215 16.5477 13.19V12.88C16.5464 12.715 16.5777 12.5514 16.64 12.3986C16.7022 12.2458 16.7941 12.1068 16.9103 11.9896C17.0265 11.8725 17.1647 11.7795 17.317 11.7161C17.4693 11.6527 17.6327 11.62 17.7977 11.62V11.62ZM20.2977 11.94C20.6292 11.94 20.9472 11.8083 21.1816 11.5739C21.416 11.3395 21.5477 11.0215 21.5477 10.69C21.5477 10.3585 21.416 10.0405 21.1816 9.80612C20.9472 9.5717 20.6292 9.44 20.2977 9.44H19.9777C19.6462 9.44 19.3282 9.5717 19.0938 9.80612C18.8594 10.0405 18.7277 10.3585 18.7277 10.69C18.7277 11.0215 18.8594 11.3395 19.0938 11.5739C19.3282 11.8083 19.6462 11.94 19.9777 11.94H20.2977ZM16.8577 10.69C16.8577 11.0215 16.726 11.3395 16.4916 11.5739C16.2572 11.8083 15.9392 11.94 15.6077 11.94H15.2977C14.9662 11.94 14.6482 11.8083 14.4138 11.5739C14.1794 11.3395 14.0477 11.0215 14.0477 10.69C14.0477 10.3585 14.1794 10.0405 14.4138 9.80612C14.6482 9.5717 14.9662 9.44 15.2977 9.44H15.6077C15.9392 9.44 16.2572 9.5717 16.4916 9.80612C16.726 10.0405 16.8577 10.3585 16.8577 10.69V10.69Z" stroke="#040000" stroke-miterlimit="10"/>
</svg>
