<svg width="27" height="29" viewBox="0 0 27 29" fill="none" xmlns="http://www.w3.org/2000/svg">
<path d="M22.3136 7.57079C22.1047 7.08092 21.7984 6.63863 21.4134 6.27076C21.0283 5.90288 20.5725 5.61711 20.0736 5.43079C20.5036 4.97079 20.8536 4.54079 21.2636 4.16079C21.6736 3.78079 21.5936 3.46079 21.3736 2.97079C21.1856 2.55105 20.8668 2.20343 20.4648 1.97992C20.0629 1.75641 19.5994 1.66901 19.1436 1.73079C18.5953 1.62089 18.0257 1.71729 17.544 2.00148C17.0623 2.28567 16.7025 2.73767 16.5336 3.27079C16.1936 4.27079 17.3136 4.40078 17.6336 5.01079C17.7348 5.16297 17.8522 5.30379 17.9836 5.43079C15.9836 6.43079 15.1836 7.89079 15.5436 9.52079C15.6881 10.292 16.084 10.9936 16.6695 11.516C17.2549 12.0383 17.997 12.352 18.7796 12.408C19.5622 12.464 20.3414 12.2591 20.9952 11.8254C21.6491 11.3917 22.1408 10.7536 22.3936 10.0108C22.6273 9.20967 22.5993 8.35487 22.3136 7.57079ZM17.4936 3.44079C17.7436 2.58079 18.4236 2.62079 19.1236 2.69079C19.8036 2.57079 20.3636 2.69079 20.5436 3.48079C20.14 4.09321 19.616 4.61715 19.0036 5.02079C18.4169 4.58059 17.9068 4.04678 17.4936 3.44079ZM19.0036 11.5108C18.6467 11.5267 18.2903 11.4695 17.9563 11.3426C17.6224 11.2157 17.3179 11.0218 17.0616 10.7729C16.8053 10.524 16.6026 10.2253 16.466 9.89522C16.3294 9.56511 16.2617 9.21054 16.2672 8.85332C16.2726 8.49609 16.3511 8.14376 16.4977 7.81798C16.6444 7.49219 16.8561 7.19984 17.1199 6.9589C17.3837 6.71795 17.694 6.5335 18.0317 6.41689C18.3694 6.30027 18.7273 6.25396 19.0836 6.28079C19.4284 6.28074 19.7698 6.3493 20.0879 6.48245C20.406 6.61561 20.6944 6.81071 20.9364 7.0564C21.1783 7.30208 21.369 7.59344 21.4973 7.91352C21.6256 8.2336 21.6889 8.576 21.6836 8.92078C21.6679 9.61838 21.3776 10.2816 20.8758 10.7665C20.3741 11.2514 19.7013 11.5189 19.0036 11.5108Z" fill="#050303"/>
<path d="M5.00324 22.7509C4.25324 22.2809 3.81324 21.8109 3.95324 20.9109C3.96315 20.8542 3.96129 20.796 3.94778 20.74C3.93426 20.6841 3.90938 20.6315 3.87469 20.5855C3.83999 20.5396 3.79621 20.5012 3.74607 20.4729C3.69593 20.4446 3.64051 20.4269 3.58324 20.4209C3.34324 20.4209 3.07324 20.6009 3.10324 20.8009C3.30324 21.9309 2.53324 22.4209 1.81324 23.0009C1.65467 23.156 1.53148 23.3435 1.45208 23.5506C1.37269 23.7577 1.33897 23.9796 1.35324 24.2009C1.29696 24.726 1.43321 25.2537 1.73668 25.6859C2.04016 26.1182 2.49022 26.4255 3.00324 26.5509C3.46279 26.6468 3.9408 26.5973 4.37089 26.4091C4.80098 26.2209 5.1618 25.9035 5.40324 25.5009C5.67477 25.0699 5.78366 24.5562 5.71034 24.0521C5.63702 23.5481 5.38629 23.0867 5.00324 22.7509ZM3.53324 25.7009C3.35174 25.7119 3.17007 25.6822 3.00154 25.6139C2.833 25.5456 2.68186 25.4405 2.55916 25.3063C2.43646 25.1721 2.34531 25.0122 2.29238 24.8383C2.23945 24.6643 2.22608 24.4807 2.25324 24.3009C2.24772 24.1296 2.27926 23.9592 2.3457 23.8012C2.41214 23.6432 2.51192 23.5015 2.63821 23.3856C2.7645 23.2698 2.91432 23.1826 3.07743 23.13C3.24053 23.0774 3.41307 23.0606 3.58324 23.0809C3.75298 23.0793 3.92125 23.1125 4.07763 23.1785C4.234 23.2446 4.37515 23.342 4.49234 23.4648C4.60952 23.5876 4.70024 23.7332 4.75888 23.8925C4.81752 24.0518 4.84283 24.2214 4.83324 24.3909C4.8402 24.5639 4.81142 24.7366 4.74869 24.898C4.68595 25.0594 4.59061 25.2062 4.46862 25.3291C4.34663 25.452 4.20061 25.5485 4.03967 25.6125C3.87873 25.6764 3.70633 25.7065 3.53324 25.7009Z" fill="#080707"/>
<path d="M10.1735 22.6706C9.87239 22.5407 9.62382 22.3132 9.4678 22.0247C9.31179 21.7363 9.25743 21.4037 9.31347 21.0806C9.31347 20.7506 9.23347 20.4606 8.86347 20.4306C8.49347 20.4006 8.37347 20.7306 8.41347 21.0506C8.47065 21.3751 8.41564 21.7093 8.25751 21.9983C8.09937 22.2873 7.84754 22.5138 7.54347 22.6406C7.13199 22.8839 6.82482 23.2705 6.68087 23.7264C6.53692 24.1822 6.56634 24.6751 6.76347 25.1106C6.91417 25.5311 7.18305 25.8992 7.53783 26.1706C7.89261 26.442 8.31819 26.6052 8.76347 26.6406C9.21987 26.6316 9.66328 26.4871 10.0372 26.2253C10.4112 25.9635 10.6988 25.5964 10.8635 25.1706C11.0642 24.7399 11.105 24.2517 10.9786 23.7936C10.8522 23.3355 10.5667 22.9374 10.1735 22.6706ZM8.87347 25.7406C8.69448 25.7393 8.51752 25.7025 8.35291 25.6322C8.1883 25.5619 8.03931 25.4595 7.91461 25.3311C7.78991 25.2027 7.692 25.0507 7.62657 24.8841C7.56113 24.7175 7.52949 24.5396 7.53347 24.3606C7.5234 24.1907 7.54928 24.0207 7.6094 23.8615C7.66953 23.7023 7.76255 23.5576 7.8824 23.4368C8.00226 23.316 8.14624 23.2218 8.30495 23.1605C8.46366 23.0991 8.63353 23.0719 8.80347 23.0806C8.97395 23.0639 9.14604 23.083 9.30872 23.1366C9.4714 23.1903 9.62108 23.2773 9.74817 23.3922C9.87526 23.507 9.97696 23.6472 10.0468 23.8036C10.1165 23.96 10.1529 24.1293 10.1535 24.3006C10.2035 25.1106 9.67347 25.5806 8.87347 25.7406Z" fill="#080707"/>
<path d="M4.33342 14.391C3.07342 14.121 2.78342 15.211 2.05342 15.691C1.05342 16.351 1.39342 17.261 1.63342 18.101C1.87342 18.941 2.63342 18.511 3.17342 18.581C3.73547 18.6276 4.2996 18.6443 4.86342 18.631C5.43342 18.631 5.69342 18.381 5.67342 17.811C5.67342 17.471 5.67342 17.131 5.67342 16.811C5.65343 16.5514 5.65343 16.2906 5.67342 16.031C5.80342 15.021 5.33342 14.601 4.33342 14.391ZM3.93342 17.741C3.36342 17.631 2.48342 18.181 2.32342 17.091C2.24342 16.551 3.50342 15.311 4.07342 15.321C4.64342 15.331 4.75342 15.451 4.76342 16.531C4.72342 17.101 5.00342 17.951 3.93342 17.741Z" fill="#070707"/>
<path d="M25.8634 18.2606C23.5171 15.7331 20.4031 14.0495 17.0034 13.4706C16.16 13.3195 15.3902 12.8941 14.8134 12.2606C12.9034 10.4006 11.2134 8.26063 8.97335 6.79063C8.67335 6.59063 8.30335 6.24063 7.97335 6.65063C7.64335 7.06063 8.11335 7.32063 8.40335 7.52063C9.35285 8.05782 10.1589 8.81588 10.7534 9.73063C9.06335 9.28063 7.29335 9.02063 6.23335 7.30063C8.24335 5.02063 8.50335 2.76063 6.94335 0.680631C6.70335 0.370631 6.48335 -0.319369 5.94335 0.170631C5.40335 0.660631 6.01335 0.900631 6.22335 1.17063C6.78016 1.89407 7.06774 2.78879 7.03671 3.70118C7.00569 4.61356 6.65801 5.48668 6.05335 6.17063C5.86335 6.37063 5.66335 6.77063 5.33335 6.45063C4.63178 5.89171 4.03284 5.21494 3.56335 4.45063C4.32335 4.45063 4.56335 4.95063 5.02335 5.13063C5.48335 5.31063 5.82335 5.35063 5.73335 4.82063C5.58335 4.03063 4.73335 3.91063 4.18335 3.46063C3.63335 3.01063 3.50335 3.46063 3.18335 3.71063C1.26335 5.43063 1.26335 5.43063 2.71335 7.52063C2.82603 7.71641 2.95305 7.90359 3.09335 8.08063C3.57335 8.55063 3.39335 8.88063 2.96335 9.27063C2.08335 10.0906 1.24335 10.9606 0.393351 11.8206C0.123351 12.0906 -0.216649 12.4206 0.183351 12.7706C0.583351 13.1206 0.793351 12.6906 1.02335 12.4606L4.02335 9.36063C5.30325 11.4358 6.87615 13.3152 8.69335 14.9406C9.11491 15.3768 9.65209 15.6837 10.2419 15.8254C10.8317 15.9671 11.4497 15.9377 12.0234 15.7406C12.2411 15.6513 12.4773 15.6163 12.7117 15.6387C12.946 15.6611 13.1713 15.7402 13.3682 15.8692C13.5651 15.9981 13.7276 16.1731 13.8418 16.3789C13.9559 16.5848 14.0182 16.8153 14.0234 17.0506C14.2189 19.1251 14.897 21.125 16.0034 22.8906C16.704 24.0092 17.5441 25.034 18.5034 25.9406C18.5961 26.009 18.6729 26.0967 18.7286 26.1975C18.7843 26.2984 18.8175 26.4101 18.8261 26.525C18.8346 26.6399 18.8183 26.7553 18.7781 26.8632C18.7379 26.9712 18.6749 27.0693 18.5934 27.1506C18.5126 27.2438 18.4128 27.3186 18.3006 27.3698C18.1885 27.421 18.0666 27.4475 17.9434 27.4475C17.8201 27.4475 17.6982 27.421 17.5861 27.3698C17.4739 27.3186 17.3741 27.2438 17.2934 27.1506C16.7937 26.6896 16.3259 26.1951 15.8934 25.6706C14.0006 23.4553 12.8008 20.7324 12.4434 17.8406C12.3934 17.5106 12.4434 16.9906 11.9034 17.0206C11.5334 17.0206 11.5034 17.3906 11.5434 17.7206C11.9131 21.6614 13.7773 25.3111 16.7534 27.9206C16.996 28.1331 17.2923 28.2749 17.6101 28.3304C17.9278 28.3859 18.2547 28.3531 18.555 28.2354C18.8553 28.1178 19.1175 27.9199 19.313 27.6633C19.5084 27.4067 19.6296 27.1014 19.6634 26.7806C19.6863 26.4409 19.6221 26.1009 19.4768 25.7929C19.3316 25.4849 19.1101 25.2191 18.8334 25.0206C17.0369 23.3389 15.7834 21.1591 15.2334 18.7606C14.7334 16.5906 14.8234 16.5406 17.0434 17.0806C19.497 17.703 21.7213 19.0146 23.4534 20.8606C23.6085 21.052 23.8027 21.208 24.023 21.3182C24.2433 21.4285 24.4845 21.4904 24.7307 21.4998C24.9768 21.5093 25.2222 21.4661 25.4503 21.3731C25.6784 21.2801 25.884 21.1395 26.0534 20.9606C26.2251 20.7742 26.357 20.5547 26.4408 20.3155C26.5247 20.0763 26.5587 19.8225 26.541 19.5696C26.5232 19.3168 26.4539 19.0702 26.3374 18.8451C26.2208 18.62 26.0595 18.4211 25.8634 18.2606ZM7.91335 12.7506C6.94047 11.975 6.11992 11.0256 5.49335 9.95063C4.58335 8.67063 3.69335 7.37063 2.80335 6.07063C2.69335 5.91063 2.44335 5.73063 2.71335 5.50063C2.98335 5.27063 3.05335 5.50063 3.17335 5.64063C4.55392 6.79836 5.8046 8.10268 6.90335 9.53063C7.6431 10.4333 8.00502 11.5872 7.91335 12.7506ZM8.55335 10.8506C8.4279 10.8336 8.31297 10.7714 8.23012 10.6756C8.14727 10.5799 8.1022 10.4572 8.10335 10.3306C8.0939 10.2652 8.10165 10.1985 8.12585 10.1371C8.15005 10.0756 8.18986 10.0215 8.24135 9.98009C8.29284 9.9387 8.35423 9.91144 8.41946 9.90102C8.4847 9.89059 8.55153 9.89735 8.61335 9.92063C8.82335 9.92063 9.09335 10.1006 9.01335 10.3406C8.93335 10.5806 8.69335 10.7006 8.55335 10.8506ZM11.0034 15.0206C10.5574 15.0325 10.1182 14.9103 9.74239 14.6699C9.36661 14.4295 9.07157 14.0819 8.8954 13.6721C8.71923 13.2622 8.67002 12.809 8.75415 12.3709C8.83827 11.9328 9.05185 11.53 9.36729 11.2146C9.68273 10.8991 10.0855 10.6855 10.5236 10.6014C10.9617 10.5173 11.415 10.5665 11.8248 10.7427C12.2346 10.9188 12.5822 11.2139 12.8226 11.5897C13.063 11.9654 13.1852 12.4047 13.1734 12.8506C13.1534 13.4198 12.9184 13.9603 12.5157 14.363C12.113 14.7657 11.5725 15.0007 11.0034 15.0206ZM25.3134 20.3206C24.7634 20.8006 24.3134 20.4706 23.8634 20.0206C21.6809 17.6995 18.7407 16.2348 15.5734 15.8906C13.9134 15.7006 13.5734 15.1006 14.0234 13.5006C14.0734 13.3306 14.0834 13.1406 14.1734 12.6006C14.9034 14.0906 16.0534 14.1706 17.1734 14.3906C20.2514 14.9875 23.0561 16.5581 25.1734 18.8706C25.6534 19.3706 25.8734 19.8706 25.3334 20.3506L25.3134 20.3206Z" fill="#040000"/>
<path d="M11.0736 11.5207C10.8936 11.4941 10.7099 11.5088 10.5364 11.5637C10.363 11.6185 10.2042 11.7121 10.0722 11.8373C9.94026 11.9626 9.83849 12.1162 9.77462 12.2865C9.71075 12.4569 9.68645 12.6396 9.70356 12.8207C9.68737 12.9973 9.70956 13.1753 9.7686 13.3425C9.82764 13.5097 9.92213 13.6622 10.0456 13.7895C10.1691 13.9167 10.3186 14.0158 10.484 14.0799C10.6493 14.144 10.8266 14.1715 11.0036 14.1607C11.1759 14.1639 11.3471 14.1312 11.5061 14.0646C11.6651 13.9979 11.8085 13.8989 11.927 13.7737C12.0456 13.6486 12.1368 13.5001 12.1947 13.3377C12.2527 13.1753 12.2761 13.0026 12.2636 12.8307C12.2788 12.6649 12.2594 12.4978 12.2066 12.34C12.1538 12.1821 12.0688 12.037 11.9569 11.9138C11.8449 11.7906 11.7086 11.692 11.5566 11.6244C11.4045 11.5567 11.24 11.5214 11.0736 11.5207ZM11.0036 13.2407C10.7436 13.2407 10.6236 13.0507 10.6236 12.8007C10.6236 12.5507 10.6936 12.4307 10.9236 12.4107C10.9782 12.397 11.0353 12.3959 11.0904 12.4076C11.1455 12.4193 11.1972 12.4435 11.2416 12.4782C11.286 12.5129 11.3218 12.5573 11.3464 12.608C11.371 12.6587 11.3837 12.7143 11.3836 12.7707C11.392 12.8269 11.3886 12.8842 11.3737 12.9391C11.3588 12.9939 11.3327 13.0451 11.2969 13.0893C11.2612 13.1335 11.2167 13.1697 11.1662 13.1958C11.1157 13.2219 11.0603 13.2372 11.0036 13.2407Z" fill="#0C0C0C"/>
</svg>
