<svg width="23" height="29" viewBox="0 0 23 29" fill="none" xmlns="http://www.w3.org/2000/svg">
<g clip-path="url(#clip0_2791_26258)">
<path d="M10.3701 8.52984H11.0001C11.1248 8.52984 11.2443 8.48033 11.3325 8.39218C11.4206 8.30404 11.4701 8.1845 11.4701 8.05984C11.4701 7.93519 11.4206 7.81565 11.3325 7.7275C11.2443 7.63936 11.1248 7.58984 11.0001 7.58984H10.3401C10.2155 7.58984 10.0959 7.63936 10.0078 7.7275C9.91964 7.81565 9.87012 7.93519 9.87012 8.05984C9.87012 8.1845 9.91964 8.30404 10.0078 8.39218C10.0959 8.48033 10.2155 8.52984 10.3401 8.52984H10.3701Z" fill="#040000"/>
<path d="M8.32 8.79004V9.67004C8.32 9.79469 8.36952 9.91424 8.45766 10.0024C8.5458 10.0905 8.66535 10.14 8.79 10.14C8.91465 10.14 9.0342 10.0905 9.12234 10.0024C9.21048 9.91424 9.26 9.79469 9.26 9.67004V8.79004C9.26 8.52482 9.15464 8.27047 8.96711 8.08293C8.77957 7.8954 8.52522 7.79004 8.26 7.79004H8V8.73004H8.25C8.25867 8.72857 8.26756 8.72903 8.27604 8.73138C8.28452 8.73373 8.29237 8.73792 8.29905 8.74364C8.30573 8.74937 8.31107 8.75649 8.31469 8.76451C8.31831 8.77253 8.32012 8.78124 8.32 8.79004Z" fill="#040000"/>
<path d="M22.29 0H0.47C0.345348 0 0.225802 0.0495177 0.13766 0.13766C0.0495177 0.225802 0 0.345348 0 0.47L0 27.88C0 28.0047 0.0495177 28.1242 0.13766 28.2123C0.225802 28.3005 0.345348 28.35 0.47 28.35H22.29C22.4147 28.35 22.5342 28.3005 22.6223 28.2123C22.7105 28.1242 22.76 28.0047 22.76 27.88V0.47C22.76 0.345348 22.7105 0.225802 22.6223 0.13766C22.5342 0.0495177 22.4147 0 22.29 0V0ZM21.16 0.94L20 2.1H2.76L1.6 0.94H21.16ZM15.73 14.05C15.5742 14.05 15.4199 14.0192 15.2761 13.9592C15.1323 13.8993 15.0018 13.8115 14.8921 13.7009C14.7824 13.5902 14.6956 13.459 14.6369 13.3146C14.5782 13.1703 14.5487 13.0158 14.55 12.86V12.33C15.4231 12.3388 16.2848 12.5295 17.08 12.89C17.9136 13.2715 18.8139 13.4855 19.73 13.52V25.31H17C17.5403 24.7405 17.841 23.985 17.84 23.2V16.2C17.844 15.9199 17.7924 15.6418 17.6883 15.3818C17.5841 15.1218 17.4295 14.885 17.2333 14.6851C17.0371 14.4851 16.8032 14.3261 16.5452 14.2171C16.2872 14.1081 16.0101 14.0513 15.73 14.05ZM3 13.53C3.79223 13.5677 4.56975 13.7579 5.29 14.09C5.84635 14.3366 6.43065 14.5146 7.03 14.62V15.81C6.62187 16.1957 6.29691 16.6608 6.07508 17.1767C5.85324 17.6926 5.73922 18.2484 5.74 18.81V22.81C5.74155 23.2781 5.83806 23.741 6.0237 24.1707C6.20933 24.6004 6.48023 24.988 6.82 25.31H3V13.53ZM3 12.59V9.44H7V13.67C6.52324 13.5652 6.05774 13.4145 5.61 13.22C4.7888 12.8436 3.9025 12.6296 3 12.59ZM6.72 22.81V22.35C7.04052 22.6916 7.42782 22.9638 7.85787 23.1496C8.28791 23.3354 8.75154 23.4308 9.22 23.43H9.59L9.34 25.31H9.22C8.55696 25.31 7.92107 25.0466 7.45223 24.5778C6.98339 24.1089 6.72 23.473 6.72 22.81ZM6.94 21C7.38685 21.3081 7.91725 21.4721 8.46 21.47H9.58L8.97 22.47C8.53249 22.4243 8.11467 22.2645 7.75839 22.0065C7.40211 21.7485 7.11989 21.4014 6.94 21ZM8.29 20.53C7.86031 20.4833 7.46281 20.2802 7.17327 19.9593C6.88373 19.6384 6.72239 19.2222 6.72 18.79C6.72382 18.3111 6.83442 17.8391 7.04374 17.4083C7.25306 16.9776 7.55583 16.5989 7.93 16.3C8.54985 17.3273 9.54204 18.0759 10.7 18.39L8.29 20.53ZM14.76 14.73L12.83 16.47V7.47C12.8332 6.85832 12.6409 6.26161 12.2811 5.76692C11.9213 5.27222 11.4129 4.90542 10.83 4.72C11.5726 4.72 12.2848 5.015 12.8099 5.5401C13.335 6.0652 13.63 6.77739 13.63 7.52V12.88C13.6308 13.2649 13.7365 13.6423 13.9355 13.9718C14.1346 14.3012 14.4196 14.5703 14.76 14.75V14.73ZM11.89 7.43V9.67C11.89 10.1858 11.6851 10.6806 11.3203 11.0453C10.9556 11.4101 10.4608 11.615 9.945 11.615C9.42915 11.615 8.93444 11.4101 8.56968 11.0453C8.20492 10.6806 8 10.1858 8 9.67V7.5C7.99483 7.40674 7.99483 7.31326 8 7.22C8.04991 6.72155 8.2907 6.26173 8.67195 5.93679C9.05321 5.61185 9.54538 5.44698 10.0454 5.4767C10.5455 5.50642 11.0147 5.72842 11.3548 6.09623C11.6949 6.46404 11.8795 6.94915 11.87 7.45L11.89 7.43ZM11.89 11.77V17.31L11.58 17.58C10.9745 17.5283 10.3911 17.3277 9.88166 16.9963C9.37226 16.6648 8.95261 16.2127 8.66 15.68C9.42754 14.9058 9.85874 13.8602 9.86 12.77V12.53H10C10.6987 12.52 11.3702 12.2571 11.89 11.79V11.77ZM8.89 12.34V12.77C8.89508 13.6009 8.57577 14.4009 8 15V11.79C8.26488 12.0404 8.57788 12.2343 8.92 12.36L8.89 12.34ZM15.89 14.98C16.1682 15.025 16.4215 15.1673 16.6046 15.3816C16.7877 15.5958 16.8889 15.8681 16.89 16.15V17.59L12.5 21.24C11.9005 20.7965 11.1757 20.5549 10.43 20.55H9.69L15.89 14.98ZM10.67 21.49C11.0188 21.528 11.3564 21.6361 11.6623 21.808C11.9682 21.9798 12.2361 22.2118 12.45 22.49H10.07L10.67 21.49ZM10.53 23.41H14.53C14.6547 23.41 14.7742 23.3605 14.8623 23.2723C14.9505 23.1842 15 23.0647 15 22.94C15 22.8153 14.9505 22.6958 14.8623 22.6077C14.7742 22.5195 14.6547 22.47 14.53 22.47H13.53C13.4247 22.2604 13.2973 22.0626 13.15 21.88L16.89 18.81V23.2C16.8874 23.7588 16.6642 24.294 16.2691 24.6891C15.874 25.0842 15.3388 25.3074 14.78 25.31H10.29L10.53 23.41ZM17.43 12C16.5245 11.5914 15.5434 11.3768 14.55 11.37V9.37H19.73V12.51C18.9379 12.4878 18.1573 12.3147 17.43 12ZM14.55 8.5V7.5C14.5458 6.54036 14.1738 5.61885 13.5107 4.92517C12.8476 4.23149 11.9438 3.81842 10.9853 3.77101C10.0268 3.7236 9.08665 4.04545 8.35831 4.6703C7.62996 5.29516 7.16889 6.17546 7.07 7.13C7.07 7.23 7.07 8.5 7.07 8.5H3V3H19.73V8.5H14.55ZM0.94 1.6L2.1 2.76V25.58L0.94 26.74V1.6ZM1.6 27.41L2.76 26.25H20L21.16 27.41H1.6ZM21.82 26.74L20.66 25.58V2.76L21.82 1.6V26.74Z" fill="#040000"/>
</g>
<defs>
<clipPath id="clip0_2791_26258">
<rect width="22.76" height="28.35" fill="white"/>
</clipPath>
</defs>
</svg>
