<svg width="46" height="30" viewBox="0 0 46 30" fill="none" xmlns="http://www.w3.org/2000/svg">
<path d="M44.3163 19.3803L39.2563 14.3803C39.545 14.2271 39.7955 14.011 39.9894 13.7479C40.1833 13.4848 40.3155 13.1814 40.3763 12.8603C40.4223 12.4988 40.3716 12.1315 40.2293 11.7959C40.087 11.4604 39.8582 11.1686 39.5663 10.9503L41.5663 4.95032C41.605 4.84221 41.6162 4.72614 41.5987 4.61264C41.5813 4.49913 41.5357 4.39178 41.4663 4.30032C41.3997 4.20615 41.3112 4.12963 41.2084 4.07736C41.1056 4.02509 40.9916 3.99864 40.8763 4.00032H38.7063C38.5841 4.00058 38.464 4.03193 38.3573 4.09141C38.2506 4.15089 38.1608 4.23655 38.0963 4.34032L35.2963 8.82032L32.7763 4.96032C32.7087 4.86027 32.6179 4.77802 32.5117 4.72057C32.4055 4.66312 32.287 4.63216 32.1663 4.63032H29.9863C29.8735 4.63064 29.7624 4.65708 29.6615 4.70756C29.5607 4.75805 29.4729 4.83121 29.4051 4.92131C29.3373 5.01141 29.2913 5.11599 29.2707 5.22686C29.25 5.33773 29.2554 5.45186 29.2863 5.56032L30.4463 9.72032H20.9863L24.8263 2.05032C24.8849 1.94118 24.9156 1.81921 24.9156 1.69532C24.9156 1.57142 24.8849 1.44945 24.8263 1.34032C24.7561 1.23273 24.6595 1.14496 24.5457 1.08543C24.4319 1.02589 24.3047 0.996586 24.1763 1.00032H21.2663C21.0756 1.00198 20.8929 1.07721 20.7563 1.21032L12.2363 9.73032C8.82629 9.82032 6.92629 10.3803 5.34629 11.5703C5.30271 11.604 5.26742 11.6471 5.24314 11.6965C5.21886 11.7459 5.20623 11.8003 5.20623 11.8553C5.20623 11.9104 5.21886 11.9647 5.24314 12.0141C5.26742 12.0635 5.30271 12.1067 5.34629 12.1403L6.86629 13.2803C6.92827 13.3314 7.00595 13.3597 7.08629 13.3603H8.18629C8.37725 13.3603 8.56038 13.4362 8.69541 13.5712C8.83044 13.7062 8.90629 13.8894 8.90629 14.0803C8.90631 14.2722 8.83077 14.4564 8.69603 14.593C8.56128 14.7296 8.37816 14.8077 8.18629 14.8103H6.72629C6.56998 14.8112 6.41812 14.7583 6.29629 14.6603L4.07629 12.8403C4.00867 12.7806 3.92154 12.7476 3.83129 12.7476C3.74105 12.7476 3.65392 12.7806 3.58629 12.8403L3.09629 13.3403C2.33683 13.7135 1.72589 14.3325 1.36279 15.0969C0.99969 15.8612 0.905768 16.7259 1.09629 17.5503C1.42629 18.9203 2.75629 19.8103 4.59629 19.8803H9.12629C8.98567 20.2268 8.91106 20.5964 8.90629 20.9703C8.86743 21.5932 9.07372 22.2065 9.48108 22.6793C9.88844 23.152 10.4645 23.4467 11.0863 23.5003C13.8563 23.5003 16.7763 22.9303 17.8863 21.7103L29.5963 29.2003C29.7112 29.2787 29.8472 29.3205 29.9863 29.3203H35.0763C35.2257 29.3221 35.3719 29.2766 35.494 29.1904C35.6161 29.1042 35.7079 28.9817 35.7563 28.8403C35.8086 28.7001 35.8164 28.5471 35.7789 28.4022C35.7413 28.2574 35.6601 28.1275 35.5463 28.0303L24.6363 18.8803C28.1201 18.3094 31.5539 17.4668 34.9063 16.3603L41.9063 21.2203C42.0293 21.3064 42.1762 21.3518 42.3263 21.3503C42.4383 21.3535 42.549 21.3259 42.6463 21.2703L44.1063 20.5503C44.2083 20.4971 44.2965 20.4208 44.3639 20.3275C44.4312 20.2342 44.4759 20.1265 44.4943 20.0129C44.5128 19.8993 44.5045 19.783 44.4701 19.6732C44.4357 19.5634 44.3762 19.4631 44.2963 19.3803H44.3163Z" stroke="#040000" stroke-miterlimit="10"/>
<path d="M12.3564 15.3506H11.3564C11.0912 15.3506 10.8369 15.2452 10.6493 15.0577C10.4618 14.8702 10.3564 14.6158 10.3564 14.3506C10.3564 14.0854 10.4618 13.831 10.6493 13.6435C10.8369 13.4559 11.0912 13.3506 11.3564 13.3506H12.3564C12.6217 13.3506 12.876 13.4559 13.0636 13.6435C13.2511 13.831 13.3564 14.0854 13.3564 14.3506C13.3564 14.6158 13.2511 14.8702 13.0636 15.0577C12.876 15.2452 12.6217 15.3506 12.3564 15.3506Z" fill="#040000"/>
<path d="M17.3467 15.3506H16.3467C16.0815 15.3506 15.8271 15.2452 15.6396 15.0577C15.452 14.8702 15.3467 14.6158 15.3467 14.3506C15.3467 14.0854 15.452 13.831 15.6396 13.6435C15.8271 13.4559 16.0815 13.3506 16.3467 13.3506H17.3467C17.6119 13.3506 17.8663 13.4559 18.0538 13.6435C18.2413 13.831 18.3467 14.0854 18.3467 14.3506C18.3467 14.6158 18.2413 14.8702 18.0538 15.0577C17.8663 15.2452 17.6119 15.3506 17.3467 15.3506Z" fill="#040000"/>
<path d="M22.3262 15.3506H21.3262C21.061 15.3506 20.8066 15.2452 20.6191 15.0577C20.4315 14.8702 20.3262 14.6158 20.3262 14.3506C20.3262 14.0854 20.4315 13.831 20.6191 13.6435C20.8066 13.4559 21.061 13.3506 21.3262 13.3506H22.3262C22.5914 13.3506 22.8457 13.4559 23.0333 13.6435C23.2208 13.831 23.3262 14.0854 23.3262 14.3506C23.3262 14.6158 23.2208 14.8702 23.0333 15.0577C22.8457 15.2452 22.5914 15.3506 22.3262 15.3506Z" fill="#040000"/>
<path d="M27.3066 15.3506H26.3066C26.0414 15.3506 25.7871 15.2452 25.5995 15.0577C25.412 14.8702 25.3066 14.6158 25.3066 14.3506C25.3066 14.0854 25.412 13.831 25.5995 13.6435C25.7871 13.4559 26.0414 13.3506 26.3066 13.3506H27.3066C27.5719 13.3506 27.8262 13.4559 28.0137 13.6435C28.2013 13.831 28.3066 14.0854 28.3066 14.3506C28.3066 14.6158 28.2013 14.8702 28.0137 15.0577C27.8262 15.2452 27.5719 15.3506 27.3066 15.3506Z" fill="#040000"/>
</svg>
