<svg width="26" height="29" viewBox="0 0 26 29" fill="none" xmlns="http://www.w3.org/2000/svg">
<path fill-rule="evenodd" clip-rule="evenodd" d="M14.2122 17.2578L18.307 19.6158L13.528 27.9289L13.0945 27.6797L13.4672 28.013C13.2419 28.265 12.9308 28.424 12.5945 28.4591C12.2691 28.4931 11.9427 28.4085 11.6749 28.2216L11.2057 27.9548C11.0623 27.8869 10.9335 27.7917 10.8264 27.6743C10.7132 27.5502 10.6268 27.404 10.5728 27.2449C10.5187 27.0858 10.498 26.9173 10.5121 26.7499C10.5262 26.5824 10.5747 26.4197 10.6547 26.2719L10.6582 26.2653L14.3838 19.6153L13.6414 18.2409L14.2122 17.2578ZM12.6927 27.3755L16.942 19.9837L15.1674 18.9618L15.5251 19.6241L11.533 26.7499C11.5194 26.7759 11.5111 26.8044 11.5086 26.8337C11.506 26.8639 11.5098 26.8943 11.5195 26.923C11.5293 26.9517 11.5449 26.9781 11.5653 27.0004C11.5857 27.0228 11.6105 27.0408 11.6382 27.0531L11.6604 27.063L12.2169 27.3795L12.2404 27.3967C12.3125 27.4496 12.4018 27.4738 12.4908 27.4645C12.5661 27.4567 12.6366 27.4253 12.6927 27.3755Z" fill="#040000"/>
<path fill-rule="evenodd" clip-rule="evenodd" d="M20.9409 7.14876C23.0431 6.04767 24.5461 6.31537 25.1651 6.5258L25.7441 6.72267L18.9779 18.3279L18.4221 19.314L15.0406 17.3702L14.5533 17.0835L14.443 17.0334L12.9912 16.1768L13.2424 15.7469C16.2137 10.6619 18.856 8.24079 20.9409 7.14876ZM14.3593 15.8229L14.9052 16.145L15.0149 16.1949L15.5454 16.5069L18.0461 17.9444L18.1121 17.8273L24.2214 7.34898C23.613 7.29588 22.6521 7.38134 21.4048 8.03461C19.6012 8.97931 17.1706 11.1268 14.3593 15.8229Z" fill="#040000"/>
<path fill-rule="evenodd" clip-rule="evenodd" d="M9.20477 0L12.4572 1.69596L12.6461 1.79542L12.6472 1.79597L15.8659 3.48043L16.0455 4.54196L12.43 11.3952C12.3447 11.5656 12.1979 11.6625 12.1167 11.7104C12.0165 11.7693 11.9009 11.818 11.7869 11.8594C11.5572 11.9427 11.2605 12.0224 10.9369 12.1016C10.6845 12.1634 10.4144 12.2253 10.1313 12.2902C9.66037 12.3982 9.15339 12.5145 8.63167 12.6519C8.36757 12.7215 8.07756 12.9405 7.77515 13.326C7.47861 13.7039 7.21067 14.19 6.97579 14.6991C6.74227 15.2053 6.54984 15.7155 6.39813 16.1342C6.36614 16.2225 6.33506 16.3093 6.3057 16.3912C6.26736 16.4983 6.23198 16.597 6.20142 16.6801C6.15129 16.8164 6.09523 16.9643 6.04136 17.0612C5.92075 17.2783 5.01351 19.0181 4.12908 20.718C3.68852 21.5647 3.25576 22.3974 2.93313 23.0185L2.39821 24.0485L1.95428 23.8184L2.3632 24.1061C2.18048 24.3658 1.90903 24.5497 1.60007 24.623C1.29111 24.6963 0.96601 24.6539 0.686112 24.504C0.406213 24.3541 0.190872 24.1069 0.0807224 23.809C-0.0294269 23.5112 -0.0267667 23.1834 0.0882008 22.8874L0.0975494 22.8633L0.109327 22.8403L0.653036 21.7804C0.980423 21.1425 1.41894 20.2886 1.86342 19.4247C2.74457 17.712 3.66907 15.9205 3.77435 15.7432C3.81601 15.673 3.89725 15.5669 3.97098 15.4706L3.97756 15.462C3.99063 15.4449 4.00421 15.4272 4.01826 15.4089C4.09803 15.3048 4.19312 15.1808 4.2993 15.0381C4.54894 14.7028 4.85358 14.273 5.13303 13.802C5.41397 13.3286 5.65999 12.8292 5.8024 12.3546C5.94633 11.8749 5.96993 11.4687 5.86813 11.151C5.6263 10.3963 5.34415 9.75551 5.10768 9.21843C5.06997 9.1328 5.03343 9.0498 4.9984 8.9694C4.87472 8.68557 4.7612 8.41465 4.69407 8.18318C4.66014 8.06621 4.63203 7.93963 4.62497 7.81293C4.61798 7.6873 4.6298 7.52935 4.70706 7.37482L4.70891 7.37113L8.23624 0.459638L9.20477 0ZM1.01385 23.268C0.993922 23.3313 0.995487 23.3996 1.01863 23.4621C1.04405 23.5309 1.09374 23.5879 1.15833 23.6225C1.22293 23.6571 1.29795 23.6669 1.36925 23.65C1.43221 23.635 1.48843 23.6002 1.52975 23.551L2.04573 22.5575C2.36842 21.9363 2.80128 21.1034 3.24197 20.2564C4.11958 18.5696 5.03684 16.8104 5.16699 16.576C5.16698 16.576 5.16949 16.5712 5.17466 16.5599C5.18034 16.5474 5.18761 16.5304 5.1966 16.5084C5.21473 16.4638 5.23661 16.4063 5.26292 16.3348C5.2929 16.2533 5.32523 16.163 5.36164 16.0614C5.39082 15.9799 5.42262 15.891 5.45793 15.7936C5.61247 15.367 5.81629 14.8253 6.06777 14.2802C6.31788 13.7381 6.62369 13.1735 6.9884 12.7087C7.34725 12.2513 7.80598 11.8353 8.37689 11.6849C8.90793 11.545 9.45426 11.4195 9.93992 11.308C10.2176 11.2442 10.4754 11.185 10.6992 11.1302C11.0193 11.0519 11.2708 10.9829 11.4457 10.9194C11.5071 10.8971 11.5504 10.8786 11.5793 10.8645L15.003 4.37489L14.9627 4.13642L12.1824 2.68143L12.1814 2.68089L11.9931 2.58177L11.9914 2.58089L9.18379 1.11685L8.97231 1.21721L5.62519 7.77563C5.6285 7.80143 5.63663 7.84304 5.65449 7.90461C5.7011 8.06533 5.78883 8.28004 5.91515 8.56995C5.94835 8.64612 5.98365 8.72624 6.02062 8.81016C6.25685 9.34627 6.56136 10.0374 6.82043 10.8458C7.00863 11.4332 6.93347 12.0645 6.76022 12.642C6.58544 13.2245 6.29583 13.802 5.99302 14.3123C5.68873 14.8251 5.36149 15.2859 5.10144 15.6353C4.99068 15.7841 4.89095 15.9142 4.8112 16.0182C4.79738 16.0362 4.78416 16.0535 4.77158 16.0699C4.72833 16.1264 4.69415 16.1713 4.66823 16.2064C4.64776 16.2341 4.63811 16.2482 4.63497 16.2528C4.63359 16.2548 4.63346 16.255 4.6342 16.2537C4.63411 16.2539 4.63371 16.2545 4.63296 16.2558L4.62903 16.2628L4.61576 16.2868C4.60476 16.3069 4.59053 16.3333 4.57305 16.366C4.53814 16.4314 4.4919 16.5191 4.43575 16.6262C4.32352 16.8403 4.17321 17.1294 3.99778 17.4681C3.64701 18.1453 3.19695 19.0185 2.75264 19.8822C2.30836 20.7457 1.87001 21.5993 1.54271 22.237L1.01385 23.268Z" fill="#040000"/>
<path d="M13.4489 4.58561L10.9727 9.35059L11.6914 9.7241L14.1677 4.95912L13.4489 4.58561Z" fill="#040000"/>
<path d="M12.0161 3.83833L9.54395 8.60547L10.2541 8.97375L12.7262 4.20662L12.0161 3.83833Z" fill="#040000"/>
<path d="M10.5131 3.05122L8.04102 7.81836L8.76008 8.19125L11.2322 3.42411L10.5131 3.05122Z" fill="#040000"/>
<path d="M9.08734 2.31001L6.61523 7.07715L7.32542 7.44543L9.79753 2.6783L9.08734 2.31001Z" fill="#040000"/>
</svg>
