<svg width="25" height="30" viewBox="0 0 25 30" fill="none" xmlns="http://www.w3.org/2000/svg">
<path d="M2.51965 26.6098L2.41965 26.7198C1.82806 26.1591 1.3569 25.4838 1.03492 24.7351C0.712933 23.9863 0.546875 23.1798 0.546875 22.3648C0.546875 21.5497 0.712933 20.7432 1.03492 19.9945C1.3569 19.2457 1.82806 18.5704 2.41965 18.0098V18.0598L2.51965 18.1598L2.63965 18.2798L2.72965 18.3898C2.7504 18.4156 2.77387 18.439 2.79965 18.4598L2.18965 19.0598L2.48965 19.3598L3.05965 18.7898L3.11965 18.8798L3.20965 19.0098L3.28965 19.1298L3.37965 19.2798L3.44965 19.3998C3.48018 19.4476 3.50693 19.4978 3.52965 19.5498L3.59965 19.6698L3.66965 19.8198L3.72965 19.9498L3.78965 20.1098L3.18965 20.4598L3.35965 20.8398L3.93965 20.5798C3.93965 20.6298 3.93965 20.6898 3.93965 20.7398V20.8798C3.93965 20.9298 3.93965 20.9898 3.93965 21.0498V21.1798V21.3498C3.94374 21.393 3.94374 21.4365 3.93965 21.4798V21.6698C3.93965 21.6698 3.93965 21.7498 3.93965 21.7898C3.94459 21.8597 3.94459 21.9299 3.93965 21.9998C3.93965 21.9998 3.93965 22.0698 3.93965 22.0998V22.2098H3.64965V22.6198H4.22965V22.7298C4.22965 22.7298 4.22965 22.7998 4.22965 22.8298C4.23459 22.8997 4.23459 22.9699 4.22965 23.0398C4.22965 23.0398 4.22965 23.1198 4.22965 23.1598V23.3498C4.23444 23.393 4.23444 23.4366 4.22965 23.4798V23.6498V23.7898C4.22965 23.8398 4.22965 23.8998 4.22965 23.9598V24.0898C4.22965 24.1398 4.22965 24.1998 4.22965 24.2498L3.64965 23.9998L3.47965 24.3798L4.08965 24.6398L4.02965 24.7998L3.96965 24.9298L3.89965 25.0798C3.89965 25.0798 3.84965 25.1598 3.82965 25.2098C3.8068 25.2585 3.78004 25.3053 3.74965 25.3498L3.37965 25.4598L3.28965 25.5998L3.20965 25.7198L3.11965 25.8498L3.05965 25.9398L2.48965 25.4598L2.18965 25.7598L2.79965 26.3598C2.77387 26.3805 2.7504 26.404 2.72965 26.4298L2.63965 26.4598L2.51965 26.6098Z" stroke="#060203" stroke-miterlimit="10"/>
<path d="M7.88969 29.3503C6.26099 29.3488 4.68378 28.7795 3.42969 27.7403V27.7403C3.47549 27.6995 3.5189 27.6561 3.55969 27.6103L3.73969 27.4603L3.86969 27.3203L4.29969 27.7503L4.63969 27.4103L4.16969 26.9403L4.27969 26.7903L4.39969 26.6203L4.48969 26.4703C4.52984 26.416 4.56658 26.3592 4.59969 26.3003L4.68969 26.1403L4.78969 25.9703L4.86969 25.8103L4.99969 25.5103C4.99969 25.4603 5.04969 25.4103 5.06969 25.3503C5.10057 25.2888 5.12729 25.2253 5.14969 25.1603V25.1603L5.91969 25.5003L6.10969 25.0603L5.31969 24.7103C5.31969 24.7103 5.31969 24.7103 5.31969 24.6503L5.37969 24.4503V24.2803C5.37969 24.2103 5.37969 24.1403 5.37969 24.0703V23.9103C5.37969 23.8403 5.37969 23.7603 5.37969 23.6903V23.5303V23.3003C5.37481 23.2504 5.37481 23.2002 5.37969 23.1503C5.37969 23.0603 5.37969 22.9803 5.37969 22.8903C5.37969 22.8003 5.37969 22.8103 5.37969 22.7603V22.6203H6.30969V22.1303H5.70969V21.9903C5.70969 21.9403 5.70969 21.9003 5.70969 21.8603C5.70969 21.8203 5.70969 21.6903 5.70969 21.6003C5.70481 21.5504 5.70481 21.5002 5.70969 21.4503V21.2203V21.0603C5.70969 20.9903 5.70969 20.9203 5.70969 20.8403C5.70969 20.7603 5.70969 20.7303 5.70969 20.6803C5.70969 20.6303 5.70969 20.5403 5.70969 20.4703C5.70969 20.4003 5.70969 20.3603 5.70969 20.3003L5.64969 20.1003C5.64969 20.1003 5.64969 20.0503 5.64969 20.0303L6.43969 19.6803L6.24969 19.2403L5.47969 19.5803C5.47969 19.5103 5.47969 19.4503 5.39969 19.3903L4.99969 19.2203L4.90969 19.0303L4.82969 18.8803L4.72969 18.7003L4.63969 18.5403C4.60658 18.4814 4.56984 18.4246 4.52969 18.3703L4.43969 18.2203L4.31969 18.0503L4.20969 17.9003L4.67969 17.4303L4.33969 17.0903L3.90969 17.4603V17.4103L3.77969 17.2703C3.73814 17.2188 3.6912 17.1719 3.63969 17.1303L3.50969 16.9903C4.76374 15.9556 6.33886 15.3896 7.96469 15.3896C9.59051 15.3896 11.1656 15.9556 12.4197 16.9903V16.9903L12.2897 17.1303C12.2382 17.1719 12.1912 17.2188 12.1497 17.2703L11.8997 17.4603L11.4997 17.0603L11.1597 17.4003L11.5997 17.8403L11.5497 17.9003L11.4397 18.0503C11.3995 18.1046 11.3628 18.1614 11.3297 18.2203C11.2929 18.2679 11.2595 18.318 11.2297 18.3703C11.1895 18.4246 11.1528 18.4814 11.1197 18.5403L11.0297 18.7003L10.9297 18.8803L10.8497 19.0303L10.7597 19.2203L10.6897 19.3803C10.6897 19.4403 10.6897 19.5003 10.6197 19.5503L9.89969 19.2403L9.70969 19.6803L10.4497 20.0103V20.0903L10.3897 20.3003C10.3897 20.3503 10.3897 20.4103 10.3897 20.4603C10.3897 20.5103 10.3897 20.6003 10.3397 20.6703C10.2897 20.7403 10.3397 20.7803 10.3397 20.8303C10.3453 20.9035 10.3453 20.9771 10.3397 21.0503V21.2103V21.4403C10.3446 21.4902 10.3446 21.5404 10.3397 21.5903C10.3397 21.6803 10.3397 21.7603 10.3397 21.8503C10.3442 21.8935 10.3442 21.9371 10.3397 21.9803V22.1303H9.18969V22.6103H10.0597V22.7503C10.0642 22.7935 10.0642 22.8371 10.0597 22.8803C10.0597 22.9703 10.0597 23.0503 10.0597 23.1403C10.0646 23.1902 10.0646 23.2404 10.0597 23.2903V23.5203V23.6803C10.0644 23.7536 10.0644 23.827 10.0597 23.9003C10.0597 23.9003 10.0597 24.0103 10.0597 24.0603C10.0597 24.1103 10.0597 24.2003 10.1097 24.2703V24.4403L10.1697 24.6403V24.7403L9.42969 25.0603L9.62969 25.5003L10.3397 25.1903L10.4097 25.3503C10.4097 25.4103 10.4597 25.4603 10.4797 25.5103L10.5697 25.7003L10.6497 25.8603L10.7497 26.0303L10.8397 26.1903C10.8705 26.2505 10.9074 26.3075 10.9497 26.3603C10.9795 26.4126 11.0129 26.4627 11.0497 26.5103C11.0805 26.5705 11.1174 26.6275 11.1597 26.6803L11.2697 26.8303L11.3197 26.8903L10.8797 27.3303L11.2197 27.6703L11.6197 27.2703L11.9997 27.4603L12.1397 27.6103C12.1805 27.6561 12.2239 27.6995 12.2697 27.7403V27.7403C11.0368 28.7621 9.49086 29.3304 7.88969 29.3503V29.3503Z" stroke="#060203" stroke-miterlimit="10"/>
<path d="M13.3399 26.9299C13.3234 26.9264 13.3064 26.9264 13.2899 26.9299C13.2558 26.8908 13.2191 26.854 13.1799 26.8199L13.0599 26.6899L12.9599 26.5799V26.5299L13.6199 25.8699L13.3099 25.5699L12.6899 26.1899L12.5999 26.0699L12.4999 25.9299L12.4199 25.7999L12.3199 25.6499C12.3199 25.6499 12.3199 25.5699 12.2499 25.5199C12.2194 25.4721 12.1927 25.4219 12.1699 25.3699L12.0999 25.2399L11.9999 25.0299L11.9399 24.8899C11.9208 24.8381 11.8974 24.7879 11.8699 24.7399L12.5599 24.4399L12.3799 24.0399L11.7199 24.3299C11.7168 24.2733 11.7168 24.2165 11.7199 24.1599C11.7155 24.1134 11.7155 24.0665 11.7199 24.0199C11.7153 23.96 11.7153 23.8998 11.7199 23.8399C11.7155 23.7934 11.7155 23.7465 11.7199 23.6999V23.5199V23.3799C11.7199 23.3199 11.7199 23.2499 11.7199 23.1899C11.7199 23.1299 11.7199 23.0999 11.7199 23.0599C11.7199 23.0199 11.7199 22.9099 11.7199 22.8399V22.7299C11.7145 22.6935 11.7145 22.6564 11.7199 22.6199H12.3899V22.1899H11.7199C11.7145 22.1535 11.7145 22.1164 11.7199 22.0799V21.9699C11.7199 21.8999 11.7199 21.8199 11.7199 21.7499C11.7199 21.6799 11.7199 21.6699 11.7199 21.6199C11.7199 21.5699 11.7199 21.4899 11.7199 21.4299V21.2899V21.1099C11.7155 21.0634 11.7155 21.0165 11.7199 20.9699C11.7153 20.91 11.7153 20.8498 11.7199 20.7899C11.7156 20.7467 11.7156 20.7031 11.7199 20.6599C11.7155 20.6 11.7155 20.5398 11.7199 20.4799L12.3799 20.7699L12.5499 20.3699L11.8699 20.0699L11.9399 19.9099L11.9999 19.7699L12.0799 19.6199C12.0992 19.5713 12.1226 19.5245 12.1499 19.4799C12.1727 19.4279 12.1994 19.3778 12.2299 19.3299L12.2999 19.1999C12.3298 19.1477 12.3632 19.0975 12.3999 19.0499L12.4799 18.9299C12.5098 18.8777 12.5432 18.8275 12.5799 18.7799L12.6699 18.6599L13.2899 19.2899L13.5999 18.9799L12.9399 18.3199V18.2699C12.9784 18.2382 13.012 18.2012 13.0399 18.1599L13.1599 18.0299L13.2699 17.9199H13.3199C13.9397 18.5068 14.4333 19.2138 14.7706 19.9978C15.108 20.7818 15.282 21.6264 15.282 22.4799C15.282 23.3334 15.108 24.178 14.7706 24.962C14.4333 25.746 13.9397 26.4531 13.3199 27.0399L13.3399 26.9299Z" stroke="#060203" stroke-miterlimit="10"/>
<path d="M16.1499 1C14.4191 1.16466 12.7999 1.92793 11.5714 3.15826C10.3429 4.38859 9.58202 6.00891 9.41992 7.74C11.4658 8.02341 13.3588 8.9805 14.7999 10.46C16.2906 11.9008 17.2582 13.7975 17.5499 15.85C19.2812 15.6838 20.9006 14.9203 22.1304 13.6905C23.3602 12.4607 24.1237 10.8412 24.2899 9.11C22.2419 8.8243 20.3464 7.86775 18.8999 6.39C17.4112 4.94782 16.4438 3.05182 16.1499 1V1Z" stroke="#050102" stroke-miterlimit="10"/>
<path d="M24.2497 7.54C24.1996 5.82307 23.4958 4.19007 22.2821 2.97456C21.0685 1.75906 19.4366 1.05279 17.7197 1C17.9842 2.64287 18.786 4.15164 19.9997 5.29C21.1368 6.47849 22.6276 7.26771 24.2497 7.54Z" stroke="#050102" stroke-miterlimit="10"/>
<path d="M9.41992 9.36035C9.47007 11.072 10.1717 12.6999 11.3816 13.9117C12.5915 15.1234 14.2184 15.8276 15.9299 15.8804C15.6734 14.2486 14.8903 12.7455 13.6999 11.6004C12.554 10.4093 11.0518 9.62307 9.41992 9.36035V9.36035Z" stroke="#050102" stroke-miterlimit="10"/>
</svg>
