<svg width="30" height="26" viewBox="0 0 30 26" fill="none" xmlns="http://www.w3.org/2000/svg">
<g clip-path="url(#clip0_2791_26389)">
<path d="M13.0001 20.9996L12.7801 9.99961H16.9201L16.6901 21.2996H16.7401C16.8301 19.9896 16.9301 18.6796 17.0201 17.3696C17.1901 14.9496 17.3501 12.5396 17.5301 10.1196C17.5458 9.90553 17.6299 9.70217 17.7701 9.53961C20.4349 6.2454 24.1292 3.94214 28.2601 2.99961C28.4701 2.99961 28.6801 2.99961 28.9601 2.90961C28.8201 3.85961 28.6801 4.73961 28.5401 5.62961C28.1301 8.18961 27.7101 10.7496 27.3001 13.3096C27.0401 14.8796 26.8001 16.4496 26.5301 18.0196C26.5084 18.1248 26.4641 18.224 26.4002 18.3104C26.3363 18.3967 26.2544 18.4681 26.1601 18.5196C23.1953 19.6746 20.439 21.3061 18.0001 23.3496C17.0969 24.1452 15.9229 24.564 14.7201 24.5196C13.6178 24.5409 12.5475 24.1484 11.7201 23.4196C9.3108 21.353 6.56863 19.7098 3.61012 18.5596C3.4397 18.5096 3.28922 18.4075 3.17981 18.2676C3.0704 18.1277 3.00756 17.9571 3.00012 17.7796C2.33345 13.7796 1.69678 9.77961 1.09012 5.77961C1.00012 4.81961 0.800117 3.90961 0.620117 2.84961C1.26012 2.98961 1.85012 3.06961 2.41012 3.22961C6.17585 4.3401 9.50511 6.58989 11.9401 9.66961C12.0643 9.84119 12.1309 10.0478 12.1301 10.2596C12.3835 13.7929 12.6268 17.3296 12.8601 20.8696C12.8601 20.9196 12.8601 20.9696 12.8601 21.0196L13.0001 20.9996Z" stroke="black" stroke-miterlimit="10"/>
<path d="M15.3605 9.25C15.9798 7.04246 17.1617 5.03357 18.7905 3.42C19.0446 3.18533 19.2449 2.89852 19.3778 2.57921C19.5107 2.2599 19.573 1.91564 19.5605 1.57C18.3494 2.49336 17.3398 3.65441 16.5935 4.98193C15.8472 6.30945 15.38 7.77545 15.2205 9.29H14.3905C14.2297 7.78331 13.7647 6.32493 13.0239 5.00312C12.2831 3.68132 11.2817 2.52359 10.0805 1.6C10.0536 1.93376 10.1046 2.2692 10.2295 2.57986C10.3545 2.89051 10.55 3.16786 10.8005 3.39C12.4247 5.028 13.614 7.04573 14.2605 9.26C13.7405 9.44 13.5105 9.26 13.3305 8.78C12.2907 5.71753 10.1531 3.1489 7.33051 1.57L6.94051 1.4C6.94727 1.78115 6.99759 2.16028 7.09051 2.53C7.19367 2.79483 7.37955 3.01929 7.62051 3.17C9.83838 4.64431 11.6808 6.61682 13.0005 8.93C13.0605 9.03 13.1005 9.13 13.1605 9.25C13.0727 9.29427 12.9769 9.32059 12.8788 9.32744C12.7807 9.33428 12.6823 9.3215 12.5892 9.28984C12.4961 9.25818 12.4102 9.20829 12.3366 9.14307C12.263 9.07785 12.2031 8.99862 12.1605 8.91C11.083 7.22965 9.73087 5.74228 8.16051 4.51C6.81339 3.46291 5.32109 2.61739 3.73051 2C3.73051 2.2 3.73051 2.34 3.73051 2.47C3.73051 2.6 3.73051 2.7 3.80051 2.87C3.35051 2.82 3.00051 2.81 3.00051 2.17C2.96498 1.72381 2.88798 1.28191 2.77051 0.85L6.34051 2.34L6.00051 0.06L9.31051 1.93L9.06051 0C11.8922 1.65927 13.9549 4.36878 14.8005 7.54C15.6417 4.36952 17.7011 1.65959 20.5305 0L20.2705 1.94L23.6005 0L23.2905 2.28L26.7705 0.89C26.7705 2.35 26.6105 2.68 25.8205 2.89L25.8905 2C24.2532 2.60754 22.7213 3.46798 21.3505 4.55C19.8577 5.71481 18.57 7.12083 17.5405 8.71C17.2905 9.1 17.0305 9.5 16.3205 9.23C16.8905 8.4 17.4105 7.56 18.0205 6.79C19.1775 5.33886 20.5662 4.08871 22.1305 3.09C22.7605 2.68 22.4805 1.98 22.7505 1.32C21.039 2.21589 19.5415 3.47124 18.3605 5C17.4487 6.13794 16.7446 7.42766 16.2805 8.81C16.1305 9.23 15.9005 9.43 15.3605 9.25Z" fill="black"/>
</g>
<defs>
<clipPath id="clip0_2791_26389">
<rect width="29.56" height="25.02" fill="white"/>
</clipPath>
</defs>
</svg>
