<svg width="20" height="30" viewBox="0 0 20 30" fill="none" xmlns="http://www.w3.org/2000/svg">
<g clip-path="url(#clip0_2791_26363)">
<path d="M18.2702 14.4602H12.6802C12.4306 14.4662 12.1827 14.4184 11.9532 14.32C11.7237 14.2217 11.5181 14.0751 11.3502 13.8902V13.8902C11.1784 13.7105 10.972 13.5675 10.7434 13.4698C10.5149 13.3721 10.2688 13.3217 10.0202 13.3217C9.77164 13.3217 9.52562 13.3721 9.29703 13.4698C9.06844 13.5675 8.86202 13.7105 8.69024 13.8902C8.5167 14.0705 8.30858 14.2138 8.07834 14.3118C7.84809 14.4097 7.60045 14.4602 7.35024 14.4602H1.77024C1.43341 14.4602 1.11038 14.3264 0.87221 14.0882C0.634039 13.8501 0.500235 13.527 0.500235 13.1902V7.1002C0.497499 6.98257 0.518649 6.86561 0.562407 6.7564C0.606165 6.64718 0.671621 6.54797 0.754817 6.46478C0.838013 6.38158 0.937219 6.31613 1.04644 6.27237C1.15565 6.22861 1.27261 6.20746 1.39024 6.2102H18.5802C18.6979 6.20746 18.8148 6.22861 18.924 6.27237C19.0333 6.31613 19.1325 6.38158 19.2157 6.46478C19.2988 6.54797 19.3643 6.64718 19.4081 6.7564C19.4518 6.86561 19.473 6.98257 19.4702 7.1002V13.1902C19.4844 13.3546 19.4636 13.5201 19.4093 13.6759C19.355 13.8318 19.2683 13.9743 19.155 14.0942C19.0417 14.2142 18.9042 14.3088 18.7518 14.3719C18.5993 14.4349 18.4352 14.465 18.2702 14.4602V14.4602Z" stroke="#040000" stroke-miterlimit="10"/>
<path d="M8.12004 8.75H3.04004V11.92H8.12004V8.75Z" stroke="#040000" stroke-miterlimit="10"/>
<path d="M16.9999 8.75H11.9199V11.92H16.9999V8.75Z" stroke="#040000" stroke-miterlimit="10"/>
<path d="M0.5 6.85L3 2.66C3.40637 2.00346 3.9728 1.46085 4.64619 1.08305C5.31958 0.705254 6.07788 0.504634 6.85 0.5V0.5V2.4C6.31975 2.40291 5.80856 2.59812 5.41132 2.94937C5.01409 3.30063 4.75779 3.78409 4.69 4.31L4.43 6.21" stroke="#040000" stroke-miterlimit="10"/>
<path d="M19.5404 6.85001L17.0604 2.66001C16.6544 1.99863 16.0853 1.45264 15.4076 1.07441C14.73 0.696185 13.9665 0.498395 13.1904 0.50001V0.50001V2.40001C13.7201 2.40502 14.2302 2.60096 14.6269 2.95183C15.0237 3.3027 15.2806 3.78495 15.3504 4.31001L15.6004 6.21001" stroke="#040000" stroke-miterlimit="10"/>
<path d="M2.07051 28.8496C1.91824 28.6056 1.81624 28.3336 1.77051 28.0496C1.77051 27.9996 1.77051 27.9696 1.84051 27.9596C1.91051 27.9496 2.07051 27.9596 2.18051 27.8996C2.73609 27.7826 3.2587 27.5435 3.71051 27.1996C4.20511 26.8395 4.64036 26.4042 5.00051 25.9096C5.2355 25.5521 5.50333 25.2173 5.80051 24.9096C6.14021 24.5688 6.54035 24.2941 6.98051 24.0996H7.07051C7.07577 24.1662 7.07577 24.233 7.07051 24.2996C7.01051 24.8296 6.95051 25.3596 6.88051 25.8796C6.81051 26.3996 6.77051 26.8296 6.69051 27.2996C6.61051 27.7696 6.51051 28.1696 6.41051 28.6096C6.37401 28.7077 6.32707 28.8016 6.27051 28.8896L2.07051 28.8496Z" stroke="black" stroke-miterlimit="10"/>
<path d="M0.680664 18.7496C0.680664 18.5696 0.830664 18.4696 1.00066 18.3896H7.76066C7.85146 18.3986 7.93738 18.435 8.00703 18.4939C8.07669 18.5529 8.12678 18.6316 8.15066 18.7196C8.15066 18.8696 8.15066 19.0296 8.15066 19.1896H0.680664V18.7496Z" fill="black"/>
<path d="M7.67047 20.0898C7.67047 20.2898 7.67047 20.4798 7.67047 20.6698V20.8798C7.67047 20.8798 7.67047 20.9398 7.59047 20.9498C7.34047 20.9498 7.08047 21.0198 6.83047 21.0798C6.24776 21.2281 5.70708 21.5087 5.25047 21.8998C4.90786 22.1952 4.6023 22.531 4.34047 22.8998C4.06047 23.2698 3.79047 23.6298 3.50047 23.9798C3.24948 24.2652 2.96004 24.5142 2.64047 24.7198C2.40342 24.8716 2.14804 24.9925 1.88047 25.0798C1.80047 25.0798 1.78047 25.0798 1.77047 25.0198C1.76047 24.9598 1.71047 24.6998 1.69047 24.5298C1.63047 24.0398 1.57047 23.5298 1.52047 23.0498C1.47047 22.5698 1.41047 22.0498 1.36047 21.5898C1.31047 21.1298 1.28047 20.6398 1.23047 20.1598V20.1098L7.67047 20.0898Z" stroke="black" stroke-miterlimit="10"/>
<path d="M7.74063 22.1396C7.74063 22.3396 7.74063 22.5396 7.67063 22.7296C7.67063 22.7296 7.67063 22.7296 7.60063 22.7796L7.00063 22.9996C6.4804 23.1821 6.0061 23.4755 5.61063 23.8596C5.31831 24.1665 5.05704 24.5014 4.83063 24.8596C4.46148 25.4038 4.0054 25.8835 3.48063 26.2796C3.12947 26.5477 2.73324 26.7509 2.31063 26.8796C2.17063 26.8796 2.14063 26.8796 2.11063 26.7796C2.08063 26.6796 2.11063 26.5696 2.06063 26.4696C2.01063 26.3696 2.06063 26.3396 2.16063 26.2996C2.84126 26.0401 3.43185 25.5885 3.86063 24.9996C4.16063 24.6396 4.42063 24.2596 4.70063 23.8896C5.10656 23.356 5.62566 22.9188 6.22063 22.6096C6.64333 22.3867 7.10512 22.2474 7.58063 22.1996H7.74063V22.1396Z" fill="black"/>
<path d="M5.90975 18.5698H5.66975C5.56975 18.5698 5.55975 18.5698 5.57975 18.4898C5.65975 18.2098 5.72975 17.9398 5.79975 17.6598C5.93975 17.1898 6.07975 16.7098 6.20975 16.2298C6.23358 16.1597 6.27433 16.0965 6.32841 16.0459C6.38248 15.9954 6.44821 15.9589 6.51975 15.9398C7.65975 15.5298 8.80975 15.1298 9.97975 14.7598C10.0685 14.7389 10.161 14.7389 10.2498 14.7598C10.3049 14.7725 10.355 14.8011 10.3941 14.8419C10.4332 14.8828 10.4595 14.9342 10.4698 14.9898C10.475 15.0434 10.4621 15.0972 10.433 15.1425C10.404 15.1878 10.3606 15.2221 10.3098 15.2398L8.99975 15.6798L6.99975 16.3798C6.97051 16.3865 6.94375 16.4014 6.92253 16.4226C6.90131 16.4438 6.88649 16.4706 6.87975 16.4998L6.33975 18.4098C6.33975 18.5698 6.33975 18.5698 6.09975 18.5698H5.90975Z" fill="black"/>
</g>
<defs>
<clipPath id="clip0_2791_26363">
<rect width="19.98" height="29.35" fill="white"/>
</clipPath>
</defs>
</svg>
