<!-- 冰箱 -->
<svg width="19" height="30" viewBox="0 0 19 30" fill="none" xmlns="http://www.w3.org/2000/svg">
<g clip-path="url(#clip0_2765_26295)">
<path d="M16.0003 0.511719L16.2603 0.59349C16.8082 0.746614 17.2934 1.07563 17.6445 1.53203C17.9956 1.98843 18.1939 2.54806 18.2103 3.12841V24.7877C18.2468 25.3536 18.1093 25.917 17.817 26.399C17.5247 26.881 17.0923 27.2576 16.5803 27.4759C16.5421 27.498 16.5096 27.5289 16.4853 27.5662C16.4609 27.6035 16.4455 27.6461 16.4403 27.6906C16.4403 27.9768 16.4403 28.263 16.4403 28.539C16.4532 28.6603 16.441 28.783 16.4044 28.8992C16.3678 29.0154 16.3077 29.1224 16.228 29.2132C16.1483 29.304 16.0508 29.3767 15.9417 29.4264C15.8327 29.4762 15.7147 29.5019 15.5953 29.5019C15.4759 29.5019 15.3578 29.4762 15.2488 29.4264C15.1398 29.3767 15.0422 29.304 14.9625 29.2132C14.8828 29.1224 14.8227 29.0154 14.7861 28.8992C14.7496 28.783 14.7373 28.6603 14.7503 28.539V27.6701H4.00027C4.00027 27.9768 4.00027 28.2834 4.00027 28.5901C4.00516 28.7806 3.94786 28.9675 3.83742 29.1211C3.72697 29.2747 3.56966 29.3863 3.39027 29.4385C3.23081 29.4907 3.05916 29.489 2.90068 29.4338C2.74221 29.3786 2.60532 29.2727 2.51027 29.1318C2.41537 28.972 2.34141 28.8002 2.29027 28.6207C2.28026 28.5667 2.28026 28.5112 2.29027 28.4572C2.35754 28.1927 2.32999 27.9123 2.21261 27.6667C2.09523 27.4211 1.89576 27.2265 1.65027 27.1182C1.28059 26.8974 0.97822 26.5759 0.776916 26.1897C0.575611 25.8034 0.483293 25.3676 0.510267 24.9308C0.510267 23.2851 0.510267 21.6293 0.510267 19.9836V3.49639C0.438821 2.8162 0.621812 2.13358 1.02248 1.58562C1.42315 1.03767 2.01183 0.664967 2.67027 0.542383C2.67027 0.542383 2.67027 0.542383 2.72027 0.542383L16.0003 0.511719Z" stroke="black" stroke-miterlimit="10"/>
<path d="M5.75021 17.7446C5.75021 18.6339 5.75021 19.5334 5.75021 20.4226C5.75719 20.6182 5.69701 20.81 5.58012 20.965C5.46324 21.1199 5.29699 21.2282 5.11021 21.271C4.93677 21.3186 4.7527 21.3052 4.58763 21.2329C4.42257 21.1605 4.28611 21.0336 4.20021 20.8724C4.12163 20.714 4.08052 20.5389 4.08021 20.3613C4.08021 18.6032 4.08021 16.8553 4.08021 15.1075C4.06589 14.9856 4.07731 14.8619 4.1137 14.7449C4.15009 14.6279 4.21061 14.5203 4.29117 14.4292C4.37173 14.3382 4.47046 14.2658 4.5807 14.2171C4.69094 14.1683 4.81012 14.1443 4.93021 14.1466C5.04823 14.1501 5.16426 14.1786 5.2709 14.2303C5.37754 14.2821 5.47246 14.3561 5.54961 14.4474C5.62675 14.5388 5.68443 14.6456 5.71897 14.761C5.75351 14.8764 5.76415 14.9978 5.75021 15.1177V17.7446Z" fill="black"/>
<path d="M5.75032 6.3689C5.75032 6.79821 5.75032 7.22751 5.75032 7.66703C5.7557 7.7825 5.73874 7.89791 5.70042 8.00667C5.6621 8.11543 5.60317 8.2154 5.527 8.30085C5.45083 8.3863 5.35893 8.45555 5.25654 8.50465C5.15415 8.55374 5.0433 8.58172 4.93032 8.58696C4.81699 8.58699 4.7048 8.56386 4.60035 8.51893C4.4959 8.47399 4.40129 8.40816 4.3221 8.3253C4.2429 8.24245 4.18071 8.14424 4.13919 8.03646C4.09767 7.92868 4.07765 7.8135 4.08032 7.69769C4.08032 6.79821 4.08032 5.90894 4.08032 5.00945C4.07765 4.89633 4.09715 4.78381 4.13767 4.67851C4.17818 4.5732 4.23889 4.47725 4.31623 4.39629C4.39357 4.31534 4.48598 4.25101 4.588 4.2071C4.69003 4.16319 4.79962 4.14059 4.91032 4.14063C5.02327 4.14328 5.13459 4.16865 5.23794 4.2153C5.34129 4.26194 5.43464 4.32895 5.51264 4.41248C5.59065 4.49601 5.65179 4.59443 5.69257 4.70213C5.73335 4.80982 5.75298 4.92467 5.75032 5.04011C5.76032 5.47964 5.75032 5.91916 5.75032 6.3689Z" fill="black"/>
<path d="M0 11.2852H17.66" stroke="black" stroke-miterlimit="10"/>
</g>
<defs>
<clipPath id="clip0_2765_26295">
<rect width="18.71" height="30" fill="white"/>
</clipPath>
</defs>
</svg>

