<svg width="28" height="31" viewBox="0 0 28 31" fill="none" xmlns="http://www.w3.org/2000/svg">
<g clip-path="url(#clip0_2765_26388)">
<path d="M26.4902 23.0003C26.3246 23.283 26.0881 23.5176 25.8039 23.6807C25.5197 23.8439 25.1979 23.9299 24.8702 23.9303C24.5358 23.9316 24.2074 23.8417 23.9202 23.6703L22.4502 22.8103L22.7702 24.0003C22.8648 24.361 22.8127 24.7444 22.6253 25.0668C22.4379 25.3891 22.1305 25.6241 21.7702 25.7203C21.6527 25.7516 21.5318 25.7684 21.4102 25.7703C21.0991 25.7713 20.7965 25.6686 20.5502 25.4785C20.3039 25.2883 20.128 25.0216 20.0502 24.7203L19.0502 20.8003L15.5402 18.8003V22.9303L18.3802 25.8003C18.5115 25.9316 18.6157 26.0875 18.6868 26.2591C18.7579 26.4307 18.7944 26.6146 18.7944 26.8003C18.7944 26.986 18.7579 27.1699 18.6868 27.3415C18.6157 27.5131 18.5115 27.669 18.3802 27.8003C18.2489 27.9316 18.093 28.0358 17.9214 28.1069C17.7498 28.1779 17.5659 28.2145 17.3802 28.2145C17.1945 28.2145 17.0106 28.1779 16.839 28.1069C16.6674 28.0358 16.5115 27.9316 16.3802 27.8003L15.5502 26.9603V28.6803C15.5691 28.938 15.5345 29.1969 15.4489 29.4407C15.3632 29.6845 15.2281 29.908 15.0522 30.0973C14.8762 30.2866 14.6631 30.4376 14.4262 30.5408C14.1893 30.644 13.9336 30.6973 13.6752 30.6973C13.4168 30.6973 13.1611 30.644 12.9242 30.5408C12.6873 30.4376 12.4742 30.2866 12.2983 30.0973C12.1223 29.908 11.9873 29.6845 11.9016 29.4407C11.8159 29.1969 11.7814 28.938 11.8002 28.6803V26.9003L10.9602 27.7403C10.695 28.0055 10.3353 28.1545 9.96022 28.1545C9.58514 28.1545 9.22543 28.0055 8.96022 27.7403C8.695 27.4751 8.546 27.1154 8.546 26.7403C8.546 26.3652 8.695 26.0055 8.96022 25.7403L11.8002 22.8803L11.7502 18.7403L8.24022 20.7403L7.24022 24.6603C7.15938 24.9599 6.98264 25.2247 6.73704 25.4143C6.49144 25.604 6.19049 25.7079 5.88022 25.7103C5.75863 25.7084 5.63773 25.6916 5.52022 25.6603C5.15998 25.5641 4.85253 25.3291 4.66512 25.0068C4.47771 24.6844 4.42561 24.301 4.52022 23.9403L4.83022 22.7503L3.36022 23.6103C3.09845 23.7888 2.7869 23.8798 2.47022 23.8703C2.05808 23.8694 1.65765 23.7332 1.33054 23.4825C1.00342 23.2318 0.767756 22.8805 0.659797 22.4828C0.551837 22.085 0.57757 21.6628 0.733034 21.2811C0.888497 20.8995 1.16508 20.5794 1.52022 20.3703L3.00022 19.5603L1.81022 19.2303C1.63228 19.1817 1.46565 19.0986 1.31985 18.9856C1.17404 18.8726 1.05192 18.732 0.960458 18.5718C0.775735 18.2483 0.727087 17.8647 0.825217 17.5053C0.923347 17.1459 1.16022 16.8403 1.48372 16.6555C1.80722 16.4708 2.19085 16.4222 2.55022 16.5203L6.41022 17.5703L9.90022 15.5003L6.36022 13.4303L2.50022 14.4803C2.37728 14.4943 2.25316 14.4943 2.13022 14.4803C1.78437 14.4902 1.4471 14.3717 1.18347 14.1476C0.919833 13.9236 0.748507 13.6098 0.702536 13.2669C0.656564 12.924 0.739204 12.5762 0.934514 12.2906C1.12982 12.005 1.42397 11.8018 1.76022 11.7203L3.00022 11.4403L1.48022 10.5503C1.23884 10.4461 1.02216 10.2921 0.84431 10.0985C0.666461 9.90483 0.531444 9.67586 0.448072 9.42651C0.364699 9.17716 0.334844 8.91304 0.360457 8.65137C0.386069 8.3897 0.466571 8.13637 0.596711 7.90792C0.726851 7.67947 0.903702 7.48103 1.11572 7.32555C1.32774 7.17007 1.57017 7.06104 1.82717 7.00559C2.08418 6.95014 2.34999 6.94951 2.60725 7.00374C2.86452 7.05797 3.10746 7.16583 3.32022 7.3203L4.79022 8.1803L4.48022 7.0003C4.38629 6.64643 4.43267 6.26995 4.60969 5.94946C4.7867 5.62897 5.08067 5.38923 5.43022 5.2803C5.79735 5.18427 6.18746 5.23495 6.51786 5.42162C6.84826 5.60829 7.093 5.91627 7.20022 6.2803L8.20022 10.2003L11.6602 12.2503V8.1103L8.91022 5.2403C8.645 4.97509 8.496 4.61538 8.496 4.2403C8.496 3.86523 8.645 3.50552 8.91022 3.2403C9.17543 2.97509 9.53514 2.82609 9.91022 2.82609C10.2853 2.82609 10.645 2.97509 10.9102 3.2403L11.7402 4.0803L11.7002 2.3803C11.6814 2.12256 11.7159 1.8637 11.8016 1.61989C11.8873 1.37608 12.0223 1.15256 12.1983 0.963281C12.3742 0.774002 12.5873 0.623031 12.8242 0.519796C13.0611 0.416562 13.3168 0.363281 13.5752 0.363281C13.8336 0.363281 14.0893 0.416562 14.3262 0.519796C14.5631 0.623031 14.7762 0.774002 14.9522 0.963281C15.1281 1.15256 15.2632 1.37608 15.3489 1.61989C15.4345 1.8637 15.4691 2.12256 15.4502 2.3803V4.1003L16.2802 3.2603C16.5454 2.99509 16.9051 2.84609 17.2802 2.84609C17.6553 2.84609 18.015 2.99509 18.2802 3.2603C18.5454 3.52552 18.6944 3.88523 18.6944 4.2603C18.6944 4.63538 18.5454 4.99509 18.2802 5.2603L15.4502 8.1003L15.5002 12.2403L19.0002 10.1903L20.0002 6.2703C20.097 5.90298 20.3358 5.58915 20.664 5.39787C20.9922 5.20658 21.3829 5.1535 21.7502 5.2503C22.1175 5.34711 22.4314 5.58587 22.6227 5.91405C22.8139 6.24224 22.867 6.63298 22.7702 7.0003L22.4502 8.1903L23.9202 7.3303C24.3482 7.10514 24.8465 7.05358 25.3116 7.18633C25.7766 7.31908 26.1726 7.62593 26.4172 8.0431C26.6619 8.46028 26.7363 8.95568 26.6252 9.42634C26.514 9.897 26.2257 10.3067 25.8202 10.5703L24.3002 11.4603L25.4902 11.7803C25.8265 11.8618 26.1206 12.065 26.3159 12.3506C26.5112 12.6362 26.5939 12.984 26.5479 13.3269C26.5019 13.6698 26.3306 13.9836 26.067 14.2076C25.8033 14.4317 25.4661 14.5502 25.1202 14.5403C24.9976 14.5591 24.8728 14.5591 24.7502 14.5403L20.8402 13.4903L17.3502 15.5003L20.8902 17.5703L24.7502 16.5203C24.9282 16.4717 25.1139 16.4586 25.2969 16.4819C25.4799 16.5051 25.6565 16.5641 25.8167 16.6555C25.9769 16.747 26.1175 16.8691 26.2305 17.0149C26.3435 17.1607 26.4266 17.3274 26.4752 17.5053C26.5238 17.6832 26.5369 17.869 26.5137 18.052C26.4905 18.235 26.4314 18.4116 26.34 18.5718C26.2485 18.732 26.1264 18.8726 25.9806 18.9856C25.8348 19.0986 25.6682 19.1817 25.4902 19.2303L24.3002 19.5603L25.8202 20.4503C26.2461 20.7007 26.5555 21.1094 26.6811 21.5871C26.8066 22.0649 26.738 22.5729 26.4902 23.0003Z" stroke="#040000" stroke-miterlimit="10"/>
</g>
<defs>
<clipPath id="clip0_2765_26388">
<rect width="27.25" height="31" fill="white"/>
</clipPath>
</defs>
</svg>
