<svg width="33" height="28" viewBox="0 0 33 28" fill="none" xmlns="http://www.w3.org/2000/svg">
<path d="M9.75 15.9991C11.8211 15.9991 13.5 13.8994 13.5 11.3091C13.5 8.71893 11.8211 6.61914 9.75 6.61914C7.67893 6.61914 6 8.71893 6 11.3091C6 13.8994 7.67893 15.9991 9.75 15.9991Z" stroke="#040000" stroke-miterlimit="10"/>
<path d="M27.0005 6.62H15.7505C15.5285 6.65 15.3266 6.76446 15.1869 6.93956C15.0472 7.11466 14.9804 7.3369 15.0005 7.56V17.88H4.50046V1.94C4.52307 1.71639 4.45724 1.49281 4.31707 1.31712C4.17689 1.14144 3.97351 1.02761 3.75046 1H2.25046C2.02741 1.02761 1.82403 1.14144 1.68385 1.31712C1.54368 1.49281 1.47785 1.71639 1.50046 1.94V26.31C1.47785 26.5336 1.54368 26.7572 1.68385 26.9329C1.82403 27.1086 2.02741 27.2224 2.25046 27.25H3.75046C3.97351 27.2224 4.17689 27.1086 4.31707 26.9329C4.45724 26.7572 4.52307 26.5336 4.50046 26.31V23.5H28.5005V26.31C28.4779 26.5336 28.5437 26.7572 28.6839 26.9329C28.824 27.1086 29.0274 27.2224 29.2505 27.25H30.7505C30.9735 27.2224 31.1769 27.1086 31.3171 26.9329C31.4572 26.7572 31.5231 26.5336 31.5005 26.31V12.25C31.5005 9.09 29.4805 6.62 27.0005 6.62Z" stroke="#040000" stroke-miterlimit="10"/>
</svg>
