<svg width="31" height="32" viewBox="0 0 31 32" fill="none" xmlns="http://www.w3.org/2000/svg">
<g clip-path="url(#clip0_2765_26436)">
<path d="M30.3104 21.3398L29.3104 19.4598C29.1118 19.1217 28.8261 18.8431 28.4831 18.6531C28.14 18.4631 27.7523 18.3687 27.3604 18.3798H3.63036C3.2399 18.3695 2.85384 18.4643 2.51256 18.6543C2.17128 18.8443 1.88732 19.1225 1.69036 19.4598L0.690363 21.3398C0.537523 21.6213 0.469415 21.9411 0.494257 22.2605C0.519099 22.5799 0.635828 22.8852 0.830363 23.1398C1.03686 23.4074 1.302 23.6241 1.60539 23.7732C1.90878 23.9223 2.24232 23.9998 2.58036 23.9998V30.5598C2.58797 30.6921 2.62181 30.8215 2.67989 30.9407C2.73798 31.0598 2.81916 31.1662 2.91872 31.2536C3.01828 31.3411 3.13423 31.4079 3.25983 31.4501C3.38543 31.4924 3.51818 31.5093 3.65036 31.4998H5.80036C5.93254 31.5093 6.06529 31.4924 6.1909 31.4501C6.3165 31.4079 6.43245 31.3411 6.53201 31.2536C6.63157 31.1662 6.71275 31.0598 6.77084 30.9407C6.82892 30.8215 6.86275 30.6921 6.87036 30.5598V23.9998H24.0004V30.5598C24.008 30.6921 24.0418 30.8215 24.0999 30.9407C24.158 31.0598 24.2392 31.1662 24.3387 31.2536C24.4383 31.3411 24.5542 31.4079 24.6798 31.4501C24.8054 31.4924 24.9382 31.5093 25.0704 31.4998H27.1604C27.2925 31.5093 27.4253 31.4924 27.5509 31.4501C27.6765 31.4079 27.7924 31.3411 27.892 31.2536C27.9916 31.1662 28.0727 31.0598 28.1308 30.9407C28.1889 30.8215 28.2228 30.6921 28.2304 30.5598L28.3604 23.9998C28.7064 24.0052 29.0491 23.9304 29.3614 23.7812C29.6737 23.632 29.9472 23.4124 30.1604 23.1398C30.3542 22.8852 30.4713 22.5805 30.4978 22.2616C30.5244 21.9428 30.4594 21.6229 30.3104 21.3398V21.3398Z" stroke="#040000" stroke-miterlimit="10"/>
<path d="M7.94027 8C7.98158 7.15273 8.25287 6.33271 8.72504 5.62799C9.1972 4.92327 9.8524 4.36046 10.6203 4V15.5H13.8303V3.31H17.0503V15.5H20.2603V4C21.04 4.34446 21.7058 4.90328 22.1802 5.61142C22.6547 6.31956 22.9183 7.14789 22.9403 8V15.5H26.1603V8C26.1603 3.86 22.3203 0.5 17.5803 0.5H13.3003C8.62027 0.5 4.78027 3.86 4.78027 8V15.5H8.00027L7.94027 8Z" stroke="#040000" stroke-miterlimit="10"/>
</g>
<defs>
<clipPath id="clip0_2765_26436">
<rect width="31" height="32" fill="white"/>
</clipPath>
</defs>
</svg>
