<svg width="34" height="28" viewBox="0 0 34 28" fill="none" xmlns="http://www.w3.org/2000/svg">
<path d="M30.4269 12.25C29.7413 12.3136 29.108 12.6436 28.663 13.169C28.218 13.6944 27.9968 14.3733 28.0469 15.06V19.75H5.7769V15.06C5.82697 14.3733 5.60576 13.6944 5.16076 13.169C4.71576 12.6436 4.08248 12.3136 3.3969 12.25C2.70953 12.3112 2.07373 12.64 1.62663 13.1657C1.17953 13.6914 0.956956 14.3717 1.0069 15.06V26.31C0.990257 26.5403 1.0648 26.7679 1.21446 26.9438C1.36412 27.1196 1.57689 27.2296 1.8069 27.25H4.9869C5.09841 27.2389 5.20655 27.2055 5.30498 27.1519C5.4034 27.0984 5.49011 27.0256 5.56 26.9381C5.62989 26.8505 5.68154 26.7498 5.71192 26.6419C5.74231 26.534 5.7508 26.4212 5.7369 26.31V25.38H28.0469V26.31C28.0275 26.5393 28.0997 26.767 28.2478 26.9431C28.3958 27.1193 28.6077 27.2297 28.8369 27.25H32.0169C32.2469 27.2296 32.4597 27.1196 32.6093 26.9438C32.759 26.7679 32.8336 26.5403 32.8169 26.31V15.06C32.8669 14.3717 32.6443 13.6914 32.1972 13.1657C31.7501 12.64 31.1143 12.3112 30.4269 12.25V12.25Z" stroke="#040000" stroke-miterlimit="10"/>
<path d="M7.93652 15.06V17.88H25.9365V15.06C25.8711 14.0731 26.1284 13.0916 26.6695 12.2637C27.2107 11.4358 28.0063 10.8062 28.9365 10.47V8.5C28.9365 4.36 26.2465 1 22.9365 1H10.9365C7.62652 1 4.93652 4.36 4.93652 8.5V10.5C5.86154 10.8348 6.65348 11.4597 7.19416 12.2816C7.73483 13.1034 7.99524 14.078 7.93652 15.06V15.06Z" stroke="#040000" stroke-miterlimit="10"/>
</svg>
