<svg width="28" height="30" viewBox="0 0 28 30" fill="none" xmlns="http://www.w3.org/2000/svg">
<path d="M3.1462 1H24.5062H24.5862C25.1742 1.12116 25.6993 1.44909 26.0663 1.92428C26.4332 2.39947 26.6177 2.99045 26.5862 3.59C26.5862 11.29 26.5862 18.99 26.5862 26.68C26.5948 26.949 26.5679 27.218 26.5062 27.48C26.3645 28.0246 26.0395 28.5038 25.5861 28.8371C25.1326 29.1703 24.5783 29.3373 24.0162 29.31H3.3562C3.02127 29.3043 2.69115 29.2294 2.38655 29.09C2.08195 28.9506 1.80947 28.7497 1.5862 28.5C1.16804 27.9894 0.960583 27.3384 1.0062 26.68V3.7C0.973281 3.0053 1.2097 2.32469 1.6662 1.8C2.06586 1.38792 2.58252 1.10865 3.1462 1V1Z" stroke="black" stroke-miterlimit="10"/>
<path d="M13.816 25.9391C12.252 25.9372 10.7237 25.4716 9.42419 24.6012C8.12471 23.7308 7.11242 22.4948 6.51527 21.0492C5.91811 19.6037 5.76289 18.0136 6.06923 16.4799C6.37557 14.9461 7.12971 13.5376 8.23634 12.4324C9.34297 11.3272 10.7524 10.5748 12.2865 10.2704C13.8206 9.966 15.4106 10.1232 16.8554 10.7222C18.3001 11.3212 19.5349 12.335 20.4036 13.6356C21.2724 14.9362 21.736 16.4651 21.736 18.0291C21.7373 19.0691 21.5333 20.0991 21.1356 21.06C20.738 22.021 20.1545 22.8939 19.4186 23.6288C18.6828 24.3637 17.8091 24.9461 16.8477 25.3426C15.8862 25.739 14.856 25.9418 13.816 25.9391V25.9391Z" stroke="black" stroke-miterlimit="10"/>
<path d="M7.73656 16.7096L9.12656 17.4396C9.46366 17.6282 9.84059 17.7344 10.2266 17.7496C10.807 17.7454 11.3709 17.5562 11.8366 17.2096C12.6691 16.7133 13.6569 16.5457 14.6066 16.7396C15.1791 16.8705 15.7219 17.108 16.2066 17.4396C16.5026 17.6253 16.8395 17.736 17.188 17.7621C17.5365 17.7883 17.8861 17.729 18.2066 17.5896C18.7966 17.3396 19.3466 17.0096 19.9166 16.7096C19.6208 15.3123 18.854 14.059 17.7444 13.1596C16.6348 12.2603 15.2499 11.7695 13.8216 11.7695C12.3933 11.7695 11.0084 12.2603 9.89876 13.1596C8.78917 14.059 8.02229 15.3123 7.72656 16.7096H7.73656Z" stroke="black" stroke-miterlimit="10"/>
<path d="M7.65594 18.4997L7.58594 18.5797C7.66923 19.6367 8.02661 20.6538 8.62284 21.5306C9.21906 22.4074 10.0335 23.1137 10.9859 23.5797C12.0333 24.1513 13.2274 24.3976 14.4155 24.2872C15.6036 24.1768 16.7318 23.7146 17.6559 22.9597C18.3562 22.4385 18.9314 21.7678 19.3396 20.9962C19.7479 20.2247 19.9789 19.3718 20.0159 18.4997L19.5959 18.7297C19.2773 18.9242 18.9428 19.0915 18.5959 19.2297C18.079 19.3997 17.5318 19.4583 16.9906 19.4014C16.4493 19.3445 15.9263 19.1735 15.4559 18.8997C15.1663 18.7117 14.858 18.5542 14.5359 18.4297C14.1711 18.3313 13.7889 18.3153 13.417 18.3827C13.0452 18.4502 12.693 18.5994 12.3859 18.8197C11.7728 19.2182 11.0572 19.4303 10.3259 19.4303C9.59466 19.4303 8.87908 19.2182 8.26594 18.8197L7.65594 18.4997Z" stroke="black" stroke-miterlimit="10"/>
<path d="M21.8258 3.87023C22.1158 3.87023 22.4158 3.87023 22.7058 3.87023C22.9093 3.88512 23.1 3.97534 23.2405 4.12328C23.381 4.27121 23.4614 4.46623 23.4658 4.67023C23.4743 4.87064 23.4053 5.06662 23.2731 5.21746C23.1409 5.36831 22.9556 5.46241 22.7558 5.48023C22.1358 5.50023 21.5058 5.50023 20.8858 5.50023C20.686 5.47996 20.5017 5.38339 20.3713 5.23065C20.2409 5.0779 20.1745 4.88075 20.1858 4.68023C20.1904 4.47727 20.2711 4.28344 20.4119 4.13714C20.5526 3.99083 20.7432 3.90271 20.9458 3.89023C21.2358 3.85023 21.5058 3.87023 21.8258 3.87023Z" stroke="black" stroke-miterlimit="10"/>
<path d="M17.5061 3.87025C17.8061 3.87025 18.0961 3.87025 18.3861 3.87025C18.5853 3.88493 18.772 3.97268 18.9104 4.11664C19.0489 4.26061 19.1292 4.45065 19.1361 4.65025C19.1474 4.85076 19.081 5.04792 18.9506 5.20066C18.8202 5.35341 18.6359 5.44997 18.4361 5.47025C17.7941 5.52196 17.1494 5.53198 16.5061 5.50025C16.3061 5.48245 16.1212 5.38621 15.992 5.23257C15.8627 5.07893 15.7995 4.88036 15.8161 4.68025C15.8207 4.47994 15.9003 4.28865 16.0392 4.14421C16.1781 3.99978 16.3661 3.91272 16.5661 3.90025C16.8761 3.86025 17.1761 3.87025 17.5061 3.87025Z" stroke="black" stroke-miterlimit="10"/>
<path d="M1.00586 7.46094H26.6459" stroke="black" stroke-miterlimit="10"/>
</svg>
