<svg width="30" height="28" viewBox="0 0 30 28" fill="none" xmlns="http://www.w3.org/2000/svg">
<g clip-path="url(#clip0_2765_26324)">
<path d="M28.8504 13.77C28.8478 13.1538 28.6011 12.5637 28.1645 12.1289C27.7278 11.6941 27.1367 11.45 26.5204 11.45H4.41043V3.88001C4.40908 3.67131 4.44936 3.46442 4.52892 3.27147C4.60847 3.07851 4.7257 2.90335 4.87375 2.75623C5.02179 2.60912 5.19769 2.493 5.39114 2.41466C5.5846 2.33633 5.79173 2.29735 6.00043 2.30001H6.40043C6.82125 2.30229 7.224 2.47131 7.52043 2.77001L7.45043 2.84001C7.16773 3.11908 6.94327 3.4515 6.79007 3.818C6.63687 4.18451 6.55798 4.57778 6.55798 4.97501C6.55798 5.37225 6.63687 5.76552 6.79007 6.13202C6.94327 6.49853 7.16773 6.83095 7.45043 7.11001L7.85043 7.51002C7.93343 7.5959 8.03287 7.66421 8.14282 7.71086C8.25277 7.75751 8.37099 7.78155 8.49043 7.78155C8.60987 7.78155 8.72809 7.75751 8.83804 7.71086C8.94799 7.66421 9.04743 7.5959 9.13043 7.51002L13.0704 3.57001C13.2384 3.40135 13.3326 3.17303 13.3326 2.93501C13.3326 2.697 13.2384 2.46868 13.0704 2.30001L12.6704 1.90001C12.1748 1.39817 11.5182 1.087 10.8159 1.02117C10.1137 0.955329 9.4107 1.13903 8.83043 1.54001C8.5171 1.21092 8.14009 0.949012 7.72234 0.770222C7.30459 0.591432 6.85483 0.499498 6.40043 0.500015H6.00043C5.55525 0.4987 5.11417 0.585083 4.70237 0.754232C4.29057 0.923382 3.91612 1.17198 3.6004 1.48585C3.28468 1.79971 3.03388 2.17268 2.8623 2.58348C2.69072 2.99427 2.60174 3.43483 2.60043 3.88001V11.46C2.0786 11.5096 1.58896 11.7345 1.21127 12.098C0.833584 12.4614 0.590116 12.9421 0.520535 13.4616C0.450954 13.9812 0.559362 14.509 0.828096 14.959C1.09683 15.4091 1.51005 15.7548 2.00043 15.94V18.94C2.00175 20.1917 2.4339 21.4048 3.22425 22.3755C4.01459 23.3461 5.11496 24.0151 6.34043 24.27L5.55043 25C5.46704 25.0841 5.40102 25.1837 5.35614 25.2933C5.31126 25.4028 5.2884 25.5202 5.28887 25.6386C5.28933 25.7569 5.31311 25.8741 5.35885 25.9833C5.40458 26.0925 5.47138 26.1916 5.55543 26.275C5.63947 26.3584 5.73912 26.4244 5.84868 26.4693C5.95824 26.5142 6.07557 26.537 6.19396 26.5366C6.31236 26.5361 6.4295 26.5123 6.53871 26.4666C6.64791 26.4209 6.74704 26.3541 6.83043 26.27L8.77043 24.34H20.5804L22.5204 26.27C22.6036 26.3556 22.7031 26.4236 22.813 26.47C22.9229 26.5164 23.0411 26.5402 23.1604 26.54C23.2783 26.5406 23.3951 26.5169 23.5035 26.4705C23.6119 26.424 23.7095 26.3558 23.7904 26.27C23.876 26.1879 23.9441 26.0893 23.9907 25.9802C24.0372 25.871 24.0612 25.7536 24.0612 25.635C24.0612 25.5164 24.0372 25.399 23.9907 25.2899C23.9441 25.1807 23.876 25.0821 23.7904 25L23.0004 24.24C24.225 23.9834 25.3243 23.3139 26.1144 22.3436C26.9044 21.3734 27.3372 20.1612 27.3404 18.91V15.91C27.7776 15.7457 28.1553 15.4539 28.4246 15.0723C28.6938 14.6907 28.8422 14.237 28.8504 13.77V13.77Z" stroke="#040000" stroke-miterlimit="10"/>
<path d="M11.9207 9.61099C12.0039 9.69188 12.1146 9.73832 12.2307 9.74099C12.3463 9.73644 12.4564 9.69027 12.5407 9.61099C12.6225 9.52857 12.6684 9.41713 12.6684 9.30099C12.6684 9.18485 12.6225 9.07341 12.5407 8.99099L12.1007 8.55099C12.0614 8.50439 12.0129 8.46646 11.9582 8.4396C11.9035 8.41273 11.8438 8.39752 11.7829 8.39493C11.7221 8.39234 11.6613 8.40242 11.6045 8.42453C11.5477 8.44665 11.4962 8.48032 11.4531 8.5234C11.41 8.56649 11.3763 8.61806 11.3542 8.67484C11.3321 8.73162 11.322 8.79238 11.3246 8.85326C11.3272 8.91414 11.3424 8.97381 11.3693 9.02851C11.3961 9.0832 11.4341 9.13172 11.4807 9.17099L11.9207 9.61099Z" fill="#040000"/>
<path d="M13.2403 9.17081L13.6803 9.61081C13.7635 9.6917 13.8742 9.73813 13.9903 9.74081C14.1059 9.73626 14.216 9.69009 14.3003 9.61081C14.3821 9.52839 14.428 9.41695 14.428 9.30081C14.428 9.18466 14.3821 9.07323 14.3003 8.99081L13.8603 8.55081C13.776 8.47978 13.6681 8.44297 13.558 8.44766C13.4479 8.45236 13.3435 8.4982 13.2656 8.57614C13.1877 8.65407 13.1418 8.75842 13.1371 8.86854C13.1324 8.97866 13.1692 9.08653 13.2403 9.17081Z" fill="#040000"/>
<path d="M11.6608 7.22927L11.2208 6.78927C11.1815 6.74267 11.133 6.70474 11.0783 6.67788C11.0236 6.65102 10.9639 6.6358 10.9031 6.63321C10.8422 6.63062 10.7814 6.6407 10.7246 6.66281C10.6679 6.68493 10.6163 6.7186 10.5732 6.76169C10.5301 6.80477 10.4965 6.85634 10.4743 6.91312C10.4522 6.9699 10.4421 7.03066 10.4447 7.09154C10.4473 7.15242 10.4625 7.2121 10.4894 7.26679C10.5163 7.32148 10.5542 7.37 10.6008 7.40927L11.0408 7.84927C11.0819 7.88884 11.1305 7.91983 11.1837 7.94044C11.237 7.96104 11.2937 7.97084 11.3508 7.96927C11.4653 7.96837 11.5755 7.9257 11.6608 7.84927C11.7426 7.76685 11.7885 7.65541 11.7885 7.53927C11.7885 7.42313 11.7426 7.31169 11.6608 7.22927Z" fill="#040000"/>
<path d="M13.0001 6.78927C12.9608 6.74267 12.9123 6.70474 12.8576 6.67788C12.8029 6.65102 12.7432 6.6358 12.6824 6.63321C12.6215 6.63062 12.5607 6.6407 12.5039 6.66281C12.4472 6.68493 12.3956 6.7186 12.3525 6.76169C12.3094 6.80477 12.2757 6.85634 12.2536 6.91312C12.2315 6.9699 12.2214 7.03066 12.224 7.09154C12.2266 7.15242 12.2418 7.2121 12.2687 7.26679C12.2956 7.32148 12.3335 7.37 12.3801 7.40927L12.8201 7.84927C12.9043 7.92737 13.0152 7.9703 13.1301 7.96927C13.2446 7.96837 13.3548 7.9257 13.4401 7.84927C13.5219 7.76685 13.5678 7.65541 13.5678 7.53927C13.5678 7.42313 13.5219 7.31169 13.4401 7.22927L13.0001 6.78927Z" fill="#040000"/>
<path d="M12.3309 5.00044C12.249 5.08286 12.2031 5.1943 12.2031 5.31044C12.2031 5.42658 12.249 5.53802 12.3309 5.62044L12.7709 6.06044C12.8552 6.13972 12.9653 6.18589 13.0809 6.19044C13.1969 6.18777 13.3076 6.14133 13.3909 6.06044C13.4727 5.97802 13.5186 5.86658 13.5186 5.75044C13.5186 5.6343 13.4727 5.52286 13.3909 5.44044L13.0009 5.00044C12.9596 4.95193 12.9082 4.91297 12.8504 4.88626C12.7925 4.85954 12.7296 4.8457 12.6659 4.8457C12.6022 4.8457 12.5392 4.85954 12.4814 4.88626C12.4235 4.91297 12.3722 4.95193 12.3309 5.00044Z" fill="#040000"/>
<path d="M14.4803 7.31979C14.5179 7.36188 14.5642 7.3953 14.616 7.41775C14.6678 7.44019 14.7239 7.45113 14.7803 7.44979C14.8383 7.45192 14.8961 7.44139 14.9496 7.41894C15.0032 7.39649 15.0512 7.36266 15.0903 7.31979C15.1721 7.23737 15.2181 7.12594 15.2181 7.00979C15.2181 6.89365 15.1721 6.78222 15.0903 6.69979L14.6503 6.25979C14.566 6.18877 14.4582 6.15196 14.348 6.15665C14.2379 6.16134 14.1336 6.20719 14.0556 6.28512C13.9777 6.36306 13.9318 6.46741 13.9272 6.57752C13.9225 6.68764 13.9593 6.79551 14.0303 6.87979L14.4803 7.31979Z" fill="#040000"/>
</g>
<defs>
<clipPath id="clip0_2765_26324">
<rect width="29.35" height="27.05" fill="white"/>
</clipPath>
</defs>
</svg>
