<svg width="21" height="30" viewBox="0 0 21 30" fill="none" xmlns="http://www.w3.org/2000/svg">
<g clip-path="url(#clip0_2792_26431)">
<path d="M2.74018 16.9995L5.33018 16.8095C9.38863 16.5427 13.462 16.6063 17.5102 16.9995C19.8702 17.2195 19.9702 17.2995 19.9702 19.6495C19.9702 20.0595 19.9702 20.4595 19.9702 20.8695C20.0427 22.0075 19.6685 23.1289 18.9271 23.9954C18.1858 24.8618 17.1357 25.405 16.0002 25.5095L15.3602 25.6195C15.3602 26.2795 15.3602 26.9495 15.3602 27.6195C15.3785 27.7749 15.3638 27.9325 15.3169 28.0819C15.27 28.2312 15.1921 28.369 15.0882 28.4861C14.9843 28.6032 14.8568 28.697 14.7141 28.7613C14.5714 28.8257 14.4167 28.8591 14.2602 28.8595C14.1053 28.8597 13.952 28.8283 13.8096 28.7673C13.6672 28.7063 13.5388 28.6169 13.4321 28.5046C13.3254 28.3923 13.2427 28.2595 13.1891 28.1142C13.1355 27.9688 13.112 27.8141 13.1202 27.6595C13.1202 27.0095 13.1202 26.3695 13.1202 25.6595H7.35018C7.35018 26.2795 7.35018 26.9195 7.35018 27.5495C7.35018 28.4095 6.96018 28.8595 6.26018 28.8695C5.56018 28.8795 5.17018 28.4195 5.14018 27.5795C5.14018 27.2595 5.14018 26.9295 5.14018 26.5795V25.5795L4.26018 25.4295C3.21843 25.2784 2.26564 24.758 1.57546 23.9632C0.885286 23.1684 0.503675 22.1521 0.500183 21.0995V4.92945C0.494878 4.34922 0.604918 3.77371 0.823911 3.23637C1.0429 2.69902 1.36648 2.21054 1.77586 1.79931C2.18523 1.38808 2.67224 1.06228 3.20858 0.840856C3.74493 0.619428 4.31993 0.506779 4.90018 0.509453C8.46018 0.499453 12.0002 0.499453 15.5702 0.509453C16.1425 0.494839 16.712 0.594128 17.2456 0.801549C17.7792 1.00897 18.2663 1.32038 18.6785 1.71769C19.0907 2.115 19.4198 2.59028 19.6467 3.11589C19.8736 3.64151 19.9937 4.20699 20.0002 4.77945C20.0502 7.27945 20.0002 9.77945 20.0002 12.2995C20.0182 12.4603 20.0027 12.6232 19.9546 12.7778C19.9064 12.9324 19.8267 13.0753 19.7205 13.1975C19.6143 13.3197 19.4839 13.4185 19.3375 13.4877C19.1912 13.5569 19.032 13.5949 18.8702 13.5995C18.2402 13.5995 17.8002 13.0595 17.7902 12.2495C17.7902 9.97945 17.7902 7.71945 17.7902 5.44945C17.7902 3.52945 17.0202 2.74945 15.1002 2.74945H5.37018C3.53018 2.74945 2.75018 3.51945 2.75018 5.33945C2.75018 8.94612 2.75018 12.5561 2.75018 16.1695L2.74018 16.9995ZM2.74018 19.2895C2.74018 19.9895 2.74018 20.5795 2.74018 21.1695C2.73611 21.4511 2.78875 21.7308 2.89498 21.9917C3.00121 22.2526 3.15885 22.4895 3.35852 22.6882C3.55819 22.887 3.79581 23.0435 4.05723 23.1485C4.31864 23.2535 4.59852 23.3048 4.88018 23.2995C8.45018 23.2995 12.0302 23.2995 15.6102 23.2995C16.0821 23.2951 16.5383 23.1289 16.9023 22.8286C17.2664 22.5282 17.5163 22.112 17.6102 21.6495C17.6945 20.8723 17.7379 20.0912 17.7402 19.3095C12.7577 18.7766 7.73264 18.7766 2.75018 19.3095L2.74018 19.2895Z" stroke="black" stroke-miterlimit="10"/>
<path d="M10.1997 14.4494C9.62641 14.45 9.06069 14.3181 8.54675 14.064C8.03281 13.8099 7.58456 13.4404 7.23701 12.9844C6.88946 12.5285 6.65201 11.9983 6.5432 11.4354C6.43439 10.8725 6.45716 10.292 6.60974 9.73939C7.1465 8.03845 8.14325 6.51911 9.48974 5.34939C9.6285 5.19929 9.80633 5.09082 10.0033 5.03616C10.2003 4.98149 10.4086 4.98279 10.6048 5.03991C10.8011 5.09702 10.9776 5.20769 11.1144 5.35951C11.2513 5.51132 11.3432 5.69827 11.3797 5.89939C11.5404 6.77709 12.0396 7.55647 12.7697 8.06939C13.3068 8.52317 13.691 9.13146 13.8699 9.81144C14.0489 10.4914 14.0139 11.21 13.7697 11.8694C13.5354 12.6287 13.0603 13.2911 12.4163 13.7565C11.7722 14.222 10.9942 14.4652 10.1997 14.4494V14.4494ZM9.99974 8.36939H9.67974C9.3266 9.15774 9.03896 9.97383 8.81974 10.8094C8.67974 11.4794 9.16974 11.9694 9.81974 12.1894C10.1568 12.2957 10.5202 12.2821 10.8483 12.1509C11.1765 12.0196 11.449 11.7788 11.6197 11.4694C11.7866 11.2053 11.8503 10.889 11.7987 10.5809C11.747 10.2728 11.5836 9.99459 11.3397 9.79939C10.8297 9.30939 10.3897 8.83939 9.99974 8.36939Z" stroke="black" stroke-miterlimit="10"/>
<path d="M11.3401 21.1295C11.3401 21.4239 11.2232 21.7063 11.015 21.9144C10.8068 22.1226 10.5245 22.2395 10.2301 22.2395C9.93573 22.2395 9.65339 22.1226 9.44523 21.9144C9.23706 21.7063 9.12012 21.4239 9.12012 21.1295C9.12012 20.8351 9.23706 20.5528 9.44523 20.3446C9.65339 20.1365 9.93573 20.0195 10.2301 20.0195C10.5245 20.0195 10.8068 20.1365 11.015 20.3446C11.2232 20.5528 11.3401 20.8351 11.3401 21.1295V21.1295Z" stroke="black" stroke-miterlimit="10"/>
</g>
<defs>
<clipPath id="clip0_2792_26431">
<rect width="20.48" height="29.35" fill="white"/>
</clipPath>
</defs>
</svg>
