<svg width="32" height="32" viewBox="0 0 32 32" fill="none" xmlns="http://www.w3.org/2000/svg">
<path d="M17.3597 4.59519C17.7317 3.99011 18.1458 3.41201 18.599 2.86519C18.6552 2.79439 18.7266 2.7372 18.8079 2.69788C18.8892 2.65857 18.9784 2.63815 19.0687 2.63815C19.1591 2.63815 19.2482 2.65857 19.3296 2.69788C19.4109 2.7372 19.4823 2.79439 19.5385 2.86519C20.7236 4.29088 21.6779 5.89368 22.3668 7.61519C23.0096 9.04245 23.392 10.5732 23.4962 12.1352C23.4962 17.2752 20.1581 21.6152 16.0005 21.6152C11.8429 21.6152 8.50488 17.2752 8.50488 12.1352C8.62186 10.2762 9.14013 8.46457 10.024 6.82519C11.0407 4.79552 12.3211 2.90919 13.8318 1.21519C13.889 1.14774 13.9602 1.09356 14.0405 1.05641C14.1207 1.01925 14.2081 1 14.2965 1C14.3849 1 14.4723 1.01925 14.5526 1.05641C14.6328 1.09356 14.704 1.14774 14.7612 1.21519C15.7051 2.27988 16.5734 3.4093 17.3597 4.59519V4.59519Z" stroke="#040000" stroke-miterlimit="10"/>
<path d="M19.2779 11.3161C19.1908 11.0726 19.0803 10.8382 18.9481 10.6161L17.269 13.0761C17.269 13.0761 14.5506 8.73609 14.3607 8.49609C12.9515 10.6661 12.252 11.8961 12.252 13.2961C12.252 16.1661 13.941 17.8661 15.9998 17.8661C16.8613 17.8727 17.6947 17.5591 18.3384 16.9861C19.0501 16.2472 19.5209 15.3095 19.6887 14.2972C19.8564 13.2848 19.7132 12.2453 19.2779 11.3161V11.3161Z" stroke="#040000" stroke-miterlimit="10"/>
<path d="M2.50785 17.8153C2.47296 17.3713 2.6086 16.9306 2.88715 16.5831C3.1657 16.2357 3.56618 16.0076 4.00698 15.9453H5.50611C5.94691 16.0076 6.34739 16.2357 6.62594 16.5831C6.90448 16.9306 7.04013 17.3713 7.00523 17.8153C7.03162 18.0375 7.01365 18.2627 6.95238 18.4778C6.89111 18.693 6.78774 18.8939 6.64829 19.0688C6.50883 19.2436 6.33606 19.3891 6.13999 19.4966C5.94392 19.6042 5.72846 19.6717 5.50611 19.6953V23.4953H26.4939V19.6953C26.2715 19.6717 26.0561 19.6042 25.86 19.4966C25.6639 19.3891 25.4912 19.2436 25.3517 19.0688C25.2123 18.8939 25.1089 18.693 25.0476 18.4778C24.9863 18.2627 24.9684 18.0375 24.9948 17.8153C24.9599 17.3713 25.0955 16.9306 25.3741 16.5831C25.6526 16.2357 26.0531 16.0076 26.4939 15.9453H27.993C28.4338 16.0076 28.8343 16.2357 29.1128 16.5831C29.3914 16.9306 29.527 17.3713 29.4921 17.8153V23.4953C29.9361 23.5505 30.341 23.7768 30.6209 24.1259C30.9009 24.4751 31.0337 24.9197 30.9913 25.3653V29.1153C31.0365 29.5625 30.9049 30.0097 30.6247 30.3611C30.3445 30.7124 29.938 30.9401 29.4921 30.9953H2.50785C2.06201 30.9401 1.65548 30.7124 1.3753 30.3611C1.09511 30.0097 0.963533 29.5625 1.00872 29.1153V25.3653C0.966292 24.9197 1.09914 24.4751 1.37906 24.1259C1.65898 23.7768 2.06391 23.5505 2.50785 23.4953V17.8153Z" stroke="#040000" stroke-miterlimit="10"/>
<path d="M16.0001 29.1252C16.828 29.1252 17.4992 28.2835 17.4992 27.2452C17.4992 26.2069 16.828 25.3652 16.0001 25.3652C15.1722 25.3652 14.501 26.2069 14.501 27.2452C14.501 28.2835 15.1722 29.1252 16.0001 29.1252Z" stroke="#040000" stroke-miterlimit="10"/>
<path d="M21.9962 29.1252C22.8241 29.1252 23.4953 28.2835 23.4953 27.2452C23.4953 26.2069 22.8241 25.3652 21.9962 25.3652C21.1683 25.3652 20.4971 26.2069 20.4971 27.2452C20.4971 28.2835 21.1683 29.1252 21.9962 29.1252Z" stroke="#040000" stroke-miterlimit="10"/>
<path d="M10.004 29.1252C10.832 29.1252 11.5031 28.2835 11.5031 27.2452C11.5031 26.2069 10.832 25.3652 10.004 25.3652C9.17607 25.3652 8.50488 26.2069 8.50488 27.2452C8.50488 28.2835 9.17607 29.1252 10.004 29.1252Z" stroke="#040000" stroke-miterlimit="10"/>
</svg>
