<svg width="31" height="31" viewBox="0 0 31 31" fill="none" xmlns="http://www.w3.org/2000/svg">
<path d="M16.8705 0.999482C17.0131 0.841046 17.1873 0.714355 17.382 0.627632C17.5767 0.54091 17.7874 0.496094 18.0005 0.496094C18.2137 0.496094 18.4244 0.54091 18.6191 0.627632C18.8137 0.714355 18.988 0.841046 19.1305 0.999482L30.0005 12.2495C30.2566 12.519 30.4324 12.8545 30.5084 13.2184C30.5843 13.5822 30.5574 13.9601 30.4305 14.3095C30.328 14.6463 30.1222 14.9424 29.8423 15.1559C29.5624 15.3694 29.2225 15.4896 28.8705 15.4995H27.1705V22.0595C27.2116 22.7646 26.9715 23.4573 26.503 23.9858C26.0344 24.5144 25.3755 24.8357 24.6705 24.8795H15.9405C14.7005 19.0995 10.6805 14.5095 5.56055 13.1395C5.62139 12.8076 5.77379 12.4993 6.00055 12.2495L16.8705 0.999482Z" stroke="#040000" stroke-miterlimit="10"/>
<path d="M16.3302 11.75C16.0914 11.7653 15.8675 11.871 15.704 12.0457C15.5405 12.2203 15.4497 12.4508 15.4502 12.69V16.44C15.4497 16.6792 15.5405 16.9097 15.704 17.0843C15.8675 17.259 16.0914 17.3647 16.3302 17.38H19.6702C19.9036 17.3621 20.1209 17.2538 20.2759 17.0783C20.4308 16.9028 20.5113 16.6739 20.5002 16.44V12.69C20.5113 12.4561 20.4308 12.2272 20.2759 12.0517C20.1209 11.8762 19.9036 11.7679 19.6702 11.75H16.3302Z" stroke="#040000" stroke-miterlimit="10"/>
<path d="M13.8303 29.09C13.8412 29.2647 13.8174 29.4399 13.7604 29.6054C13.7034 29.7709 13.6142 29.9235 13.4981 30.0545C13.382 30.1855 13.2411 30.2923 13.0836 30.3688C12.9261 30.4452 12.7551 30.4898 12.5803 30.5C12.2283 30.4768 11.8997 30.3158 11.6657 30.0518C11.4316 29.7878 11.3112 29.4422 11.3303 29.09C11.3303 23.14 7.04035 18.31 1.75035 18.31C1.39818 18.2803 1.07003 18.1194 0.830866 17.8592C0.591706 17.5989 0.458984 17.2584 0.458984 16.905C0.458984 16.5516 0.591706 16.2111 0.830866 15.9508C1.07003 15.6906 1.39818 15.5297 1.75035 15.5C8.42035 15.5 13.8303 21.59 13.8303 29.09Z" stroke="#040000" stroke-miterlimit="10"/>
<path d="M2.17 30.51C3.09232 30.51 3.84 29.6683 3.84 28.63C3.84 27.5917 3.09232 26.75 2.17 26.75C1.24768 26.75 0.5 27.5917 0.5 28.63C0.5 29.6683 1.24768 30.51 2.17 30.51Z" stroke="#040000" stroke-miterlimit="10"/>
<path d="M0.500033 22.5289C0.480914 22.1777 0.601704 21.8332 0.83597 21.5708C1.07023 21.3084 1.3989 21.1495 1.75003 21.1289C5.66003 21.1289 8.83003 24.6889 8.83003 29.1289C8.84106 29.4751 8.71664 29.8119 8.4832 30.0677C8.24977 30.3236 7.92575 30.4783 7.58003 30.4989C7.22803 30.4757 6.89936 30.3147 6.66534 30.0507C6.43133 29.7868 6.31084 29.4412 6.33003 29.0889C6.40116 27.7997 5.95953 26.5347 5.10151 25.5699C4.24348 24.6051 3.03871 24.0188 1.75003 23.9389C1.39803 23.9157 1.06936 23.7547 0.835344 23.4907C0.601328 23.2268 0.480843 22.8812 0.500033 22.5289Z" stroke="#040000" stroke-miterlimit="10"/>
</svg>
