<svg width="22" height="30" viewBox="0 0 22 30" fill="none" xmlns="http://www.w3.org/2000/svg">
<path d="M3.27039 29.3593C3.10376 29.2951 2.9642 29.1757 2.87502 29.021C2.78583 28.8663 2.75243 28.6857 2.78039 28.5093C2.78039 28.0393 2.78039 27.5693 2.78039 27.0593H1.72039C1.49398 27.0745 1.2668 27.0745 1.04039 27.0593C0.890084 27.049 0.749677 26.9807 0.64889 26.8687C0.548103 26.7567 0.494847 26.6099 0.500394 26.4593V26.2093C0.500394 18.0893 0.500394 9.96933 0.500394 1.84933C0.504701 1.6406 0.55597 1.43553 0.650394 1.24933C0.720257 1.1572 0.814127 1.08608 0.921721 1.04374C1.02931 1.00141 1.14648 0.989505 1.26039 1.00933H20.4704C21.1204 1.00933 21.3204 1.20933 21.3204 1.84933V26.2093C21.3204 26.8493 21.1004 27.0693 20.4604 27.0693H19.1304C19.1304 27.0693 19.1304 27.0693 19.0404 27.0693C19.0404 27.5393 19.0404 28.0093 19.0404 28.4893C19.0659 28.6641 19.0313 28.8424 18.9423 28.995C18.8533 29.1476 18.7151 29.2655 18.5504 29.3293H18.2204C18.0618 29.252 17.9323 29.1256 17.8512 28.9689C17.7702 28.8122 17.7418 28.6335 17.7704 28.4593C17.7704 27.9993 17.7704 27.5293 17.7704 27.0593H4.05039C4.05039 27.5493 4.05039 28.0593 4.05039 28.4593C4.07496 28.6343 4.04373 28.8126 3.96114 28.9687C3.87856 29.1249 3.74882 29.2511 3.59039 29.3293L3.27039 29.3593Z" stroke="black" stroke-miterlimit="10"/>
<path d="M7.08035 15.1698C7.08165 15.0713 7.10235 14.974 7.14125 14.8835C7.18015 14.793 7.23649 14.7111 7.30707 14.6423C7.37764 14.5736 7.46106 14.5195 7.55256 14.483C7.64406 14.4465 7.74185 14.4284 7.84035 14.4298C8.03414 14.4398 8.21701 14.5226 8.35236 14.6617C8.48771 14.8007 8.56556 14.9858 8.57035 15.1798C8.57036 15.3796 8.49167 15.5714 8.35129 15.7137C8.21092 15.8559 8.02017 15.9371 7.82035 15.9398C7.72099 15.9385 7.62289 15.9174 7.53173 15.8779C7.44057 15.8384 7.35817 15.7812 7.28932 15.7095C7.22047 15.6379 7.16654 15.5533 7.13067 15.4606C7.09479 15.3679 7.07769 15.2691 7.08035 15.1698V15.1698Z" stroke="black" stroke-miterlimit="10"/>
<path d="M14.75 15.1799C14.75 15.3798 14.6713 15.5716 14.5309 15.7138C14.3906 15.8561 14.1998 15.9373 14 15.9399C13.8001 15.9322 13.6108 15.848 13.4712 15.7047C13.3316 15.5614 13.2524 15.37 13.25 15.1699C13.25 14.971 13.329 14.7802 13.4697 14.6396C13.6103 14.4989 13.8011 14.4199 14 14.4199C14.1989 14.4199 14.3897 14.4989 14.5303 14.6396C14.671 14.7802 14.75 14.971 14.75 15.1699V15.1799Z" stroke="black" stroke-miterlimit="10"/>
<path d="M10.9102 1.5V27.09" stroke="black" stroke-miterlimit="10"/>
</svg>
