<svg width="30" height="26" viewBox="0 0 30 26" fill="none" xmlns="http://www.w3.org/2000/svg">
<g clip-path="url(#clip0_2900_26294)">
<path d="M18.39 0.810916C18.6248 0.612159 18.9224 0.503085 19.23 0.503085C19.5376 0.503085 19.8352 0.612159 20.07 0.810916C20.1704 0.910397 20.2501 1.02878 20.3044 1.15922C20.3588 1.28967 20.3868 1.42959 20.3868 1.57092C20.3868 1.71224 20.3588 1.85216 20.3044 1.98261C20.2501 2.11305 20.1704 2.23144 20.07 2.33092L17.2 5.20092H25.47C26.3553 5.23069 27.1963 5.59501 27.8235 6.2204C28.4508 6.8458 28.8176 7.68575 28.85 8.57092V22.0709C28.8177 22.9571 28.4513 23.7982 27.8243 24.4252C27.1973 25.0522 26.3561 25.4187 25.47 25.4509H3.87C2.98484 25.4185 2.14488 25.0517 1.51948 24.4245C0.894089 23.7972 0.529776 22.9562 0.5 22.0709V8.57092C0.529916 7.68665 0.894572 6.84675 1.5202 6.22112C2.14583 5.59549 2.98573 5.23083 3.87 5.20092H10.12L7.25 2.33092C7.14962 2.23144 7.06994 2.11305 7.01557 1.98261C6.96119 1.85216 6.93319 1.71224 6.93319 1.57092C6.93319 1.42959 6.96119 1.28967 7.01557 1.15922C7.06994 1.02878 7.14962 0.910397 7.25 0.810916C7.48636 0.6114 7.78569 0.501953 8.095 0.501953C8.40431 0.501953 8.70364 0.6114 8.94 0.810916L13.32 5.20092H14.17L18.39 0.810916ZM3.87 8.57092V22.0709H20.07V8.57092H3.87ZM24.29 8.35092C23.8667 8.35092 23.453 8.47643 23.1011 8.71157C22.7492 8.94672 22.4749 9.28094 22.3129 9.67197C22.1509 10.063 22.1085 10.4933 22.1911 10.9084C22.2737 11.3235 22.4775 11.7048 22.7768 12.0041C23.0761 12.3034 23.4574 12.5072 23.8725 12.5898C24.2876 12.6724 24.7179 12.63 25.1089 12.468C25.5 12.306 25.8342 12.0318 26.0693 11.6798C26.3045 11.3279 26.43 10.9142 26.43 10.4909C26.43 10.2099 26.3746 9.93161 26.2671 9.67197C26.1596 9.41234 26.0019 9.17643 25.8032 8.97771C25.6045 8.77899 25.3686 8.62136 25.1089 8.51381C24.8493 8.40627 24.571 8.35092 24.29 8.35092ZM24.29 14.7609C23.8667 14.7609 23.453 14.8864 23.1011 15.1216C22.7492 15.3567 22.4749 15.6909 22.3129 16.082C22.1509 16.473 22.1085 16.9033 22.1911 17.3184C22.2737 17.7335 22.4775 18.1148 22.7768 18.4141C23.0761 18.7134 23.4574 18.9172 23.8725 18.9998C24.2876 19.0824 24.7179 19.04 25.1089 18.878C25.5 18.716 25.8342 18.4418 26.0693 18.0898C26.3045 17.7379 26.43 17.3242 26.43 16.9009C26.43 16.6199 26.3746 16.3416 26.2671 16.082C26.1596 15.8223 26.0019 15.5864 25.8032 15.3877C25.6045 15.189 25.3686 15.0314 25.1089 14.9238C24.8493 14.8163 24.571 14.7609 24.29 14.7609V14.7609Z" stroke="#040000" stroke-miterlimit="10"/>
</g>
<defs>
<clipPath id="clip0_2900_26294">
<rect width="29.35" height="25.95" fill="white"/>
</clipPath>
</defs>
</svg>
