<svg width="30" height="27" viewBox="0 0 30 27" fill="none" xmlns="http://www.w3.org/2000/svg">
<path d="M18.7001 11.4374C19.2028 11.4729 19.7074 11.4729 20.2101 11.4374C20.4881 11.3849 20.7352 11.2273 20.9001 10.9974C21.0804 10.6258 21.3664 10.3157 21.7221 10.1058C22.0779 9.89589 22.4876 9.79557 22.9001 9.81737C24.2201 9.81737 25.5401 9.81737 26.9001 9.81737C27.1665 9.80293 27.433 9.84478 27.6822 9.94018C27.9314 10.0356 28.1577 10.1824 28.3464 10.3711C28.535 10.5598 28.6818 10.7861 28.7773 11.0352C28.8727 11.2844 28.9145 11.5509 28.9001 11.8174C28.9001 12.1474 28.9001 12.4674 28.9001 12.8174C28.9129 13.0834 28.87 13.3492 28.774 13.5977C28.6781 13.8462 28.5312 14.0718 28.3429 14.2602C28.1545 14.4485 27.9289 14.5954 27.6804 14.6913C27.4319 14.7873 27.1661 14.8302 26.9001 14.8174C25.5301 14.8174 24.1601 14.8174 22.7801 14.8174C22.3863 14.8227 21.9998 14.7116 21.6689 14.4981C21.338 14.2847 21.0775 13.9783 20.9201 13.6174C20.8524 13.5053 20.7609 13.4096 20.652 13.337C20.5431 13.2644 20.4195 13.2167 20.2901 13.1974C18.2201 13.0474 18.2201 13.0574 17.6901 15.0674C17.4301 16.0674 17.1701 17.0674 16.8801 18.0674C16.7113 18.712 16.3326 19.2821 15.8039 19.6877C15.2752 20.0933 14.6264 20.3113 13.9601 20.3074C11.1101 20.3074 8.25007 20.3074 5.40007 20.3074C4.74754 20.3117 4.11139 20.1032 3.58806 19.7134C3.06473 19.3236 2.68277 18.7738 2.50007 18.1474C1.8334 15.794 1.20007 13.434 0.600068 11.0674C0.525733 10.7678 0.523953 10.4548 0.594875 10.1544C0.665796 9.854 0.807373 9.57485 1.00784 9.34015C1.20831 9.10546 1.46189 8.92198 1.74751 8.80497C2.03314 8.68795 2.34255 8.64078 2.65007 8.66737H16.3901C18.1701 8.66737 18.9301 9.53737 18.7001 11.4374ZM2.22007 10.4374C2.24129 10.6993 2.27802 10.9598 2.33007 11.2174C2.87007 13.264 3.42673 15.3107 4.00007 17.3574C4.02543 17.5604 4.0918 17.7562 4.19516 17.9328C4.29851 18.1094 4.43668 18.2632 4.60128 18.3848C4.76588 18.5064 4.95348 18.5932 5.15268 18.6401C5.35188 18.6869 5.55853 18.6928 5.76007 18.6574C8.34007 18.6574 10.9267 18.6574 13.5201 18.6574C14.6601 18.6574 15.0701 18.3374 15.3601 17.2574C15.9001 15.2574 16.4367 13.2574 16.9701 11.2574C17.2001 10.4174 17.1501 10.3474 16.2501 10.3474H3.05007C2.80007 10.3674 2.54007 10.4074 2.22007 10.4374V10.4374ZM22.5201 13.1074C23.9601 13.1074 25.3501 13.1074 26.7501 13.1074C26.9001 13.1074 27.1701 12.7074 27.1601 12.5074C27.1501 12.3074 26.9601 11.5074 26.8201 11.5074C25.4001 11.4374 23.9801 11.5074 22.5201 11.5074V13.1074Z" stroke="black" stroke-miterlimit="10"/>
<path d="M4.49046 24.1783C4.4181 23.7245 4.4181 23.2621 4.49046 22.8083C4.61046 22.4683 5.02046 22.0183 5.29046 22.0283C5.56046 22.0383 5.96046 22.4783 6.09046 22.8183C6.16245 23.252 6.16245 23.6946 6.09046 24.1283H8.72046C8.65466 23.7075 8.65466 23.279 8.72046 22.8583C8.83046 22.5183 9.16046 22.0683 9.47046 22.0083C9.96046 21.8983 10.3205 22.2783 10.3405 22.8283C10.3605 23.3783 10.3405 23.6783 10.3405 24.1383H12.9105C12.8396 23.7078 12.8396 23.2687 12.9105 22.8383C12.9728 22.6533 13.0737 22.4837 13.2064 22.3407C13.3392 22.1976 13.5007 22.0843 13.6805 22.0083C14.1705 21.9083 14.5205 22.2883 14.5305 22.8483V24.1783H16.8805C18.0705 24.1783 18.5705 24.4183 18.4905 25.0283C18.3605 26.0283 17.4905 25.8083 16.8505 25.8383C16.6405 25.8383 16.4205 25.8383 16.2105 25.8383H2.12046C0.910463 25.8383 0.430464 25.6083 0.510464 24.9983C0.640464 23.9983 1.42046 24.1883 2.08046 24.1783H4.49046Z" stroke="black" stroke-miterlimit="10"/>
<path d="M10.1805 0.818092C10.0539 1.07413 9.89966 1.31557 9.72055 1.53809C9.23055 1.96809 9.34055 2.30809 9.78055 2.65809C9.94917 2.79508 10.1064 2.94558 10.2505 3.10809C10.4813 3.34591 10.6534 3.63428 10.7532 3.95029C10.8529 4.2663 10.8775 4.60122 10.8251 4.92842C10.7727 5.25562 10.6446 5.56608 10.4511 5.8351C10.2577 6.10412 10.0041 6.32429 9.71055 6.47809C9.53596 6.5404 9.34863 6.5584 9.16537 6.53047C8.98211 6.50255 8.80865 6.42957 8.66055 6.31809C8.57278 6.16607 8.52657 5.99363 8.52657 5.81809C8.52657 5.64256 8.57278 5.47011 8.66055 5.31809C9.33055 4.69809 9.10055 4.31809 8.52055 3.83809C8.23277 3.62661 8.00191 3.34706 7.84865 3.02449C7.69539 2.70191 7.62451 2.34637 7.64234 1.98968C7.66018 1.63299 7.76618 1.28629 7.95085 0.980616C8.13552 0.674936 8.39311 0.419816 8.70055 0.238092C8.8508 0.151962 9.01754 0.0985323 9.18987 0.0812997C9.36219 0.0640671 9.53622 0.0834199 9.70055 0.138092C9.87055 0.208092 10.0005 0.558092 10.1805 0.818092Z" fill="black"/>
<path d="M12.4503 5.85772C12.6016 5.55182 12.7861 5.26343 13.0003 4.99772C13.0928 4.95104 13.1706 4.87958 13.225 4.7913C13.2793 4.70302 13.3081 4.60139 13.3081 4.49772C13.3081 4.39406 13.2793 4.29242 13.225 4.20415C13.1706 4.11587 13.0928 4.04441 13.0003 3.99772C12.7749 3.80743 12.5612 3.60373 12.3603 3.38772C12.1456 3.14617 11.9886 2.85892 11.9014 2.54773C11.8141 2.23654 11.7988 1.90958 11.8566 1.5916C11.9144 1.27362 12.0439 0.972973 12.2351 0.712418C12.4263 0.451863 12.6743 0.238238 12.9603 0.0877216C13.1259 0.0286719 13.3033 0.0105636 13.4775 0.0349418C13.6516 0.05932 13.8173 0.125461 13.9603 0.227722C14.0417 0.381802 14.0843 0.553443 14.0843 0.727722C14.0843 0.902 14.0417 1.07364 13.9603 1.22772C13.2403 1.86772 13.5103 2.22772 14.1003 2.73772C14.4006 2.94248 14.6446 3.2194 14.8101 3.54304C14.9755 3.86669 15.0569 4.2267 15.047 4.59003C15.037 4.95336 14.936 5.30837 14.7531 5.62247C14.5702 5.93657 14.3113 6.19971 14.0003 6.38772C13.698 6.563 13.3391 6.61324 13.0003 6.52772C12.8203 6.47772 12.6803 6.13772 12.4503 5.85772Z" fill="black"/>
<path d="M4.24033 5.83783C4.36033 5.56783 4.39033 5.36783 4.50033 5.28783C5.36033 4.65783 4.91033 4.28783 4.34033 3.72783C4.08017 3.51454 3.87343 3.24343 3.73659 2.9361C3.59974 2.62878 3.53657 2.29374 3.55211 1.95768C3.56765 1.62163 3.66147 1.29385 3.8261 1.00046C3.99072 0.707081 4.2216 0.456206 4.50033 0.267833C4.57894 0.183336 4.67412 0.115945 4.77994 0.0698636C4.88575 0.0237824 4.99992 0 5.11533 0C5.23074 0 5.34491 0.0237824 5.45073 0.0698636C5.55654 0.115945 5.65172 0.183336 5.73033 0.267833C5.81781 0.34408 5.88666 0.439345 5.93161 0.546325C5.97657 0.653305 5.99643 0.769159 5.98967 0.885003C5.98291 1.00085 5.94972 1.11361 5.89263 1.21463C5.83554 1.31566 5.75608 1.40227 5.66033 1.46783C4.99033 2.01783 5.30033 2.36783 5.79033 2.80783C6.08203 3.01414 6.31828 3.28928 6.4781 3.60883C6.63792 3.92838 6.71637 4.28245 6.70648 4.6396C6.69658 4.99675 6.59866 5.34593 6.42139 5.65614C6.24413 5.96635 5.99301 6.22799 5.69033 6.41783C5.53952 6.50317 5.3719 6.55454 5.19917 6.56836C5.02645 6.58218 4.85279 6.55811 4.69033 6.49783C4.50033 6.40783 4.38033 5.99783 4.24033 5.83783Z" fill="black"/>
<path d="M6.86023 16.0581C6.65023 16.2681 6.44023 16.6681 6.16023 16.7181C5.98673 16.7328 5.81224 16.705 5.65191 16.637C5.49159 16.5691 5.35027 16.463 5.24023 16.3281C4.83218 15.1637 4.49818 13.9746 4.24023 12.7681C4.24023 12.5381 4.58023 12.0481 4.85023 11.9781C5.02272 11.9585 5.19733 11.9842 5.35689 12.0525C5.51644 12.1209 5.65545 12.2297 5.76023 12.3681C6.19023 13.5281 6.49023 14.7281 6.86023 16.0581Z" fill="black"/>
</svg>
