<svg width="30" height="24" viewBox="0 0 30 24" fill="none" xmlns="http://www.w3.org/2000/svg">
<g clip-path="url(#clip0_2984_25906)">
<path d="M25.6448 5.56112C27.0392 5.56112 28.1695 4.43077 28.1695 3.03642C28.1695 1.64207 27.0392 0.511719 25.6448 0.511719C24.2505 0.511719 23.1201 1.64207 23.1201 3.03642C23.1201 4.43077 24.2505 5.56112 25.6448 5.56112Z" stroke="#050102" stroke-miterlimit="10"/>
<path d="M25.216 9.2611C24.7254 9.49619 24.1326 9.7415 23.6011 9.94593C23.4196 10.0519 23.2751 10.2113 23.1875 10.4023C23.0998 10.5933 23.0731 10.8067 23.1111 11.0134C23.1491 11.2201 23.2499 11.4101 23.3998 11.5574C23.5496 11.7048 23.7413 11.8024 23.9486 11.8369C24.0704 11.8365 24.1913 11.8158 24.3063 11.7756C25.1241 11.4587 25.7578 11.193 26.2484 10.9476H26.3302L26.9435 10.6206C27.9656 10.0277 27.9656 9.68018 27.9656 9.32243C27.9656 8.96467 27.9656 8.11629 24.5414 6.89994C24.1016 6.72364 23.635 6.6234 23.1615 6.60352C22.7869 6.61273 22.4212 6.71938 22.1004 6.91295C21.7796 7.10652 21.5147 7.38034 21.3319 7.70743C21.1683 7.96297 21.107 8.3105 20.5857 8.46382C19.8907 8.65803 18.6436 7.80965 17.8157 7.26791C17.5704 7.09415 17.3251 6.94082 17.1104 6.80794C16.8967 6.7499 16.67 6.7628 16.4643 6.84473C16.2586 6.92665 16.085 7.07315 15.9698 7.2622C15.8545 7.45125 15.8037 7.67262 15.8251 7.89301C15.8465 8.1134 15.9388 8.32089 16.0883 8.48427L16.7322 8.89312C17.8014 9.73753 19.0878 10.262 20.4426 10.4059C20.5821 10.416 20.7222 10.416 20.8617 10.4059L20.3915 13.4723C16.9673 13.5848 16.6709 13.9016 16.354 14.2492C16.1018 14.5283 15.9696 14.8955 15.9861 15.2713C15.9861 15.3326 16.5074 21.4042 16.5687 21.7108C16.6362 22.0036 16.8017 22.2646 17.0378 22.4505C17.2739 22.6363 17.5664 22.736 17.8668 22.733H18.1632C18.4905 22.6592 18.7778 22.4644 18.9674 22.1876C19.157 21.9108 19.2349 21.5725 19.1854 21.2407C19.1854 20.9136 18.8481 18.1027 18.705 16.3855C18.705 16.3855 23.0798 16.0584 23.4784 15.8846C23.8391 15.8377 24.1749 15.6747 24.4348 15.4203C24.6948 15.1658 24.865 14.8337 24.9196 14.474" stroke="#050102" stroke-miterlimit="10"/>
<path d="M29.264 11.806C28.8143 11.2643 27.8535 11.5198 27.4548 12.0002C27.1609 12.5577 26.9868 13.1705 26.9438 13.7992C26.8007 14.4227 26.6167 15.036 26.494 15.6595C26.3858 16.122 26.1406 16.541 25.7905 16.862C25.4404 17.1829 25.0016 17.3908 24.5315 17.4585C23.1209 17.6629 20.2998 17.8673 20.2998 17.8673L20.862 23.0803H29.3867V15.5164C29.3867 14.8622 29.3867 14.2183 29.3867 13.5743C29.3867 12.9304 29.6422 12.266 29.264 11.806Z" stroke="#050102" stroke-miterlimit="10"/>
<path d="M4.3538 5.56112C5.74816 5.56112 6.87851 4.43077 6.87851 3.03642C6.87851 1.64207 5.74816 0.511719 4.3538 0.511719C2.95945 0.511719 1.8291 1.64207 1.8291 3.03642C1.8291 4.43077 2.95945 5.56112 4.3538 5.56112Z" stroke="#050102" stroke-miterlimit="10"/>
<path d="M4.77308 9.26135C5.26371 9.49645 5.86677 9.74176 6.39829 9.94619C6.57993 10.0529 6.72418 10.213 6.8113 10.4048C6.89843 10.5966 6.92417 10.8106 6.88502 11.0176C6.84586 11.2246 6.74371 11.4144 6.59255 11.5611C6.44139 11.7078 6.24859 11.8042 6.04054 11.8372C5.92202 11.837 5.80442 11.8163 5.69301 11.7758C4.87529 11.459 4.24156 11.1932 3.75093 10.9479H3.66916L3.06609 10.5901C2.04395 9.9973 2.04395 9.64977 2.04395 9.29202C2.04395 8.93426 2.04395 8.08588 5.45791 6.86953C5.89437 6.69379 6.35753 6.59355 6.82759 6.57311C7.20286 6.57924 7.56982 6.68461 7.89118 6.8785C8.21254 7.07239 8.47684 7.3479 8.65723 7.67702C8.831 7.93256 8.89233 8.28009 9.4034 8.43341C10.1087 8.62762 11.3557 7.77924 12.1734 7.2375L12.8787 6.77754C12.9857 6.66055 13.1185 6.57006 13.2665 6.51323C13.4145 6.4564 13.5737 6.43478 13.7316 6.45009C13.8894 6.46539 14.0415 6.5172 14.1758 6.60142C14.3101 6.68563 14.423 6.79995 14.5056 6.93532C14.5881 7.0707 14.638 7.22342 14.6514 7.38141C14.6647 7.5394 14.6412 7.69833 14.5825 7.84563C14.5238 7.99294 14.4317 8.12457 14.3134 8.23013C14.1951 8.3357 14.0539 8.41229 13.9008 8.45386L13.2671 8.86271C12.2157 9.70932 10.9479 10.2441 9.60783 10.4062C9.46833 10.4167 9.32824 10.4167 9.18875 10.4062L9.64871 13.4726C13.0831 13.585 13.3693 13.9019 13.7373 14.2494C13.9821 14.5323 14.11 14.8978 14.0951 15.2716C14.0951 15.3329 13.584 21.4045 13.5226 21.7111C13.4518 22.0021 13.2854 22.261 13.05 22.4463C12.8147 22.6316 12.524 22.7326 12.2245 22.7332C12.126 22.7433 12.0267 22.7433 11.9281 22.7332C11.602 22.6573 11.3162 22.462 11.127 22.1858C10.9377 21.9095 10.8589 21.5724 10.906 21.2409C10.906 20.9138 11.2433 18.1029 11.3966 16.3857C11.3966 16.3857 7.0218 16.0586 6.62316 15.8849C6.24204 15.8505 5.88416 15.6867 5.60897 15.4208C5.33377 15.1549 5.15784 14.8029 5.11038 14.4232" stroke="#050102" stroke-miterlimit="10"/>
<path d="M0.735529 11.8058C0.86516 11.6976 1.01527 11.6166 1.1769 11.5676C1.33852 11.5187 1.50836 11.5028 1.67626 11.5209C1.84416 11.5391 2.00669 11.5908 2.15414 11.6731C2.3016 11.7555 2.43096 11.8666 2.53451 12.0001C2.84501 12.552 3.02671 13.167 3.06602 13.799C3.21934 14.4225 3.40333 15.0358 3.51577 15.6593C3.62907 16.1336 3.88641 16.5611 4.25245 16.8832C4.61848 17.2053 5.07526 17.4062 5.56006 17.4583C6.9604 17.6627 9.79175 17.8672 9.79175 17.8672L9.1989 23.0801H0.633314V15.5162C0.633314 14.8621 0.633314 14.2181 0.633314 13.5742C0.633314 12.9302 0.357334 12.2658 0.735529 11.8058Z" stroke="#050102" stroke-miterlimit="10"/>
</g>
<defs>
<clipPath id="clip0_2984_25906">
<rect width="30" height="23.5911" fill="white"/>
</clipPath>
</defs>
</svg>
