<svg width="30" height="22" viewBox="0 0 30 22" fill="none" xmlns="http://www.w3.org/2000/svg">
<g clip-path="url(#clip0_2792_26463)">
<path d="M22.6915 3.59766C22.6915 3.59766 22.6915 3.65898 22.6915 3.68965V3.88386C22.7348 4.23518 22.6974 4.59174 22.5823 4.92647C22.4672 5.2612 22.2773 5.56531 22.0272 5.81571C21.8019 6.1276 21.626 6.47237 21.5059 6.83786H24.2861C24.2616 6.4116 24.0837 6.0086 23.7852 5.70328C23.5676 5.49703 23.3981 5.24544 23.2886 4.96634C23.179 4.68725 23.1323 4.38748 23.1515 4.08829V3.59766H22.6915Z" stroke="black" stroke-miterlimit="10"/>
<path d="M27.7711 7.69727H20.7285V8.36166H27.7711V7.69727Z" fill="black"/>
<path d="M27.2298 5.79558C27.2298 5.52449 27.1222 5.26451 26.9305 5.07282C26.7388 4.88113 26.4788 4.77344 26.2077 4.77344C25.9366 4.77344 25.6766 4.88113 25.4849 5.07282C25.2932 5.26451 25.1855 5.52449 25.1855 5.79558C25.1855 6.06667 25.2932 6.32666 25.4849 6.51835C25.6766 6.71004 25.9366 6.81773 26.2077 6.81773C26.4788 6.81773 26.7388 6.71004 26.9305 6.51835C27.1222 6.32666 27.2298 6.06667 27.2298 5.79558Z" stroke="black" stroke-miterlimit="10"/>
<path d="M13.7479 10.0067C13.7396 9.80234 13.8122 9.60291 13.95 9.45173C14.0878 9.30055 14.2796 9.20981 14.4839 9.19922H26.1977C26.9745 9.19922 27.2198 9.46498 27.2198 10.2214V11.7444C27.0563 11.8057 26.8927 11.8466 26.7496 11.9181C26.4245 12.0547 26.1477 12.2853 25.9546 12.5803C25.7615 12.8754 25.6611 13.2214 25.6662 13.574C25.6662 14.1669 25.6662 14.7699 25.6662 15.3832H15.3323C15.3323 14.9437 15.3323 14.5042 15.3323 14.0646C15.3827 13.8095 15.3823 13.547 15.3309 13.2921C15.2795 13.0371 15.1782 12.7949 15.0329 12.5793C14.8875 12.3636 14.701 12.1788 14.484 12.0356C14.267 11.8923 14.0238 11.7933 13.7684 11.7444C13.7377 11.2435 13.7275 10.6098 13.7479 10.0067Z" stroke="black" stroke-miterlimit="10"/>
<path d="M14.7292 20.9345H13.707V19.8203H14.7292V20.9345Z" fill="black"/>
<path d="M27.2194 20.9345H26.1973V19.8203H27.2194V20.9345Z" fill="black"/>
<path d="M29.4784 18.4814C29.4784 19.0027 29.09 19.2889 28.4562 19.2889H12.2654C11.4477 19.2889 11.1309 19.013 11.1309 18.2668V14.5768C11.1309 13.8511 11.4477 13.5547 12.2757 13.5547C13.1036 13.5547 13.4307 13.8204 13.4307 14.5768V16.6211C13.4307 17.0709 13.6147 17.2549 14.1155 17.2549H26.5039C26.9946 17.2549 27.1888 17.0709 27.1888 16.6211V14.5768C27.1888 13.9772 27.5295 13.6705 28.2109 13.6569H28.6198C28.7307 13.6514 28.8416 13.668 28.9461 13.7058C29.0505 13.7435 29.1464 13.8016 29.2282 13.8768C29.31 13.9519 29.376 14.0426 29.4225 14.1434C29.469 14.2443 29.4949 14.3534 29.4988 14.4644C29.4886 15.7523 29.4886 17.1118 29.4784 18.4814Z" stroke="black" stroke-miterlimit="10"/>
<path d="M4.98813 6.74609C4.70446 7.25928 4.55566 7.83605 4.55566 8.42241C4.55566 9.00878 4.70446 9.58555 4.98813 10.0987C5.22507 9.57164 5.34758 9.00031 5.34758 8.42241C5.34758 7.84452 5.22507 7.27319 4.98813 6.74609Z" fill="black"/>
<path d="M6.23438 10.3352C6.55473 10.1314 6.81711 9.84843 6.99616 9.5136C7.17521 9.17878 7.26489 8.80343 7.25652 8.42383C6.51035 8.56693 6.40814 8.75091 6.23438 10.3352Z" fill="black"/>
<path d="M2.40137 8.42383C2.38997 8.80395 2.47833 9.18043 2.65767 9.51578C2.837 9.85113 3.10105 10.1337 3.42352 10.3352C3.33065 10.0352 3.26564 9.72727 3.22931 9.41531C3.25997 8.61804 2.83067 8.55671 2.40137 8.42383Z" fill="black"/>
<path d="M16.2108 2.99553C16.2108 1.62376 15.0988 0.511719 13.727 0.511719C12.3552 0.511719 11.2432 1.62376 11.2432 2.99553V4.81496C11.2432 6.18673 12.3552 7.29877 13.727 7.29877C15.0988 7.29877 16.2108 6.18673 16.2108 4.81496V2.99553Z" stroke="black" stroke-miterlimit="10"/>
<path d="M14.443 3.13804C14.8382 3.13804 15.1585 2.81769 15.1585 2.42253C15.1585 2.02737 14.8382 1.70703 14.443 1.70703C14.0479 1.70703 13.7275 2.02737 13.7275 2.42253C13.7275 2.81769 14.0479 3.13804 14.443 3.13804Z" fill="black"/>
<path d="M11.2432 3.24091C11.2432 3.24091 12.2653 2.69917 13.3488 4.10974C13.3488 4.10974 15.5157 6.2358 16.1597 5.69406" stroke="black" stroke-miterlimit="10"/>
<path d="M4.29278 13.3591C4.67097 13.3591 5.0185 13.3591 5.37625 13.3591C5.43906 13.3523 5.49854 13.3274 5.54752 13.2875C5.59649 13.2476 5.63286 13.1944 5.65223 13.1343C5.83622 12.3779 5.98954 11.6113 6.15309 10.8242H3.77148C3.77148 11.0798 3.84303 11.2944 3.88392 11.4886L4.29278 13.3591Z" fill="black"/>
<path d="M6.63351 14.0449V15.0671H2.54492V14.0449H6.63351Z" fill="black"/>
<path d="M8.53459 20.8211H9.41364V14.5349H6.79694C7.07292 13.4514 7.3489 12.4395 7.59422 11.4173C7.60287 11.1535 7.5823 10.8896 7.53289 10.6303C7.92713 10.1512 8.2134 9.59278 8.37216 8.99302C8.53092 8.39327 8.55843 7.76632 8.45282 7.15497L6.45963 7.52294C6.00989 6.76655 5.54992 5.98972 5.1104 5.21289H4.8242C4.36423 5.98972 3.91449 6.77677 3.48519 7.52294L1.4409 7.20608C1.29713 8.50249 1.66374 9.80394 2.46304 10.8347C2.34507 10.9893 2.29027 11.1829 2.30972 11.3764C2.55504 12.3986 2.82079 13.4207 3.11722 14.5451H0.510742V20.8108H8.53459V20.8211Z" stroke="black" stroke-miterlimit="10"/>
</g>
<defs>
<clipPath id="clip0_2792_26463">
<rect width="30" height="21.7717" fill="white"/>
</clipPath>
</defs>
</svg>
