<svg width="30" height="29" viewBox="0 0 30 29" fill="none" xmlns="http://www.w3.org/2000/svg">
<path d="M8.86 28.9V16.5H0V28.9H1.33V27.57H7.53V28.9H8.86ZM1.33 26.69H0.89V17.39H8V26.69H1.33Z" fill="#040000"/>
<path d="M18.1598 28.9V16.5H9.2998V28.9H10.6298V27.57H16.8298V28.9H18.1598ZM10.6298 26.69H10.1898V17.39H17.2698V26.69H10.6298Z" fill="#040000"/>
<path d="M26.5696 16.0605H24.3596C24.2429 16.0605 24.131 16.1069 24.0485 16.1894C23.966 16.2719 23.9196 16.3839 23.9196 16.5005H22.9996C22.9996 16.4428 22.9882 16.3855 22.9661 16.3322C22.944 16.2788 22.9116 16.2303 22.8707 16.1894C22.8299 16.1486 22.7814 16.1162 22.728 16.094C22.6746 16.0719 22.6174 16.0605 22.5596 16.0605H20.3696C20.3118 16.0605 20.2546 16.0719 20.2012 16.094C20.1478 16.1162 20.0993 16.1486 20.0585 16.1894C20.0176 16.2303 19.9852 16.2788 19.9631 16.3322C19.941 16.3855 19.9296 16.4428 19.9296 16.5005H18.5996V28.9005H19.9296V27.5705H26.9996V28.9005H28.3296V16.5005H26.9996C26.9972 16.3863 26.9514 16.2773 26.8715 16.1956C26.7917 16.1139 26.6837 16.0656 26.5696 16.0605ZM25.4096 18.0605C25.4109 18.1297 25.3985 18.1984 25.3729 18.2626C25.3474 18.3269 25.3093 18.3854 25.2609 18.4347C25.2125 18.4841 25.1547 18.5233 25.0909 18.55C25.0272 18.5768 24.9587 18.5906 24.8896 18.5905C24.749 18.5905 24.6142 18.5347 24.5148 18.4353C24.4154 18.3359 24.3596 18.2011 24.3596 18.0605C24.3596 17.92 24.4154 17.7852 24.5148 17.6858C24.6142 17.5864 24.749 17.5305 24.8896 17.5305C24.9605 17.5304 25.0307 17.5448 25.0958 17.5728C25.1609 17.6008 25.2196 17.6418 25.2683 17.6933C25.317 17.7448 25.3547 17.8057 25.379 17.8723C25.4033 17.9389 25.4137 18.0098 25.4096 18.0805V18.0605ZM26.5696 19.5805C26.6031 19.5734 26.6378 19.5739 26.6711 19.5819C26.7044 19.5899 26.7355 19.6053 26.7621 19.6268C26.7887 19.6484 26.8102 19.6756 26.8249 19.7066C26.8397 19.7375 26.8473 19.7713 26.8473 19.8055C26.8473 19.8398 26.8397 19.8736 26.8249 19.9045C26.8102 19.9355 26.7887 19.9627 26.7621 19.9843C26.7355 20.0058 26.7044 20.0212 26.6711 20.0292C26.6378 20.0372 26.6031 20.0377 26.5696 20.0305H20.3696C20.3399 20.0306 20.3104 20.0246 20.283 20.0129C20.2557 20.0012 20.231 19.9841 20.2104 19.9626C20.1898 19.9411 20.1738 19.9157 20.1634 19.8878C20.1529 19.86 20.1483 19.8303 20.1496 19.8005C20.1496 19.7422 20.1728 19.6862 20.214 19.645C20.2553 19.6037 20.3113 19.5805 20.3696 19.5805H26.5696ZM23.1996 18.0805C23.1996 18.2211 23.1438 18.3559 23.0444 18.4553C22.945 18.5547 22.8102 18.6105 22.6696 18.6105C22.529 18.6105 22.3942 18.5547 22.2948 18.4553C22.1954 18.3559 22.1396 18.2211 22.1396 18.0805C22.1396 17.94 22.1954 17.8052 22.2948 17.7058C22.3942 17.6064 22.529 17.5505 22.6696 17.5505C22.8102 17.5505 22.945 17.6064 23.0444 17.7058C23.1438 17.8052 23.1996 17.94 23.1996 18.0805ZM20.4596 17.5505C20.6002 17.5505 20.735 17.6064 20.8344 17.7058C20.9338 17.8052 20.9896 17.94 20.9896 18.0805C20.9896 18.2211 20.9338 18.3559 20.8344 18.4553C20.735 18.5547 20.6002 18.6105 20.4596 18.6105C20.319 18.6105 20.1842 18.5547 20.0848 18.4553C19.9854 18.3559 19.9296 18.2211 19.9296 18.0805C19.9296 17.94 19.9854 17.8052 20.0848 17.7058C20.1842 17.6064 20.319 17.5505 20.4596 17.5505ZM27.4596 26.6905H19.4596V20.9305H27.4596V26.6905ZM27.0996 17.5505C27.2044 17.5505 27.3069 17.5816 27.3941 17.6399C27.4812 17.6981 27.5492 17.7809 27.5893 17.8777C27.6294 17.9746 27.6399 18.0811 27.6194 18.1839C27.599 18.2868 27.5485 18.3812 27.4744 18.4553C27.4003 18.5294 27.3058 18.5799 27.203 18.6004C27.1002 18.6208 26.9936 18.6103 26.8968 18.5702C26.7999 18.5301 26.7172 18.4622 26.6589 18.375C26.6007 18.2878 26.5696 18.1854 26.5696 18.0805C26.5696 17.94 26.6254 17.8052 26.7248 17.7058C26.8242 17.6064 26.959 17.5505 27.0996 17.5505Z" fill="#040000"/>
<path d="M25.2502 7.19945V1.43945H21.2502V7.19945H19.9302L18.1602 10.2995H28.3502L26.5702 7.19945H25.2502ZM25.3302 9.29945C25.261 9.30078 25.1923 9.28831 25.1281 9.26278C25.0638 9.23724 25.0053 9.19915 24.956 9.15073C24.9066 9.10231 24.8674 9.04454 24.8407 8.98079C24.8139 8.91704 24.8001 8.84859 24.8002 8.77945C24.8002 8.63889 24.856 8.50408 24.9554 8.40469C25.0548 8.30529 25.1896 8.24945 25.3302 8.24945C25.4707 8.24945 25.6055 8.30529 25.7049 8.40469C25.8043 8.50408 25.8602 8.63889 25.8602 8.77945C25.8602 8.84859 25.8464 8.91704 25.8196 8.98079C25.7929 9.04454 25.7537 9.10231 25.7043 9.15073C25.655 9.19915 25.5965 9.23724 25.5322 9.26278C25.468 9.28831 25.3993 9.30078 25.3302 9.29945V9.29945Z" stroke="#040000" stroke-miterlimit="10"/>
<path d="M11.5199 14.7298H13.2899C13.3964 14.7138 13.4937 14.6601 13.564 14.5784C13.6343 14.4968 13.673 14.3926 13.673 14.2848C13.673 14.1771 13.6343 14.0729 13.564 13.9912C13.4937 13.9096 13.3964 13.8559 13.2899 13.8398H11.0699C10.9523 13.8425 10.8404 13.891 10.7581 13.9751C10.6759 14.0592 10.6299 14.1722 10.6299 14.2898V16.0598H11.5199V14.7298Z" fill="#040000"/>
<path d="M7.08998 16.0598V14.2898C7.08998 14.1705 7.04257 14.056 6.95818 13.9716C6.87379 13.8873 6.75933 13.8398 6.63998 13.8398H4.42998C4.32342 13.8559 4.22615 13.9096 4.15584 13.9912C4.08554 14.0729 4.04688 14.1771 4.04688 14.2848C4.04688 14.3926 4.08554 14.4968 4.15584 14.5784C4.22615 14.6601 4.32342 14.7138 4.42998 14.7298H6.19998V16.0598H7.08998Z" fill="#040000"/>
<path d="M9.29973 16.0599V13.3999C9.41642 13.3999 9.52834 13.3536 9.61085 13.271C9.69337 13.1885 9.73973 13.0766 9.73973 12.9599C9.74393 12.9001 9.73558 12.8401 9.71523 12.7837C9.69487 12.7274 9.66295 12.6759 9.62152 12.6326C9.58009 12.5892 9.53006 12.5551 9.47464 12.5322C9.41923 12.5094 9.35965 12.4984 9.29973 12.4999V11.6099C9.29973 11.4932 9.25337 11.3813 9.17085 11.2988C9.08834 11.2163 8.97642 11.1699 8.85973 11.1699C8.74303 11.1699 8.63112 11.2163 8.5486 11.2988C8.46608 11.3813 8.41973 11.4932 8.41973 11.6099V12.4999C8.36111 12.4986 8.30282 12.509 8.24827 12.5305C8.19373 12.552 8.14404 12.5842 8.10212 12.6252C8.06019 12.6662 8.02688 12.7152 8.00415 12.7692C7.98142 12.8232 7.96971 12.8813 7.96973 12.9399C7.97234 13.0575 8.0209 13.1694 8.10501 13.2517C8.18912 13.3339 8.30209 13.38 8.41973 13.3799V16.0399L9.29973 16.0599Z" fill="#040000"/>
<path d="M16.3896 6.76087H6.99965C7.43849 6.39082 7.75299 5.89483 7.90055 5.34009C8.04812 4.78534 8.02161 4.19865 7.82463 3.65947C7.62764 3.12029 7.26969 2.65468 6.79927 2.32571C6.32885 1.99675 5.76868 1.82031 5.19465 1.82031C4.62061 1.82031 4.06045 1.99675 3.59002 2.32571C3.1196 2.65468 2.76166 3.12029 2.56467 3.65947C2.36769 4.19865 2.34118 4.78534 2.48874 5.34009C2.63631 5.89483 2.95081 6.39082 3.38965 6.76087H0.889648V7.64087H16.3896V6.76087ZM3.31965 4.63087C3.32162 4.26343 3.43239 3.9048 3.63796 3.60025C3.84354 3.29569 4.13472 3.05884 4.47476 2.9196C4.8148 2.78035 5.18846 2.74494 5.54861 2.81783C5.90875 2.89073 6.23924 3.06866 6.49836 3.32918C6.75749 3.5897 6.93364 3.92113 7.00461 4.28166C7.07557 4.64219 7.03816 5.01566 6.89709 5.35495C6.75602 5.69424 6.51762 5.98414 6.21196 6.18808C5.90631 6.39202 5.54709 6.50086 5.17965 6.50087C4.93455 6.50087 4.69186 6.45243 4.46554 6.35833C4.23922 6.26423 4.03373 6.12633 3.86088 5.95256C3.68803 5.77878 3.55124 5.57255 3.45835 5.34573C3.36547 5.11891 3.31833 4.87597 3.31965 4.63087Z" fill="#040000"/>
<path d="M5.17953 6.0407C5.95825 6.0407 6.58953 5.40942 6.58953 4.6307C6.58953 3.85198 5.95825 3.2207 5.17953 3.2207C4.40081 3.2207 3.76953 3.85198 3.76953 4.6307C3.76953 5.40942 4.40081 6.0407 5.17953 6.0407Z" fill="#040000"/>
<path d="M9.5198 6.30914H15.7198C15.7491 6.31057 15.7783 6.30586 15.8057 6.29531C15.833 6.28476 15.8578 6.2686 15.8785 6.24788C15.8993 6.22716 15.9154 6.20233 15.926 6.17499C15.9365 6.14765 15.9412 6.11841 15.9398 6.08914C15.9398 6.03079 15.9166 5.97484 15.8754 5.93358C15.8341 5.89232 15.7782 5.86914 15.7198 5.86914H9.5198C9.46146 5.86914 9.4055 5.89232 9.36424 5.93358C9.32298 5.97484 9.2998 6.03079 9.2998 6.08914C9.2998 6.14749 9.32298 6.20345 9.36424 6.2447C9.4055 6.28596 9.46146 6.30914 9.5198 6.30914Z" fill="#040000"/>
<path d="M10.0003 5.43023H15.3103C15.3686 5.43023 15.4246 5.40706 15.4658 5.3658C15.5071 5.32454 15.5303 5.26858 15.5303 5.21023C15.5303 5.15189 15.5071 5.09593 15.4658 5.05467C15.4246 5.01341 15.3686 4.99023 15.3103 4.99023H10.0003C9.94193 4.99023 9.88597 5.01341 9.84471 5.05467C9.80345 5.09593 9.78027 5.15189 9.78027 5.21023C9.78027 5.26858 9.80345 5.32454 9.84471 5.3658C9.88597 5.40706 9.94193 5.43023 10.0003 5.43023Z" fill="#040000"/>
<path d="M10.0003 4.50055H15.3103C15.3686 4.50055 15.4246 4.47737 15.4658 4.43611C15.5071 4.39485 15.5303 4.33889 15.5303 4.28055C15.5303 4.2222 15.5071 4.16624 15.4658 4.12498C15.4246 4.08373 15.3686 4.06055 15.3103 4.06055H10.0003C9.94193 4.06055 9.88597 4.08373 9.84471 4.12498C9.80345 4.16624 9.78027 4.2222 9.78027 4.28055C9.78027 4.33889 9.80345 4.39485 9.84471 4.43611C9.88597 4.47737 9.94193 4.50055 10.0003 4.50055Z" fill="#040000"/>
<path d="M11.2496 2.77H13.9996C14.4196 2.77 14.6796 2.18 14.6796 1.77C14.6796 1.36 14.5496 1 14.3396 1H10.9096C10.6896 1 10.5596 1.45 10.5596 1.75C10.5596 2.05 10.8296 2.77 11.2496 2.77Z" stroke="#040000" stroke-miterlimit="10"/>
</svg>
