<svg width="30" height="27" viewBox="0 0 30 27" fill="none" xmlns="http://www.w3.org/2000/svg">
<g clip-path="url(#clip0_2765_26334)">
<path d="M27.7 16.5899H22.7V8.58992C22.7 6.45626 21.8524 4.40998 20.3436 2.90125C18.8349 1.39252 16.7886 0.544922 14.655 0.544922C12.5213 0.544922 10.475 1.39252 8.96629 2.90125C7.45756 4.40998 6.60996 6.45626 6.60996 8.58992V16.6399H1.60996C1.30496 16.6399 1.01245 16.7611 0.796788 16.9767C0.581121 17.1924 0.459961 17.4849 0.459961 17.7899C0.459961 18.0949 0.581121 18.3874 0.796788 18.6031C1.01245 18.8188 1.30496 18.9399 1.60996 18.9399H1.99996V24.6799C1.99996 24.9849 2.12112 25.2774 2.33679 25.4931C2.55246 25.7088 2.84496 25.8299 3.14996 25.8299H26.15C26.3005 25.8299 26.4496 25.8001 26.5885 25.7422C26.7275 25.6843 26.8536 25.5994 26.9596 25.4925C27.0656 25.3856 27.1494 25.2587 27.2061 25.1193C27.2628 24.9798 27.2913 24.8305 27.29 24.6799V18.8899H27.68C27.985 18.8899 28.2775 18.7688 28.4931 18.5531C28.7088 18.3374 28.83 18.0449 28.83 17.7399C28.83 17.4349 28.7088 17.1424 28.4931 16.9267C28.2775 16.7111 27.985 16.5899 27.68 16.5899H27.7Z" stroke="#040000" stroke-miterlimit="10"/>
<path d="M6.63008 23.4806H4.33008V18.8906H6.63008V23.4806Z" stroke="#040000" stroke-miterlimit="10"/>
<path d="M13.5197 2.91016V8.54016H8.92969C8.93197 7.21736 9.38947 5.93565 10.2253 4.91041C11.0612 3.88516 12.2245 3.17885 13.5197 2.91016V2.91016Z" stroke="#040000" stroke-miterlimit="10"/>
<path d="M13.5297 10.8398H8.92969V16.5898H13.5297V10.8398Z" stroke="#040000" stroke-miterlimit="10"/>
<path d="M11.2297 18.8906H8.92969V23.4906H11.2297V18.8906Z" stroke="#040000" stroke-miterlimit="10"/>
<path d="M15.8195 18.8906H13.5195V23.4906H15.8195V18.8906Z" stroke="#040000" stroke-miterlimit="10"/>
<path d="M20.4201 18.8906H18.1201V23.4906H20.4201V18.8906Z" stroke="#040000" stroke-miterlimit="10"/>
<path d="M20.4203 10.8398H15.8203V16.5898H20.4203V10.8398Z" stroke="#040000" stroke-miterlimit="10"/>
<path d="M15.8203 8.54016V2.91016C17.1165 3.17856 18.281 3.88448 19.1186 4.90954C19.9561 5.9346 20.4157 7.21646 20.4203 8.54016H15.8203Z" stroke="#040000" stroke-miterlimit="10"/>
<path d="M25.0197 18.8906H22.7197V23.4906H25.0197V18.8906Z" stroke="#040000" stroke-miterlimit="10"/>
</g>
<defs>
<clipPath id="clip0_2765_26334">
<rect width="29.35" height="26.28" fill="white"/>
</clipPath>
</defs>
</svg>
