<svg width="31" height="32" viewBox="0 0 31 32" fill="none" xmlns="http://www.w3.org/2000/svg">
<path d="M5.13022 6.63397H12.7502C12.9186 6.63551 13.0839 6.58814 13.2259 6.49761C13.3679 6.40709 13.4805 6.27729 13.5502 6.12397C13.6189 5.97227 13.6404 5.80341 13.6119 5.63934C13.5833 5.47526 13.5061 5.32357 13.3902 5.20397L9.58022 1.26397C9.40816 1.0948 9.17652 1 8.93522 1C8.69393 1 8.46229 1.0948 8.29022 1.26397L4.48022 5.20397C4.36666 5.32496 4.291 5.47655 4.26257 5.64003C4.23414 5.80351 4.25418 5.97174 4.32022 6.12397C4.39262 6.27731 4.50732 6.40678 4.65082 6.49713C4.79432 6.58748 4.96065 6.63496 5.13022 6.63397V6.63397Z" stroke="#040000" stroke-miterlimit="10"/>
<path d="M21.4197 6.37394C21.5942 6.53849 21.8249 6.63015 22.0647 6.63015C22.3045 6.63015 22.5353 6.53849 22.7097 6.37394L26.5097 2.42394C26.6297 2.30701 26.7105 2.15574 26.741 1.99097C26.7714 1.8262 26.75 1.65604 26.6797 1.50394C26.6014 1.35605 26.4851 1.23173 26.3427 1.14383C26.2003 1.05594 26.037 1.00764 25.8697 1.00394H18.2497C18.0813 1.0024 17.9161 1.04977 17.7741 1.1403C17.6321 1.23083 17.5194 1.36063 17.4497 1.51394C17.3804 1.66385 17.3586 1.83135 17.3872 1.99399C17.4158 2.15664 17.4935 2.30666 17.6097 2.42394L21.4197 6.37394Z" stroke="#040000" stroke-miterlimit="10"/>
<path d="M26.7499 8.50392H4.24987C3.26312 8.50123 2.31529 8.8886 1.61289 9.58164C0.910481 10.2747 0.510422 11.2172 0.499873 12.2039V27.1439C0.489261 27.6445 0.578202 28.1422 0.761531 28.6081C0.94486 29.074 1.21892 29.4989 1.56781 29.858C1.91669 30.2171 2.33344 30.5033 2.79387 30.7001C3.25429 30.8968 3.7492 31.0001 4.24987 31.0039H26.7499C27.7366 31.0066 28.6845 30.6192 29.3869 29.9262C30.0893 29.2332 30.4893 28.2906 30.4999 27.3039V12.3039C30.5065 11.8073 30.4144 11.3143 30.2289 10.8535C30.0434 10.3927 29.7682 9.97342 29.4194 9.61989C29.0705 9.26636 28.6548 8.98565 28.1966 8.79408C27.7383 8.6025 27.2466 8.50388 26.7499 8.50392V8.50392Z" stroke="#040000" stroke-miterlimit="10"/>
<path d="M21.1303 19.7548C22.6822 19.7548 23.9403 18.4967 23.9403 16.9448C23.9403 15.3928 22.6822 14.1348 21.1303 14.1348C19.5784 14.1348 18.3203 15.3928 18.3203 16.9448C18.3203 18.4967 19.5784 19.7548 21.1303 19.7548Z" stroke="#040000" stroke-miterlimit="10"/>
<path d="M9.88031 19.7548C11.4322 19.7548 12.6903 18.4967 12.6903 16.9448C12.6903 15.3928 11.4322 14.1348 9.88031 14.1348C8.32839 14.1348 7.07031 15.3928 7.07031 16.9448C7.07031 18.4967 8.32839 19.7548 9.88031 19.7548Z" stroke="#040000" stroke-miterlimit="10"/>
<path d="M14.5595 27.2548H5.18945V24.4448C5.18945 23.6995 5.48551 22.9848 6.01248 22.4578C6.53946 21.9308 7.25419 21.6348 7.99945 21.6348H11.7495C12.4947 21.6348 13.2094 21.9308 13.7364 22.4578C14.2634 22.9848 14.5595 23.6995 14.5595 24.4448V27.2548Z" stroke="#040000" stroke-miterlimit="10"/>
<path d="M25.8095 27.2548H16.4395V24.4448C16.4395 23.6995 16.7355 22.9848 17.2625 22.4578C17.7895 21.9308 18.5042 21.6348 19.2495 21.6348H22.9995C23.7447 21.6348 24.4594 21.9308 24.9864 22.4578C25.5134 22.9848 25.8095 23.6995 25.8095 24.4448V27.2548Z" stroke="#040000" stroke-miterlimit="10"/>
</svg>
