<svg width="32" height="32" viewBox="0 0 32 32" fill="none" xmlns="http://www.w3.org/2000/svg">
<path d="M12.1801 17.2604C12.2099 17.1672 12.2686 17.086 12.3477 17.0284C12.4269 16.9709 12.5223 16.94 12.6201 16.9404H19.3801C19.478 16.94 19.5734 16.9709 19.6525 17.0284C19.7316 17.086 19.7903 17.1672 19.8201 17.2604L20.5801 19.7504H11.3701L12.1801 17.2604Z" stroke="#040000" stroke-miterlimit="10"/>
<path d="M9.44047 23.4998C9.44047 23.2205 9.52343 22.9475 9.67881 22.7154C9.83419 22.4833 10.055 22.3026 10.3132 22.1962C10.5714 22.0898 10.8555 22.0625 11.1292 22.1177C11.403 22.1729 11.6542 22.3082 11.851 22.5064C12.0478 22.7046 12.1813 22.9567 12.2346 23.2309C12.2879 23.5051 12.2585 23.7889 12.1502 24.0464C12.042 24.3038 11.8597 24.5233 11.6265 24.6771C11.3933 24.8308 11.1198 24.9118 10.8405 24.9098C10.6558 24.9098 10.4729 24.8733 10.3024 24.8023C10.1319 24.7313 9.9771 24.6273 9.84696 24.4962C9.71683 24.3652 9.61392 24.2096 9.54415 24.0386C9.47439 23.8676 9.43915 23.6845 9.44047 23.4998V23.4998Z" stroke="#040000" stroke-miterlimit="10"/>
<path d="M22.5602 23.4999C22.5602 23.7792 22.4773 24.0522 22.3219 24.2843C22.1665 24.5163 21.9457 24.6971 21.6875 24.8035C21.4293 24.9099 21.1452 24.9372 20.8715 24.882C20.5977 24.8268 20.3465 24.6915 20.1497 24.4933C19.9529 24.2951 19.8194 24.0429 19.7661 23.7688C19.7128 23.4946 19.7422 23.2108 19.8505 22.9533C19.9587 22.6959 20.141 22.4764 20.3742 22.3226C20.6074 22.1689 20.8809 22.0879 21.1602 22.0899C21.3449 22.0899 21.5278 22.1264 21.6983 22.1974C21.8688 22.2684 22.0236 22.3724 22.1537 22.5035C22.2839 22.6345 22.3868 22.79 22.4566 22.9611C22.5263 23.1321 22.5616 23.3152 22.5602 23.4999V23.4999Z" stroke="#040000" stroke-miterlimit="10"/>
<path d="M31 16V27.25C31 28.2446 30.6049 29.1984 29.9017 29.9017C29.1984 30.6049 28.2446 31 27.25 31H4.75C3.75544 31 2.80161 30.6049 2.09835 29.9017C1.39509 29.1984 1 28.2446 1 27.25V16C1 12.0218 2.58035 8.20644 5.3934 5.3934C8.20644 2.58035 12.0218 1 16 1C19.9782 1 23.7936 2.58035 26.6066 5.3934C29.4196 8.20644 31 12.0218 31 16V16Z" stroke="#040000" stroke-miterlimit="10"/>
<path d="M23.5001 31.0001C23.9987 31.0001 24.4769 30.802 24.8295 30.4495C25.182 30.0969 25.3801 29.6187 25.3801 29.1201V23.0301C25.3787 22.451 25.2245 21.8825 24.933 21.3821C24.6416 20.8817 24.2232 20.467 23.7201 20.1801L22.5001 16.3901C22.2853 15.7314 21.8681 15.1573 21.3078 14.7497C20.7476 14.3421 20.0729 14.1218 19.3801 14.1201H12.6201C11.9273 14.1218 11.2527 14.3421 10.6924 14.7497C10.1322 15.1573 9.71491 15.7314 9.50012 16.3901L8.27012 20.1801C7.76961 20.4691 7.35377 20.8844 7.0642 21.3846C6.77463 21.8847 6.6215 22.4522 6.62012 23.0301V29.1201C6.62012 29.6187 6.81819 30.0969 7.17076 30.4495C7.52332 30.802 8.00151 31.0001 8.50012 31.0001C8.99872 31.0001 9.47691 30.802 9.82948 30.4495C10.182 30.0969 10.3801 29.6187 10.3801 29.1201V27.2501H21.6201V29.1201C21.6201 29.6187 21.8182 30.0969 22.1708 30.4495C22.5233 30.802 23.0015 31.0001 23.5001 31.0001V31.0001Z" stroke="#040000" stroke-miterlimit="10"/>
</svg>
