<svg width="19" height="30" viewBox="0 0 19 30" fill="none" xmlns="http://www.w3.org/2000/svg">
<path d="M17.36 10.3503C17.2912 10.1238 17.1675 9.91769 17 9.75033C16.8615 9.61413 16.6826 9.52643 16.49 9.50033H11.73L13.05 2.79033C13.0855 2.57511 13.0855 2.35555 13.05 2.14033C13.0234 1.93368 12.959 1.73369 12.86 1.55033C12.7699 1.38974 12.6431 1.25269 12.49 1.15033C12.3617 1.05733 12.2084 1.00507 12.05 1.00033H4.83003C4.70784 0.996897 4.58637 1.02017 4.4741 1.06853C4.36183 1.11689 4.26147 1.18918 4.18003 1.28033C3.97691 1.4929 3.84121 1.76081 3.79003 2.05033L1.03003 16.2203C0.98999 16.4318 0.98999 16.6489 1.03003 16.8603C1.04617 17.0824 1.10383 17.2995 1.20003 17.5003C1.28497 17.6673 1.41264 17.8088 1.57003 17.9103C1.7039 18.0072 1.86478 18.0597 2.03003 18.0603H6.03003L4.16003 27.5603C4.08039 27.8652 4.08039 28.1854 4.16003 28.4903C4.23522 28.761 4.39674 28.9998 4.62003 29.1703C4.71238 29.2459 4.82063 29.2995 4.93667 29.3272C5.05271 29.3549 5.17352 29.356 5.29003 29.3303C5.53881 29.2591 5.75029 29.0942 5.88003 28.8703L17.14 11.8703C17.2777 11.6528 17.3633 11.4064 17.39 11.1503C17.421 10.8817 17.3972 10.6095 17.32 10.3503H17.36Z" stroke="#040000" stroke-miterlimit="10"/>
</svg>
