<svg width="27" height="29" viewBox="0 0 27 29" fill="none" xmlns="http://www.w3.org/2000/svg">
<path d="M12.5268 20.8213C13.0168 21.2613 13.5268 21.7213 14.0568 22.2013C14.5868 22.6813 15.0568 23.2013 15.6168 23.7113C16.6168 24.5713 18.1568 24.4913 18.6768 23.7113C18.0068 23.3113 17.3068 22.9413 16.6768 22.4813C16.5046 22.3552 16.3883 22.167 16.3527 21.9566C16.317 21.7462 16.3648 21.5302 16.4859 21.3544C16.6069 21.1787 16.7917 21.057 17.0011 21.0154C17.2104 20.9737 17.4277 21.0153 17.6068 21.1313C17.7968 21.2413 17.9468 21.3913 18.1168 21.5113C18.5592 21.843 19.1066 22.0034 19.658 21.9629C20.2094 21.9225 20.7276 21.6839 21.1168 21.2913C20.7305 21.159 20.353 21.0021 19.9868 20.8213C19.6234 20.6141 19.2875 20.3621 18.9868 20.0713C18.9078 20.0086 18.8427 19.9303 18.7955 19.8413C18.7483 19.7522 18.72 19.6543 18.7125 19.5538C18.705 19.4533 18.7184 19.3523 18.7518 19.2572C18.7853 19.1621 18.838 19.075 18.9068 19.0013C18.9656 18.9138 19.0417 18.8393 19.1305 18.7824C19.2192 18.7255 19.3187 18.6874 19.4228 18.6705C19.5268 18.6537 19.6333 18.6583 19.7354 18.6843C19.8376 18.7102 19.9334 18.7568 20.0168 18.8213C20.1968 18.9413 20.3468 19.0813 20.5268 19.2013C20.9551 19.5083 21.4759 19.659 22.0019 19.628C22.528 19.5971 23.0275 19.3864 23.4168 19.0313C22.7768 18.6613 22.0968 18.3213 21.4768 17.8913C21.3658 17.8331 21.2703 17.7494 21.198 17.647C21.1258 17.5446 21.0789 17.4265 21.0613 17.3024C21.0438 17.1783 21.0559 17.0519 21.0969 16.9334C21.1378 16.815 21.2064 16.708 21.2968 16.6213C21.6668 16.1913 22.0968 16.2713 22.5468 16.6213C22.8782 16.8719 23.2457 17.0709 23.6368 17.2113C23.9382 17.3522 24.2775 17.3904 24.6026 17.32C24.9278 17.2495 25.2208 17.0743 25.4368 16.8213C25.9284 16.1022 26.1187 15.219 25.9668 14.3613C24.0868 15.2913 23.4168 15.1813 21.9668 13.6913C21.5768 13.2913 21.2268 12.8513 20.8868 12.4613L12.5268 20.8213ZM11.3268 10.1013L4.16682 2.98129C3.59682 2.42129 3.04682 1.82129 2.47682 1.29129C2.40536 1.20457 2.31645 1.13387 2.21585 1.0838C2.11526 1.03374 2.00524 1.00542 1.89298 1.00071C1.78071 0.995988 1.66871 1.01497 1.56427 1.05643C1.45983 1.09788 1.36529 1.16087 1.28682 1.24129C1.19754 1.31045 1.12528 1.39913 1.07556 1.50053C1.02585 1.60193 1 1.71336 1 1.82629C1 1.93922 1.02585 2.05065 1.07556 2.15205C1.12528 2.25345 1.19754 2.34213 1.28682 2.41129L1.63682 2.76129L7.97682 9.10129C8.69682 9.83129 9.37682 10.5813 10.0768 11.3213L11.3268 10.1013ZM11.3268 19.1013L19.1968 11.2713C18.7706 11.096 18.3014 11.0527 17.8503 11.1472C17.3992 11.2417 16.9869 11.4696 16.6668 11.8013C15.0468 13.3813 13.4468 14.9913 11.8568 16.6113C11.5331 16.9408 11.3131 17.358 11.2242 17.8113C11.1354 18.2646 11.1815 18.734 11.3568 19.1613L11.3268 19.1013ZM11.2168 14.6113L14.6668 11.1413C13.7968 10.1413 13.5868 10.1413 12.6068 11.1413L11.1668 12.5813C10.2568 13.5813 10.154 13.8213 11.124 14.6113H11.2168Z" stroke="black" stroke-miterlimit="10"/>
<path d="M6.08672 18.5213C6.08407 19.1826 5.81951 19.8159 5.35096 20.2826C4.88241 20.7492 4.24803 21.0113 3.58672 21.0113C2.93583 20.9983 2.31568 20.7319 1.85815 20.2687C1.40062 19.8056 1.1418 19.1823 1.13672 18.5312C1.13672 17.8682 1.40011 17.2323 1.86895 16.7635C2.33779 16.2946 2.97368 16.0313 3.63672 16.0312C4.29976 16.0313 4.93564 16.2946 5.40449 16.7635C5.87333 17.2323 6.13672 17.8682 6.13672 18.5312L6.08672 18.5213ZM3.43672 19.4313H3.76672C3.98672 19.1313 4.31672 18.8513 4.37672 18.5213C4.47672 18.0013 4.08672 17.7013 3.57672 17.7213C3.06672 17.7413 2.73672 18.0213 2.84672 18.5213C2.98647 18.8579 3.1864 19.1663 3.43672 19.4313V19.4313Z" stroke="black" stroke-miterlimit="10"/>
<path d="M22.7567 6.15117C22.6067 6.78117 22.9067 7.75117 21.8167 7.70117C20.7267 7.65117 21.0767 6.79117 20.9667 6.16117C20.3467 5.98117 19.3267 6.29117 19.4167 5.16117C19.4767 4.23117 20.3067 4.49117 20.9367 4.40117C21.1167 3.78117 20.8267 2.75117 21.9367 2.79117C23.0467 2.83117 22.6967 3.73117 22.7467 4.37117C23.4167 4.52117 24.3867 4.19117 24.3567 5.29117C24.3267 6.39117 23.3767 6.00117 22.7567 6.15117Z" stroke="black" stroke-miterlimit="10"/>
<path d="M7.83723 24.241C9.09723 24.361 9.47723 24.581 9.48723 25.141C9.49723 25.701 9.21723 25.801 7.84723 26.061C7.72723 26.651 8.03723 27.581 7.00723 27.601C5.97723 27.621 6.19723 26.681 6.07723 26.031C5.45723 25.871 4.47723 26.201 4.52723 25.101C4.57723 24.001 5.42723 24.361 6.05723 24.251C6.22723 23.631 5.91723 22.621 7.05723 22.691C8.19723 22.761 7.69723 23.611 7.83723 24.241Z" stroke="black" stroke-miterlimit="10"/>
</svg>
