<svg width="30" height="27" viewBox="0 0 30 27" fill="none" xmlns="http://www.w3.org/2000/svg">
<g clip-path="url(#clip0_2907_26225)">
<path d="M14.6064 17.0286C14.779 17.0312 14.9439 17.101 15.066 17.2231C15.1881 17.3452 15.2579 17.5101 15.2605 17.6828C15.2581 17.8555 15.1884 18.0205 15.0663 18.1427C15.0068 18.2046 14.9354 18.2536 14.8563 18.287C14.7772 18.3204 14.6922 18.3374 14.6064 18.3369H13.9522V19.6862C13.9533 19.773 13.9356 19.8591 13.9003 19.9385C13.865 20.0179 13.813 20.0887 13.7478 20.1461C13.6083 20.274 13.4259 20.3449 13.2367 20.3449C13.0475 20.3449 12.8651 20.274 12.7256 20.1461C12.6619 20.0875 12.6109 20.0164 12.5758 19.9373C12.5406 19.8582 12.522 19.7727 12.5212 19.6862V18.3369H9.79206C9.64 18.3371 9.49368 18.2789 9.38334 18.1743C9.273 18.0696 9.20708 17.9266 9.19922 17.7747V17.2126C9.20276 17.1019 9.21993 16.992 9.25033 16.8855L12.143 11.3863C12.2104 11.2699 12.3051 11.1717 12.419 11.1001C12.559 11.0237 12.7206 10.9963 12.878 11.0222C13.0354 11.0481 13.1797 11.1259 13.2878 11.2432C13.3512 11.3059 13.4011 11.3808 13.4345 11.4634C13.4679 11.546 13.4841 11.6346 13.482 11.7236C13.4741 11.8289 13.45 11.9324 13.4105 12.0303L10.7018 17.0797H12.5416V15.5056C12.5432 15.3216 12.6165 15.1456 12.7461 15.015C12.8446 14.9195 12.9688 14.8548 13.1036 14.8289C13.2383 14.8029 13.3776 14.8169 13.5046 14.8689C13.6315 14.921 13.7405 15.009 13.8182 15.1221C13.8959 15.2351 13.9389 15.3684 13.942 15.5056V17.0286H14.6064Z" fill="#231815"/>
<path d="M18.7969 0.827524C19.0369 0.624365 19.3411 0.512876 19.6555 0.512876C19.97 0.512876 20.2742 0.624365 20.5141 0.827524C20.6168 0.929208 20.6982 1.05021 20.7538 1.18354C20.8094 1.31688 20.838 1.4599 20.838 1.60436C20.838 1.74881 20.8094 1.89183 20.7538 2.02517C20.6982 2.1585 20.6168 2.2795 20.5141 2.38119L17.5806 5.31475H26.0337C26.9386 5.34518 27.7983 5.71756 28.4394 6.35681C29.0806 6.99605 29.4555 7.85461 29.4886 8.75938V22.5584C29.4556 23.4641 29.081 24.3239 28.4401 24.9648C27.7992 25.6057 26.9395 25.9802 26.0337 26.0132H3.95538C3.05061 25.9801 2.19205 25.6052 1.5528 24.964C0.913559 24.3229 0.541178 23.4632 0.510742 22.5584V8.75938C0.541321 7.85553 0.914052 6.99703 1.55354 6.35754C2.19302 5.71806 3.05152 5.34533 3.95538 5.31475H10.3438L7.41023 2.38119C7.30763 2.2795 7.22618 2.1585 7.1706 2.02517C7.11502 1.89183 7.08641 1.74881 7.08641 1.60436C7.08641 1.4599 7.11502 1.31688 7.1706 1.18354C7.22618 1.05021 7.30763 0.929208 7.41023 0.827524C7.65182 0.62359 7.95779 0.511719 8.27394 0.511719C8.5901 0.511719 8.89606 0.62359 9.13766 0.827524L13.6147 5.31475H14.4835L18.7969 0.827524ZM3.95538 8.75938V22.5584H20.5141V8.75938H3.95538ZM24.8276 8.53451C24.395 8.53451 23.9721 8.6628 23.6124 8.90315C23.2526 9.14351 22.9723 9.48513 22.8067 9.88482C22.6412 10.2845 22.5978 10.7243 22.6822 11.1486C22.7666 11.573 22.975 11.9627 23.2809 12.2686C23.5868 12.5745 23.9766 12.7829 24.4009 12.8673C24.8252 12.9517 25.265 12.9083 25.6647 12.7428C26.0644 12.5772 26.406 12.2969 26.6464 11.9372C26.8867 11.5774 27.015 11.1545 27.015 10.7219C27.015 10.4346 26.9584 10.1502 26.8485 9.88482C26.7386 9.61944 26.5774 9.3783 26.3743 9.17518C26.1712 8.97206 25.9301 8.81094 25.6647 8.70101C25.3993 8.59109 25.1149 8.53451 24.8276 8.53451ZM24.8276 15.0865C24.395 15.0865 23.9721 15.2148 23.6124 15.4551C23.2526 15.6955 22.9723 16.0371 22.8067 16.4368C22.6412 16.8365 22.5978 17.2763 22.6822 17.7006C22.7666 18.1249 22.975 18.5147 23.2809 18.8206C23.5868 19.1265 23.9766 19.3348 24.4009 19.4192C24.8252 19.5036 25.265 19.4603 25.6647 19.2947C26.0644 19.1292 26.406 18.8488 26.6464 18.4891C26.8867 18.1294 27.015 17.7065 27.015 17.2739C27.015 16.9866 26.9584 16.7022 26.8485 16.4368C26.7386 16.1714 26.5774 15.9303 26.3743 15.7271C26.1712 15.524 25.9301 15.3629 25.6647 15.253C25.3993 15.143 25.1149 15.0865 24.8276 15.0865V15.0865Z" stroke="#040000" stroke-miterlimit="10"/>
</g>
<defs>
<clipPath id="clip0_2907_26225">
<rect width="30" height="26.5247" fill="white"/>
</clipPath>
</defs>
</svg>
