<svg width="32" height="32" viewBox="0 0 32 32" fill="none" xmlns="http://www.w3.org/2000/svg">
<path d="M29.8904 27.2537H25.7246V3.997C25.7885 3.26888 25.5617 2.54504 25.0938 1.98353C24.6259 1.42202 23.9548 1.06845 23.2271 1H8.24207C7.51436 1.06845 6.84328 1.42202 6.37536 1.98353C5.90743 2.54504 5.68067 3.26888 5.74457 3.997V27.2537H1.57873C1.34457 27.2692 1.126 27.3765 0.970677 27.5524C0.815353 27.7284 0.735872 27.9585 0.749563 28.1928V30.0609C0.735872 30.2952 0.815353 30.5254 0.970677 30.7013C1.126 30.8772 1.34457 30.9846 1.57873 31H29.8904C30.1246 30.9846 30.3432 30.8772 30.4985 30.7013C30.6538 30.5254 30.7333 30.2952 30.7196 30.0609V28.1928C30.7333 27.9585 30.6538 27.7284 30.4985 27.5524C30.3432 27.3765 30.1246 27.2692 29.8904 27.2537V27.2537Z" stroke="#040000" stroke-miterlimit="10"/>
<path d="M20.7289 17.8939C21.6503 17.8939 22.3972 17.0531 22.3972 16.0158C22.3972 14.9786 21.6503 14.1377 20.7289 14.1377C19.8075 14.1377 19.0605 14.9786 19.0605 16.0158C19.0605 17.0531 19.8075 17.8939 20.7289 17.8939Z" stroke="#040000" stroke-miterlimit="10"/>
</svg>
