<svg width="31" height="32" viewBox="0 0 31 32" fill="none" xmlns="http://www.w3.org/2000/svg">
<path d="M4.25003 29.122C4.24724 29.6111 4.43622 30.0819 4.77644 30.4333C5.11667 30.7847 5.58106 30.9889 6.07003 31.002H15.5C15.7438 31.0007 15.9848 30.9508 16.209 30.8551C16.4332 30.7594 16.636 30.62 16.8055 30.4448C16.9751 30.2697 17.1079 30.0625 17.1963 29.8353C17.2846 29.6081 17.3267 29.3656 17.32 29.122V27.252H4.25003V29.122Z" stroke="#040000" stroke-miterlimit="10"/>
<path d="M29.9999 1.33178C29.8409 1.19852 29.6547 1.1017 29.4543 1.04814C29.2538 0.994585 29.0441 0.985587 28.8399 1.02178L18.5799 2.90178C18.2576 2.96223 17.9666 3.13308 17.7567 3.38494C17.5468 3.63681 17.4312 3.95393 17.4299 4.28178H13.6299V2.88178C13.6326 2.39095 13.4423 1.91872 13.0999 1.567C12.7575 1.21528 12.2906 1.01227 11.7999 1.00178H9.87988C9.38127 1.00178 8.90308 1.19985 8.55052 1.55242C8.19795 1.90499 7.99988 2.38317 7.99988 2.88178V4.50178C6.30397 4.79965 4.7194 5.54816 3.41219 6.66887C2.10498 7.78959 1.12325 9.24126 0.569876 10.8718C0.455347 11.2259 0.484439 11.6109 0.650891 11.9438C0.817343 12.2767 1.10785 12.5309 1.45988 12.6518C1.81402 12.7663 2.19896 12.7372 2.53187 12.5708C2.86477 12.4043 3.11902 12.1138 3.23988 11.7618C3.59936 10.6841 4.22349 9.71388 5.0551 8.93993C5.8867 8.16597 6.89921 7.61304 7.99988 7.33178V9.16178C6.87991 9.68872 5.93277 10.5231 5.26884 11.5677C4.6049 12.6123 4.25152 13.8241 4.24988 15.0618V25.3818H17.3199V15.0618C17.3166 13.832 16.9692 12.6277 16.3171 11.585C15.665 10.5423 14.7342 9.70296 13.6299 9.16178V7.09178H17.3199C17.3146 7.4262 17.4283 7.75161 17.6408 8.0099C17.8533 8.26818 18.1507 8.44252 18.4799 8.50178L28.7399 10.3018H28.9899C29.1741 10.3031 29.3567 10.2678 29.5272 10.1979C29.6977 10.128 29.8525 10.025 29.9828 9.8947C30.1131 9.76443 30.2161 9.60956 30.286 9.43911C30.3559 9.26865 30.3912 9.086 30.3899 8.90178V2.35178C30.4183 2.16257 30.3973 1.96922 30.329 1.79051C30.2607 1.61179 30.1473 1.45377 29.9999 1.33178V1.33178Z" stroke="#040000" stroke-miterlimit="10"/>
<path d="M10.81 6.62195C10.5787 6.598 10.3645 6.48916 10.2087 6.31647C10.053 6.14378 9.9668 5.91949 9.9668 5.68695C9.9668 5.45441 10.053 5.23013 10.2087 5.05744C10.3645 4.88474 10.5787 4.77591 10.81 4.75195C10.9308 4.75318 11.0501 4.7787 11.1608 4.82701C11.2715 4.87531 11.3714 4.94541 11.4544 5.03313C11.5375 5.12085 11.602 5.22438 11.6442 5.33757C11.6864 5.45076 11.7053 5.57128 11.7 5.69195C11.7054 5.81215 11.6864 5.9322 11.6441 6.04484C11.6018 6.15748 11.5371 6.26037 11.4539 6.3473C11.3707 6.43423 11.2707 6.50338 11.1601 6.55059C11.0494 6.5978 10.9303 6.62207 10.81 6.62195V6.62195Z" stroke="#040000" stroke-miterlimit="10"/>
</svg>
