<svg width="30" height="30" viewBox="0 0 30 30" fill="none" xmlns="http://www.w3.org/2000/svg">
<path d="M10.28 2.63749H1.42C1.30589 2.65152 1.19011 2.64141 1.08016 2.6078C0.97022 2.57419 0.868571 2.51784 0.781816 2.4424C0.695061 2.36696 0.625139 2.27412 0.576589 2.16991C0.528038 2.0657 0.501944 1.95244 0.5 1.83749C0.5 1.35749 0.83 1.03749 1.39 1.00749H27.57C27.7298 0.997504 27.8902 0.997504 28.05 1.00749C28.2666 1.01531 28.4716 1.10756 28.6211 1.26453C28.7706 1.42151 28.8528 1.63073 28.85 1.84749C28.8475 1.95562 28.8233 2.06214 28.7789 2.16078C28.7346 2.25942 28.6709 2.34817 28.5917 2.4218C28.5124 2.49543 28.4193 2.55245 28.3176 2.5895C28.216 2.62654 28.108 2.64286 28 2.63749H19.06V4.49749C19.08 4.79048 19.08 5.0845 19.06 5.37749C19.0446 5.59286 18.9644 5.79853 18.83 5.96749C18.17 6.65749 17.49 7.31749 16.83 7.96749C16.5377 8.29474 16.2273 8.60523 15.9 8.89749C15.27 9.39749 15.56 10.0575 15.53 10.6575C15.53 10.7075 15.75 10.7975 15.88 10.8075H18.13C18.87 10.8075 19.31 11.4375 18.95 12.0075C18.8771 12.1212 18.7803 12.2177 18.6663 12.2903C18.5523 12.3628 18.4239 12.4096 18.29 12.4275C15.89 12.4275 13.5 12.4275 11.1 12.4275C10.9954 12.4275 10.8919 12.4067 10.7954 12.3664C10.6988 12.3261 10.6113 12.267 10.5378 12.1926C10.4643 12.1182 10.4063 12.0299 10.3672 11.9329C10.3281 11.8359 10.3087 11.7321 10.31 11.6275C10.3086 11.5164 10.3297 11.4062 10.3722 11.3035C10.4147 11.2008 10.4776 11.1079 10.557 11.0302C10.6365 10.9526 10.731 10.892 10.8346 10.852C10.9383 10.8119 11.049 10.7934 11.16 10.7975C11.91 10.7975 12.66 10.7975 13.41 10.7975C13.81 10.7975 13.87 10.6775 13.9 10.2975C13.9401 9.98119 13.8987 9.65988 13.7797 9.36409C13.6607 9.0683 13.468 8.80785 13.22 8.60749C12.35 7.80749 11.55 6.93749 10.71 6.11749C10.5694 5.9935 10.4593 5.83879 10.3882 5.66537C10.3171 5.49194 10.2869 5.30447 10.3 5.11749C10.29 4.33749 10.28 3.49749 10.28 2.63749Z" stroke="black" stroke-miterlimit="10"/>
<path d="M17.4099 2.66797H11.9299C11.9299 3.28797 11.9299 3.86797 11.9299 4.45797C11.9185 4.64666 11.9515 4.83539 12.0261 5.00905C12.1008 5.18271 12.2151 5.33646 12.3599 5.45797C13.1299 6.20797 13.8599 7.00797 14.6499 7.82797L17.3499 5.09797C17.3934 5.04014 17.4178 4.97027 17.4199 4.89797C17.4199 4.17797 17.4099 3.43797 17.4099 2.66797Z" stroke="black" stroke-miterlimit="10"/>
<path d="M1.14045 24.8778C0.963159 24.6918 0.864258 24.4448 0.864258 24.1878C0.864258 23.9309 0.963159 23.6838 1.14045 23.4978C1.7291 23.0949 2.42711 22.882 3.14045 22.8878C3.14566 23.6011 2.93282 24.2989 2.53045 24.8878C2.34269 25.0667 2.09277 25.1657 1.83343 25.1638C1.57409 25.1619 1.32562 25.0594 1.14045 24.8778Z" fill="#040000"/>
<path d="M5.53978 20.4972C5.35954 20.3107 5.25879 20.0615 5.25879 19.8022C5.25879 19.5428 5.35954 19.2937 5.53978 19.1072C6.12903 18.7066 6.82732 18.4971 7.53978 18.5072C7.54499 19.2204 7.33215 19.9182 6.92978 20.5072C6.74202 20.6861 6.4921 20.7851 6.23276 20.7832C5.97342 20.7813 5.72495 20.6788 5.53978 20.4972Z" fill="#040000"/>
<path d="M9.32014 16.6571C9.14285 16.4711 9.04395 16.2241 9.04395 15.9671C9.04395 15.7102 9.14285 15.4631 9.32014 15.2771C9.90879 14.8742 10.6068 14.6613 11.3201 14.6671C11.3253 15.3804 11.1125 16.0782 10.7101 16.6671C10.5224 16.846 10.2725 16.945 10.0131 16.9431C9.75377 16.9412 9.5053 16.8387 9.32014 16.6571Z" fill="#040000"/>
<path d="M14.6699 29.0871C14.4047 29.0871 14.1504 28.9817 13.9628 28.7942C13.7753 28.6066 13.6699 28.3523 13.6699 28.0871C13.8107 27.3871 14.1592 26.7459 14.6699 26.2471C15.1885 26.7399 15.5385 27.3838 15.6699 28.0871C15.6699 28.3523 15.5646 28.6066 15.377 28.7942C15.1895 28.9817 14.9351 29.0871 14.6699 29.0871Z" fill="#040000"/>
<path d="M14.6699 22.8576C14.4047 22.8576 14.1504 22.7522 13.9628 22.5647C13.7753 22.3771 13.6699 22.1228 13.6699 21.8576C13.813 21.1585 14.1611 20.5179 14.6699 20.0176C15.1864 20.5121 15.5359 21.1552 15.6699 21.8576C15.6699 22.1228 15.5646 22.3771 15.377 22.5647C15.1895 22.7522 14.9351 22.8576 14.6699 22.8576Z" fill="#040000"/>
<path d="M14.6396 17.4972C14.3744 17.4972 14.1201 17.3919 13.9325 17.2043C13.745 17.0168 13.6396 16.7624 13.6396 16.4972C13.7762 15.7958 14.1253 15.1533 14.6396 14.6572C15.1524 15.1545 15.5013 15.7964 15.6396 16.4972C15.6396 16.7624 15.5343 17.0168 15.3468 17.2043C15.1592 17.3919 14.9049 17.4972 14.6396 17.4972Z" fill="#040000"/>
<path d="M28.4102 24.9874C28.2237 25.1676 27.9745 25.2684 27.7152 25.2684C27.4558 25.2684 27.2066 25.1676 27.0202 24.9874C26.6229 24.396 26.4105 23.6998 26.4102 22.9874C27.1233 22.9828 27.8209 23.1956 28.4102 23.5974C28.5904 23.7838 28.6911 24.033 28.6911 24.2924C28.6911 24.5517 28.5904 24.8009 28.4102 24.9874Z" fill="#040000"/>
<path d="M23.9998 20.587C23.8139 20.7643 23.5668 20.8632 23.3098 20.8632C23.0529 20.8632 22.8058 20.7643 22.6198 20.587C22.218 19.9978 22.0053 19.3002 22.0098 18.587C22.7231 18.5818 23.4209 18.7946 24.0098 19.197C24.1887 19.3848 24.2877 19.6347 24.2858 19.894C24.284 20.1534 24.1814 20.4018 23.9998 20.587Z" fill="#040000"/>
<path d="M21.7799 27.8378C21.5369 27.9306 21.2673 27.925 21.0284 27.8223C20.7894 27.7197 20.5998 27.5279 20.4999 27.2878C20.3641 26.5904 20.4443 25.8683 20.7299 25.2178C21.3865 25.488 21.9423 25.9565 22.3199 26.5578C22.4133 26.7995 22.4092 27.0681 22.3085 27.3069C22.2077 27.5456 22.0182 27.736 21.7799 27.8378Z" fill="#040000"/>
<path d="M19.4505 22.058C19.2075 22.1471 18.9393 22.1386 18.7025 22.0342C18.4656 21.9297 18.2785 21.7375 18.1805 21.498C18.042 20.7983 18.1187 20.0732 18.4005 19.418C19.0587 19.6996 19.6165 20.1737 20.0005 20.778C20.0932 21.021 20.0877 21.2905 19.985 21.5295C19.8823 21.7685 19.6906 21.958 19.4505 22.058Z" fill="#040000"/>
<path d="M7.74008 28.3373C7.49923 28.243 7.30426 28.0591 7.19611 27.8242C7.08796 27.5892 7.07505 27.3215 7.16008 27.0773C7.40008 26.4273 8.39008 25.8673 8.72008 25.6973C9.01689 26.3406 9.1144 27.058 9.00008 27.7573C8.90583 27.9981 8.72193 28.1931 8.48699 28.3012C8.25205 28.4094 7.98434 28.4223 7.74008 28.3373Z" fill="#040000"/>
<path d="M9.89047 22.4974C9.64962 22.4032 9.45465 22.2193 9.3465 21.9843C9.23835 21.7494 9.22544 21.4817 9.31047 21.2374C9.55047 20.5874 10.5505 20.0274 10.8705 19.8574C11.1772 20.4978 11.2752 21.2184 11.1505 21.9174C11.0562 22.1583 10.8723 22.3532 10.6374 22.4614C10.4024 22.5695 10.1347 22.5825 9.89047 22.4974Z" fill="#040000"/>
<path d="M20.1904 16.7979C20.004 16.9782 19.7548 17.0789 19.4954 17.0789C19.2361 17.0789 18.9869 16.9782 18.8004 16.7979C18.4015 16.2073 18.189 15.5106 18.1904 14.7979C18.9036 14.7934 19.6012 15.0061 20.1904 15.4079C20.3707 15.5944 20.4714 15.8436 20.4714 16.1029C20.4714 16.3623 20.3707 16.6115 20.1904 16.7979Z" fill="#040000"/>
</svg>
