<svg width="30" height="30" viewBox="0 0 30 30" fill="none" xmlns="http://www.w3.org/2000/svg">
<g clip-path="url(#clip0_2765_26379)">
<path d="M19.7498 20.1016H2.61783C1.98094 20.1804 1.40022 20.5054 0.999979 21.0071C0.599735 21.5087 0.411774 22.1471 0.476331 22.7856V26.3547C0.414405 26.9917 0.603578 27.6276 1.00357 28.1272C1.40356 28.6267 1.98276 28.9504 2.61783 29.0292H19.7498C19.9621 29.003 20.1557 28.8946 20.2891 28.7274C20.4225 28.5602 20.4852 28.3474 20.4636 28.1346V20.9962C20.4827 20.7839 20.4192 20.5724 20.2862 20.4057C20.1532 20.2391 19.9611 20.1301 19.7498 20.1016Z" stroke="#040000" stroke-miterlimit="10"/>
<path d="M18.3219 22.7852H10.4697V26.3543H18.3219V22.7852Z" stroke="#040000" stroke-miterlimit="10"/>
<path d="M24.3853 20.1016H22.2533C22.1473 20.1158 22.0508 20.1701 21.9835 20.2533C21.9163 20.3365 21.8834 20.4422 21.8917 20.5489V28.5533C21.881 28.6605 21.913 28.7675 21.9807 28.8513C22.0484 28.935 22.1463 28.9887 22.2533 29.0007H24.3853C24.4923 28.9887 24.5903 28.935 24.658 28.8513C24.7257 28.7675 24.7577 28.6605 24.747 28.5533V20.5489C24.7552 20.4422 24.7224 20.3365 24.6551 20.2533C24.5879 20.1701 24.4913 20.1158 24.3853 20.1016V20.1016Z" stroke="#040000" stroke-miterlimit="10"/>
<path d="M29.1722 20.1016H27.0307C26.9247 20.1158 26.8281 20.1701 26.7609 20.2533C26.6936 20.3365 26.6608 20.4422 26.669 20.5489V28.5533C26.6583 28.6605 26.6903 28.7675 26.758 28.8513C26.8257 28.935 26.9237 28.9887 27.0307 29.0007H29.1722C29.274 28.982 29.3649 28.9255 29.4267 28.8425C29.4886 28.7595 29.5166 28.6562 29.5053 28.5533V20.5489C29.5144 20.4464 29.4855 20.3442 29.424 20.2617C29.3626 20.1792 29.273 20.1222 29.1722 20.1016Z" stroke="#040000" stroke-miterlimit="10"/>
<path d="M25.1657 5.33916C25.031 5.22041 24.9238 5.07376 24.8514 4.9094C24.7791 4.74505 24.7435 4.56692 24.7469 4.38739V0.951474C24.7563 0.896232 24.7543 0.839645 24.7409 0.785219C24.7276 0.730794 24.7032 0.67969 24.6693 0.635074C24.6354 0.590458 24.5927 0.553281 24.5438 0.525847C24.4949 0.498412 24.441 0.481305 24.3852 0.475586H22.2532C22.1975 0.481305 22.1435 0.498412 22.0946 0.525847C22.0458 0.553281 22.0031 0.590458 21.9692 0.635074C21.9353 0.67969 21.9109 0.730794 21.8975 0.785219C21.8842 0.839645 21.8821 0.896232 21.8916 0.951474V4.39691C21.8693 4.97388 21.9717 5.54886 22.1918 6.08267C22.4119 6.61648 22.7445 7.09655 23.1669 7.49018C24.1466 8.35113 24.9241 9.4177 25.444 10.6138C25.9639 11.8099 26.2133 13.106 26.1746 14.4096V16.0942C26.1663 16.2009 26.1992 16.3067 26.2664 16.3898C26.3337 16.473 26.4302 16.5273 26.5362 16.5416H28.6682C28.7742 16.5273 28.8708 16.473 28.938 16.3898C29.0053 16.3067 29.0381 16.2009 29.0299 16.0942V14.4096C29.0753 12.7088 28.7536 11.0183 28.0868 9.45304C27.42 7.8878 26.4236 6.48465 25.1657 5.33916V5.33916Z" stroke="#040000" stroke-miterlimit="10"/>
<path d="M21.6151 8.37533C21.0537 7.87651 20.6054 7.26352 20.3001 6.5774C19.9948 5.89128 19.8396 5.14787 19.8448 4.39691V0.951474C19.8542 0.896232 19.8522 0.839645 19.8388 0.785219C19.8255 0.730794 19.8011 0.67969 19.7672 0.635074C19.7333 0.590458 19.6906 0.553281 19.6417 0.525847C19.5929 0.498412 19.5389 0.481305 19.4831 0.475586H17.3416C17.289 0.481475 17.238 0.497768 17.1917 0.523519C17.1455 0.54927 17.1047 0.583965 17.072 0.625587C17.0392 0.66721 17.015 0.714929 17.0009 0.765973C16.9867 0.817016 16.9828 0.870366 16.9895 0.922921V4.62533C16.9879 5.75075 17.2265 6.86354 17.6893 7.88937C18.1522 8.91519 18.8286 9.83043 19.6735 10.5739C20.192 11.0609 20.6024 11.6516 20.8779 12.3074C21.1533 12.9633 21.2878 13.6698 21.2725 14.381V16.0657C21.2616 16.1714 21.2923 16.2771 21.358 16.3606C21.4237 16.4441 21.5193 16.4988 21.6246 16.513H23.7947C23.9007 16.4988 23.9972 16.4445 24.0645 16.3613C24.1317 16.2781 24.1646 16.1723 24.1564 16.0657V14.4096C24.1814 13.2816 23.968 12.161 23.5301 11.1211C23.0922 10.0812 22.4396 9.14557 21.6151 8.37533V8.37533Z" stroke="#040000" stroke-miterlimit="10"/>
</g>
<defs>
<clipPath id="clip0_2765_26379">
<rect width="30" height="29.5051" fill="white"/>
</clipPath>
</defs>
</svg>
