<svg width="32" height="26" viewBox="0 0 32 26" fill="none" xmlns="http://www.w3.org/2000/svg">
<path d="M30.2524 8.69349C30.4228 8.79053 30.5723 8.92051 30.6921 9.07585C30.8119 9.2312 30.8996 9.40881 30.9501 9.59835C31.0006 9.7879 31.0129 9.9856 30.9863 10.18C30.9598 10.3743 30.8948 10.5614 30.7952 10.7304C30.7023 10.9 30.5763 11.0492 30.4246 11.169C30.2728 11.2889 30.0986 11.377 29.9121 11.4281C29.7256 11.4792 29.5308 11.4922 29.3392 11.4665C29.1475 11.4407 28.9631 11.3767 28.7967 11.2781L15.9696 4.21602L3.22898 11.2781C3.05915 11.377 2.87143 11.4412 2.67665 11.4672C2.48187 11.4931 2.28387 11.4803 2.09408 11.4294C1.90429 11.3785 1.72645 11.2905 1.5708 11.1705C1.41516 11.0506 1.28479 10.901 1.18722 10.7304C0.994853 10.3826 0.948532 9.97259 1.05845 9.59059C1.16836 9.2086 1.42551 8.8859 1.77333 8.69349L15.2874 1.18459C15.5083 1.06349 15.7561 1 16.008 1C16.2599 1 16.5078 1.06349 16.7287 1.18459L30.2524 8.69349ZM14.096 10.3653C14.1082 9.87225 14.3095 9.40273 14.6582 9.05397C15.007 8.7052 15.4765 8.50389 15.9696 8.49171C16.224 8.47884 16.4783 8.51782 16.7171 8.60628C16.9559 8.69475 17.1742 8.83086 17.3588 9.00633C17.5434 9.1818 17.6904 9.39297 17.7908 9.62701C17.8912 9.86105 17.943 10.1131 17.943 10.3677C17.943 10.6224 17.8912 10.8744 17.7908 11.1085C17.6904 11.3425 17.5434 11.5537 17.3588 11.7291C17.1742 11.9046 16.9559 12.0407 16.7171 12.1292C16.4783 12.2177 16.224 12.2566 15.9696 12.2438C15.4757 12.2315 15.0055 12.0296 14.6566 11.6798C14.3077 11.33 14.1069 10.8593 14.096 10.3653V10.3653ZM5.83764 14.886C5.84865 14.3913 6.05009 13.9199 6.40001 13.57C6.74992 13.2201 7.22133 13.0186 7.71606 13.0076C8.1972 13.032 8.65058 13.2403 8.98251 13.5894C9.31443 13.9386 9.49952 14.4019 9.49952 14.8836C9.49952 15.3654 9.31443 15.8287 8.98251 16.1779C8.65058 16.527 8.1972 16.7353 7.71606 16.7597C7.22214 16.7487 6.75142 16.5479 6.40163 16.199C6.05185 15.8501 5.84987 15.3799 5.83764 14.886ZM26.1064 14.886C26.1096 15.1334 26.0632 15.3789 25.9699 15.608C25.8766 15.8371 25.7383 16.0451 25.5631 16.2198C25.388 16.3945 25.1796 16.5323 24.9502 16.625C24.7209 16.7178 24.4753 16.7635 24.2279 16.7597C23.9736 16.7725 23.7193 16.7336 23.4805 16.6451C23.2417 16.5566 23.0233 16.4205 22.8387 16.245C22.6542 16.0696 22.5072 15.8584 22.4068 15.6244C22.3063 15.3903 22.2546 15.1383 22.2546 14.8836C22.2546 14.629 22.3063 14.377 22.4068 14.1429C22.5072 13.9089 22.6542 13.6977 22.8387 13.5222C23.0233 13.3468 23.2417 13.2107 23.4805 13.1222C23.7193 13.0337 23.9736 12.9947 24.2279 13.0076C24.4757 13.0037 24.7217 13.0497 24.9514 13.1427C25.181 13.2357 25.3897 13.3739 25.5649 13.5491C25.7401 13.7243 25.8783 13.933 25.9713 14.1626C26.0643 14.3923 26.1103 14.6383 26.1064 14.886ZM11.6459 24.0524L10.3391 21.7127V23.5191C10.3431 23.717 10.307 23.9137 10.233 24.0973C10.1591 24.2809 10.0488 24.4477 9.90885 24.5877C9.76887 24.7277 9.60207 24.838 9.41845 24.9119C9.23482 24.9858 9.03815 25.0219 8.84024 25.018H6.58709C6.19103 25.0118 5.81285 24.8521 5.53231 24.5725C5.25177 24.2928 5.09081 23.9151 5.08339 23.5191V21.7127L3.86794 24.0524C3.71743 24.2993 3.47787 24.4791 3.19869 24.5547C2.9195 24.6302 2.62198 24.5957 2.36749 24.4583C2.11299 24.3208 1.92094 24.091 1.83095 23.8161C1.74096 23.5413 1.75988 23.2424 1.88382 22.981L3.64214 19.6854C3.99552 19.0286 4.5203 18.4798 5.16067 18.0975C5.80103 17.7151 6.53305 17.5134 7.27889 17.5139H8.19648C8.9614 17.5034 9.71387 17.7081 10.368 18.1048L11.9197 15.1695C12.271 14.5087 12.7935 13.9545 13.4324 13.5648C14.0714 13.1752 14.8033 12.9645 15.5516 12.9548H16.474C17.2228 12.9652 17.9552 13.1761 18.5948 13.5656C19.2344 13.9551 19.7579 14.509 20.1108 15.1695L21.6817 18.0952C22.3274 17.7086 23.0671 17.5075 23.8196 17.5139H24.7324C25.4774 17.5143 26.2084 17.7164 26.8479 18.0987C27.4873 18.481 28.0113 19.0293 28.3643 19.6854L30.1419 22.981C30.2122 23.1123 30.256 23.2561 30.2708 23.4042C30.2856 23.5524 30.271 23.702 30.228 23.8445C30.1849 23.9871 30.1142 24.1197 30.0199 24.2349C29.9256 24.3501 29.8095 24.4456 29.6783 24.516C29.4132 24.658 29.1026 24.689 28.8148 24.6021C28.5269 24.5151 28.2854 24.3174 28.1433 24.0524L26.8414 21.7127V23.5191C26.8447 23.7173 26.808 23.914 26.7335 24.0977C26.659 24.2813 26.5483 24.4481 26.408 24.588C26.2676 24.7279 26.1005 24.8381 25.9166 24.912C25.7327 24.9858 25.5358 25.0219 25.3377 25.018H23.1038C22.7081 25.0107 22.3306 24.8505 22.0503 24.5711C21.77 24.2917 21.6087 23.9148 21.6001 23.5191V21.7127L20.3798 24.0524C20.2375 24.3139 19.9975 24.5086 19.7123 24.5941C19.4271 24.6796 19.1196 24.6489 18.8569 24.5088C18.7219 24.4434 18.6017 24.3511 18.5037 24.2376C18.4057 24.1241 18.3319 23.9917 18.2869 23.8486C18.2419 23.7055 18.2266 23.5548 18.242 23.4056C18.2574 23.2564 18.3032 23.1119 18.3765 22.981L20.082 19.8151C19.9977 19.7396 19.9291 19.6482 19.8802 19.5461L18.5735 17.2065V19.7623C18.5773 19.9588 18.5418 20.154 18.4691 20.3366C18.3964 20.5192 18.288 20.6855 18.1501 20.8256C18.0123 20.9656 17.8478 21.0768 17.6664 21.1524C17.485 21.228 17.2903 21.2666 17.0938 21.266H14.8454C14.4489 21.2586 14.0707 21.0978 13.7903 20.8174C13.5099 20.5369 13.3491 20.1588 13.3417 19.7623V17.2065L12.1263 19.5461C12.0302 19.6518 12.0014 19.7382 11.9245 19.8151L13.6252 22.981C13.7672 23.2435 13.7992 23.5517 13.7141 23.8377C13.6289 24.1238 13.4337 24.3643 13.1712 24.5064C12.9087 24.6484 12.6006 24.6804 12.3145 24.5953C12.0284 24.5101 11.7879 24.3148 11.6459 24.0524V24.0524Z" stroke="#040000" stroke-miterlimit="10"/>
</svg>
