<svg width="32" height="32" viewBox="0 0 32 32" fill="none" xmlns="http://www.w3.org/2000/svg">
<path d="M11.3559 30.1424C10.8195 30.6763 10.0935 30.976 9.33679 30.976C8.58004 30.976 7.85408 30.6763 7.31773 30.1424L1.83356 24.6763C1.29971 24.1399 1 23.414 1 22.6572C1 21.9005 1.29971 21.1745 1.83356 20.6381L4.83365 17.6381L7.71374 20.4761C7.80199 20.5644 7.90676 20.6344 8.02207 20.6822C8.13737 20.7299 8.26096 20.7545 8.38576 20.7545C8.51057 20.7545 8.63415 20.7299 8.74946 20.6822C8.86476 20.6344 8.96953 20.5644 9.05778 20.4761C9.14603 20.3879 9.21604 20.2831 9.2638 20.1678C9.31156 20.0525 9.33614 19.9289 9.33614 19.8041C9.33614 19.6793 9.31156 19.5557 9.2638 19.4404C9.21604 19.3251 9.14603 19.2204 9.05778 19.1321L6.20169 16.276L8.66177 13.8099L11.4999 16.648C11.588 16.7366 11.6927 16.8068 11.808 16.8547C11.9233 16.9027 12.047 16.9274 12.1719 16.9274C12.2968 16.9274 12.4204 16.9027 12.5358 16.8547C12.6511 16.8068 12.7558 16.7366 12.8439 16.648C12.9339 16.5608 13.0055 16.4563 13.0543 16.3409C13.1032 16.2254 13.1284 16.1014 13.1284 15.976C13.1284 15.8506 13.1032 15.7266 13.0543 15.6111C13.0055 15.4957 12.9339 15.3912 12.8439 15.304L9.98781 12.4479L12.4539 9.98181L15.31 12.8379C15.3972 12.9279 15.5017 12.9995 15.6171 13.0483C15.7326 13.0972 15.8566 13.1224 15.982 13.1224C16.1074 13.1224 16.2314 13.0972 16.3469 13.0483C16.4623 12.9995 16.5668 12.9279 16.654 12.8379C16.7426 12.7498 16.8128 12.6451 16.8607 12.5298C16.9087 12.4144 16.9334 12.2908 16.9334 12.1659C16.9334 12.041 16.9087 11.9173 16.8607 11.802C16.8128 11.6867 16.7426 11.582 16.654 11.4939L13.7979 8.63777L16.3 6.17769L19.1561 9.03378C19.2444 9.12203 19.3491 9.19204 19.4644 9.2398C19.5797 9.28756 19.7033 9.31214 19.8281 9.31214C19.9529 9.31214 20.0765 9.28756 20.1918 9.2398C20.3071 9.19204 20.4119 9.12203 20.5001 9.03378C20.5884 8.94553 20.6584 8.84076 20.7062 8.72546C20.7539 8.61015 20.7785 8.48657 20.7785 8.36176C20.7785 8.23696 20.7539 8.11337 20.7062 7.99807C20.6584 7.88276 20.5884 7.77799 20.5001 7.68974L17.6261 4.83365L20.6261 1.83356C21.1625 1.29971 21.8885 1 22.6452 1C23.402 1 24.1279 1.29971 24.6643 1.83356L30.1664 7.27573C30.7003 7.81208 31 8.53804 31 9.29479C31 10.0515 30.7003 10.7775 30.1664 11.3139L11.3559 30.1424Z" stroke="#040000" stroke-miterlimit="10"/>
</svg>
