<svg width="32" height="29" viewBox="0 0 32 29" fill="none" xmlns="http://www.w3.org/2000/svg">
<path d="M30.1645 24.3187H27.6639V6.90004C27.6725 6.22734 27.4141 5.57866 26.9455 5.09601C26.4768 4.61335 25.836 4.33606 25.1633 4.32483H19.3358V7.65714H24.3316V27.651H30.1645C30.38 27.6525 30.5876 27.5697 30.743 27.4203C30.8984 27.2709 30.9893 27.0667 30.9962 26.8512V25.2517C31.0072 25.135 30.9941 25.0171 30.9575 24.9057C30.9209 24.7942 30.8618 24.6915 30.7837 24.6039C30.7057 24.5164 30.6104 24.4458 30.5038 24.3968C30.3973 24.3477 30.2818 24.3211 30.1645 24.3187V24.3187ZM15.5983 1.04584L5.60135 3.63704C5.23147 3.72843 4.90416 3.94403 4.67416 4.24779C4.44416 4.55154 4.3254 4.92505 4.33774 5.30586V24.3187H1.83718C1.62427 24.317 1.41894 24.3976 1.26399 24.5436C1.10904 24.6896 1.01641 24.8898 1.00543 25.1025V26.702C0.992047 26.82 1.00346 26.9395 1.03895 27.0529C1.07444 27.1663 1.13322 27.271 1.21152 27.3603C1.28982 27.4497 1.38591 27.5217 1.49365 27.5717C1.60139 27.6218 1.7184 27.6488 1.83718 27.651H17.667V2.71999C17.6732 2.46295 17.6203 2.20792 17.5124 1.97455C17.4044 1.74118 17.2444 1.5357 17.0445 1.37396C16.8447 1.21221 16.6103 1.09851 16.3596 1.04162C16.1088 0.984736 15.8484 0.986178 15.5983 1.04584V1.04584ZM13.0871 15.9746C12.3939 15.9746 11.8341 15.2228 11.8341 14.3751C11.8341 13.5273 12.3939 12.7756 13.0871 12.7756C13.7802 12.7756 14.3347 13.4314 14.3347 14.3484C14.3347 15.2655 13.7802 15.9906 13.0871 15.9906V15.9746Z" stroke="#040000" stroke-miterlimit="10"/>
</svg>
