<svg width="32" height="25" viewBox="0 0 32 25" fill="none" xmlns="http://www.w3.org/2000/svg">
<path d="M31 2.6659C31 2.88506 30.9568 3.10206 30.8727 3.30448C30.7887 3.5069 30.6656 3.69076 30.5104 3.84551C30.3552 4.00026 30.171 4.12287 29.9684 4.20632C29.7657 4.28976 29.5486 4.3324 29.3294 4.33178H24.3318V9.33412C24.3318 9.77594 24.1563 10.1997 23.8439 10.5121C23.5314 10.8245 23.1077 11 22.6659 11H17.6636V15.9977C17.6642 16.2166 17.6215 16.4335 17.538 16.6359C17.4545 16.8383 17.3318 17.0222 17.177 17.177C17.0222 17.3318 16.8383 17.4545 16.6359 17.538C16.4335 17.6215 16.2166 17.6642 15.9977 17.6636H11V22.6659C11 23.1077 10.8245 23.5314 10.5121 23.8439C10.1997 24.1563 9.77593 24.3318 9.33411 24.3318H2.66589C2.22407 24.3318 1.80034 24.1563 1.48793 23.8439C1.17551 23.5314 1 23.1077 1 22.6659C1 22.2241 1.17551 21.8003 1.48793 21.4879C1.80034 21.1755 2.22407 21 2.66589 21H7.66822V15.9977C7.66822 15.5559 7.84373 15.1321 8.15615 14.8197C8.46856 14.5073 8.89229 14.3318 9.33411 14.3318H14.3318V9.33412C14.3318 8.8923 14.5073 8.46857 14.8197 8.15616C15.1321 7.84374 15.5558 7.66823 15.9977 7.66823H21V2.6659C21 2.22407 21.1755 1.80035 21.4879 1.48793C21.8003 1.17552 22.2241 1.00001 22.6659 1.00001H29.3294C29.5486 0.999393 29.7657 1.04203 29.9684 1.12547C30.171 1.20892 30.3552 1.33153 30.5104 1.48628C30.6656 1.64103 30.7887 1.82489 30.8727 2.02731C30.9568 2.22973 31 2.44673 31 2.6659Z" stroke="#040000" stroke-miterlimit="10"/>
</svg>
